<?xml version="1.0" encoding="UTF-8"?>
<svg id="Ebene_1" data-name="Ebene 1" xmlns="http://www.w3.org/2000/svg" version="1.1" viewBox="0 0 26.8 29.8">
  <defs>
    <style>
      .cls-1 {
        fill: #dc0613;
        stroke-width: 0px;
      }
    </style>
  </defs>
  <path class="cls-1" d="M25.8,0H1C.5,0,0,.5,0,1v17c0,.6.2,1.2.6,1.7l7.6,9.8c.6.6,1.7.2,1.7-.7V4.7c0-1,.8-1.8,1.8-1.8h5.5c3.8,0,6.9,3.2,6.7,7-.1,3.6-3.3,6.5-6.9,6.5h-2.6c-.5,0-.9.3-1,.8,0,.4,0,.7.3,1l11.3,11.3c.2.2.5.3.7.3h0c.6,0,1-.5,1-1V1c0-.6-.5-1-1-1"/>
</svg>