<?xml version="1.0" encoding="UTF-8"?>
<svg id="Ebene_1" data-name="Ebene 1" xmlns="http://www.w3.org/2000/svg" version="1.1" viewBox="0 0 2656.7 74.6">
  <defs>
    <style>
      .cls-1 {
        fill: none;
        stroke: #000;
        stroke-miterlimit: 10;
      }
    </style>
  </defs>
  <path class="cls-1" d="M.5,14.2V2.1h64.2v12.2h-23.5v53.7h-17.2V14.2H.5Z"/>
  <path class="cls-1" d="M90.9,2.1v25.3h31.7V2.1h17.2v65.8h-17.2v-28.4h-31.7v28.4h-17.2V2.1h17.2Z"/>
  <path class="cls-1" d="M213.7,2.1v12.2h-41.4v14.1h38v11.2h-38v16.1h42.3v12.2h-59.5V2.1h58.6Z"/>
  <path class="cls-1" d="M299,2.1c3.5,0,6.7.5,9.5,1.4,2.8,1,5.2,2.3,7.2,3.9,2,1.7,3.5,3.6,4.6,5.8,1.1,2.2,1.6,4.5,1.6,7.1,0,3.9-1,7.2-2.9,10-1.9,2.8-5.1,5-9.5,6.5v.2c2.1.5,3.9,1.2,5.3,2.3,1.4,1,2.5,2.2,3.4,3.6.9,1.4,1.5,2.9,1.9,4.6.4,1.7.7,3.3.8,5,0,1,.1,2.3.2,3.7,0,1.4.2,2.9.4,4.3.2,1.5.5,2.9.9,4.2.4,1.3,1,2.4,1.8,3.4h-17.2c-1-2.1-1.5-4.6-1.8-7.5-.2-2.9-.5-5.7-1-8.3-.6-3.4-1.8-6-3.7-7.6-1.9-1.6-5-2.4-9.3-2.4h-17.2v25.7h-17.2V2.1h42.3ZM292.8,31.8c4,0,6.9-.7,8.9-2.2,2-1.5,3-3.9,3-7.2s-1-5.5-3-7c-2-1.4-4.9-2.2-8.9-2.2h-18.9v18.5h18.9Z"/>
  <path class="cls-1" d="M353.2,2.1v65.8h-17.2V2.1h17.2Z"/>
  <path class="cls-1" d="M414.8,67.4c-3.7,1.3-7.5,2-11.3,2-6,0-11.4-.9-16.2-2.6-4.8-1.8-8.8-4.2-12.1-7.2-3.3-3.1-5.8-6.7-7.6-10.8s-2.6-8.6-2.6-13.4.9-9.5,2.6-13.7c1.8-4.2,4.3-7.9,7.6-11s7.3-5.6,12.1-7.4c4.8-1.8,10.2-2.7,16.2-2.7s7.9.5,11.7,1.5c3.8,1,7.2,2.5,10.2,4.5,3,2,5.5,4.4,7.5,7.3,2,2.9,3.2,6.2,3.6,10h-16.5c-1-3.7-3-6.5-5.9-8.3-2.9-1.8-6.5-2.8-10.6-2.8s-7.2.6-9.9,1.9c-2.7,1.3-4.9,3-6.6,5.1-1.7,2.1-2.9,4.5-3.7,7.2-.8,2.7-1.2,5.5-1.2,8.4s.4,5.5,1.2,8.1c.8,2.6,2,5,3.7,7.1,1.7,2.1,3.9,3.8,6.6,5,2.7,1.3,6,1.9,9.9,1.9,5.7,0,10.1-1.2,13.2-3.6,3.1-2.4,4.9-5.9,5.4-10.6h-17.3v-10.8h32.9v35.6h-11l-1.8-7.5c-3.1,3.3-6.5,5.6-10.2,7Z"/>
  <path class="cls-1" d="M468.9,2.1v25.3h31.7V2.1h17.2v65.8h-17.2v-28.4h-31.7v28.4h-17.2V2.1h17.2Z"/>
  <path class="cls-1" d="M526.8,14.2V2.1h64.2v12.2h-23.5v53.7h-17.2V14.2h-23.5Z"/>
  <path class="cls-1" d="M685.6,2.1v12.2h-37.9v15.2h32.8v11.2h-32.8v27.2h-17.2V2.1h55.1Z"/>
  <path class="cls-1" d="M753.3,62.9c-5.9,4.3-14.1,6.5-24.6,6.5s-18.8-2.2-24.6-6.5c-5.8-4.3-8.7-10.9-8.7-19.9V2.1h17.2v40.9c0,1.8.2,3.5.5,5.3.4,1.7,1.1,3.2,2.3,4.6,1.2,1.3,2.8,2.4,4.9,3.2,2.1.8,4.9,1.2,8.4,1.2,6.1,0,10.4-1.2,12.7-3.5,2.3-2.3,3.5-5.9,3.5-10.8V2.1h17.2v40.9c0,8.9-3,15.5-8.9,19.9Z"/>
  <path class="cls-1" d="M819.2,2.1c3.5,0,6.7.5,9.5,1.4,2.8,1,5.2,2.3,7.2,3.9,2,1.7,3.5,3.6,4.6,5.8,1.1,2.2,1.6,4.5,1.6,7.1,0,3.9-1,7.2-2.9,10-1.9,2.8-5.1,5-9.5,6.5v.2c2.1.5,3.9,1.2,5.3,2.3,1.4,1,2.5,2.2,3.4,3.6.9,1.4,1.5,2.9,1.9,4.6.4,1.7.7,3.3.8,5,0,1,.1,2.3.2,3.7,0,1.4.2,2.9.4,4.3.2,1.5.5,2.9.9,4.2.4,1.3,1,2.4,1.8,3.4h-17.2c-1-2.1-1.5-4.6-1.8-7.5-.2-2.9-.5-5.7-1-8.3-.6-3.4-1.8-6-3.7-7.6-1.9-1.6-5-2.4-9.3-2.4h-17.2v25.7h-17.2V2.1h42.3ZM813.1,31.8c4,0,6.9-.7,8.9-2.2,2-1.5,3-3.9,3-7.2s-1-5.5-3-7c-2-1.4-4.9-2.2-8.9-2.2h-18.9v18.5h18.9Z"/>
  <path class="cls-1" d="M873.3,2.1l32.7,44.2h.2V2.1h16.1v65.8h-17.2l-32.6-44.1h-.2v44.1h-16.1V2.1h17.1Z"/>
  <path class="cls-1" d="M976.6,2.1l29.3,65.8h-17.9l-5.9-14.7h-29.3l-6.1,14.7h-17.3l29.6-65.8h17.7ZM977.6,42.5l-9.9-24.2h-.2l-10.2,24.2h20.3Z"/>
  <path class="cls-1" d="M1063,19.6c-1-1.4-2.3-2.6-3.8-3.6-1.5-1-3.3-1.9-5.2-2.4-1.9-.6-4-.9-6.1-.9-3.9,0-7.2.6-9.9,1.9-2.7,1.3-4.9,3-6.6,5.1-1.7,2.1-2.9,4.5-3.7,7.2-.8,2.7-1.2,5.5-1.2,8.4s.4,5.5,1.2,8.1c.8,2.6,2,5,3.7,7.1,1.7,2.1,3.9,3.8,6.6,5,2.7,1.3,6,1.9,9.9,1.9s9.4-1.4,12.3-4.1c3-2.7,4.8-6.3,5.4-10.7h16.7c-.4,4.1-1.6,7.8-3.4,11.2-1.8,3.3-4.2,6.1-7.2,8.5-3,2.3-6.5,4.1-10.5,5.3-4,1.2-8.5,1.8-13.3,1.8s-11.4-.9-16.2-2.6c-4.8-1.8-8.8-4.2-12.1-7.2-3.3-3.1-5.8-6.7-7.6-10.8-1.8-4.1-2.6-8.6-2.6-13.4s.9-9.5,2.6-13.7c1.8-4.2,4.3-7.9,7.6-11s7.3-5.6,12.1-7.4c4.8-1.8,10.2-2.7,16.2-2.7s8.4.5,12.2,1.6c3.8,1,7.3,2.6,10.3,4.6,3,2,5.5,4.5,7.5,7.4,2,3,3.2,6.3,3.7,10.1h-16.7c-.3-1.7-1-3.2-2-4.6Z"/>
  <path class="cls-1" d="M1152.7,2.1v12.2h-41.4v14.1h38v11.2h-38v16.1h42.3v12.2h-59.5V2.1h58.6Z"/>
  <path class="cls-1" d="M1250.8,2.1v12.2h-37.9v15.2h32.8v11.2h-32.8v27.2h-17.2V2.1h55.1Z"/>
  <path class="cls-1" d="M1260,21.6c1.8-4.2,4.3-7.9,7.6-11s7.3-5.6,12.1-7.4c4.8-1.8,10.2-2.7,16.2-2.7s11.5.9,16.2,2.7c4.8,1.8,8.8,4.2,12.1,7.4s5.8,6.8,7.6,11c1.8,4.2,2.6,8.8,2.6,13.7s-.9,9.3-2.6,13.4c-1.8,4.1-4.3,7.8-7.6,10.8-3.3,3.1-7.3,5.5-12.1,7.2-4.8,1.8-10.2,2.6-16.2,2.6s-11.4-.9-16.2-2.6c-4.8-1.8-8.8-4.2-12.1-7.2-3.3-3.1-5.8-6.7-7.6-10.8-1.8-4.1-2.6-8.6-2.6-13.4s.9-9.5,2.6-13.7ZM1275.8,43.3c.8,2.6,2,5,3.7,7.1,1.7,2.1,3.9,3.8,6.6,5,2.7,1.3,6,1.9,9.9,1.9s7.2-.6,9.9-1.9c2.7-1.3,4.9-2.9,6.6-5,1.7-2.1,2.9-4.4,3.7-7.1.8-2.6,1.2-5.3,1.2-8.1s-.4-5.7-1.2-8.4c-.8-2.7-2-5.1-3.7-7.2-1.7-2.1-3.9-3.8-6.6-5.1-2.7-1.3-6-1.9-9.9-1.9s-7.2.6-9.9,1.9c-2.7,1.3-4.9,3-6.6,5.1-1.7,2.1-2.9,4.5-3.7,7.2-.8,2.7-1.2,5.5-1.2,8.4s.4,5.5,1.2,8.1Z"/>
  <path class="cls-1" d="M1388.5,2.1c3.5,0,6.7.5,9.5,1.4,2.8,1,5.2,2.3,7.2,3.9,2,1.7,3.5,3.6,4.6,5.8,1.1,2.2,1.6,4.5,1.6,7.1,0,3.9-1,7.2-2.9,10-1.9,2.8-5.1,5-9.5,6.5v.2c2.1.5,3.9,1.2,5.3,2.3,1.4,1,2.5,2.2,3.4,3.6.9,1.4,1.5,2.9,1.9,4.6.4,1.7.7,3.3.8,5,0,1,.1,2.3.2,3.7,0,1.4.2,2.9.4,4.3.2,1.5.5,2.9.9,4.2.4,1.3,1,2.4,1.8,3.4h-17.2c-1-2.1-1.5-4.6-1.8-7.5-.2-2.9-.5-5.7-1-8.3-.6-3.4-1.8-6-3.7-7.6-1.9-1.6-5-2.4-9.3-2.4h-17.2v25.7h-17.2V2.1h42.3ZM1382.3,31.8c4,0,6.9-.7,8.9-2.2,2-1.5,3-3.9,3-7.2s-1-5.5-3-7c-2-1.4-4.9-2.2-8.9-2.2h-18.9v18.5h18.9Z"/>
  <path class="cls-1" d="M1514.6,2.1v12.2h-41.4v14.1h38v11.2h-38v16.1h42.3v12.2h-59.5V2.1h58.6Z"/>
  <path class="cls-1" d="M1544.1,67.9l-25.4-65.8h17.7l17.5,46.3h.2l17.7-46.3h17.8l-26,65.8h-19.4Z"/>
  <path class="cls-1" d="M1654.9,2.1v12.2h-41.4v14.1h38v11.2h-38v16.1h42.3v12.2h-59.5V2.1h58.6Z"/>
  <path class="cls-1" d="M1709.6,2.1c3.5,0,6.7.5,9.5,1.4,2.8,1,5.2,2.3,7.2,3.9,2,1.7,3.5,3.6,4.6,5.8,1.1,2.2,1.6,4.5,1.6,7.1,0,3.9-1,7.2-2.9,10-1.9,2.8-5.1,5-9.5,6.5v.2c2.1.5,3.9,1.2,5.3,2.3,1.4,1,2.5,2.2,3.4,3.6.9,1.4,1.5,2.9,1.9,4.6.4,1.7.7,3.3.8,5,0,1,.1,2.3.2,3.7,0,1.4.2,2.9.4,4.3.2,1.5.5,2.9.9,4.2.4,1.3,1,2.4,1.8,3.4h-17.2c-1-2.1-1.5-4.6-1.8-7.5-.2-2.9-.5-5.7-1-8.3-.6-3.4-1.8-6-3.7-7.6-1.9-1.6-5-2.4-9.3-2.4h-17.2v25.7h-17.2V2.1h42.3ZM1703.5,31.8c4,0,6.9-.7,8.9-2.2,2-1.5,3-3.9,3-7.2s-1-5.5-3-7c-2-1.4-4.9-2.2-8.9-2.2h-18.9v18.5h18.9Z"/>
  <path class="cls-1" d="M1734.1,2.1h19.3l18.3,26,18.2-26h19.2l-29.1,40.6v25.3h-17.2v-25.6l-28.8-40.2Z"/>
  <path class="cls-1" d="M1888.6,2.1c3.5,0,6.7.5,9.5,1.4,2.8,1,5.2,2.3,7.2,3.9,2,1.7,3.5,3.6,4.6,5.8,1.1,2.2,1.6,4.5,1.6,7.1,0,3.9-1,7.2-2.9,10-1.9,2.8-5.1,5-9.5,6.5v.2c2.1.5,3.9,1.2,5.3,2.3,1.4,1,2.5,2.2,3.4,3.6.9,1.4,1.5,2.9,1.9,4.6.4,1.7.7,3.3.8,5,0,1,.1,2.3.2,3.7,0,1.4.2,2.9.4,4.3.2,1.5.5,2.9.9,4.2.4,1.3,1,2.4,1.8,3.4h-17.2c-1-2.1-1.5-4.6-1.8-7.5-.2-2.9-.5-5.7-1-8.3-.6-3.4-1.8-6-3.7-7.6-1.9-1.6-5-2.4-9.3-2.4h-17.2v25.7h-17.2V2.1h42.3ZM1882.4,31.8c4,0,6.9-.7,8.9-2.2,2-1.5,3-3.9,3-7.2s-1-5.5-3-7c-2-1.4-4.9-2.2-8.9-2.2h-18.9v18.5h18.9Z"/>
  <path class="cls-1" d="M1984.2,2.1v12.2h-41.4v14.1h38v11.2h-38v16.1h42.3v12.2h-59.5V2.1h58.6Z"/>
  <path class="cls-1" d="M2050.8,65.6c-5.2,2.5-11.5,3.8-19,3.8s-11.4-.9-16.2-2.6c-4.8-1.8-8.8-4.2-12.1-7.2-3.3-3.1-5.8-6.7-7.6-10.8-1.8-4.1-2.6-8.6-2.6-13.4s.9-9.5,2.6-13.7c1.8-4.2,4.3-7.9,7.6-11s7.3-5.6,12.1-7.4c4.8-1.8,10.2-2.7,16.2-2.7s11.5.9,16.2,2.7c4.8,1.8,8.8,4.2,12.1,7.4s5.8,6.8,7.6,11c1.8,4.2,2.6,8.8,2.6,13.7s-.9,9.3-2.6,13.4c-1.8,4.1-4.3,7.7-7.6,10.9l9.8,7.5-8,7-11.1-8.4ZM2048.3,50.4c1.5-1.7,2.6-3.7,3.5-6.2.9-2.5,1.3-5.4,1.3-8.9s-.4-5.7-1.2-8.4c-.8-2.7-2-5.1-3.7-7.2-1.7-2.1-3.9-3.8-6.6-5.1-2.7-1.3-6-1.9-9.9-1.9s-7.2.6-9.9,1.9c-2.7,1.3-4.9,3-6.6,5.1-1.7,2.1-2.9,4.5-3.7,7.2-.8,2.7-1.2,5.5-1.2,8.4s.4,5.5,1.2,8.1c.8,2.6,2,5,3.7,7.1,1.7,2.1,3.9,3.8,6.6,5,2.7,1.3,6,1.9,9.9,1.9s3.2,0,4.2-.2c1-.1,1.9-.4,2.7-.7l-7.4-5.6,8-7.2,8.9,6.8Z"/>
  <path class="cls-1" d="M2139.7,62.9c-5.9,4.3-14.1,6.5-24.6,6.5s-18.8-2.2-24.6-6.5c-5.8-4.3-8.7-10.9-8.7-19.9V2.1h17.2v40.9c0,1.8.2,3.5.5,5.3.4,1.7,1.1,3.2,2.3,4.6,1.2,1.3,2.8,2.4,4.9,3.2,2.1.8,4.9,1.2,8.4,1.2,6.1,0,10.4-1.2,12.7-3.5,2.3-2.3,3.5-5.9,3.5-10.8V2.1h17.2v40.9c0,8.9-3,15.5-8.9,19.9Z"/>
  <path class="cls-1" d="M2180.6,2.1v65.8h-17.2V2.1h17.2Z"/>
  <path class="cls-1" d="M2238,2.1c3.5,0,6.7.5,9.5,1.4,2.8,1,5.2,2.3,7.2,3.9,2,1.7,3.5,3.6,4.6,5.8,1.1,2.2,1.6,4.5,1.6,7.1,0,3.9-1,7.2-2.9,10-1.9,2.8-5.1,5-9.5,6.5v.2c2.1.5,3.9,1.2,5.3,2.3,1.4,1,2.5,2.2,3.4,3.6.9,1.4,1.5,2.9,1.9,4.6.4,1.7.7,3.3.8,5,0,1,.1,2.3.2,3.7,0,1.4.2,2.9.4,4.3.2,1.5.5,2.9.9,4.2.4,1.3,1,2.4,1.8,3.4h-17.2c-1-2.1-1.5-4.6-1.8-7.5-.2-2.9-.5-5.7-1-8.3-.6-3.4-1.8-6-3.7-7.6-1.9-1.6-5-2.4-9.3-2.4h-17.2v25.7h-17.2V2.1h42.3ZM2231.9,31.8c4,0,6.9-.7,8.9-2.2,2-1.5,3-3.9,3-7.2s-1-5.5-3-7c-2-1.4-4.9-2.2-8.9-2.2h-18.9v18.5h18.9Z"/>
  <path class="cls-1" d="M2333.6,2.1v12.2h-41.4v14.1h38v11.2h-38v16.1h42.3v12.2h-59.5V2.1h58.6Z"/>
  <path class="cls-1" d="M2370.4,2.1l18.3,45.3h.2l17.3-45.3h24.3v65.8h-16.1V21.2h-.2l-19.2,46.7h-13.3l-19.2-46.2h-.2v46.2h-16.1V2.1h24.3Z"/>
  <path class="cls-1" d="M2504.3,2.1v12.2h-41.4v14.1h38v11.2h-38v16.1h42.3v12.2h-59.5V2.1h58.6Z"/>
  <path class="cls-1" d="M2534,2.1l32.7,44.2h.2V2.1h16.1v65.8h-17.2l-32.6-44.1h-.2v44.1h-16.1V2.1h17.1Z"/>
  <path class="cls-1" d="M2592,14.2V2.1h64.2v12.2h-23.5v53.7h-17.2V14.2h-23.5Z"/>
</svg>