<?xml version="1.0" encoding="UTF-8"?>
<svg id="Ebene_1" data-name="Ebene 1" xmlns="http://www.w3.org/2000/svg" version="1.1" viewBox="0 0 5717.8 69.9">
  <defs>
    <style>
      .cls-1 {
        fill: none;
        stroke: #fff;
        stroke-miterlimit: 10;
      }
    </style>
  </defs>
  <path class="cls-1" d="M34.3,2.1c5,0,9.8.7,14.1,2,4.4,1.4,8.1,3.4,11.3,6.1,3.2,2.7,5.7,6.1,7.5,10.1,1.8,4.1,2.7,8.8,2.7,14.3s-.7,9.2-2.2,13.3c-1.5,4.1-3.7,7.6-6.6,10.5-3,3-6.7,5.3-11.1,7-4.4,1.7-9.6,2.5-15.6,2.5H.5V2.1h33.8ZM33.1,55.7c2.5,0,4.9-.3,7.2-1,2.3-.7,4.4-1.8,6.3-3.4,1.8-1.6,3.3-3.6,4.4-6.1,1.1-2.5,1.6-5.6,1.6-9.2s-.4-6.3-1.2-9c-.8-2.7-2-5-3.8-6.9-1.8-1.9-4.1-3.4-7-4.4-2.9-1-6.5-1.5-10.7-1.5h-12.3v41.5h15.4Z"/>
  <path class="cls-1" d="M124.1,2.1c3.5,0,6.7.5,9.5,1.4,2.8,1,5.2,2.3,7.2,3.9,2,1.7,3.5,3.6,4.6,5.8,1.1,2.2,1.6,4.5,1.6,7.1,0,3.9-1,7.2-2.9,10-1.9,2.8-5.1,5-9.5,6.5v.2c2.1.5,3.9,1.2,5.3,2.3,1.4,1,2.5,2.2,3.4,3.6.9,1.4,1.5,2.9,1.9,4.6.4,1.7.7,3.3.8,5,0,1,.1,2.3.2,3.7,0,1.4.2,2.9.4,4.3.2,1.5.5,2.9.9,4.2.4,1.3,1,2.4,1.8,3.4h-17.2c-1-2.1-1.5-4.6-1.8-7.5-.2-2.9-.5-5.7-1-8.3-.6-3.4-1.8-6-3.7-7.6-1.9-1.6-5-2.4-9.3-2.4h-17.2v25.7h-17.2V2.1h42.3ZM117.9,31.8c4,0,6.9-.7,8.9-2.2,2-1.5,3-3.9,3-7.2s-1-5.5-3-7c-2-1.4-4.9-2.2-8.9-2.2h-18.9v18.5h18.9Z"/>
  <path class="cls-1" d="M218.7,62.9c-5.9,4.3-14.1,6.5-24.6,6.5s-18.8-2.2-24.6-6.5c-5.8-4.3-8.7-10.9-8.7-19.9V2.1h17.2v40.9c0,1.8.2,3.5.5,5.3.4,1.7,1.1,3.2,2.3,4.6,1.2,1.3,2.8,2.4,4.9,3.2s4.9,1.2,8.4,1.2c6.1,0,10.4-1.2,12.7-3.5,2.3-2.3,3.5-5.9,3.5-10.8V2.1h17.2v40.9c0,8.9-3,15.5-8.9,19.9Z"/>
  <path class="cls-1" d="M292.7,19.6c-1-1.4-2.3-2.6-3.8-3.6-1.5-1-3.3-1.9-5.2-2.4-1.9-.6-4-.9-6.1-.9-3.9,0-7.2.6-9.9,1.9-2.7,1.3-4.9,3-6.6,5.1-1.7,2.1-2.9,4.5-3.7,7.2-.8,2.7-1.2,5.5-1.2,8.4s.4,5.5,1.2,8.1c.8,2.6,2,5,3.7,7.1,1.7,2.1,3.9,3.8,6.6,5,2.7,1.3,6,1.9,9.9,1.9s9.4-1.4,12.3-4.1c3-2.7,4.8-6.3,5.4-10.7h16.7c-.4,4.1-1.6,7.8-3.4,11.2-1.8,3.3-4.2,6.1-7.2,8.5-3,2.3-6.5,4.1-10.5,5.3-4,1.2-8.5,1.8-13.3,1.8s-11.4-.9-16.2-2.6c-4.8-1.8-8.8-4.2-12.1-7.2-3.3-3.1-5.8-6.7-7.6-10.8-1.8-4.1-2.6-8.6-2.6-13.4s.9-9.5,2.6-13.7c1.8-4.2,4.3-7.9,7.6-11s7.3-5.6,12.1-7.4c4.8-1.8,10.2-2.7,16.2-2.7s8.4.5,12.2,1.6c3.8,1,7.3,2.6,10.3,4.6,3,2,5.5,4.5,7.5,7.4,2,3,3.2,6.3,3.7,10.1h-16.7c-.3-1.7-1-3.2-2-4.6Z"/>
  <path class="cls-1" d="M341,2.1v27.3l30.6-27.3h21.5l-30.6,26,33.6,39.8h-21.6l-23.6-29.6-9.9,8.4v21.2h-17.2V2.1h17.2Z"/>
  <path class="cls-1" d="M449.4,67.4c-3.7,1.3-7.5,2-11.3,2-6,0-11.4-.9-16.2-2.6-4.8-1.8-8.8-4.2-12.1-7.2-3.3-3.1-5.8-6.7-7.6-10.8-1.8-4.1-2.6-8.6-2.6-13.4s.9-9.5,2.6-13.7c1.8-4.2,4.3-7.9,7.6-11s7.3-5.6,12.1-7.4c4.8-1.8,10.2-2.7,16.2-2.7s7.9.5,11.7,1.5c3.8,1,7.2,2.5,10.2,4.5,3,2,5.5,4.4,7.5,7.3,2,2.9,3.2,6.2,3.6,10h-16.5c-1-3.7-3-6.5-5.9-8.3-2.9-1.8-6.5-2.8-10.6-2.8s-7.2.6-9.9,1.9c-2.7,1.3-4.9,3-6.6,5.1-1.7,2.1-2.9,4.5-3.7,7.2-.8,2.7-1.2,5.5-1.2,8.4s.4,5.5,1.2,8.1c.8,2.6,2,5,3.7,7.1,1.7,2.1,3.9,3.8,6.6,5,2.7,1.3,6,1.9,9.9,1.9,5.7,0,10.1-1.2,13.2-3.6,3.1-2.4,4.9-5.9,5.4-10.6h-17.3v-10.8h32.9v35.6h-11l-1.8-7.5c-3.1,3.3-6.5,5.6-10.2,7Z"/>
  <path class="cls-1" d="M543.9,62.9c-5.9,4.3-14.1,6.5-24.6,6.5s-18.8-2.2-24.6-6.5c-5.8-4.3-8.7-10.9-8.7-19.9V2.1h17.2v40.9c0,1.8.2,3.5.5,5.3.4,1.7,1.1,3.2,2.3,4.6,1.2,1.3,2.8,2.4,4.9,3.2,2.1.8,4.9,1.2,8.4,1.2,6.1,0,10.4-1.2,12.7-3.5,2.3-2.3,3.5-5.9,3.5-10.8V2.1h17.2v40.9c0,8.9-3,15.5-8.9,19.9Z"/>
  <path class="cls-1" d="M580.8,51.7c1,1.5,2.2,2.8,3.8,3.7,1.6,1,3.4,1.7,5.5,2.1,2.1.5,4.3.7,6.6.7s3.2-.1,4.9-.3c1.8-.2,3.4-.6,4.9-1.2,1.5-.6,2.8-1.5,3.8-2.5,1-1.1,1.5-2.4,1.5-4.1s-.7-3.2-2-4.3c-1.4-1.1-3.1-2-5.3-2.8s-4.7-1.4-7.5-1.9c-2.8-.6-5.6-1.2-8.5-1.8-2.9-.6-5.8-1.4-8.6-2.3-2.8-.9-5.3-2-7.5-3.5-2.2-1.4-4-3.2-5.3-5.3-1.4-2.1-2-4.7-2-7.7s.9-6.3,2.6-8.8c1.7-2.5,4-4.6,6.8-6.2,2.8-1.7,5.9-2.9,9.4-3.7,3.5-.8,7-1.2,10.5-1.2s8,.4,11.8,1.2c3.8.8,7.1,2,10,3.7,2.9,1.7,5.2,3.9,7,6.6,1.7,2.7,2.6,5.9,2.6,9.7h-16.7c-.1-2-.6-3.6-1.5-4.9-.8-1.3-2-2.3-3.3-3-1.4-.7-3-1.3-4.8-1.6-1.8-.3-3.8-.5-5.9-.5s-2.8.1-4.2.4c-1.4.2-2.7.7-3.8,1.3-1.1.6-2.1,1.4-2.8,2.3-.7.9-1.1,2.1-1.1,3.5s.3,2.3.9,3.1c.6.8,1.7,1.5,3.5,2.2,1.7.7,4.1,1.4,7.1,2,3,.7,7,1.5,11.9,2.6,1.5.2,3.5.7,6.1,1.3,2.6.6,5.2,1.7,7.7,3.1,2.6,1.4,4.8,3.3,6.6,5.7,1.9,2.4,2.8,5.4,2.8,9.1s-.7,5.8-2.1,8.4c-1.4,2.6-3.5,4.8-6.2,6.7-2.7,1.9-6.1,3.3-10.2,4.4-4.1,1-8.8,1.6-14.1,1.6s-8.5-.4-12.6-1.3-7.6-2.3-10.8-4.2c-3.1-1.9-5.6-4.3-7.4-7.3-1.8-3-2.7-6.5-2.6-10.5h16.7c0,2.2.5,4.1,1.4,5.6Z"/>
  <path class="cls-1" d="M652.1,51.7c1,1.5,2.2,2.8,3.8,3.7,1.6,1,3.4,1.7,5.5,2.1,2.1.5,4.3.7,6.6.7s3.2-.1,4.9-.3c1.8-.2,3.4-.6,4.9-1.2,1.5-.6,2.8-1.5,3.8-2.5,1-1.1,1.5-2.4,1.5-4.1s-.7-3.2-2-4.3c-1.4-1.1-3.1-2-5.3-2.8s-4.7-1.4-7.5-1.9c-2.8-.6-5.6-1.2-8.5-1.8-2.9-.6-5.8-1.4-8.6-2.3-2.8-.9-5.3-2-7.5-3.5-2.2-1.4-4-3.2-5.3-5.3-1.4-2.1-2-4.7-2-7.7s.9-6.3,2.6-8.8c1.7-2.5,4-4.6,6.8-6.2,2.8-1.7,5.9-2.9,9.4-3.7,3.5-.8,7-1.2,10.5-1.2s8,.4,11.8,1.2c3.8.8,7.1,2,10,3.7,2.9,1.7,5.2,3.9,7,6.6,1.7,2.7,2.6,5.9,2.6,9.7h-16.7c-.1-2-.6-3.6-1.5-4.9-.8-1.3-2-2.3-3.3-3-1.4-.7-3-1.3-4.8-1.6-1.8-.3-3.8-.5-5.9-.5s-2.8.1-4.2.4c-1.4.2-2.7.7-3.8,1.3-1.1.6-2.1,1.4-2.8,2.3-.7.9-1.1,2.1-1.1,3.5s.3,2.3.9,3.1c.6.8,1.7,1.5,3.5,2.2,1.7.7,4.1,1.4,7.1,2,3,.7,7,1.5,11.9,2.6,1.5.2,3.5.7,6.1,1.3,2.6.6,5.2,1.7,7.7,3.1,2.6,1.4,4.8,3.3,6.6,5.7s2.8,5.4,2.8,9.1-.7,5.8-2.1,8.4c-1.4,2.6-3.5,4.8-6.2,6.7-2.7,1.9-6.1,3.3-10.2,4.4-4.1,1-8.8,1.6-14.1,1.6s-8.5-.4-12.6-1.3c-4.1-.9-7.6-2.3-10.8-4.2-3.1-1.9-5.6-4.3-7.4-7.3-1.8-3-2.7-6.5-2.6-10.5h16.7c0,2.2.5,4.1,1.4,5.6Z"/>
  <path class="cls-1" d="M782.9,2.1c3.5,0,6.7.5,9.5,1.4,2.8,1,5.2,2.3,7.2,3.9,2,1.7,3.5,3.6,4.6,5.8,1.1,2.2,1.6,4.5,1.6,7.1,0,3.9-1,7.2-2.9,10-1.9,2.8-5.1,5-9.5,6.5v.2c2.1.5,3.9,1.2,5.3,2.3,1.4,1,2.5,2.2,3.4,3.6.9,1.4,1.5,2.9,1.9,4.6.4,1.7.7,3.3.8,5,0,1,.1,2.3.2,3.7,0,1.4.2,2.9.4,4.3.2,1.5.5,2.9.9,4.2.4,1.3,1,2.4,1.8,3.4h-17.2c-1-2.1-1.5-4.6-1.8-7.5-.2-2.9-.5-5.7-1-8.3-.6-3.4-1.8-6-3.7-7.6-1.9-1.6-5-2.4-9.3-2.4h-17.2v25.7h-17.2V2.1h42.3ZM776.8,31.8c4,0,6.9-.7,8.9-2.2s3-3.9,3-7.2-1-5.5-3-7c-2-1.4-4.9-2.2-8.9-2.2h-18.9v18.5h18.9Z"/>
  <path class="cls-1" d="M878.5,2.1v12.2h-41.4v14.1h38v11.2h-38v16.1h42.3v12.2h-59.5V2.1h58.6Z"/>
  <path class="cls-1" d="M941.3,19.6c-1-1.4-2.3-2.6-3.8-3.6-1.5-1-3.3-1.9-5.2-2.4-1.9-.6-4-.9-6.1-.9-3.9,0-7.2.6-9.9,1.9-2.7,1.3-4.9,3-6.6,5.1-1.7,2.1-2.9,4.5-3.7,7.2-.8,2.7-1.2,5.5-1.2,8.4s.4,5.5,1.2,8.1c.8,2.6,2,5,3.7,7.1,1.7,2.1,3.9,3.8,6.6,5,2.7,1.3,6,1.9,9.9,1.9s9.4-1.4,12.3-4.1c3-2.7,4.8-6.3,5.4-10.7h16.7c-.4,4.1-1.6,7.8-3.4,11.2-1.8,3.3-4.2,6.1-7.2,8.5-3,2.3-6.5,4.1-10.5,5.3-4,1.2-8.5,1.8-13.3,1.8s-11.4-.9-16.2-2.6c-4.8-1.8-8.8-4.2-12.1-7.2-3.3-3.1-5.8-6.7-7.6-10.8-1.8-4.1-2.6-8.6-2.6-13.4s.9-9.5,2.6-13.7c1.8-4.2,4.3-7.9,7.6-11s7.3-5.6,12.1-7.4c4.8-1.8,10.2-2.7,16.2-2.7s8.4.5,12.2,1.6c3.8,1,7.3,2.6,10.3,4.6,3,2,5.5,4.5,7.5,7.4,2,3,3.2,6.3,3.7,10.1h-16.7c-.3-1.7-1-3.2-2-4.6Z"/>
  <path class="cls-1" d="M963.9,2.1h19.3l18.3,26,18.2-26h19.2l-29.1,40.6v25.3h-17.2v-25.6l-28.8-40.2Z"/>
  <path class="cls-1" d="M1095.8,19.6c-1-1.4-2.3-2.6-3.8-3.6-1.5-1-3.3-1.9-5.2-2.4-1.9-.6-4-.9-6.1-.9-3.9,0-7.2.6-9.9,1.9-2.7,1.3-4.9,3-6.6,5.1-1.7,2.1-2.9,4.5-3.7,7.2-.8,2.7-1.2,5.5-1.2,8.4s.4,5.5,1.2,8.1c.8,2.6,2,5,3.7,7.1,1.7,2.1,3.9,3.8,6.6,5,2.7,1.3,6,1.9,9.9,1.9s9.4-1.4,12.3-4.1c3-2.7,4.8-6.3,5.4-10.7h16.7c-.4,4.1-1.6,7.8-3.4,11.2-1.8,3.3-4.2,6.1-7.2,8.5-3,2.3-6.5,4.1-10.5,5.3-4,1.2-8.5,1.8-13.3,1.8s-11.4-.9-16.2-2.6c-4.8-1.8-8.8-4.2-12.1-7.2-3.3-3.1-5.8-6.7-7.6-10.8-1.8-4.1-2.6-8.6-2.6-13.4s.9-9.5,2.6-13.7c1.8-4.2,4.3-7.9,7.6-11s7.3-5.6,12.1-7.4c4.8-1.8,10.2-2.7,16.2-2.7s8.4.5,12.2,1.6c3.8,1,7.3,2.6,10.3,4.6,3,2,5.5,4.5,7.5,7.4s3.2,6.3,3.7,10.1h-16.7c-.3-1.7-1-3.2-2-4.6Z"/>
  <path class="cls-1" d="M1144.1,2.1v53.7h38.2v12.2h-55.4V2.1h17.2Z"/>
  <path class="cls-1" d="M1209.2,2.1v65.8h-17.2V2.1h17.2Z"/>
  <path class="cls-1" d="M1241.5,2.1l32.7,44.2h.2V2.1h16.1v65.8h-17.2l-32.6-44.1h-.2v44.1h-16.1V2.1h17.1Z"/>
  <path class="cls-1" d="M1352.1,67.4c-3.7,1.3-7.5,2-11.3,2-6,0-11.4-.9-16.2-2.6-4.8-1.8-8.8-4.2-12.1-7.2-3.3-3.1-5.8-6.7-7.6-10.8-1.8-4.1-2.6-8.6-2.6-13.4s.9-9.5,2.6-13.7c1.8-4.2,4.3-7.9,7.6-11s7.3-5.6,12.1-7.4c4.8-1.8,10.2-2.7,16.2-2.7s7.9.5,11.7,1.5c3.8,1,7.2,2.5,10.2,4.5,3,2,5.5,4.4,7.5,7.3,2,2.9,3.2,6.2,3.6,10h-16.5c-1-3.7-3-6.5-5.9-8.3-2.9-1.8-6.5-2.8-10.6-2.8s-7.2.6-9.9,1.9c-2.7,1.3-4.9,3-6.6,5.1-1.7,2.1-2.9,4.5-3.7,7.2-.8,2.7-1.2,5.5-1.2,8.4s.4,5.5,1.2,8.1c.8,2.6,2,5,3.7,7.1,1.7,2.1,3.9,3.8,6.6,5,2.7,1.3,6,1.9,9.9,1.9,5.7,0,10.1-1.2,13.2-3.6,3.1-2.4,4.9-5.9,5.4-10.6h-17.3v-10.8h32.9v35.6h-11l-1.8-7.5c-3.1,3.3-6.5,5.6-10.2,7Z"/>
  <path class="cls-1" d="M1458.6,2.1l29.3,65.8h-17.9l-5.9-14.7h-29.3l-6.1,14.7h-17.3l29.6-65.8h17.7ZM1459.6,42.5l-9.9-24.2h-.2l-10.2,24.2h20.3Z"/>
  <path class="cls-1" d="M1512,2.1v53.7h38.2v12.2h-55.4V2.1h17.2Z"/>
  <path class="cls-1" d="M1577,2.1v53.7h38.2v12.2h-55.4V2.1h17.2Z"/>
  <path class="cls-1" d="M1624.1,21.6c1.8-4.2,4.3-7.9,7.6-11s7.3-5.6,12.1-7.4c4.8-1.8,10.2-2.7,16.2-2.7s11.5.9,16.2,2.7c4.8,1.8,8.8,4.2,12.1,7.4s5.8,6.8,7.6,11c1.8,4.2,2.6,8.8,2.6,13.7s-.9,9.3-2.6,13.4-4.3,7.8-7.6,10.8c-3.3,3.1-7.3,5.5-12.1,7.2-4.8,1.8-10.2,2.6-16.2,2.6s-11.4-.9-16.2-2.6c-4.8-1.8-8.8-4.2-12.1-7.2-3.3-3.1-5.8-6.7-7.6-10.8-1.8-4.1-2.6-8.6-2.6-13.4s.9-9.5,2.6-13.7ZM1639.9,43.3c.8,2.6,2,5,3.7,7.1,1.7,2.1,3.9,3.8,6.6,5,2.7,1.3,6,1.9,9.9,1.9s7.2-.6,9.9-1.9c2.7-1.3,4.9-2.9,6.6-5,1.7-2.1,2.9-4.4,3.7-7.1.8-2.6,1.2-5.3,1.2-8.1s-.4-5.7-1.2-8.4c-.8-2.7-2-5.1-3.7-7.2-1.7-2.1-3.9-3.8-6.6-5.1-2.7-1.3-6-1.9-9.9-1.9s-7.2.6-9.9,1.9c-2.7,1.3-4.9,3-6.6,5.1-1.7,2.1-2.9,4.5-3.7,7.2-.8,2.7-1.2,5.5-1.2,8.4s.4,5.5,1.2,8.1Z"/>
  <path class="cls-1" d="M1701.8,2.1h19.3l18.3,26,18.2-26h19.2l-29.1,40.6v25.3h-17.2v-25.6l-28.8-40.2Z"/>
  <path class="cls-1" d="M1800.7,2.1v65.8h-17.2V2.1h17.2Z"/>
  <path class="cls-1" d="M1833,2.1l32.7,44.2h.2V2.1h16.1v65.8h-17.2l-32.6-44.1h-.2v44.1h-16.1V2.1h17.1Z"/>
  <path class="cls-1" d="M1943.7,67.4c-3.7,1.3-7.5,2-11.3,2-6,0-11.4-.9-16.2-2.6-4.8-1.8-8.8-4.2-12.1-7.2-3.3-3.1-5.8-6.7-7.6-10.8-1.8-4.1-2.6-8.6-2.6-13.4s.9-9.5,2.6-13.7c1.8-4.2,4.3-7.9,7.6-11s7.3-5.6,12.1-7.4c4.8-1.8,10.2-2.7,16.2-2.7s7.9.5,11.7,1.5c3.8,1,7.2,2.5,10.2,4.5,3,2,5.5,4.4,7.5,7.3,2,2.9,3.2,6.2,3.6,10h-16.5c-1-3.7-3-6.5-5.9-8.3-2.9-1.8-6.5-2.8-10.6-2.8s-7.2.6-9.9,1.9c-2.7,1.3-4.9,3-6.6,5.1-1.7,2.1-2.9,4.5-3.7,7.2-.8,2.7-1.2,5.5-1.2,8.4s.4,5.5,1.2,8.1c.8,2.6,2,5,3.7,7.1,1.7,2.1,3.9,3.8,6.6,5,2.7,1.3,6,1.9,9.9,1.9,5.7,0,10.1-1.2,13.2-3.6,3.1-2.4,4.9-5.9,5.4-10.6h-17.3v-10.8h32.9v35.6h-11l-1.8-7.5c-3.1,3.3-6.5,5.6-10.2,7Z"/>
  <path class="cls-1" d="M2024.2,51.7c1,1.5,2.2,2.8,3.8,3.7,1.6,1,3.4,1.7,5.5,2.1,2.1.5,4.3.7,6.6.7s3.2-.1,4.9-.3c1.8-.2,3.4-.6,4.9-1.2,1.5-.6,2.8-1.5,3.8-2.5,1-1.1,1.5-2.4,1.5-4.1s-.7-3.2-2-4.3c-1.4-1.1-3.1-2-5.3-2.8s-4.7-1.4-7.5-1.9c-2.8-.6-5.6-1.2-8.5-1.8-2.9-.6-5.8-1.4-8.6-2.3-2.8-.9-5.3-2-7.5-3.5-2.2-1.4-4-3.2-5.3-5.3-1.4-2.1-2-4.7-2-7.7s.9-6.3,2.6-8.8c1.7-2.5,4-4.6,6.8-6.2,2.8-1.7,5.9-2.9,9.4-3.7,3.5-.8,7-1.2,10.5-1.2s8,.4,11.8,1.2c3.8.8,7.1,2,10,3.7,2.9,1.7,5.2,3.9,7,6.6,1.7,2.7,2.6,5.9,2.6,9.7h-16.7c-.1-2-.6-3.6-1.5-4.9-.8-1.3-2-2.3-3.3-3-1.4-.7-3-1.3-4.8-1.6-1.8-.3-3.8-.5-5.9-.5s-2.8.1-4.2.4c-1.4.2-2.7.7-3.8,1.3-1.1.6-2.1,1.4-2.8,2.3-.7.9-1.1,2.1-1.1,3.5s.3,2.3.9,3.1c.6.8,1.7,1.5,3.5,2.2,1.7.7,4.1,1.4,7.1,2,3,.7,7,1.5,11.9,2.6,1.5.2,3.5.7,6.1,1.3,2.6.6,5.2,1.7,7.7,3.1,2.6,1.4,4.8,3.3,6.6,5.7s2.8,5.4,2.8,9.1-.7,5.8-2.1,8.4c-1.4,2.6-3.5,4.8-6.2,6.7-2.7,1.9-6.1,3.3-10.2,4.4-4.1,1-8.8,1.6-14.1,1.6s-8.5-.4-12.6-1.3c-4.1-.9-7.6-2.3-10.8-4.2-3.1-1.9-5.6-4.3-7.4-7.3-1.8-3-2.7-6.5-2.6-10.5h16.7c0,2.2.5,4.1,1.4,5.6Z"/>
  <path class="cls-1" d="M2121.4,2.1l29.3,65.8h-17.9l-5.9-14.7h-29.3l-6.1,14.7h-17.3l29.6-65.8h17.7ZM2122.3,42.5l-9.9-24.2h-.2l-10.2,24.2h20.3Z"/>
  <path class="cls-1" d="M2174.6,2.1l32.7,44.2h.2V2.1h16.1v65.8h-17.2l-32.6-44.1h-.2v44.1h-16.1V2.1h17.1Z"/>
  <path class="cls-1" d="M2272.6,2.1c5,0,9.8.7,14.1,2,4.4,1.4,8.1,3.4,11.3,6.1,3.2,2.7,5.7,6.1,7.5,10.1,1.8,4.1,2.7,8.8,2.7,14.3s-.7,9.2-2.2,13.3c-1.5,4.1-3.7,7.6-6.6,10.5-3,3-6.7,5.3-11.1,7-4.4,1.7-9.6,2.5-15.6,2.5h-33.8V2.1h33.8ZM2271.4,55.7c2.5,0,4.9-.3,7.2-1,2.3-.7,4.4-1.8,6.3-3.4,1.8-1.6,3.3-3.6,4.4-6.1,1.1-2.5,1.6-5.6,1.6-9.2s-.4-6.3-1.2-9c-.8-2.7-2-5-3.8-6.9-1.8-1.9-4.1-3.4-7-4.4-2.9-1-6.5-1.5-10.7-1.5h-12.3v41.5h15.4Z"/>
  <path class="cls-1" d="M2366.6,67.4c-3.7,1.3-7.5,2-11.3,2-6,0-11.4-.9-16.2-2.6-4.8-1.8-8.8-4.2-12.1-7.2-3.3-3.1-5.8-6.7-7.6-10.8-1.8-4.1-2.6-8.6-2.6-13.4s.9-9.5,2.6-13.7c1.8-4.2,4.3-7.9,7.6-11s7.3-5.6,12.1-7.4c4.8-1.8,10.2-2.7,16.2-2.7s7.9.5,11.7,1.5c3.8,1,7.2,2.5,10.2,4.5,3,2,5.5,4.4,7.5,7.3,2,2.9,3.2,6.2,3.6,10h-16.5c-1-3.7-3-6.5-5.9-8.3-2.9-1.8-6.5-2.8-10.6-2.8s-7.2.6-9.9,1.9c-2.7,1.3-4.9,3-6.6,5.1-1.7,2.1-2.9,4.5-3.7,7.2-.8,2.7-1.2,5.5-1.2,8.4s.4,5.5,1.2,8.1c.8,2.6,2,5,3.7,7.1,1.7,2.1,3.9,3.8,6.6,5,2.7,1.3,6,1.9,9.9,1.9,5.7,0,10.1-1.2,13.2-3.6,3.1-2.4,4.9-5.9,5.4-10.6h-17.3v-10.8h32.9v35.6h-11l-1.8-7.5c-3.1,3.3-6.5,5.6-10.2,7Z"/>
  <path class="cls-1" d="M2461.1,62.9c-5.9,4.3-14.1,6.5-24.6,6.5s-18.8-2.2-24.6-6.5c-5.8-4.3-8.7-10.9-8.7-19.9V2.1h17.2v40.9c0,1.8.2,3.5.5,5.3.4,1.7,1.1,3.2,2.3,4.6,1.2,1.3,2.8,2.4,4.9,3.2,2.1.8,4.9,1.2,8.4,1.2,6.1,0,10.4-1.2,12.7-3.5,2.3-2.3,3.5-5.9,3.5-10.8V2.1h17.2v40.9c0,8.9-3,15.5-8.9,19.9Z"/>
  <path class="cls-1" d="M2498,51.7c1,1.5,2.2,2.8,3.8,3.7,1.6,1,3.4,1.7,5.5,2.1,2.1.5,4.3.7,6.6.7s3.2-.1,4.9-.3c1.8-.2,3.4-.6,4.9-1.2,1.5-.6,2.8-1.5,3.8-2.5,1-1.1,1.5-2.4,1.5-4.1s-.7-3.2-2-4.3c-1.4-1.1-3.1-2-5.3-2.8s-4.7-1.4-7.5-1.9c-2.8-.6-5.6-1.2-8.5-1.8-2.9-.6-5.8-1.4-8.6-2.3-2.8-.9-5.3-2-7.5-3.5-2.2-1.4-4-3.2-5.3-5.3-1.4-2.1-2-4.7-2-7.7s.9-6.3,2.6-8.8c1.7-2.5,4-4.6,6.8-6.2,2.8-1.7,5.9-2.9,9.4-3.7,3.5-.8,7-1.2,10.5-1.2s8,.4,11.8,1.2c3.8.8,7.1,2,10,3.7,2.9,1.7,5.2,3.9,7,6.6,1.7,2.7,2.6,5.9,2.6,9.7h-16.7c-.1-2-.6-3.6-1.5-4.9-.8-1.3-2-2.3-3.3-3-1.4-.7-3-1.3-4.8-1.6-1.8-.3-3.8-.5-5.9-.5s-2.8.1-4.2.4c-1.4.2-2.7.7-3.8,1.3-1.1.6-2.1,1.4-2.8,2.3-.7.9-1.1,2.1-1.1,3.5s.3,2.3.9,3.1c.6.8,1.7,1.5,3.5,2.2,1.7.7,4.1,1.4,7.1,2,3,.7,7,1.5,11.9,2.6,1.5.2,3.5.7,6.1,1.3,2.6.6,5.2,1.7,7.7,3.1,2.6,1.4,4.8,3.3,6.6,5.7s2.8,5.4,2.8,9.1-.7,5.8-2.1,8.4c-1.4,2.6-3.5,4.8-6.2,6.7-2.7,1.9-6.1,3.3-10.2,4.4-4.1,1-8.8,1.6-14.1,1.6s-8.5-.4-12.6-1.3c-4.1-.9-7.6-2.3-10.8-4.2-3.1-1.9-5.6-4.3-7.4-7.3-1.8-3-2.7-6.5-2.6-10.5h16.7c0,2.2.5,4.1,1.4,5.6Z"/>
  <path class="cls-1" d="M2569.2,51.7c1,1.5,2.2,2.8,3.8,3.7,1.6,1,3.4,1.7,5.5,2.1,2.1.5,4.3.7,6.6.7s3.2-.1,4.9-.3c1.8-.2,3.4-.6,4.9-1.2,1.5-.6,2.8-1.5,3.8-2.5,1-1.1,1.5-2.4,1.5-4.1s-.7-3.2-2-4.3c-1.4-1.1-3.1-2-5.3-2.8s-4.7-1.4-7.5-1.9c-2.8-.6-5.6-1.2-8.5-1.8-2.9-.6-5.8-1.4-8.6-2.3-2.8-.9-5.3-2-7.5-3.5-2.2-1.4-4-3.2-5.3-5.3-1.4-2.1-2-4.7-2-7.7s.9-6.3,2.6-8.8c1.7-2.5,4-4.6,6.8-6.2,2.8-1.7,5.9-2.9,9.4-3.7,3.5-.8,7-1.2,10.5-1.2s8,.4,11.8,1.2c3.8.8,7.1,2,10,3.7,2.9,1.7,5.2,3.9,7,6.6,1.7,2.7,2.6,5.9,2.6,9.7h-16.7c-.1-2-.6-3.6-1.5-4.9-.8-1.3-2-2.3-3.3-3-1.4-.7-3-1.3-4.8-1.6-1.8-.3-3.8-.5-5.9-.5s-2.8.1-4.2.4c-1.4.2-2.7.7-3.8,1.3-1.1.6-2.1,1.4-2.8,2.3-.7.9-1.1,2.1-1.1,3.5s.3,2.3.9,3.1c.6.8,1.7,1.5,3.5,2.2,1.7.7,4.1,1.4,7.1,2,3,.7,7,1.5,11.9,2.6,1.5.2,3.5.7,6.1,1.3,2.6.6,5.2,1.7,7.7,3.1,2.6,1.4,4.8,3.3,6.6,5.7s2.8,5.4,2.8,9.1-.7,5.8-2.1,8.4c-1.4,2.6-3.5,4.8-6.2,6.7-2.7,1.9-6.1,3.3-10.2,4.4-4.1,1-8.8,1.6-14.1,1.6s-8.5-.4-12.6-1.3c-4.1-.9-7.6-2.3-10.8-4.2-3.1-1.9-5.6-4.3-7.4-7.3-1.8-3-2.7-6.5-2.6-10.5h16.7c0,2.2.5,4.1,1.4,5.6Z"/>
  <path class="cls-1" d="M2708,19.6c-1-1.4-2.3-2.6-3.8-3.6-1.5-1-3.3-1.9-5.2-2.4-1.9-.6-4-.9-6.1-.9-3.9,0-7.2.6-9.9,1.9-2.7,1.3-4.9,3-6.6,5.1-1.7,2.1-2.9,4.5-3.7,7.2-.8,2.7-1.2,5.5-1.2,8.4s.4,5.5,1.2,8.1c.8,2.6,2,5,3.7,7.1,1.7,2.1,3.9,3.8,6.6,5,2.7,1.3,6,1.9,9.9,1.9s9.4-1.4,12.3-4.1c3-2.7,4.8-6.3,5.4-10.7h16.7c-.4,4.1-1.6,7.8-3.4,11.2-1.8,3.3-4.2,6.1-7.2,8.5-3,2.3-6.5,4.1-10.5,5.3-4,1.2-8.5,1.8-13.3,1.8s-11.4-.9-16.2-2.6c-4.8-1.8-8.8-4.2-12.1-7.2-3.3-3.1-5.8-6.7-7.6-10.8-1.8-4.1-2.6-8.6-2.6-13.4s.9-9.5,2.6-13.7c1.8-4.2,4.3-7.9,7.6-11s7.3-5.6,12.1-7.4c4.8-1.8,10.2-2.7,16.2-2.7s8.4.5,12.2,1.6c3.8,1,7.3,2.6,10.3,4.6,3,2,5.5,4.5,7.5,7.4,2,3,3.2,6.3,3.7,10.1h-16.7c-.3-1.7-1-3.2-2-4.6Z"/>
  <path class="cls-1" d="M2796.7,62.9c-5.9,4.3-14.1,6.5-24.6,6.5s-18.8-2.2-24.6-6.5c-5.8-4.3-8.7-10.9-8.7-19.9V2.1h17.2v40.9c0,1.8.2,3.5.5,5.3.4,1.7,1.1,3.2,2.3,4.6,1.2,1.3,2.8,2.4,4.9,3.2,2.1.8,4.9,1.2,8.4,1.2,6.1,0,10.4-1.2,12.7-3.5,2.3-2.3,3.5-5.9,3.5-10.8V2.1h17.2v40.9c0,8.9-3,15.5-8.9,19.9Z"/>
  <path class="cls-1" d="M2833.6,51.7c1,1.5,2.2,2.8,3.8,3.7,1.6,1,3.4,1.7,5.5,2.1,2.1.5,4.3.7,6.6.7s3.2-.1,4.9-.3c1.8-.2,3.4-.6,4.9-1.2,1.5-.6,2.8-1.5,3.8-2.5,1-1.1,1.5-2.4,1.5-4.1s-.7-3.2-2-4.3c-1.4-1.1-3.1-2-5.3-2.8s-4.7-1.4-7.5-1.9c-2.8-.6-5.6-1.2-8.5-1.8-2.9-.6-5.8-1.4-8.6-2.3-2.8-.9-5.3-2-7.5-3.5-2.2-1.4-4-3.2-5.3-5.3-1.4-2.1-2-4.7-2-7.7s.9-6.3,2.6-8.8c1.7-2.5,4-4.6,6.8-6.2,2.8-1.7,5.9-2.9,9.4-3.7,3.5-.8,7-1.2,10.5-1.2s8,.4,11.8,1.2c3.8.8,7.1,2,10,3.7,2.9,1.7,5.2,3.9,7,6.6,1.7,2.7,2.6,5.9,2.6,9.7h-16.7c-.1-2-.6-3.6-1.5-4.9-.8-1.3-2-2.3-3.3-3-1.4-.7-3-1.3-4.8-1.6-1.8-.3-3.8-.5-5.9-.5s-2.8.1-4.2.4c-1.4.2-2.7.7-3.8,1.3-1.1.6-2.1,1.4-2.8,2.3-.7.9-1.1,2.1-1.1,3.5s.3,2.3.9,3.1c.6.8,1.7,1.5,3.5,2.2,1.7.7,4.1,1.4,7.1,2,3,.7,7,1.5,11.9,2.6,1.5.2,3.5.7,6.1,1.3,2.6.6,5.2,1.7,7.7,3.1,2.6,1.4,4.8,3.3,6.6,5.7s2.8,5.4,2.8,9.1-.7,5.8-2.1,8.4c-1.4,2.6-3.5,4.8-6.2,6.7-2.7,1.9-6.1,3.3-10.2,4.4-4.1,1-8.8,1.6-14.1,1.6s-8.5-.4-12.6-1.3c-4.1-.9-7.6-2.3-10.8-4.2-3.1-1.9-5.6-4.3-7.4-7.3-1.8-3-2.7-6.5-2.6-10.5h16.7c0,2.2.5,4.1,1.4,5.6Z"/>
  <path class="cls-1" d="M2885.5,14.2V2.1h64.2v12.2h-23.5v53.7h-17.2V14.2h-23.5Z"/>
  <path class="cls-1" d="M2958,21.6c1.8-4.2,4.3-7.9,7.6-11s7.3-5.6,12.1-7.4c4.8-1.8,10.2-2.7,16.2-2.7s11.5.9,16.2,2.7c4.8,1.8,8.8,4.2,12.1,7.4s5.8,6.8,7.6,11c1.8,4.2,2.6,8.8,2.6,13.7s-.9,9.3-2.6,13.4-4.3,7.8-7.6,10.8c-3.3,3.1-7.3,5.5-12.1,7.2-4.8,1.8-10.2,2.6-16.2,2.6s-11.4-.9-16.2-2.6c-4.8-1.8-8.8-4.2-12.1-7.2-3.3-3.1-5.8-6.7-7.6-10.8-1.8-4.1-2.6-8.6-2.6-13.4s.9-9.5,2.6-13.7ZM2973.7,43.3c.8,2.6,2,5,3.7,7.1,1.7,2.1,3.9,3.8,6.6,5,2.7,1.3,6,1.9,9.9,1.9s7.2-.6,9.9-1.9c2.7-1.3,4.9-2.9,6.6-5,1.7-2.1,2.9-4.4,3.7-7.1.8-2.6,1.2-5.3,1.2-8.1s-.4-5.7-1.2-8.4c-.8-2.7-2-5.1-3.7-7.2-1.7-2.1-3.9-3.8-6.6-5.1-2.7-1.3-6-1.9-9.9-1.9s-7.2.6-9.9,1.9c-2.7,1.3-4.9,3-6.6,5.1-1.7,2.1-2.9,4.5-3.7,7.2-.8,2.7-1.2,5.5-1.2,8.4s.4,5.5,1.2,8.1Z"/>
  <path class="cls-1" d="M3068.4,2.1l18.3,45.3h.2l17.3-45.3h24.3v65.8h-16.1V21.2h-.2l-19.2,46.7h-13.3l-19.2-46.2h-.2v46.2h-16.1V2.1h24.3Z"/>
  <path class="cls-1" d="M3160.9,2.1v65.8h-17.2V2.1h17.2Z"/>
  <path class="cls-1" d="M3213.1,14.2h-38.7V2.1h61.7v11.4l-42,42.2h43.1v12.2h-66.1v-11.4l42-42.2Z"/>
  <path class="cls-1" d="M3305.8,2.1v12.2h-41.4v14.1h38v11.2h-38v16.1h42.3v12.2h-59.5V2.1h58.6Z"/>
  <path class="cls-1" d="M3352.1,2.1c5,0,9.8.7,14.1,2,4.4,1.4,8.1,3.4,11.3,6.1,3.2,2.7,5.7,6.1,7.5,10.1,1.8,4.1,2.7,8.8,2.7,14.3s-.7,9.2-2.2,13.3c-1.5,4.1-3.7,7.6-6.6,10.5-3,3-6.7,5.3-11.1,7-4.4,1.7-9.6,2.5-15.6,2.5h-33.8V2.1h33.8ZM3350.9,55.7c2.5,0,4.9-.3,7.2-1,2.3-.7,4.4-1.8,6.3-3.4,1.8-1.6,3.3-3.6,4.4-6.1,1.1-2.5,1.6-5.6,1.6-9.2s-.4-6.3-1.2-9c-.8-2.7-2-5-3.8-6.9-1.8-1.9-4.1-3.4-7-4.4-2.9-1-6.5-1.5-10.7-1.5h-12.3v41.5h15.4Z"/>
  <path class="cls-1" d="M3488.8,2.1v12.2h-41.4v14.1h38v11.2h-38v16.1h42.3v12.2h-59.5V2.1h58.6Z"/>
  <path class="cls-1" d="M3518.4,2.1l32.7,44.2h.2V2.1h16.1v65.8h-17.2l-32.6-44.1h-.2v44.1h-16.1V2.1h17.1Z"/>
  <path class="cls-1" d="M3629.1,67.4c-3.7,1.3-7.5,2-11.3,2-6,0-11.4-.9-16.2-2.6-4.8-1.8-8.8-4.2-12.1-7.2-3.3-3.1-5.8-6.7-7.6-10.8s-2.6-8.6-2.6-13.4.9-9.5,2.6-13.7c1.8-4.2,4.3-7.9,7.6-11s7.3-5.6,12.1-7.4c4.8-1.8,10.2-2.7,16.2-2.7s7.9.5,11.7,1.5c3.8,1,7.2,2.5,10.2,4.5,3,2,5.5,4.4,7.5,7.3,2,2.9,3.2,6.2,3.6,10h-16.5c-1-3.7-3-6.5-5.9-8.3s-6.5-2.8-10.6-2.8-7.2.6-9.9,1.9c-2.7,1.3-4.9,3-6.6,5.1s-2.9,4.5-3.7,7.2c-.8,2.7-1.2,5.5-1.2,8.4s.4,5.5,1.2,8.1c.8,2.6,2,5,3.7,7.1s3.9,3.8,6.6,5c2.7,1.3,6,1.9,9.9,1.9,5.7,0,10.1-1.2,13.2-3.6,3.1-2.4,4.9-5.9,5.4-10.6h-17.3v-10.8h32.9v35.6h-11l-1.8-7.5c-3.1,3.3-6.5,5.6-10.2,7Z"/>
  <path class="cls-1" d="M3683.2,2.1v65.8h-17.2V2.1h17.2Z"/>
  <path class="cls-1" d="M3715.5,2.1l32.7,44.2h.2V2.1h16.1v65.8h-17.2l-32.6-44.1h-.2v44.1h-16.1V2.1h17.1Z"/>
  <path class="cls-1" d="M3838.3,2.1v12.2h-41.4v14.1h38v11.2h-38v16.1h42.3v12.2h-59.5V2.1h58.6Z"/>
  <path class="cls-1" d="M3909.4,2.1v12.2h-41.4v14.1h38v11.2h-38v16.1h42.3v12.2h-59.5V2.1h58.6Z"/>
  <path class="cls-1" d="M3964.2,2.1c3.5,0,6.7.5,9.5,1.4,2.8,1,5.2,2.3,7.2,3.9,2,1.7,3.5,3.6,4.6,5.8,1.1,2.2,1.6,4.5,1.6,7.1,0,3.9-1,7.2-2.9,10-1.9,2.8-5.1,5-9.5,6.5v.2c2.1.5,3.9,1.2,5.3,2.3,1.4,1,2.5,2.2,3.4,3.6.9,1.4,1.5,2.9,1.9,4.6.4,1.7.7,3.3.8,5,0,1,.1,2.3.2,3.7,0,1.4.2,2.9.4,4.3.2,1.5.5,2.9.9,4.2.4,1.3,1,2.4,1.8,3.4h-17.2c-1-2.1-1.5-4.6-1.8-7.5-.2-2.9-.5-5.7-1-8.3-.6-3.4-1.8-6-3.7-7.6-1.9-1.6-5-2.4-9.3-2.4h-17.2v25.7h-17.2V2.1h42.3ZM3958,31.8c4,0,6.9-.7,8.9-2.2,2-1.5,3-3.9,3-7.2s-1-5.5-3-7c-2-1.4-4.9-2.2-8.9-2.2h-18.9v18.5h18.9Z"/>
  <path class="cls-1" d="M4018.4,2.1v65.8h-17.2V2.1h17.2Z"/>
  <path class="cls-1" d="M4050.7,2.1l32.7,44.2h.2V2.1h16.1v65.8h-17.2l-32.6-44.1h-.2v44.1h-16.1V2.1h17.1Z"/>
  <path class="cls-1" d="M4161.3,67.4c-3.7,1.3-7.5,2-11.3,2-6,0-11.4-.9-16.2-2.6-4.8-1.8-8.8-4.2-12.1-7.2-3.3-3.1-5.8-6.7-7.6-10.8s-2.6-8.6-2.6-13.4.9-9.5,2.6-13.7c1.8-4.2,4.3-7.9,7.6-11s7.3-5.6,12.1-7.4c4.8-1.8,10.2-2.7,16.2-2.7s7.9.5,11.7,1.5c3.8,1,7.2,2.5,10.2,4.5,3,2,5.5,4.4,7.5,7.3,2,2.9,3.2,6.2,3.6,10h-16.5c-1-3.7-3-6.5-5.9-8.3-2.9-1.8-6.5-2.8-10.6-2.8s-7.2.6-9.9,1.9c-2.7,1.3-4.9,3-6.6,5.1-1.7,2.1-2.9,4.5-3.7,7.2-.8,2.7-1.2,5.5-1.2,8.4s.4,5.5,1.2,8.1c.8,2.6,2,5,3.7,7.1,1.7,2.1,3.9,3.8,6.6,5,2.7,1.3,6,1.9,9.9,1.9,5.7,0,10.1-1.2,13.2-3.6,3.1-2.4,4.9-5.9,5.4-10.6h-17.3v-10.8h32.9v35.6h-11l-1.8-7.5c-3.1,3.3-6.5,5.6-10.2,7Z"/>
  <path class="cls-1" d="M4241.9,51.7c1,1.5,2.2,2.8,3.8,3.7,1.6,1,3.4,1.7,5.5,2.1,2.1.5,4.3.7,6.6.7s3.2-.1,4.9-.3c1.8-.2,3.4-.6,4.9-1.2,1.5-.6,2.8-1.5,3.8-2.5,1-1.1,1.5-2.4,1.5-4.1s-.7-3.2-2-4.3c-1.4-1.1-3.1-2-5.3-2.8s-4.7-1.4-7.5-1.9c-2.8-.6-5.6-1.2-8.5-1.8-2.9-.6-5.8-1.4-8.6-2.3-2.8-.9-5.3-2-7.5-3.5-2.2-1.4-4-3.2-5.3-5.3-1.4-2.1-2-4.7-2-7.7s.9-6.3,2.6-8.8c1.7-2.5,4-4.6,6.8-6.2,2.8-1.7,5.9-2.9,9.4-3.7,3.5-.8,7-1.2,10.5-1.2s8,.4,11.8,1.2c3.8.8,7.1,2,10,3.7,2.9,1.7,5.2,3.9,7,6.6,1.7,2.7,2.6,5.9,2.6,9.7h-16.7c-.1-2-.6-3.6-1.5-4.9-.8-1.3-2-2.3-3.3-3-1.4-.7-3-1.3-4.8-1.6-1.8-.3-3.8-.5-5.9-.5s-2.8.1-4.2.4c-1.4.2-2.7.7-3.8,1.3-1.1.6-2.1,1.4-2.8,2.3-.7.9-1.1,2.1-1.1,3.5s.3,2.3.9,3.1c.6.8,1.7,1.5,3.5,2.2,1.7.7,4.1,1.4,7.1,2,3,.7,7,1.5,11.9,2.6,1.5.2,3.5.7,6.1,1.3,2.6.6,5.2,1.7,7.7,3.1,2.6,1.4,4.8,3.3,6.6,5.7s2.8,5.4,2.8,9.1-.7,5.8-2.1,8.4c-1.4,2.6-3.5,4.8-6.2,6.7-2.7,1.9-6.1,3.3-10.2,4.4-4.1,1-8.8,1.6-14.1,1.6s-8.5-.4-12.6-1.3c-4.1-.9-7.6-2.3-10.8-4.2-3.1-1.9-5.6-4.3-7.4-7.3-1.8-3-2.7-6.5-2.6-10.5h16.7c0,2.2.5,4.1,1.4,5.6Z"/>
  <path class="cls-1" d="M4350.2,19.6c-1-1.4-2.3-2.6-3.8-3.6-1.5-1-3.3-1.9-5.2-2.4-1.9-.6-4-.9-6.1-.9-3.9,0-7.2.6-9.9,1.9-2.7,1.3-4.9,3-6.6,5.1-1.7,2.1-2.9,4.5-3.7,7.2-.8,2.7-1.2,5.5-1.2,8.4s.4,5.5,1.2,8.1c.8,2.6,2,5,3.7,7.1,1.7,2.1,3.9,3.8,6.6,5,2.7,1.3,6,1.9,9.9,1.9s9.4-1.4,12.3-4.1c3-2.7,4.8-6.3,5.4-10.7h16.7c-.4,4.1-1.6,7.8-3.4,11.2-1.8,3.3-4.2,6.1-7.2,8.5-3,2.3-6.5,4.1-10.5,5.3-4,1.2-8.5,1.8-13.3,1.8s-11.4-.9-16.2-2.6c-4.8-1.8-8.8-4.2-12.1-7.2-3.3-3.1-5.8-6.7-7.6-10.8-1.8-4.1-2.6-8.6-2.6-13.4s.9-9.5,2.6-13.7c1.8-4.2,4.3-7.9,7.6-11s7.3-5.6,12.1-7.4c4.8-1.8,10.2-2.7,16.2-2.7s8.4.5,12.2,1.6c3.8,1,7.3,2.6,10.3,4.6,3,2,5.5,4.5,7.5,7.4,2,3,3.2,6.3,3.7,10.1h-16.7c-.3-1.7-1-3.2-2-4.6Z"/>
  <path class="cls-1" d="M4398.5,2.1v25.3h31.7V2.1h17.2v65.8h-17.2v-28.4h-31.7v28.4h-17.2V2.1h17.2Z"/>
  <path class="cls-1" d="M4520.3,62.9c-5.9,4.3-14.1,6.5-24.6,6.5s-18.8-2.2-24.6-6.5c-5.8-4.3-8.7-10.9-8.7-19.9V2.1h17.2v40.9c0,1.8.2,3.5.5,5.3.4,1.7,1.1,3.2,2.3,4.6,1.2,1.3,2.8,2.4,4.9,3.2s4.9,1.2,8.4,1.2c6.1,0,10.4-1.2,12.7-3.5,2.3-2.3,3.5-5.9,3.5-10.8V2.1h17.2v40.9c0,8.9-3,15.5-8.9,19.9Z"/>
  <path class="cls-1" d="M4537.8,14.2V2.1h64.2v12.2h-23.5v53.7h-17.2V14.2h-23.5Z"/>
  <path class="cls-1" d="M4648,14.2h-38.7V2.1h61.7v11.4l-42,42.2h43.1v12.2h-66.1v-11.4l42-42.2Z"/>
  <path class="cls-1" d="M4728.6,67.4c-3.7,1.3-7.5,2-11.3,2-6,0-11.4-.9-16.2-2.6-4.8-1.8-8.8-4.2-12.1-7.2-3.3-3.1-5.8-6.7-7.6-10.8-1.8-4.1-2.6-8.6-2.6-13.4s.9-9.5,2.6-13.7c1.8-4.2,4.3-7.9,7.6-11s7.3-5.6,12.1-7.4c4.8-1.8,10.2-2.7,16.2-2.7s7.9.5,11.7,1.5c3.8,1,7.2,2.5,10.2,4.5,3,2,5.5,4.4,7.5,7.3,2,2.9,3.2,6.2,3.6,10h-16.5c-1-3.7-3-6.5-5.9-8.3s-6.5-2.8-10.6-2.8-7.2.6-9.9,1.9c-2.7,1.3-4.9,3-6.6,5.1-1.7,2.1-2.9,4.5-3.7,7.2-.8,2.7-1.2,5.5-1.2,8.4s.4,5.5,1.2,8.1c.8,2.6,2,5,3.7,7.1,1.7,2.1,3.9,3.8,6.6,5,2.7,1.3,6,1.9,9.9,1.9,5.7,0,10.1-1.2,13.2-3.6,3.1-2.4,4.9-5.9,5.4-10.6h-17.3v-10.8h32.9v35.6h-11l-1.8-7.5c-3.1,3.3-6.5,5.6-10.2,7Z"/>
  <path class="cls-1" d="M4804.5,2.1l29.3,65.8h-17.9l-5.9-14.7h-29.3l-6.1,14.7h-17.3l29.6-65.8h17.7ZM4805.5,42.5l-9.9-24.2h-.2l-10.2,24.2h20.3Z"/>
  <path class="cls-1" d="M4853.8,51.7c1,1.5,2.2,2.8,3.8,3.7,1.6,1,3.4,1.7,5.5,2.1,2.1.5,4.3.7,6.6.7s3.2-.1,4.9-.3c1.8-.2,3.4-.6,4.9-1.2,1.5-.6,2.8-1.5,3.8-2.5,1-1.1,1.5-2.4,1.5-4.1s-.7-3.2-2-4.3c-1.4-1.1-3.1-2-5.3-2.8s-4.7-1.4-7.5-1.9c-2.8-.6-5.6-1.2-8.5-1.8-2.9-.6-5.8-1.4-8.6-2.3-2.8-.9-5.3-2-7.5-3.5-2.2-1.4-4-3.2-5.3-5.3-1.4-2.1-2-4.7-2-7.7s.9-6.3,2.6-8.8c1.7-2.5,4-4.6,6.8-6.2,2.8-1.7,5.9-2.9,9.4-3.7,3.5-.8,7-1.2,10.5-1.2s8,.4,11.8,1.2c3.8.8,7.1,2,10,3.7,2.9,1.7,5.2,3.9,7,6.6,1.7,2.7,2.6,5.9,2.6,9.7h-16.7c-.1-2-.6-3.6-1.5-4.9-.8-1.3-2-2.3-3.3-3-1.4-.7-3-1.3-4.8-1.6-1.8-.3-3.8-.5-5.9-.5s-2.8.1-4.2.4c-1.4.2-2.7.7-3.8,1.3-1.1.6-2.1,1.4-2.8,2.3-.7.9-1.1,2.1-1.1,3.5s.3,2.3.9,3.1c.6.8,1.7,1.5,3.5,2.2,1.7.7,4.1,1.4,7.1,2,3,.7,7,1.5,11.9,2.6,1.5.2,3.5.7,6.1,1.3s5.2,1.7,7.7,3.1c2.6,1.4,4.8,3.3,6.6,5.7s2.8,5.4,2.8,9.1-.7,5.8-2.1,8.4c-1.4,2.6-3.5,4.8-6.2,6.7-2.7,1.9-6.1,3.3-10.2,4.4-4.1,1-8.8,1.6-14.1,1.6s-8.5-.4-12.6-1.3-7.6-2.3-10.8-4.2c-3.1-1.9-5.6-4.3-7.4-7.3-1.8-3-2.7-6.5-2.6-10.5h16.7c0,2.2.5,4.1,1.4,5.6Z"/>
  <path class="cls-1" d="M4936.2,2.1l18.3,45.3h.2l17.3-45.3h24.3v65.8h-16.1V21.2h-.2l-19.2,46.7h-13.3l-19.2-46.2h-.2v46.2h-16.1V2.1h24.3Z"/>
  <path class="cls-1" d="M5028.7,2.1v65.8h-17.2V2.1h17.2Z"/>
  <path class="cls-1" d="M5057,51.7c1,1.5,2.2,2.8,3.8,3.7,1.6,1,3.4,1.7,5.5,2.1,2.1.5,4.3.7,6.6.7s3.2-.1,4.9-.3c1.8-.2,3.4-.6,4.9-1.2,1.5-.6,2.8-1.5,3.8-2.5,1-1.1,1.5-2.4,1.5-4.1s-.7-3.2-2-4.3c-1.4-1.1-3.1-2-5.3-2.8s-4.7-1.4-7.5-1.9c-2.8-.6-5.6-1.2-8.5-1.8-2.9-.6-5.8-1.4-8.6-2.3-2.8-.9-5.3-2-7.5-3.5-2.2-1.4-4-3.2-5.3-5.3-1.4-2.1-2-4.7-2-7.7s.9-6.3,2.6-8.8c1.7-2.5,4-4.6,6.8-6.2,2.8-1.7,5.9-2.9,9.4-3.7,3.5-.8,7-1.2,10.5-1.2s8,.4,11.8,1.2c3.8.8,7.1,2,10,3.7,2.9,1.7,5.2,3.9,7,6.6,1.7,2.7,2.6,5.9,2.6,9.7h-16.7c-.1-2-.6-3.6-1.5-4.9-.8-1.3-2-2.3-3.3-3-1.4-.7-3-1.3-4.8-1.6-1.8-.3-3.8-.5-5.9-.5s-2.8.1-4.2.4c-1.4.2-2.7.7-3.8,1.3-1.1.6-2.1,1.4-2.8,2.3-.7.9-1.1,2.1-1.1,3.5s.3,2.3.9,3.1c.6.8,1.7,1.5,3.5,2.2,1.7.7,4.1,1.4,7.1,2,3,.7,7,1.5,11.9,2.6,1.5.2,3.5.7,6.1,1.3s5.2,1.7,7.7,3.1c2.6,1.4,4.8,3.3,6.6,5.7s2.8,5.4,2.8,9.1-.7,5.8-2.1,8.4c-1.4,2.6-3.5,4.8-6.2,6.7-2.7,1.9-6.1,3.3-10.2,4.4-4.1,1-8.8,1.6-14.1,1.6s-8.5-.4-12.6-1.3-7.6-2.3-10.8-4.2c-3.1-1.9-5.6-4.3-7.4-7.3-1.8-3-2.7-6.5-2.6-10.5h16.7c0,2.2.5,4.1,1.4,5.6Z"/>
  <path class="cls-1" d="M5165.3,19.6c-1-1.4-2.3-2.6-3.8-3.6-1.5-1-3.3-1.9-5.2-2.4-1.9-.6-4-.9-6.1-.9-3.9,0-7.2.6-9.9,1.9-2.7,1.3-4.9,3-6.6,5.1-1.7,2.1-2.9,4.5-3.7,7.2-.8,2.7-1.2,5.5-1.2,8.4s.4,5.5,1.2,8.1c.8,2.6,2,5,3.7,7.1,1.7,2.1,3.9,3.8,6.6,5,2.7,1.3,6,1.9,9.9,1.9s9.4-1.4,12.3-4.1c3-2.7,4.8-6.3,5.4-10.7h16.7c-.4,4.1-1.6,7.8-3.4,11.2-1.8,3.3-4.2,6.1-7.2,8.5-3,2.3-6.5,4.1-10.5,5.3-4,1.2-8.5,1.8-13.3,1.8s-11.4-.9-16.2-2.6c-4.8-1.8-8.8-4.2-12.1-7.2-3.3-3.1-5.8-6.7-7.6-10.8s-2.6-8.6-2.6-13.4.9-9.5,2.6-13.7c1.8-4.2,4.3-7.9,7.6-11s7.3-5.6,12.1-7.4c4.8-1.8,10.2-2.7,16.2-2.7s8.4.5,12.2,1.6c3.8,1,7.3,2.6,10.3,4.6,3,2,5.5,4.5,7.5,7.4,2,3,3.2,6.3,3.7,10.1h-16.7c-.3-1.7-1-3.2-2-4.6Z"/>
  <path class="cls-1" d="M5213.6,2.1v25.3h31.7V2.1h17.2v65.8h-17.2v-28.4h-31.7v28.4h-17.2V2.1h17.2Z"/>
  <path class="cls-1" d="M5316.8,2.1l29.3,65.8h-17.9l-5.9-14.7h-29.3l-6.1,14.7h-17.3l29.6-65.8h17.7ZM5317.8,42.5l-9.9-24.2h-.2l-10.2,24.2h20.3Z"/>
  <path class="cls-1" d="M5370.1,2.1l32.7,44.2h.2V2.1h16.1v65.8h-17.2l-32.6-44.1h-.2v44.1h-16.1V2.1h17.1Z"/>
  <path class="cls-1" d="M5451.5,2.1v53.7h38.2v12.2h-55.4V2.1h17.2Z"/>
  <path class="cls-1" d="M5538.4,2.1l29.3,65.8h-17.9l-5.9-14.7h-29.3l-6.1,14.7h-17.3l29.6-65.8h17.7ZM5539.4,42.5l-9.9-24.2h-.2l-10.2,24.2h20.3Z"/>
  <path class="cls-1" d="M5621,67.4c-3.7,1.3-7.5,2-11.3,2-6,0-11.4-.9-16.2-2.6-4.8-1.8-8.8-4.2-12.1-7.2-3.3-3.1-5.8-6.7-7.6-10.8s-2.6-8.6-2.6-13.4.9-9.5,2.6-13.7c1.8-4.2,4.3-7.9,7.6-11s7.3-5.6,12.1-7.4c4.8-1.8,10.2-2.7,16.2-2.7s7.9.5,11.7,1.5c3.8,1,7.2,2.5,10.2,4.5,3,2,5.5,4.4,7.5,7.3,2,2.9,3.2,6.2,3.6,10h-16.5c-1-3.7-3-6.5-5.9-8.3-2.9-1.8-6.5-2.8-10.6-2.8s-7.2.6-9.9,1.9c-2.7,1.3-4.9,3-6.6,5.1s-2.9,4.5-3.7,7.2c-.8,2.7-1.2,5.5-1.2,8.4s.4,5.5,1.2,8.1c.8,2.6,2,5,3.7,7.1s3.9,3.8,6.6,5c2.7,1.3,6,1.9,9.9,1.9,5.7,0,10.1-1.2,13.2-3.6,3.1-2.4,4.9-5.9,5.4-10.6h-17.3v-10.8h32.9v35.6h-11l-1.8-7.5c-3.1,3.3-6.5,5.6-10.2,7Z"/>
  <path class="cls-1" d="M5716.5,2.1v12.2h-41.4v14.1h38v11.2h-38v16.1h42.3v12.2h-59.5V2.1h58.6Z"/>
</svg>