<?xml version="1.0" encoding="UTF-8"?>
<svg id="Ebene_1" data-name="Ebene 1" xmlns="http://www.w3.org/2000/svg" version="1.1" viewBox="0 0 84.6 65.2">
  <defs>
    <style>
      .cls-1 {
        fill: none;
        stroke: #e20026;
        stroke-miterlimit: 10;
        stroke-width: 4px;
      }
    </style>
  </defs>
  <path class="cls-1" d="M30.5,2.5l4.4,7.8c-2.4,3.4-4.7,7.1-6.8,11.3-2.1,4.1-3.3,8.4-3.6,12.9l12.6,2.3v26.4H2v-18.8c0-10.9,2.6-19.6,7.7-26.3,5.1-6.7,12.1-11.8,20.8-15.5ZM75.9,2.5l4.4,7.8c-2.5,3.4-4.7,7.1-6.8,11.3-2.1,4.1-3.3,8.4-3.6,12.9l12.6,2.3v26.4h-35.1v-18.8c0-10.9,2.6-19.6,7.7-26.3,5.1-6.7,12.1-11.8,20.8-15.5Z"/>
</svg>