<?xml version="1.0" encoding="UTF-8"?>
<svg id="Ebene_1" data-name="Ebene 1" xmlns="http://www.w3.org/2000/svg" version="1.1" viewBox="0 0 5755.7 86.5">
  <defs>
    <style>
      .cls-1 {
        fill: none;
        stroke: #000;
        stroke-miterlimit: 10;
      }
    </style>
  </defs>
  <path class="cls-1" d="M26.1,84.5L.7,18.7h17.7l17.5,46.3h.2l17.7-46.3h17.8l-26,65.8h-19.4Z"/>
  <path class="cls-1" d="M136.8,18.7v12.2h-41.4v14.1h38v11.2h-38v16.1h42.3v12.2h-59.5V18.7h58.6Z"/>
  <path class="cls-1" d="M191.6,18.7c3.5,0,6.7.5,9.5,1.4,2.8,1,5.2,2.3,7.2,3.9,2,1.7,3.5,3.6,4.6,5.8,1.1,2.2,1.6,4.5,1.6,7.1,0,3.9-1,7.2-2.9,10-1.9,2.8-5.1,5-9.5,6.5v.2c2.1.5,3.9,1.2,5.3,2.3,1.4,1,2.5,2.2,3.4,3.6.9,1.4,1.5,2.9,1.9,4.6.4,1.7.7,3.3.8,5,0,1,.1,2.3.2,3.7,0,1.4.2,2.9.4,4.3.2,1.5.5,2.9.9,4.2.4,1.3,1,2.4,1.8,3.4h-17.2c-1-2.1-1.5-4.6-1.8-7.5-.2-2.9-.5-5.7-1-8.3-.6-3.4-1.8-6-3.7-7.6-1.9-1.6-5-2.4-9.3-2.4h-17.2v25.7h-17.2V18.7h42.3ZM185.5,48.4c4,0,6.9-.7,8.9-2.2,2-1.5,3-3.9,3-7.2s-1-5.5-3-7-4.9-2.2-8.9-2.2h-18.9v18.5h18.9Z"/>
  <path class="cls-1" d="M220.5,30.8v-12.2h64.2v12.2h-23.5v53.7h-17.2V30.8h-23.5Z"/>
  <path class="cls-1" d="M335.9,18.7c3.5,0,6.7.5,9.5,1.4,2.8,1,5.2,2.3,7.2,3.9,2,1.7,3.5,3.6,4.6,5.8,1.1,2.2,1.6,4.5,1.6,7.1,0,3.9-1,7.2-2.9,10-1.9,2.8-5.1,5-9.5,6.5v.2c2.1.5,3.9,1.2,5.3,2.3,1.4,1,2.5,2.2,3.4,3.6.9,1.4,1.5,2.9,1.9,4.6.4,1.7.7,3.3.8,5,0,1,.1,2.3.2,3.7,0,1.4.2,2.9.4,4.3.2,1.5.5,2.9.9,4.2.4,1.3,1,2.4,1.8,3.4h-17.2c-1-2.1-1.5-4.6-1.8-7.5-.2-2.9-.5-5.7-1-8.3-.6-3.4-1.8-6-3.7-7.6-1.9-1.6-5-2.4-9.3-2.4h-17.2v25.7h-17.2V18.7h42.3ZM329.8,48.4c4,0,6.9-.7,8.9-2.2,2-1.5,3-3.9,3-7.2s-1-5.5-3-7-4.9-2.2-8.9-2.2h-18.9v18.5h18.9Z"/>
  <path class="cls-1" d="M412,18.7l29.3,65.8h-17.9l-5.9-14.7h-29.3l-6.1,14.7h-17.3l29.6-65.8h17.7ZM413,59l-9.9-24.2h-.2l-10.2,24.2h20.3Z"/>
  <path class="cls-1" d="M505.8,79.5c-5.9,4.3-14.1,6.5-24.6,6.5s-18.8-2.2-24.6-6.5c-5.8-4.3-8.7-10.9-8.7-19.9V18.7h17.2v40.9c0,1.8.2,3.5.5,5.3.4,1.7,1.1,3.2,2.3,4.6,1.2,1.3,2.8,2.4,4.9,3.2,2.1.8,4.9,1.2,8.4,1.2,6.1,0,10.4-1.2,12.7-3.5,2.3-2.3,3.5-5.9,3.5-10.8V18.7h17.2v40.9c0,8.9-3,15.5-8.9,19.9Z"/>
  <path class="cls-1" d="M588.1,18.7v12.2h-41.4v14.1h38v11.2h-38v16.1h42.3v12.2h-59.5V18.7h58.6Z"/>
  <path class="cls-1" d="M617.7,18.7l32.7,44.2h.2V18.7h16.1v65.8h-17.2l-32.6-44.1h-.2v44.1h-16.1V18.7h17.1Z"/>
  <path class="cls-1" d="M754.7,18.7c3.5,0,6.7.5,9.5,1.4,2.8,1,5.2,2.3,7.2,3.9,2,1.7,3.5,3.6,4.6,5.8,1.1,2.2,1.6,4.5,1.6,7.1,0,3.9-1,7.2-2.9,10-1.9,2.8-5.1,5-9.5,6.5v.2c2.1.5,3.9,1.2,5.3,2.3,1.4,1,2.5,2.2,3.4,3.6.9,1.4,1.5,2.9,1.9,4.6.4,1.7.7,3.3.8,5,0,1,.1,2.3.2,3.7,0,1.4.2,2.9.4,4.3.2,1.5.5,2.9.9,4.2.4,1.3,1,2.4,1.8,3.4h-17.2c-1-2.1-1.5-4.6-1.8-7.5-.2-2.9-.5-5.7-1-8.3-.6-3.4-1.8-6-3.7-7.6-1.9-1.6-5-2.4-9.3-2.4h-17.2v25.7h-17.2V18.7h42.3ZM748.6,48.4c4,0,6.9-.7,8.9-2.2,2-1.5,3-3.9,3-7.2s-1-5.5-3-7-4.9-2.2-8.9-2.2h-18.9v18.5h18.9Z"/>
  <path class="cls-1" d="M850.3,18.7v12.2h-41.4v14.1h38v11.2h-38v16.1h42.3v12.2h-59.5V18.7h58.6Z"/>
  <path class="cls-1" d="M876,68.3c1,1.5,2.2,2.8,3.8,3.7,1.6,1,3.4,1.7,5.5,2.1,2.1.5,4.3.7,6.6.7s3.2-.1,4.9-.3c1.8-.2,3.4-.6,4.9-1.2,1.5-.6,2.8-1.5,3.8-2.5,1-1.1,1.5-2.4,1.5-4.1s-.7-3.2-2-4.3c-1.4-1.1-3.1-2-5.3-2.8-2.2-.7-4.7-1.4-7.5-1.9-2.8-.6-5.6-1.2-8.5-1.8-2.9-.6-5.8-1.4-8.6-2.3-2.8-.9-5.3-2-7.5-3.5-2.2-1.4-4-3.2-5.3-5.3-1.4-2.1-2-4.7-2-7.7s.9-6.3,2.6-8.8c1.7-2.5,4-4.6,6.8-6.2,2.8-1.7,5.9-2.9,9.4-3.7,3.5-.8,7-1.2,10.5-1.2s8,.4,11.8,1.2c3.8.8,7.1,2,10,3.7,2.9,1.7,5.2,3.9,7,6.6,1.7,2.7,2.6,5.9,2.6,9.7h-16.7c-.1-2-.6-3.6-1.5-4.9-.8-1.3-2-2.3-3.3-3-1.4-.7-3-1.3-4.8-1.6-1.8-.3-3.8-.5-5.9-.5s-2.8.1-4.2.4c-1.4.2-2.7.7-3.8,1.3-1.1.6-2.1,1.4-2.8,2.3-.7.9-1.1,2.1-1.1,3.5s.3,2.3.9,3.1c.6.8,1.7,1.5,3.5,2.2,1.7.7,4.1,1.4,7.1,2,3,.7,7,1.5,11.9,2.6,1.5.2,3.5.7,6.1,1.3,2.6.6,5.2,1.7,7.7,3.1,2.6,1.4,4.8,3.3,6.6,5.7s2.8,5.4,2.8,9.1-.7,5.8-2.1,8.4c-1.4,2.6-3.5,4.8-6.2,6.7s-6.1,3.3-10.2,4.4c-4.1,1-8.8,1.6-14.1,1.6s-8.5-.4-12.6-1.3c-4.1-.9-7.6-2.3-10.8-4.2-3.1-1.9-5.6-4.3-7.4-7.3-1.8-3-2.7-6.5-2.6-10.5h16.7c0,2.2.5,4.1,1.4,5.6Z"/>
  <path class="cls-1" d="M969.4,18.7c4.9,0,9.1.6,12.5,1.8,3.4,1.2,6.2,2.8,8.4,4.7,2.2,2,3.7,4.2,4.7,6.7,1,2.5,1.5,5.1,1.5,7.8s-.5,5.2-1.5,7.8c-1,2.6-2.6,4.8-4.7,6.8-2.2,2-5,3.5-8.4,4.7-3.4,1.2-7.6,1.8-12.5,1.8h-18.1v23.6h-17.2V18.7h35.3ZM964.7,49.6c2,0,3.9-.1,5.7-.4,1.8-.2,3.4-.7,4.8-1.4,1.4-.7,2.5-1.7,3.3-3,.8-1.3,1.3-3,1.3-5.1s-.4-3.8-1.3-5.1c-.8-1.3-2-2.3-3.3-3-1.4-.7-3-1.2-4.8-1.4-1.8-.2-3.7-.4-5.7-.4h-13.4v19.7h13.4Z"/>
  <path class="cls-1" d="M1065.9,18.7v12.2h-41.4v14.1h38v11.2h-38v16.1h42.3v12.2h-59.5V18.7h58.6Z"/>
  <path class="cls-1" d="M1095.6,18.7v27.3l30.6-27.3h21.5l-30.6,26,33.6,39.8h-21.6l-23.6-29.6-9.9,8.4v21.2h-17.2V18.7h17.2Z"/>
  <path class="cls-1" d="M1151.5,30.8v-12.2h64.2v12.2h-23.5v53.7h-17.2V30.8h-23.5Z"/>
  <path class="cls-1" d="M1292.2,30.8h-38.7v-12.2h61.7v11.4l-42,42.2h43.1v12.2h-66.1v-11.4l42-42.2Z"/>
  <path class="cls-1" d="M1384,79.5c-5.9,4.3-14.1,6.5-24.6,6.5s-18.8-2.2-24.6-6.5c-5.8-4.3-8.7-10.9-8.7-19.9V18.7h17.2v40.9c0,1.8.2,3.5.5,5.3.4,1.7,1.1,3.2,2.3,4.6,1.2,1.3,2.8,2.4,4.9,3.2,2.1.8,4.9,1.2,8.4,1.2,6.1,0,10.4-1.2,12.7-3.5,2.3-2.3,3.5-5.9,3.5-10.8V18.7h17.2v40.9c0,8.9-3,15.5-8.9,19.9Z"/>
  <path class="cls-1" d="M1420.9,68.3c1,1.5,2.2,2.8,3.8,3.7,1.6,1,3.4,1.7,5.5,2.1,2.1.5,4.3.7,6.6.7s3.2-.1,4.9-.3c1.8-.2,3.4-.6,4.9-1.2,1.5-.6,2.8-1.5,3.8-2.5,1-1.1,1.5-2.4,1.5-4.1s-.7-3.2-2-4.3c-1.4-1.1-3.1-2-5.3-2.8-2.2-.7-4.7-1.4-7.5-1.9-2.8-.6-5.6-1.2-8.5-1.8-2.9-.6-5.8-1.4-8.6-2.3-2.8-.9-5.3-2-7.5-3.5-2.2-1.4-4-3.2-5.3-5.3-1.4-2.1-2-4.7-2-7.7s.9-6.3,2.6-8.8c1.7-2.5,4-4.6,6.8-6.2,2.8-1.7,5.9-2.9,9.4-3.7,3.5-.8,7-1.2,10.5-1.2s8,.4,11.8,1.2c3.8.8,7.1,2,10,3.7,2.9,1.7,5.2,3.9,7,6.6,1.7,2.7,2.6,5.9,2.6,9.7h-16.7c-.1-2-.6-3.6-1.5-4.9-.8-1.3-2-2.3-3.3-3-1.4-.7-3-1.3-4.8-1.6-1.8-.3-3.8-.5-5.9-.5s-2.8.1-4.2.4c-1.4.2-2.7.7-3.8,1.3-1.1.6-2.1,1.4-2.8,2.3-.7.9-1.1,2.1-1.1,3.5s.3,2.3.9,3.1c.6.8,1.7,1.5,3.5,2.2,1.7.7,4.1,1.4,7.1,2,3,.7,7,1.5,11.9,2.6,1.5.2,3.5.7,6.1,1.3,2.6.6,5.2,1.7,7.7,3.1,2.6,1.4,4.8,3.3,6.6,5.7s2.8,5.4,2.8,9.1-.7,5.8-2.1,8.4c-1.4,2.6-3.5,4.8-6.2,6.7s-6.1,3.3-10.2,4.4c-4.1,1-8.8,1.6-14.1,1.6s-8.5-.4-12.6-1.3c-4.1-.9-7.6-2.3-10.8-4.2-3.1-1.9-5.6-4.3-7.4-7.3-1.8-3-2.7-6.5-2.6-10.5h16.7c0,2.2.5,4.1,1.4,5.6Z"/>
  <path class="cls-1" d="M1518,18.7l29.3,65.8h-17.9l-5.9-14.7h-29.3l-6.1,14.7h-17.3l29.6-65.8h17.7ZM1519,59l-9.9-24.2h-.2l-10.2,24.2h20.3Z"/>
  <path class="cls-1" d="M1578.4,18.7l18.3,45.3h.2l17.3-45.3h24.3v65.8h-16.1v-46.7h-.2l-19.2,46.7h-13.3l-19.2-46.2h-.2v46.2h-16.1V18.7h24.3Z"/>
  <path class="cls-1" d="M1677.9,18.7l18.3,45.3h.2l17.3-45.3h24.3v65.8h-16.1v-46.7h-.2l-19.2,46.7h-13.3l-19.2-46.2h-.2v46.2h-16.1V18.7h24.3Z"/>
  <path class="cls-1" d="M1811.8,18.7v12.2h-41.4v14.1h38v11.2h-38v16.1h42.3v12.2h-59.5V18.7h58.6Z"/>
  <path class="cls-1" d="M1841.5,18.7l32.7,44.2h.2V18.7h16.1v65.8h-17.2l-32.6-44.1h-.2v44.1h-16.1V18.7h17.1Z"/>
  <path class="cls-1" d="M1922.9,18.7v25.3h31.7v-25.3h17.2v65.8h-17.2v-28.4h-31.7v28.4h-17.2V18.7h17.2Z"/>
  <path class="cls-1" d="M2026.1,18.7l29.3,65.8h-17.9l-5.9-14.7h-29.3l-6.1,14.7h-17.3l29.6-65.8h17.7ZM2027.1,59l-9.9-24.2h-.2l-10.2,24.2h20.3Z"/>
  <path class="cls-1" d="M2079.4,18.7v53.7h38.2v12.2h-55.4V18.7h17.2Z"/>
  <path class="cls-1" d="M2111.1,30.8v-12.2h64.2v12.2h-23.5v53.7h-17.2V30.8h-23.5Z"/>
  <path class="cls-1" d="M2232,18.7v65.8h-17.2V18.7h17.2Z"/>
  <path class="cls-1" d="M2264.3,18.7l32.7,44.2h.2V18.7h16.1v65.8h-17.2l-32.6-44.1h-.2v44.1h-16.1V18.7h17.1Z"/>
  <path class="cls-1" d="M2345.6,18.7l32.7,44.2h.2V18.7h16.1v65.8h-17.2l-32.6-44.1h-.2v44.1h-16.1V18.7h17.1Z"/>
  <path class="cls-1" d="M2409.1,38.2c1.8-4.2,4.3-7.9,7.6-11s7.3-5.6,12.1-7.4c4.8-1.8,10.2-2.7,16.2-2.7s11.5.9,16.2,2.7c4.8,1.8,8.8,4.2,12.1,7.4s5.8,6.8,7.6,11c1.8,4.2,2.6,8.8,2.6,13.7s-.9,9.3-2.6,13.4-4.3,7.8-7.6,10.8c-3.3,3.1-7.3,5.5-12.1,7.2-4.8,1.8-10.2,2.6-16.2,2.6s-11.4-.9-16.2-2.6c-4.8-1.8-8.8-4.2-12.1-7.2-3.3-3.1-5.8-6.7-7.6-10.8-1.8-4.1-2.6-8.6-2.6-13.4s.9-9.5,2.6-13.7ZM2424.8,59.9c.8,2.6,2,5,3.7,7.1,1.7,2.1,3.9,3.8,6.6,5,2.7,1.3,6,1.9,9.9,1.9s7.2-.6,9.9-1.9c2.7-1.3,4.9-2.9,6.6-5,1.7-2.1,2.9-4.4,3.7-7.1.8-2.6,1.2-5.3,1.2-8.1s-.4-5.7-1.2-8.4c-.8-2.7-2-5.1-3.7-7.2-1.7-2.1-3.9-3.8-6.6-5.1-2.7-1.3-6-1.9-9.9-1.9s-7.2.6-9.9,1.9c-2.7,1.3-4.9,3-6.6,5.1-1.7,2.1-2.9,4.5-3.7,7.2-.8,2.7-1.2,5.5-1.2,8.4s.4,5.5,1.2,8.1Z"/>
  <path class="cls-1" d="M2512.2,84.5l-25.4-65.8h17.7l17.5,46.3h.2l17.7-46.3h17.8l-26,65.8h-19.4Z"/>
  <path class="cls-1" d="M2598.4,18.7l29.3,65.8h-17.9l-5.9-14.7h-29.3l-6.1,14.7h-17.3l29.6-65.8h17.7ZM2599.4,59l-9.9-24.2h-.2l-10.2,24.2h20.3Z"/>
  <path class="cls-1" d="M2618.3,30.8v-12.2h64.2v12.2h-23.5v53.7h-17.2V30.8h-23.5Z"/>
  <path class="cls-1" d="M2708.7,18.7v65.8h-17.2V18.7h17.2Z"/>
  <path class="cls-1" d="M2723.1,38.2c1.8-4.2,4.3-7.9,7.6-11s7.3-5.6,12.1-7.4c4.8-1.8,10.2-2.7,16.2-2.7s11.5.9,16.2,2.7c4.8,1.8,8.8,4.2,12.1,7.4s5.8,6.8,7.6,11c1.8,4.2,2.6,8.8,2.6,13.7s-.9,9.3-2.6,13.4-4.3,7.8-7.6,10.8c-3.3,3.1-7.3,5.5-12.1,7.2-4.8,1.8-10.2,2.6-16.2,2.6s-11.4-.9-16.2-2.6c-4.8-1.8-8.8-4.2-12.1-7.2-3.3-3.1-5.8-6.7-7.6-10.8-1.8-4.1-2.6-8.6-2.6-13.4s.9-9.5,2.6-13.7ZM2738.9,59.9c.8,2.6,2,5,3.7,7.1,1.7,2.1,3.9,3.8,6.6,5,2.7,1.3,6,1.9,9.9,1.9s7.2-.6,9.9-1.9c2.7-1.3,4.9-2.9,6.6-5,1.7-2.1,2.9-4.4,3.7-7.1.8-2.6,1.2-5.3,1.2-8.1s-.4-5.7-1.2-8.4c-.8-2.7-2-5.1-3.7-7.2-1.7-2.1-3.9-3.8-6.6-5.1-2.7-1.3-6-1.9-9.9-1.9s-7.2.6-9.9,1.9c-2.7,1.3-4.9,3-6.6,5.1-1.7,2.1-2.9,4.5-3.7,7.2-.8,2.7-1.2,5.5-1.2,8.4s.4,5.5,1.2,8.1Z"/>
  <path class="cls-1" d="M2826.4,18.7l32.7,44.2h.2V18.7h16.1v65.8h-17.2l-32.6-44.1h-.2v44.1h-16.1V18.7h17.1Z"/>
  <path class="cls-1" d="M2958.1,30.8h-38.7v-12.2h61.7v11.4l-42,42.2h43.1v12.2h-66.1v-11.4l42-42.2Z"/>
  <path class="cls-1" d="M3049.9,79.5c-5.9,4.3-14.1,6.5-24.6,6.5s-18.8-2.2-24.6-6.5c-5.8-4.3-8.7-10.9-8.7-19.9V18.7h17.2v40.9c0,1.8.2,3.5.5,5.3.4,1.7,1.1,3.2,2.3,4.6,1.2,1.3,2.8,2.4,4.9,3.2,2.1.8,4.9,1.2,8.4,1.2,6.1,0,10.4-1.2,12.7-3.5,2.3-2.3,3.5-5.9,3.5-10.8V18.7h17.2v40.9c0,8.9-3,15.5-8.9,19.9Z"/>
  <path class="cls-1" d="M3090.6,84.5l-25.4-65.8h17.7l17.5,46.3h.2l17.7-46.3h17.8l-26,65.8h-19.4Z"/>
  <path class="cls-1" d="M3201.3,18.7v12.2h-41.4v14.1h38v11.2h-38v16.1h42.3v12.2h-59.5V18.7h58.6Z"/>
  <path class="cls-1" d="M3256.1,18.7c3.5,0,6.7.5,9.5,1.4,2.8,1,5.2,2.3,7.2,3.9,2,1.7,3.5,3.6,4.6,5.8,1.1,2.2,1.6,4.5,1.6,7.1,0,3.9-1,7.2-2.9,10-1.9,2.8-5.1,5-9.5,6.5v.2c2.1.5,3.9,1.2,5.3,2.3,1.4,1,2.5,2.2,3.4,3.6.9,1.4,1.5,2.9,1.9,4.6.4,1.7.7,3.3.8,5,0,1,.1,2.3.2,3.7,0,1.4.2,2.9.4,4.3.2,1.5.5,2.9.9,4.2.4,1.3,1,2.4,1.8,3.4h-17.2c-1-2.1-1.5-4.6-1.8-7.5-.2-2.9-.5-5.7-1-8.3-.6-3.4-1.8-6-3.7-7.6-1.9-1.6-5-2.4-9.3-2.4h-17.2v25.7h-17.2V18.7h42.3ZM3250,48.4c4,0,6.9-.7,8.9-2.2,2-1.5,3-3.9,3-7.2s-1-5.5-3-7-4.9-2.2-8.9-2.2h-18.9v18.5h18.9Z"/>
  <path class="cls-1" d="M3310.3,18.7v53.7h38.2v12.2h-55.4V18.7h17.2Z"/>
  <path class="cls-1" d="M3397.3,18.7l29.3,65.8h-17.9l-5.9-14.7h-29.3l-6.1,14.7h-17.3l29.6-65.8h17.7ZM3384.3.5v10.8h-14.8V.5h14.8ZM3398.3,59l-9.9-24.2h-.2l-10.2,24.2h20.3ZM3406.9.5v10.8h-14.8V.5h14.8Z"/>
  <path class="cls-1" d="M3446.6,68.3c1,1.5,2.2,2.8,3.8,3.7,1.6,1,3.4,1.7,5.5,2.1,2.1.5,4.3.7,6.6.7s3.2-.1,4.9-.3c1.8-.2,3.4-.6,4.9-1.2,1.5-.6,2.8-1.5,3.8-2.5,1-1.1,1.5-2.4,1.5-4.1s-.7-3.2-2-4.3c-1.4-1.1-3.1-2-5.3-2.8-2.2-.7-4.7-1.4-7.5-1.9-2.8-.6-5.6-1.2-8.5-1.8-2.9-.6-5.8-1.4-8.6-2.3-2.8-.9-5.3-2-7.5-3.5-2.2-1.4-4-3.2-5.3-5.3-1.4-2.1-2-4.7-2-7.7s.9-6.3,2.6-8.8c1.7-2.5,4-4.6,6.8-6.2,2.8-1.7,5.9-2.9,9.4-3.7,3.5-.8,7-1.2,10.5-1.2s8,.4,11.8,1.2c3.8.8,7.1,2,10,3.7,2.9,1.7,5.2,3.9,7,6.6,1.7,2.7,2.6,5.9,2.6,9.7h-16.7c-.1-2-.6-3.6-1.5-4.9-.8-1.3-2-2.3-3.3-3-1.4-.7-3-1.3-4.8-1.6-1.8-.3-3.8-.5-5.9-.5s-2.8.1-4.2.4c-1.4.2-2.7.7-3.8,1.3-1.1.6-2.1,1.4-2.8,2.3-.7.9-1.1,2.1-1.1,3.5s.3,2.3.9,3.1c.6.8,1.7,1.5,3.5,2.2,1.7.7,4.1,1.4,7.1,2,3,.7,7,1.5,11.9,2.6,1.5.2,3.5.7,6.1,1.3,2.6.6,5.2,1.7,7.7,3.1,2.6,1.4,4.8,3.3,6.6,5.7s2.8,5.4,2.8,9.1-.7,5.8-2.1,8.4c-1.4,2.6-3.5,4.8-6.2,6.7s-6.1,3.3-10.2,4.4c-4.1,1-8.8,1.6-14.1,1.6s-8.5-.4-12.6-1.3c-4.1-.9-7.6-2.3-10.8-4.2-3.1-1.9-5.6-4.3-7.4-7.3-1.8-3-2.7-6.5-2.6-10.5h16.7c0,2.2.5,4.1,1.4,5.6Z"/>
  <path class="cls-1" d="M3517.8,68.3c1,1.5,2.2,2.8,3.8,3.7,1.6,1,3.4,1.7,5.5,2.1,2.1.5,4.3.7,6.6.7s3.2-.1,4.9-.3c1.8-.2,3.4-.6,4.9-1.2,1.5-.6,2.8-1.5,3.8-2.5,1-1.1,1.5-2.4,1.5-4.1s-.7-3.2-2-4.3c-1.4-1.1-3.1-2-5.3-2.8-2.2-.7-4.7-1.4-7.5-1.9-2.8-.6-5.6-1.2-8.5-1.8-2.9-.6-5.8-1.4-8.6-2.3-2.8-.9-5.3-2-7.5-3.5-2.2-1.4-4-3.2-5.3-5.3-1.4-2.1-2-4.7-2-7.7s.9-6.3,2.6-8.8c1.7-2.5,4-4.6,6.8-6.2,2.8-1.7,5.9-2.9,9.4-3.7,3.5-.8,7-1.2,10.5-1.2s8,.4,11.8,1.2c3.8.8,7.1,2,10,3.7,2.9,1.7,5.2,3.9,7,6.6,1.7,2.7,2.6,5.9,2.6,9.7h-16.7c-.1-2-.6-3.6-1.5-4.9-.8-1.3-2-2.3-3.3-3-1.4-.7-3-1.3-4.8-1.6-1.8-.3-3.8-.5-5.9-.5s-2.8.1-4.2.4c-1.4.2-2.7.7-3.8,1.3-1.1.6-2.1,1.4-2.8,2.3-.7.9-1.1,2.1-1.1,3.5s.3,2.3.9,3.1c.6.8,1.7,1.5,3.5,2.2,1.7.7,4.1,1.4,7.1,2,3,.7,7,1.5,11.9,2.6,1.5.2,3.5.7,6.1,1.3,2.6.6,5.2,1.7,7.7,3.1,2.6,1.4,4.8,3.3,6.6,5.7s2.8,5.4,2.8,9.1-.7,5.8-2.1,8.4c-1.4,2.6-3.5,4.8-6.2,6.7s-6.1,3.3-10.2,4.4c-4.1,1-8.8,1.6-14.1,1.6s-8.5-.4-12.6-1.3c-4.1-.9-7.6-2.3-10.8-4.2-3.1-1.9-5.6-4.3-7.4-7.3-1.8-3-2.7-6.5-2.6-10.5h16.7c0,2.2.5,4.1,1.4,5.6Z"/>
  <path class="cls-1" d="M3593.1,18.7v65.8h-17.2V18.7h17.2Z"/>
  <path class="cls-1" d="M3654.7,84c-3.7,1.3-7.5,2-11.3,2-6,0-11.4-.9-16.2-2.6-4.8-1.8-8.8-4.2-12.1-7.2-3.3-3.1-5.8-6.7-7.6-10.8-1.8-4.1-2.6-8.6-2.6-13.4s.9-9.5,2.6-13.7c1.8-4.2,4.3-7.9,7.6-11s7.3-5.6,12.1-7.4c4.8-1.8,10.2-2.7,16.2-2.7s7.9.5,11.7,1.5c3.8,1,7.2,2.5,10.2,4.5,3,2,5.5,4.4,7.5,7.3,2,2.9,3.2,6.2,3.6,10h-16.5c-1-3.7-3-6.5-5.9-8.3-2.9-1.8-6.5-2.8-10.6-2.8s-7.2.6-9.9,1.9c-2.7,1.3-4.9,3-6.6,5.1-1.7,2.1-2.9,4.5-3.7,7.2-.8,2.7-1.2,5.5-1.2,8.4s.4,5.5,1.2,8.1c.8,2.6,2,5,3.7,7.1,1.7,2.1,3.9,3.8,6.6,5,2.7,1.3,6,1.9,9.9,1.9,5.7,0,10.1-1.2,13.2-3.6,3.1-2.4,4.9-5.9,5.4-10.6h-17.3v-10.8h32.9v35.6h-11l-1.8-7.5c-3.1,3.3-6.5,5.6-10.2,7Z"/>
  <path class="cls-1" d="M3708.8,18.7v27.3l30.6-27.3h21.5l-30.6,26,33.6,39.8h-21.6l-23.6-29.6-9.9,8.4v21.2h-17.2V18.7h17.2Z"/>
  <path class="cls-1" d="M3829.4,18.7v12.2h-41.4v14.1h38v11.2h-38v16.1h42.3v12.2h-59.5V18.7h58.6Z"/>
  <path class="cls-1" d="M3859.2,18.7v65.8h-17.2V18.7h17.2Z"/>
  <path class="cls-1" d="M3868.2,30.8v-12.2h64.2v12.2h-23.5v53.7h-17.2V30.8h-23.5Z"/>
  <path class="cls-1" d="M4018.3,84c-3.7,1.3-7.5,2-11.3,2-6,0-11.4-.9-16.2-2.6-4.8-1.8-8.8-4.2-12.1-7.2-3.3-3.1-5.8-6.7-7.6-10.8-1.8-4.1-2.6-8.6-2.6-13.4s.9-9.5,2.6-13.7c1.8-4.2,4.3-7.9,7.6-11s7.3-5.6,12.1-7.4c4.8-1.8,10.2-2.7,16.2-2.7s7.9.5,11.7,1.5c3.8,1,7.2,2.5,10.2,4.5,3,2,5.5,4.4,7.5,7.3,2,2.9,3.2,6.2,3.6,10h-16.5c-1-3.7-3-6.5-5.9-8.3-2.9-1.8-6.5-2.8-10.6-2.8s-7.2.6-9.9,1.9c-2.7,1.3-4.9,3-6.6,5.1-1.7,2.1-2.9,4.5-3.7,7.2-.8,2.7-1.2,5.5-1.2,8.4s.4,5.5,1.2,8.1c.8,2.6,2,5,3.7,7.1,1.7,2.1,3.9,3.8,6.6,5,2.7,1.3,6,1.9,9.9,1.9,5.7,0,10.1-1.2,13.2-3.6,3.1-2.4,4.9-5.9,5.4-10.6h-17.3v-10.8h32.9v35.6h-11l-1.8-7.5c-3.1,3.3-6.5,5.6-10.2,7Z"/>
  <path class="cls-1" d="M4072.4,18.7v53.7h38.2v12.2h-55.4V18.7h17.2Z"/>
  <path class="cls-1" d="M4159.4,18.7l29.3,65.8h-17.9l-5.9-14.7h-29.3l-6.1,14.7h-17.3l29.6-65.8h17.7ZM4160.4,59l-9.9-24.2h-.2l-10.2,24.2h20.3Z"/>
  <path class="cls-1" d="M4253.1,79.5c-5.9,4.3-14.1,6.5-24.6,6.5s-18.8-2.2-24.6-6.5c-5.8-4.3-8.7-10.9-8.7-19.9V18.7h17.2v40.9c0,1.8.2,3.5.5,5.3.4,1.7,1.1,3.2,2.3,4.6,1.2,1.3,2.8,2.4,4.9,3.2,2.1.8,4.9,1.2,8.4,1.2,6.1,0,10.4-1.2,12.7-3.5,2.3-2.3,3.5-5.9,3.5-10.8V18.7h17.2v40.9c0,8.9-3,15.5-8.9,19.9Z"/>
  <path class="cls-1" d="M4313.7,18.7c3.7,0,7.1.3,10.2.8,3.1.6,5.7,1.5,7.9,2.7,2.2,1.3,3.9,2.9,5.1,5,1.2,2.1,1.8,4.7,1.8,7.7s-.9,6.1-2.7,8.3c-1.8,2.2-4.4,4-8,5.4,4.8,1.2,8.4,3.2,10.8,6.1,2.4,2.9,3.6,6.4,3.6,10.6s-.8,6.2-2.3,8.6c-1.5,2.4-3.6,4.4-6.2,5.9-2.6,1.5-5.6,2.7-8.9,3.4-3.3.7-6.8,1.1-10.3,1.1h-38V18.7h36.9ZM4311.5,45.3c3.1,0,5.6-.6,7.6-1.8,2-1.2,3-3.2,3-6s-.3-2.8-1-3.8c-.7-1-1.5-1.8-2.6-2.3-1.1-.6-2.4-.9-3.8-1.2-1.4-.2-2.9-.3-4.4-.3h-16.1v15.4h17.5ZM4312.5,73.2c1.7,0,3.3-.1,4.8-.4,1.5-.3,2.9-.7,4.1-1.4,1.2-.6,2.1-1.5,2.8-2.6.7-1.1,1-2.5,1-4.2,0-3.4-1.1-5.8-3.4-7.2-2.3-1.4-5.3-2.2-9-2.2h-18.8v18.1h18.4Z"/>
  <path class="cls-1" d="M4411.6,84.5l-13.3-44.8h-.2l-13.1,44.8h-17.5l-20.7-65.8h17.2l12.4,44.8h.2l13.6-44.8h16.1l13.4,45.4h.2l12.8-45.4h16.9l-21.1,65.8h-17.1Z"/>
  <path class="cls-1" d="M4515.3,79.5c-5.9,4.3-14.1,6.5-24.6,6.5s-18.8-2.2-24.6-6.5c-5.8-4.3-8.7-10.9-8.7-19.9V18.7h17.2v40.9c0,1.8.2,3.5.5,5.3.4,1.7,1.1,3.2,2.3,4.6,1.2,1.3,2.8,2.4,4.9,3.2,2.1.8,4.9,1.2,8.4,1.2,6.1,0,10.4-1.2,12.7-3.5,2.3-2.3,3.5-5.9,3.5-10.8V18.7h17.2v40.9c0,8.9-3,15.5-8.9,19.9ZM4486.9.5v10.8h-14.8V.5h14.8ZM4509.5.5v10.8h-14.8V.5h14.8Z"/>
  <path class="cls-1" d="M4581.3,18.7c3.5,0,6.7.5,9.5,1.4,2.8,1,5.2,2.3,7.2,3.9,2,1.7,3.5,3.6,4.6,5.8,1.1,2.2,1.6,4.5,1.6,7.1,0,3.9-1,7.2-2.9,10-1.9,2.8-5.1,5-9.5,6.5v.2c2.1.5,3.9,1.2,5.3,2.3,1.4,1,2.5,2.2,3.4,3.6.9,1.4,1.5,2.9,1.9,4.6.4,1.7.7,3.3.8,5,0,1,.1,2.3.2,3.7,0,1.4.2,2.9.4,4.3.2,1.5.5,2.9.9,4.2.4,1.3,1,2.4,1.8,3.4h-17.2c-1-2.1-1.5-4.6-1.8-7.5-.2-2.9-.5-5.7-1-8.3-.6-3.4-1.8-6-3.7-7.6-1.9-1.6-5-2.4-9.3-2.4h-17.2v25.7h-17.2V18.7h42.3ZM4575.2,48.4c4,0,6.9-.7,8.9-2.2,2-1.5,3-3.9,3-7.2s-1-5.5-3-7c-2-1.4-4.9-2.2-8.9-2.2h-18.9v18.5h18.9Z"/>
  <path class="cls-1" d="M4652.1,18.7c5,0,9.8.7,14.1,2,4.4,1.4,8.1,3.4,11.3,6.1,3.2,2.7,5.7,6.1,7.5,10.1,1.8,4.1,2.7,8.8,2.7,14.3s-.7,9.2-2.2,13.3c-1.5,4.1-3.7,7.6-6.6,10.5s-6.7,5.3-11.1,7c-4.4,1.7-9.6,2.5-15.6,2.5h-33.8V18.7h33.8ZM4650.9,72.3c2.5,0,4.9-.3,7.2-1,2.3-.7,4.4-1.8,6.3-3.4,1.8-1.6,3.3-3.6,4.4-6.1,1.1-2.5,1.6-5.6,1.6-9.2s-.4-6.3-1.2-9c-.8-2.7-2-5-3.8-6.9-1.8-1.9-4.1-3.4-7-4.4-2.9-1-6.5-1.5-10.7-1.5h-12.3v41.5h15.4Z"/>
  <path class="cls-1" d="M4716.9,18.7v65.8h-17.2V18.7h17.2Z"/>
  <path class="cls-1" d="M4778.4,84c-3.7,1.3-7.5,2-11.3,2-6,0-11.4-.9-16.2-2.6-4.8-1.8-8.8-4.2-12.1-7.2-3.3-3.1-5.8-6.7-7.6-10.8-1.8-4.1-2.6-8.6-2.6-13.4s.9-9.5,2.6-13.7c1.8-4.2,4.3-7.9,7.6-11s7.3-5.6,12.1-7.4c4.8-1.8,10.2-2.7,16.2-2.7s7.9.5,11.7,1.5c3.8,1,7.2,2.5,10.2,4.5,3,2,5.5,4.4,7.5,7.3,2,2.9,3.2,6.2,3.6,10h-16.5c-1-3.7-3-6.5-5.9-8.3-2.9-1.8-6.5-2.8-10.6-2.8s-7.2.6-9.9,1.9c-2.7,1.3-4.9,3-6.6,5.1-1.7,2.1-2.9,4.5-3.7,7.2-.8,2.7-1.2,5.5-1.2,8.4s.4,5.5,1.2,8.1c.8,2.6,2,5,3.7,7.1,1.7,2.1,3.9,3.8,6.6,5,2.7,1.3,6,1.9,9.9,1.9,5.7,0,10.1-1.2,13.2-3.6,3.1-2.4,4.9-5.9,5.4-10.6h-17.3v-10.8h32.9v35.6h-11l-1.8-7.5c-3.1,3.3-6.5,5.6-10.2,7Z"/>
  <path class="cls-1" d="M4832.5,18.7v27.3l30.6-27.3h21.5l-30.6,26,33.6,39.8h-21.6l-23.6-29.6-9.9,8.4v21.2h-17.2V18.7h17.2Z"/>
  <path class="cls-1" d="M4953.2,18.7v12.2h-41.4v14.1h38v11.2h-38v16.1h42.3v12.2h-59.5V18.7h58.6Z"/>
  <path class="cls-1" d="M4982.9,18.7v65.8h-17.2V18.7h17.2Z"/>
  <path class="cls-1" d="M4991.9,30.8v-12.2h64.2v12.2h-23.5v53.7h-17.2V30.8h-23.5Z"/>
  <path class="cls-1" d="M5108.8,68.3c.9,1.5,2.2,2.8,3.8,3.7,1.6,1,3.4,1.7,5.5,2.1,2.1.5,4.3.7,6.6.7s3.2-.1,4.9-.3c1.8-.2,3.4-.6,4.9-1.2,1.5-.6,2.8-1.5,3.8-2.5,1-1.1,1.5-2.4,1.5-4.1s-.7-3.2-2-4.3c-1.4-1.1-3.1-2-5.3-2.8-2.2-.7-4.7-1.4-7.5-1.9-2.8-.6-5.6-1.2-8.5-1.8-2.9-.6-5.8-1.4-8.6-2.3-2.8-.9-5.3-2-7.5-3.5-2.2-1.4-4-3.2-5.3-5.3-1.4-2.1-2-4.7-2-7.7s.9-6.3,2.6-8.8c1.7-2.5,4-4.6,6.8-6.2,2.8-1.7,5.9-2.9,9.4-3.7,3.5-.8,7-1.2,10.5-1.2s8,.4,11.8,1.2c3.8.8,7.1,2,10,3.7,2.9,1.7,5.2,3.9,7,6.6,1.7,2.7,2.6,5.9,2.6,9.7h-16.7c-.1-2-.6-3.6-1.5-4.9-.8-1.3-2-2.3-3.3-3-1.4-.7-3-1.3-4.8-1.6-1.8-.3-3.8-.5-5.9-.5s-2.8.1-4.2.4c-1.4.2-2.7.7-3.8,1.3-1.1.6-2.1,1.4-2.8,2.3-.7.9-1.1,2.1-1.1,3.5s.3,2.3.9,3.1c.6.8,1.7,1.5,3.5,2.2,1.7.7,4.1,1.4,7.1,2,3,.7,7,1.5,11.9,2.6,1.5.2,3.5.7,6.1,1.3,2.6.6,5.2,1.7,7.7,3.1,2.6,1.4,4.8,3.3,6.6,5.7,1.9,2.4,2.8,5.4,2.8,9.1s-.7,5.8-2.1,8.4c-1.4,2.6-3.5,4.8-6.2,6.7s-6.1,3.3-10.2,4.4c-4.1,1-8.8,1.6-14.1,1.6s-8.5-.4-12.6-1.3c-4.1-.9-7.6-2.3-10.8-4.2-3.1-1.9-5.6-4.3-7.4-7.3-1.8-3-2.7-6.5-2.6-10.5h16.7c0,2.2.5,4.1,1.4,5.6Z"/>
  <path class="cls-1" d="M5184.1,18.7v65.8h-17.2V18.7h17.2Z"/>
  <path class="cls-1" d="M5249.5,36.2c-1-1.4-2.3-2.6-3.8-3.6-1.5-1-3.3-1.9-5.2-2.4-1.9-.6-4-.9-6.1-.9-3.9,0-7.2.6-9.9,1.9-2.7,1.3-4.9,3-6.6,5.1-1.7,2.1-2.9,4.5-3.7,7.2-.8,2.7-1.2,5.5-1.2,8.4s.4,5.5,1.2,8.1c.8,2.6,2,5,3.7,7.1,1.7,2.1,3.9,3.8,6.6,5,2.7,1.3,6,1.9,9.9,1.9s9.4-1.4,12.3-4.1c3-2.7,4.8-6.3,5.4-10.7h16.7c-.4,4.1-1.6,7.8-3.4,11.2s-4.2,6.1-7.2,8.5c-3,2.3-6.5,4.1-10.5,5.3-4,1.2-8.5,1.8-13.3,1.8s-11.4-.9-16.2-2.6c-4.8-1.8-8.8-4.2-12.1-7.2-3.3-3.1-5.8-6.7-7.6-10.8-1.8-4.1-2.6-8.6-2.6-13.4s.9-9.5,2.6-13.7c1.8-4.2,4.3-7.9,7.6-11s7.3-5.6,12.1-7.4c4.8-1.8,10.2-2.7,16.2-2.7s8.4.5,12.2,1.6c3.8,1,7.3,2.6,10.3,4.6,3,2,5.5,4.5,7.5,7.4s3.2,6.3,3.7,10.1h-16.7c-.3-1.7-1-3.2-2-4.6Z"/>
  <path class="cls-1" d="M5297.8,18.7v25.3h31.7v-25.3h17.2v65.8h-17.2v-28.4h-31.7v28.4h-17.2V18.7h17.2Z"/>
  <path class="cls-1" d="M5420.6,18.7v12.2h-41.4v14.1h38v11.2h-38v16.1h42.3v12.2h-59.5V18.7h58.6Z"/>
  <path class="cls-1" d="M5475.3,18.7c3.5,0,6.7.5,9.5,1.4,2.8,1,5.2,2.3,7.2,3.9,2,1.7,3.5,3.6,4.6,5.8,1.1,2.2,1.6,4.5,1.6,7.1,0,3.9-1,7.2-2.9,10-1.9,2.8-5.1,5-9.5,6.5v.2c2.1.5,3.9,1.2,5.3,2.3,1.4,1,2.5,2.2,3.4,3.6.9,1.4,1.5,2.9,1.9,4.6.4,1.7.7,3.3.8,5,0,1,.1,2.3.2,3.7,0,1.4.2,2.9.4,4.3.2,1.5.5,2.9.9,4.2.4,1.3,1,2.4,1.8,3.4h-17.2c-1-2.1-1.5-4.6-1.8-7.5-.2-2.9-.5-5.7-1-8.3-.6-3.4-1.8-6-3.7-7.6-1.9-1.6-5-2.4-9.3-2.4h-17.2v25.7h-17.2V18.7h42.3ZM5469.2,48.4c4,0,6.9-.7,8.9-2.2,2-1.5,3-3.9,3-7.2s-1-5.5-3-7c-2-1.4-4.9-2.2-8.9-2.2h-18.9v18.5h18.9Z"/>
  <path class="cls-1" d="M5529.5,18.7v25.3h31.7v-25.3h17.2v65.8h-17.2v-28.4h-31.7v28.4h-17.2V18.7h17.2Z"/>
  <path class="cls-1" d="M5652.3,18.7v12.2h-41.4v14.1h38v11.2h-38v16.1h42.3v12.2h-59.5V18.7h58.6Z"/>
  <path class="cls-1" d="M5682,18.7v65.8h-17.2V18.7h17.2Z"/>
  <path class="cls-1" d="M5691,30.8v-12.2h64.2v12.2h-23.5v53.7h-17.2V30.8h-23.5Z"/>
</svg>