<?xml version="1.0" encoding="UTF-8"?>
<svg id="Ebene_1" data-name="Ebene 1" xmlns="http://www.w3.org/2000/svg" version="1.1" viewBox="0 0 1027.7 1430.5">
  <defs>
    <style>
      .cls-1 {
        fill: #a6a6a6;
      }

      .cls-1, .cls-2 {
        stroke-width: 0px;
      }

      .cls-2 {
        fill: #4b4b4b;
      }

      .cls-3 {
        opacity: .5;
      }

      .cls-4 {
        opacity: .5;
      }
    </style>
  </defs>
  <g class="cls-3">
    <g class="cls-4">
      <g>
        <path class="cls-1" d="M459.3,1343.3l-71.5,40.9-30.6-19.1-.3-.2,17.1,27.1-52,29.8h-.2c0,.1.3.1.3.1l82.9,19.4-29,46.9h-.4s.4.1.4.1l18.8,51-24.8,51.4h0c0,0,0,0,0,0l43,52.6-11.3,41.4h0s27.3,32.1,27.3,32.1l-43.5,27.4h.2s68.9,26.9,68.9,26.9l-3.6,73-71,10.7h0s-19.2,84.5-19.2,84.5l-.3.3.3-.2,96.1,71.4-68.8,56.8h-.1c0,0,21.7,6.3,21.7,6.3l-21.5,28.7h-.1s37.6,60.1,37.6,60.1h0c0,0,86-25.3,86-25.3h0c0,0,0,0,0,0l37.1,74.6h0c0,0,0,0,0,0l25.2.7,39.9,48.7h0c0,0,17.7-57,17.7-57l50.2-27.6,33.3-1.6,27,38.6h0s106.2-8,106.2-8h.3s-83.9-33.1-83.9-33.1h0s0,0,0,0l-4.4-55h0s-.2,0-.2,0l-35.9,20h-.2s-39.1-6.1-39.1-6.1l-24.3-60.6,43.8-39.4h.3c0,0-.6,0-.6,0l-53.9,13.2-26.9-70.4h0s-104.6-24.8-104.6-24.8l21.6-125.2h.1s0,0,0,0h0c0,0,0,0,0,0l-34.5-79.4h0s-49.6-.3-49.6-.3l2.3-46h0s0,0,0,0h0s0,0,0,0l-20.2-24.7,53.5-16.4h-.1c0,0-69.7-45.3-69.7-45.3l-18.9-51.4,42.2-39h0s0,0,0,0l55.1-4.4h0c0,0,0,0,0,0l19.7-14.6,30,10.2.3.4v-.3s-.1-.2-.1-.2l28.7-53.6v-.3c.1,0,.1-.1.1-.1l-31.9,23.6-6.6-65.8v-.3c.1,0,0,.2,0,.2l-81-73.3v-.3c0,0-.1.3-.1.3ZM540.3,1416.7l-44.7,47.5-47.9-42.7,92.6-4.8ZM549.9,1512.4v.2c0,0-19.6-17.5-19.6-17.5l16.7-12.4,3,29.9v-.2ZM520,1502.5l-12.1-4.1,6.8-17,15.4,13.7-10.1,7.4ZM507.7,1498.4l-33.4-11.4,21.3-22.6,19,16.9-6.8,17.1ZM474,1487.1l-28.8,34.4.7-31.2,28.1-3.2ZM411.2,1505.2l-34.7-16.8,40.4,5-5.7,11.8ZM417,1493.6l27.7,27.9-33.4-16.1,5.7-11.7ZM417.1,1493.5l13.1-1.5,14.6,29.3-27.7-27.8ZM430.4,1492l15.4-1.7-.7,31.1-14.6-29.4ZM445.9,1490.1l1.6-68.5,47.9,42.7-21.3,22.6h0s-28.2,3.2-28.2,3.2ZM540.2,1417l-25.6,64.2-18.9-16.9,44.6-47.3ZM547,1482.6l-16.8,12.4-15.5-13.7,25.7-64.3,6.6,65.6ZM550.1,1512.6l-3-30,31.6-23.4-28.6,53.4ZM520.1,1502.6l10-7.4,19.6,17.5-29.6-10.1ZM500.4,1517l7.4-18.5,12,4.1-19.4,14.4ZM500.2,1517.1l-25.9-29.9,33.3,11.3-7.4,18.6ZM445.2,1521.6l28.9-34.5,26,30.1-54.9,4.4ZM458,1698.6l-56-13.6,35.9-11,20.1,24.6ZM455.8,1744.9l-.2,3.3-2.8-3.3h3ZM539.9,1824.3l-54.4-41.1-29.7-34.9.2-3.5,49.5.3,34.4,79.2ZM487.6,1836.1l-2.1-52.7,54.4,41.1-52.3,11.6ZM539.6,1824.7l-51.3,27.9-.6-16.3,52-11.6ZM489.1,1875.6l8.3,69.1-20.9-15.9,12.6-53.2ZM476.3,1928.7l-37.2-28.4,49.9-25-12.6,53.3ZM497.2,1944.8l-24.5-.2,3.7-15.6,20.8,15.8ZM497.4,1944.9l14.6,41.6-43.3-24.8,4-17.1,24.7.2ZM468.5,1961.7l-30.3-17.3,34.3.3-4,17ZM438,1944.2l-10.2-38.2,11.2-5.6,37.3,28.5-3.7,15.7-34.6-.3ZM427.8,1905.9l-4.7-17.6,15.8,12-11.1,5.5ZM423.1,1888.1l65.5-12.7-49.6,24.8-15.9-12.1ZM423.4,1887.9l48.7-26.4,16.9,13.7-65.5,12.7ZM423.2,1887.9l27.8-43.4,21,17-48.8,26.5ZM488.1,1852.8l.9,22.3-16.8-13.6,15.9-8.7ZM488.3,1852.7l51.4-27.9-50.5,50.2-.9-22.4ZM518.4,1949.8l-20.9-5-8.3-69.5h0s0,0,0,0l50.8-50.5-21.6,125ZM518.4,1949.9l-6.3,36.5-14.6-41.4,20.9,4.9ZM622.7,1974.6l-110.5,12,6.3-36.7,104.1,24.7ZM622.8,1974.8l-67.2,46.5-43.4-34.5,110.5-12ZM615.2,2112.5l32.3,31.3-14.3,4.6-18-35.9ZM633,2148.4l-40.8,13.1,22.7-49.1,18.1,36.1ZM684.5,2132.1l-25.8,22.4-10.9-10.6,36.8-11.8ZM658.5,2154.5l-15.6,13.5-9.8-19.5,14.4-4.6,11,10.6ZM642.8,2168.1l-40,18.7-10.7-25.2,40.9-13.1,9.8,19.6ZM642.8,2168.3l-28.3,45.7-11.5-27,39.8-18.7ZM566.7,2203.8l-5.2-6.3,30.5-35.8,10.7,25.2-36.1,16.9ZM561.4,2197.4l-12.1-14.7,42.4-20.8-30.4,35.6ZM549.3,2182.5l1-33.3,41.5,12.4-42.5,20.9ZM550.4,2149.1l1.4-46.9,40.1,59.3-41.5-12.4ZM551.8,2101.9l.3-.3,62.7,10.6-22.8,49.2-40.2-59.5ZM555.6,2021.4l43.7,34.8-70.6-16.2,26.9-18.6ZM528.6,2040l-16.4-53.1,43.3,34.5-26.9,18.6ZM599.5,2056.4l-47.4,45.1h-.1s0,0,0,0l-.2.2-23-61.5,70.8,16.2ZM522.8,2074.1l5.8-33.7,23,61.3-28.8-27.6ZM551.5,2101.8l-32.7-5,3.9-22.6,28.8,27.6ZM649.9,2045.2l-35,66.8-15.2-55.6,50.2-11.2ZM614.8,2112.1l-62.6-10.6,47.3-45,15.2,55.6ZM551.4,2101.9l-39.6,35.5,7-40.5,32.6,5ZM511.6,2137.5l-55.8-50.2,62.8,9.6-7,40.6ZM511.4,2137.4l-68.1-19.1,12.3-31.1,55.7,50.2ZM455.8,2087.1l28.1-50.1,38.7,37.1-3.9,22.7-62.9-9.7ZM484,2036.9l6.8-12,37.7,15.3-5.8,33.8-38.7-37ZM483.9,2036.8l-26.7-25.6,33.4,13.5-6.8,12ZM490.8,2024.7l21.3-37.9,16.4,53.1-37.6-15.3ZM622.9,1974.9l-23.3,81.4-43.8-34.9,67.2-46.5ZM649.8,2045l-50.1,11.2,23.4-81.4,26.8,70.1h0ZM660.5,2071.1l-10.3-25.8v-.2s53.9-13.2,53.9-13.2l-43.5,39.2ZM615.2,2111.9l34.9-66.6,10.4,25.9-45.2,40.7ZM684.7,2131.8l-69.6-19.6,45.4-40.9,24.2,60.5ZM684.5,2131.9l-37,11.8-32.4-31.4,69.4,19.6ZM684.8,2132l18,25.7-20.9,19.2-23.1-22.4,26-22.5ZM702.8,2157.6l-17.8-25.5,29.2,15-11.4,10.5ZM724.1,2138.1l40,34.6-49.7-25.6,9.7-9ZM724,2138.1l-9.7,8.9-29.1-15,38.8,6ZM764.5,2172.9l-40.2-34.8,35.8-20,4.4,54.8ZM742.3,2214l22.3-40.9.5.2h-.1c0-.1,83,32.6,83,32.6l-105.7,8ZM715.3,2175.5l49.2-2.4-22.3,40.8-26.9-38.4ZM715.2,2175.4l-12.3-17.6,11.4-10.5,50,25.8-49.1,2.4ZM682.1,2177l20.8-19.1,12.2,17.5-33,1.6ZM631.7,2204.5l11.3-36.3,15.6-13.5,23.1,22.4-50,27.5ZM614.6,2213.9l28.1-45.3-11.1,36-16.9,9.3ZM614,2261.2l.5-47.1,17-9.4-17.5,56.4ZM574.2,2213.1l40.1,1.1-.5,47.3-39.6-48.4ZM574.1,2212.9l-7.4-9,36-16.9,11.5,27-40.2-1.1ZM549.1,2212.2l17.5-8.2,7.3,8.9-24.8-.7ZM549.1,2212.1l12.3-14.5,5.1,6.3-17.5,8.2ZM548.9,2212.1l.4-29.2,12,14.7-12.4,14.6ZM512,2138.1l37.2,44.6-.4,29.3-36.7-73.9ZM511.9,2137.7l38.3,11.4-1,33.3-37.3-44.7ZM511.8,2137.6l39.8-35.6h0s-1.5,47.1-1.5,47.1l-38.4-11.5ZM425.7,2162.9l17.6-44.4,68.1,19.1-85.7,25.3ZM388.3,2103l54.9,15.4-17.6,44.4-37.3-59.8ZM409.8,2074.1l45.8,13.1h0s0,0,0,0l-12.3,31.1-55-15.4,21.5-28.7ZM456.5,2011.5l-46.8,62.5-21.5-6.1,68.3-56.4ZM456.8,2011.3l-1.2,75.8-45.7-13,47-62.8ZM457,2011.2l26.9,25.7-28.1,50,1.2-75.7ZM512,1986.8l-21.3,37.8-33.6-13.6,54.9-24.2ZM457,2010.9l11.6-49,43.4,24.8-55,24.3ZM360.9,1939.6l77.1,4.8,30.5,17.4-11.6,49.1-96-71.3ZM427.7,1906.1l10.2,38.2-77-4.8,66.8-33.4ZM361,1939.3l89.5-94.4-27.6,43.1h-.1s.1.1.1.1l4.8,17.8-66.7,33.4ZM450.8,1844.5l-90,94.9,19.1-84.2,70.8-10.7ZM487.5,1836.3l.6,16.3-16.1,8.7-21-17,36.4-8.1ZM451.1,1844.3l34.3-60.7,2.1,52.6-36.4,8.1ZM454.7,1771.4l30.7,12-34.3,60.7,3.6-72.7ZM454.7,1771.2l1.1-22.7,29.4,34.6-30.5-11.9ZM386,1744.5l66.6.4,3,3.5-1.1,22.8-68.5-26.7ZM429.1,1717.1l23.5,27.6-66.6-.4,43.2-27.2ZM458.1,1698.8l-2.3,45.9h-3.1s-23.5-27.7-23.5-27.7l29-18.2ZM402,1685.1l56.1,13.6-28.9,18.2-27.1-31.9ZM413.2,1643.7l24.6,30.1-35.9,11,11.3-41.1ZM413.2,1643.5l8.6-31.2,69.5,45.1-53.3,16.4-24.7-30.3ZM370.3,1591l51.3,21.3-8.5,31.1-42.8-52.3ZM402.7,1560.9l18.9,51.2-51.4-21.3,32.5-30ZM394.9,1539.6l7.8,21.2-32.3,29.8,24.5-51ZM411.3,1505.4l33.7,16.3-42.2,38.9-7.8-21.2,16.3-34ZM376.2,1488.5l35,16.9-16.3,33.8-18.7-50.7ZM405.1,1441.4l25.1,50.4-13.2,1.5-40.8-5.1,28.9-46.8ZM447.4,1421.6l-1.6,68.5-15.4,1.7-25.1-50.5,42.2-19.8ZM405.3,1441.1l10.8-19.5h31.1c0-.1-41.9,19.5-41.9,19.5ZM447.2,1421.4h-31.1c0,.1,8-14.4,8-14.4l23.1,14.4ZM424.2,1406.9l35-63.2-11.8,77.7-23.2-14.4ZM415.9,1421.7l-10.8,19.5-12.2-19.4h23ZM322.6,1422l70-.3,12.3,19.5-82.3-19.2ZM374.1,1392.2l18.5,29.4-70.3.2,51.8-29.6ZM387.8,1384.4l36.3,22.6-8.1,14.6h-23.2c0,0-18.6-29.4-18.6-29.4l13.6-7.8ZM387.6,1384.3l-13.5,7.7-16.8-26.6,30.3,18.9ZM459.2,1343.5l-35.1,63.3-36.2-22.5,71.2-40.8ZM459.4,1343.5l80.9,73.1-92.7,4.8,11.9-77.9Z"/>
        <g>
          <path class="cls-2" d="M743.1,2212.4c.9.5,1.3,1.7.8,2.6-.5.9-1.7,1.3-2.6.8-.9-.5-1.3-1.7-.8-2.6.5-.9,1.7-1.3,2.6-.8Z"/>
          <path class="cls-2" d="M643.8,2166.5c.9.5,1.3,1.7.8,2.6-.5.9-1.7,1.2-2.6.7-.9-.5-1.3-1.6-.8-2.6.5-.9,1.7-1.3,2.6-.8Z"/>
          <path class="cls-2" d="M614.7,2260.3c.8.4,1.1,1.4.6,2.2-.4.8-1.4,1.1-2.2.6-.8-.4-1.1-1.4-.6-2.2.4-.8,1.4-1.1,2.2-.6Z"/>
          <path class="cls-2" d="M550.3,2180.8c1,.6,1.4,1.8.8,2.9-.6,1-1.8,1.4-2.9.8-1-.6-1.4-1.8-.8-2.9.6-1,1.8-1.4,2.9-.8Z"/>
          <path class="cls-2" d="M426.6,2161.1c1,.6,1.4,1.8.8,2.9-.6,1-1.8,1.4-2.9.8-1-.6-1.4-1.8-.8-2.9.6-1,1.8-1.4,2.9-.8Z"/>
          <path class="cls-2" d="M512.7,2135.7c1,.6,1.4,1.8.8,2.9-.6,1-1.8,1.4-2.9.8-1-.6-1.4-1.8-.8-2.9.6-1,1.8-1.4,2.9-.8Z"/>
          <path class="cls-2" d="M549.9,2210.4c1,.6,1.4,1.9.9,2.9-.6,1-1.9,1.4-2.9.9-1-.6-1.4-1.9-.9-2.9.6-1,1.9-1.4,2.9-.9Z"/>
          <path class="cls-2" d="M615.4,2212.2c1,.6,1.4,1.8.8,2.9-.6,1-1.8,1.4-2.8.8-1-.6-1.4-1.8-.8-2.8.6-1,1.8-1.4,2.9-.8Z"/>
          <path class="cls-2" d="M682.9,2175.2c1,.6,1.4,1.8.8,2.9-.6,1-1.8,1.4-2.9.8-1-.6-1.4-1.8-.8-2.9.6-1,1.8-1.4,2.8-.8Z"/>
          <path class="cls-2" d="M724.9,2136.6c.8.4,1.1,1.4.7,2.2-.4.8-1.4,1.1-2.2.7-.8-.4-1.1-1.4-.7-2.2.4-.8,1.4-1.1,2.2-.7Z"/>
          <path class="cls-2" d="M705,2030.5c.7.4.9,1.3.6,2-.4.7-1.3,1-1.9.6-.7-.4-.9-1.2-.6-2,.4-.7,1.3-.9,1.9-.6Z"/>
          <path class="cls-2" d="M490.1,1873.4c1,.6,1.4,1.8.8,2.9-.6,1-1.8,1.4-2.9.8-1-.6-1.4-1.8-.8-2.9.6-1,1.8-1.4,2.9-.8Z"/>
          <path class="cls-2" d="M541.1,1822.7c1,.6,1.4,1.8.8,2.8-.6,1-1.8,1.4-2.9.8-1-.6-1.4-1.8-.8-2.9.6-1,1.8-1.4,2.9-.8Z"/>
          <path class="cls-2" d="M506.6,1743.2c1,.6,1.4,1.8.8,2.9-.6,1-1.8,1.4-2.9.8-1-.6-1.4-1.8-.8-2.9.6-1,1.8-1.4,2.9-.8Z"/>
          <path class="cls-2" d="M386.7,1742.5c1,.6,1.4,1.8.8,2.9-.6,1-1.8,1.4-2.9.8-1-.6-1.4-1.8-.8-2.9.5-1,1.8-1.4,2.8-.8Z"/>
          <path class="cls-2" d="M388.8,2101.8c.6.4.9,1.2.5,1.8-.4.6-1.2.9-1.8.5-.6-.3-.9-1.1-.5-1.8.3-.6,1.2-.9,1.8-.5Z"/>
          <path class="cls-2" d="M388.8,2066.6c.7.4,1,1.3.6,2-.4.7-1.3,1-2,.6-.7-.4-1-1.3-.6-2,.4-.7,1.3-1,2-.6Z"/>
          <path class="cls-2" d="M685.8,2130.1c1,.6,1.4,1.8.8,2.9-.6,1-1.8,1.4-2.9.8-1-.5-1.4-1.8-.8-2.9.6-1,1.8-1.4,2.9-.8Z"/>
          <path class="cls-2" d="M849.3,2204.2c1,.6,1.4,1.8.8,2.9-.6,1-1.8,1.4-2.9.8-1-.6-1.4-1.8-.8-2.9.6-1,1.8-1.4,2.9-.8Z"/>
          <path class="cls-2" d="M761.1,2116.1c1,.6,1.4,1.8.8,2.9-.6,1-1.8,1.4-2.9.8-1-.6-1.4-1.8-.8-2.9.6-1,1.8-1.4,2.9-.8Z"/>
          <path class="cls-2" d="M651,2043.2c1,.6,1.4,1.8.8,2.9-.6,1-1.8,1.4-2.8.8-1-.6-1.4-1.8-.8-2.9.6-1,1.8-1.4,2.9-.8Z"/>
          <path class="cls-2" d="M615.9,2110.3c1,.6,1.4,1.8.8,2.9-.6,1-1.8,1.4-2.9.8-1-.6-1.4-1.8-.8-2.9.6-1,1.8-1.4,2.9-.8Z"/>
          <path class="cls-2" d="M593.1,2159.8c1,.6,1.4,1.8.8,2.9-.6,1-1.8,1.4-2.9.8-1-.6-1.4-1.8-.8-2.9.6-1,1.8-1.4,2.9-.8Z"/>
          <path class="cls-2" d="M552.9,2099.8c1.2.6,1.6,2.1,1,3.2-.6,1.2-2.1,1.6-3.2.9-1.2-.6-1.6-2.1-1-3.2.6-1.2,2.1-1.6,3.2-1Z"/>
          <path class="cls-2" d="M456.7,2085.3c1,.6,1.4,1.8.8,2.9-.6,1-1.8,1.4-2.9.8-1-.6-1.4-1.8-.8-2.9.6-1,1.8-1.4,2.9-.8Z"/>
          <path class="cls-2" d="M529.6,2038.3c1,.6,1.4,1.8.8,2.9-.6,1-1.8,1.4-2.9.8-1-.6-1.4-1.8-.8-2.9.6-1,1.8-1.4,2.9-.8Z"/>
          <path class="cls-2" d="M600.6,2054.5c1,.6,1.4,1.8.8,2.8-.6,1-1.8,1.4-2.9.8-1-.6-1.4-1.8-.8-2.9.6-1,1.8-1.4,2.9-.8Z"/>
          <path class="cls-2" d="M513.1,1984.8c1,.6,1.4,1.8.8,2.9-.6,1-1.8,1.4-2.9.8-1-.6-1.4-1.8-.8-2.9.6-1,1.8-1.4,2.9-.8Z"/>
          <path class="cls-2" d="M439,1942.5c1,.6,1.4,1.8.8,2.9-.6,1-1.8,1.4-2.9.8-1-.6-1.4-1.8-.8-2.9.6-1,1.8-1.4,2.9-.8Z"/>
          <path class="cls-2" d="M423.7,1886.7c.8.4,1,1.4.6,2.1-.4.8-1.4,1-2.1.6-.8-.4-1-1.4-.6-2.1.4-.8,1.4-1,2.1-.6Z"/>
          <path class="cls-2" d="M623.8,1973.4c.7.4,1,1.3.6,2-.4.7-1.3,1-2,.6-.7-.4-1-1.3-.6-2,.4-.7,1.3-1,2-.6Z"/>
          <path class="cls-2" d="M498.4,1943c1,.6,1.4,1.8.8,2.9-.6,1-1.8,1.4-2.9.8-1-.6-1.4-1.8-.8-2.8.6-1,1.8-1.4,2.9-.8Z"/>
          <path class="cls-2" d="M765.1,2172.1c.5.3.7.9.4,1.4-.3.5-.9.7-1.4.4-.5-.3-.7-.9-.4-1.4.3-.5.9-.7,1.4-.4Z"/>
          <path class="cls-2" d="M448.5,1419.6c.4.2.7.5.9.9.2.5.3,1.1,0,1.6-.2.5-.6.9-1.1,1.2-.6.3-1.3.3-1.9,0-.4-.2-.7-.5-.9-1-.5-1,0-2.3,1-2.8.6-.3,1.3-.3,1.9,0Z"/>
          <path class="cls-2" d="M501.3,1515.4c.4.2.7.6.9,1,.5,1,0,2.3-1,2.8-.6.3-1.3.3-1.9,0-.4-.2-.7-.5-.9-1-.2-.5-.3-1.1,0-1.6.2-.5.6-1,1.1-1.2.6-.3,1.3-.3,1.9,0Z"/>
          <path class="cls-2" d="M580,1457.1c.4.2.7.5.9,1,.2.5.3,1.1,0,1.6-.2.5-.6,1-1.1,1.2-.6.3-1.3.3-1.9,0-.4-.2-.7-.5-.9-1-.2-.5-.3-1.1,0-1.6.2-.5.6-1,1.1-1.2.6-.3,1.3-.3,1.9,0Z"/>
          <path class="cls-2" d="M541.2,1415.2c.3.2.5.4.7.7.2.4.2.8,0,1.3-.1.4-.4.7-.8.9-.5.2-1,.2-1.5,0-.3-.2-.5-.4-.7-.7-.2-.4-.2-.8,0-1.3.1-.4.4-.7.9-.9.5-.2,1-.2,1.5,0Z"/>
          <path class="cls-2" d="M460.4,1341.5c.4.2.7.5.9,1,.2.5.3,1.1,0,1.6-.2.5-.6.9-1.1,1.2-.6.3-1.3.3-1.9,0-.4-.2-.7-.6-.9-1-.2-.5-.3-1.1,0-1.6.2-.5.6-.9,1.1-1.2.6-.3,1.3-.3,1.9,0Z"/>
          <path class="cls-2" d="M323.1,1420.1c.4.2.7.6.9,1,.2.5.3,1.1,0,1.6-.2.5-.6,1-1.1,1.2-.6.3-1.3.3-1.9,0-.4-.2-.7-.5-.9-.9-.2-.5-.3-1.1,0-1.6.2-.5.6-1,1.1-1.2.6-.3,1.3-.3,1.9,0Z"/>
          <path class="cls-2" d="M551.1,1511c.4.2.7.6.9,1,.2.5.3,1.1,0,1.6-.2.5-.6.9-1.1,1.2-.6.3-1.3.3-1.9,0-.4-.2-.7-.5-.9-1-.5-1.1,0-2.3,1-2.8.6-.3,1.3-.3,1.9,0Z"/>
          <path class="cls-2" d="M475.2,1485c.4.2.8.6,1,1,.3.5.3,1.2,0,1.7-.2.6-.6,1-1.2,1.3-.7.3-1.4.3-2,0-.4-.2-.8-.6-1-1-.5-1.1,0-2.5,1.1-3,.7-.3,1.4-.3,2,0Z"/>
          <path class="cls-2" d="M418,1491.6c.4.2.7.5.9,1,.2.5.3,1.1,0,1.6-.2.5-.6,1-1.1,1.2-.6.3-1.3.3-1.9,0-.4-.2-.7-.5-.9-1-.5-1,0-2.3,1-2.8.6-.3,1.3-.3,1.9,0Z"/>
          <path class="cls-2" d="M371.1,1589c.4.2.7.6.9,1,.5,1.1,0,2.3-1,2.8-.6.3-1.3.3-1.9,0-.4-.2-.7-.5-.9-1-.5-1,0-2.3,1-2.8.6-.3,1.3-.3,1.9,0Z"/>
          <path class="cls-2" d="M459.2,1696.8c.4.2.7.6.9,1,.2.5.3,1.1,0,1.6-.2.5-.6,1-1.1,1.2-.6.3-1.3.3-1.9,0-.4-.2-.7-.5-.9-1-.2-.5-.3-1.1,0-1.6.2-.5.6-1,1.1-1.2.6-.3,1.3-.3,1.9,0Z"/>
          <path class="cls-2" d="M451.6,1843.1c.3.1.5.4.6.6.3.7,0,1.6-.7,1.9-.4.2-.9.2-1.3,0-.3-.1-.5-.4-.6-.6-.2-.3-.2-.7,0-1.1.1-.4.4-.6.7-.8.4-.2.9-.2,1.3,0Z"/>
          <path class="cls-2" d="M380.9,1853.2c.4.2.7.5.9,1,.2.5.3,1.1,0,1.6-.2.5-.6,1-1.1,1.2-.6.3-1.3.3-1.9,0-.4-.2-.7-.5-.9-1-.5-1,0-2.3,1-2.8.6-.3,1.3-.3,1.9,0Z"/>
          <path class="cls-2" d="M361.7,1937.7c.4.2.7.5.9,1,.2.5.3,1.1,0,1.6-.2.5-.6.9-1.1,1.2-.6.3-1.3.3-1.9,0-.4-.2-.7-.6-.9-1-.2-.5-.3-1.1,0-1.6.2-.5.6-1,1.1-1.2.6-.3,1.3-.3,1.9,0Z"/>
          <path class="cls-2" d="M457.9,2009.2c.4.2.7.5.9.9.5,1.1,0,2.3-1,2.8-.6.3-1.3.3-1.9,0-.4-.2-.7-.5-.9-.9-.2-.5-.3-1.1,0-1.6.2-.5.6-.9,1.1-1.2.6-.3,1.3-.3,1.9,0Z"/>
          <path class="cls-2" d="M445.8,1520.3c.3.2.5.4.7.7.4.8,0,1.7-.8,2.1-.4.2-1,.2-1.4,0-.3-.2-.5-.4-.7-.7-.2-.4-.2-.8,0-1.2.1-.4.4-.7.8-.9.4-.2,1-.2,1.4,0Z"/>
          <path class="cls-2" d="M357.8,1364c.3.1.5.4.6.6.2.3.2.7,0,1-.1.3-.4.6-.7.8-.4.2-.8.2-1.2,0-.2-.1-.4-.4-.6-.6-.3-.7,0-1.5.6-1.8.4-.2.8-.2,1.2,0Z"/>
          <path class="cls-2" d="M376.9,1486.8c.3.2.6.4.7.8.2.4.2.9,0,1.3-.2.5-.5.8-.9,1-.5.2-1.1.2-1.6,0-.3-.2-.6-.5-.7-.8-.4-.9,0-1.9.8-2.3.5-.2,1.1-.2,1.6,0Z"/>
          <path class="cls-2" d="M422.7,1610.4c.4.2.7.5.9.9.5,1,0,2.3-1,2.8-.6.3-1.3.3-1.9,0-.4-.2-.7-.5-.9-1-.5-1.1,0-2.3,1-2.8.6-.3,1.3-.3,1.9,0Z"/>
          <path class="cls-2" d="M402.6,1683.4c.3.2.6.4.7.8.2.4.2.9,0,1.3-.2.4-.5.8-.9,1-.5.2-1.1.2-1.5,0-.3-.2-.6-.4-.7-.8-.2-.4-.2-.9,0-1.3.2-.4.5-.8.9-1,.5-.2,1.1-.2,1.5,0Z"/>
          <path class="cls-2" d="M492.2,1655.9c.3.2.6.4.7.8.2.4.2.9,0,1.3-.2.4-.5.8-.9,1-.5.2-1.1.2-1.5,0-.3-.2-.6-.4-.7-.8-.2-.4-.2-.9,0-1.3.2-.4.5-.8.9-1,.5-.2,1.1-.2,1.5,0Z"/>
          <path class="cls-2" d="M486.1,1782.1c.3.1.5.3.6.6.2.3.2.7,0,1-.1.3-.4.6-.7.8-.4.2-.8.2-1.2,0-.3-.1-.5-.4-.6-.6-.3-.7,0-1.5.6-1.8.4-.2.8-.2,1.2,0Z"/>
          <path class="cls-2" d="M406.1,1439.5c.4.2.7.5.9,1,.5,1,0,2.3-1,2.8-.6.3-1.3.3-1.9,0-.4-.2-.7-.5-.9-1-.2-.5-.3-1.1,0-1.6.2-.5.6-1,1.1-1.2.6-.3,1.3-.3,1.9,0Z"/>
        </g>
        <g>
          <path class="cls-2" d="M850.3,2202.4c2,1.1,2.7,3.6,1.6,5.6-1.1,2-3.6,2.7-5.6,1.6-2-1.1-2.7-3.6-1.6-5.6,1.1-2,3.6-2.7,5.6-1.6ZM846.4,2209.5c1.9,1,4.3.3,5.4-1.6,1-1.9.3-4.3-1.6-5.4-1.9-1-4.3-.3-5.4,1.6-1,1.9-.3,4.3,1.6,5.4Z"/>
          <path class="cls-2" d="M762.1,2114.3c2,1.1,2.7,3.6,1.6,5.6-1.1,2-3.6,2.7-5.6,1.6-2-1.1-2.7-3.6-1.6-5.6,1.1-2,3.6-2.7,5.6-1.6ZM758.3,2121.4c1.9,1,4.3.3,5.4-1.6,1.1-1.9.3-4.3-1.6-5.4-1.9-1-4.3-.3-5.4,1.6-1.1,1.9-.3,4.3,1.6,5.4Z"/>
          <path class="cls-2" d="M683.8,2173.4c2,1.1,2.7,3.6,1.6,5.6-1.1,2-3.6,2.7-5.6,1.6-2-1.1-2.7-3.6-1.6-5.6,1.1-2,3.6-2.7,5.6-1.6ZM680,2180.5c1.9,1,4.3.3,5.4-1.6,1.1-1.9.3-4.3-1.6-5.4-1.9-1-4.3-.3-5.4,1.6-1,1.9-.3,4.3,1.6,5.4Z"/>
          <path class="cls-2" d="M616.4,2210.5c2,1.1,2.7,3.6,1.6,5.6-1.1,2-3.6,2.7-5.6,1.6-2-1.1-2.7-3.6-1.6-5.6,1.1-2,3.6-2.7,5.6-1.6ZM612.5,2217.6c1.9,1.1,4.3.3,5.4-1.6,1.1-1.9.3-4.3-1.6-5.4-1.9-1.1-4.3-.3-5.4,1.6-1,1.9-.3,4.3,1.6,5.4Z"/>
          <path class="cls-2" d="M594,2158c2,1.1,2.7,3.6,1.6,5.6-1.1,2-3.6,2.7-5.6,1.6-2-1.1-2.7-3.6-1.6-5.6,1.1-2,3.6-2.7,5.6-1.6ZM590.2,2165.1c1.9,1,4.3.3,5.4-1.6,1.1-1.9.3-4.3-1.6-5.4-1.9-1.1-4.3-.3-5.4,1.6-1,1.9-.3,4.3,1.6,5.4Z"/>
          <path class="cls-2" d="M686.8,2128.3c2,1.1,2.7,3.6,1.6,5.6-1.1,2-3.6,2.7-5.6,1.6-2-1.1-2.7-3.6-1.6-5.6,1.1-2,3.6-2.7,5.6-1.6ZM682.9,2135.4c1.9,1,4.3.3,5.4-1.6,1.1-1.9.3-4.3-1.6-5.4-1.9-1.1-4.3-.3-5.4,1.6-1,1.9-.3,4.3,1.6,5.4Z"/>
          <path class="cls-2" d="M427.6,2159.4c2,1.1,2.7,3.6,1.6,5.6-1.1,2-3.6,2.7-5.6,1.6-2-1.1-2.7-3.6-1.6-5.6,1.1-2,3.6-2.7,5.6-1.6ZM423.7,2166.4c1.9,1,4.3.3,5.4-1.6,1-1.9.3-4.3-1.6-5.4-1.9-1-4.3-.3-5.4,1.6-1,1.9-.3,4.3,1.6,5.4Z"/>
          <path class="cls-2" d="M652,2041.5c2,1.1,2.7,3.6,1.6,5.6-1.1,2-3.6,2.7-5.6,1.6-2-1.1-2.7-3.6-1.6-5.6,1.1-2,3.6-2.7,5.6-1.6ZM648.1,2048.6c1.9,1,4.3.3,5.4-1.6,1-1.9.3-4.3-1.6-5.4-1.9-1.1-4.3-.3-5.4,1.6-1,1.9-.3,4.3,1.6,5.4Z"/>
          <path class="cls-2" d="M499.4,1941.3c2,1.1,2.7,3.6,1.6,5.6-1.1,2-3.6,2.7-5.6,1.6-2-1.1-2.7-3.6-1.6-5.6,1.1-2,3.6-2.7,5.6-1.6ZM495.5,1948.3c1.9,1,4.3.3,5.4-1.6,1-1.9.3-4.3-1.6-5.4-1.9-1-4.3-.3-5.4,1.6-1,1.9-.3,4.3,1.6,5.4Z"/>
          <path class="cls-2" d="M542,1821c2,1.1,2.7,3.6,1.6,5.6-1.1,2-3.6,2.7-5.6,1.6-2-1.1-2.7-3.6-1.6-5.6,1.1-2,3.6-2.7,5.6-1.6ZM538.2,1828c1.9,1,4.3.3,5.4-1.6,1-1.9.3-4.3-1.6-5.4-1.9-1-4.3-.3-5.4,1.6-1,1.9-.3,4.3,1.6,5.4Z"/>
          <path class="cls-2" d="M381.8,1851.5c2,1.1,2.7,3.6,1.6,5.6-1.1,2-3.6,2.7-5.6,1.6-2-1.1-2.7-3.6-1.6-5.6,1.1-2,3.6-2.7,5.6-1.6ZM378,1858.5c1.9,1,4.3.3,5.4-1.6,1-1.9.3-4.3-1.6-5.4-1.9-1-4.3-.3-5.4,1.6-1,1.9-.3,4.3,1.6,5.4Z"/>
          <path class="cls-2" d="M387.6,1740.8c2,1.1,2.7,3.6,1.6,5.6-1.1,2-3.6,2.7-5.6,1.6-2-1.1-2.7-3.6-1.6-5.6,1.1-2,3.6-2.7,5.6-1.6ZM383.8,1747.9c1.9,1,4.3.3,5.4-1.6,1-1.9.3-4.3-1.6-5.4-1.9-1-4.3-.3-5.4,1.6-1,1.9-.3,4.3,1.6,5.4Z"/>
          <path class="cls-2" d="M460.2,1695.1c2,1.1,2.7,3.6,1.6,5.6-1.1,2-3.6,2.7-5.6,1.6-2-1.1-2.7-3.6-1.6-5.6,1.1-2,3.6-2.7,5.6-1.6ZM456.3,1702.1c1.9,1,4.3.3,5.4-1.6,1-1.9.3-4.3-1.6-5.4-1.9-1-4.3-.3-5.4,1.6-1,1.9-.3,4.3,1.6,5.4Z"/>
          <path class="cls-2" d="M372,1587.4c2,1.1,2.7,3.6,1.6,5.6-1.1,2-3.6,2.7-5.6,1.6-2-1.1-2.7-3.6-1.6-5.6,1.1-2,3.6-2.7,5.6-1.6ZM368.1,1594.5c1.9,1,4.3.3,5.4-1.6,1-1.9.3-4.3-1.6-5.4-1.9-1-4.3-.3-5.4,1.6-1,1.9-.3,4.3,1.6,5.4Z"/>
          <path class="cls-2" d="M419,1489.8c2,1.1,2.7,3.6,1.6,5.6-1.1,2-3.6,2.7-5.6,1.6-2-1.1-2.7-3.6-1.6-5.6,1.1-2,3.6-2.7,5.6-1.6ZM415.1,1496.9c1.9,1,4.3.3,5.4-1.6,1-1.9.3-4.3-1.6-5.4-1.9-1.1-4.3-.3-5.4,1.6-1,1.9-.3,4.3,1.6,5.4Z"/>
          <path class="cls-2" d="M552.1,1509.3c2,1.1,2.7,3.6,1.6,5.6-1.1,2-3.6,2.7-5.6,1.6-2-1.1-2.7-3.6-1.6-5.6,1.1-2,3.6-2.7,5.6-1.6ZM548.2,1516.3c1.9,1,4.3.3,5.4-1.6,1-1.9.3-4.3-1.6-5.4-1.9-1-4.3-.3-5.4,1.6-1,1.9-.3,4.3,1.6,5.4Z"/>
          <path class="cls-2" d="M324,1418.3c2,1.1,2.7,3.6,1.6,5.6-1.1,2-3.6,2.7-5.6,1.6-2-1.1-2.7-3.6-1.6-5.6,1.1-2,3.6-2.7,5.6-1.6ZM320.2,1425.4c1.9,1.1,4.3.3,5.4-1.6,1-1.9.3-4.3-1.6-5.4-1.9-1.1-4.3-.3-5.4,1.6-1,1.9-.3,4.3,1.6,5.4Z"/>
          <path class="cls-2" d="M449.4,1417.9c2,1.1,2.7,3.6,1.6,5.6-1.1,2-3.6,2.7-5.6,1.6-2-1.1-2.7-3.6-1.6-5.6,1.1-2,3.6-2.7,5.6-1.6ZM445.5,1424.9c1.9,1,4.3.3,5.4-1.6,1.1-1.9.3-4.3-1.6-5.4-1.9-1-4.3-.3-5.4,1.6-1,1.9-.3,4.3,1.6,5.4Z"/>
          <path class="cls-2" d="M461.3,1339.7c2,1.1,2.7,3.6,1.6,5.6-1.1,2-3.6,2.7-5.6,1.6-2-1.1-2.7-3.6-1.6-5.6,1.1-2,3.6-2.7,5.6-1.6ZM457.4,1346.8c1.9,1,4.3.3,5.4-1.6,1-1.9.3-4.3-1.6-5.4-1.9-1-4.3-.3-5.4,1.6-1,1.9-.3,4.3,1.6,5.4Z"/>
          <path class="cls-2" d="M458.7,2007.4c2,1.1,2.7,3.6,1.6,5.6-1.1,2-3.6,2.7-5.6,1.6-2-1.1-2.7-3.6-1.6-5.6,1.1-2,3.6-2.7,5.6-1.6ZM454.9,2014.5c1.9,1,4.3.3,5.4-1.6,1-1.9.3-4.3-1.6-5.4-1.9-1-4.3-.3-5.4,1.6-1,1.9-.3,4.3,1.6,5.4Z"/>
          <path class="cls-2" d="M362.6,1935.9c2,1.1,2.7,3.6,1.6,5.6-1.1,2-3.6,2.7-5.6,1.6-2-1.1-2.7-3.6-1.6-5.6,1.1-2,3.6-2.7,5.6-1.6ZM358.8,1943c1.9,1.1,4.3.3,5.4-1.6,1-1.9.3-4.3-1.6-5.4-1.9-1.1-4.3-.3-5.4,1.6-1,1.9-.3,4.3,1.6,5.4Z"/>
          <path class="cls-2" d="M601.6,2052.8c2,1.1,2.7,3.6,1.6,5.6-1.1,2-3.6,2.7-5.6,1.6-2-1.1-2.7-3.6-1.6-5.6,1.1-2,3.6-2.7,5.6-1.6ZM597.7,2059.8c1.9,1,4.3.3,5.4-1.6,1-1.9.3-4.3-1.6-5.4-1.9-1-4.3-.3-5.4,1.6-1,1.9-.3,4.3,1.6,5.4Z"/>
          <path class="cls-2" d="M457.6,2083.6c2,1.1,2.7,3.6,1.6,5.6-1.1,2-3.6,2.7-5.6,1.6-2-1.1-2.7-3.6-1.6-5.6,1.1-2,3.6-2.7,5.6-1.6ZM453.8,2090.6c1.9,1.1,4.3.3,5.4-1.6,1-1.9.3-4.3-1.6-5.4-1.9-1-4.3-.3-5.4,1.6-1,1.9-.3,4.3,1.6,5.4Z"/>
        </g>
      </g>
      <g>
        <path class="cls-1" d="M447.5,1421.5l71.5-40.9,30.6,19.1.3.2-17.1-27.1,52-29.8h.2c0-.1-.3-.1-.3-.1l-82.9-19.4,29-46.9h.4s-.4-.1-.4-.1l-18.8-51,24.8-51.4h0c0,0,0-.1,0-.1l-43-52.6,11.3-41.4h0s-27.3-32.1-27.3-32.1l43.5-27.4h-.2s-68.9-26.9-68.9-26.9l3.6-73,71-10.7h0s19.2-84.5,19.2-84.5l.3-.3-.3.2-96.1-71.4,68.8-56.8h.1c0,0-21.7-6.3-21.7-6.3l21.5-28.7h.1s-37.6-60.2-37.6-60.2h0c0,0-86,25.3-86,25.3h0c0,0,0,0,0,0l-37.1-74.6h0c0,0,0,0,0,0l-25.2-.7-39.8-48.7h0c0,0-17.7,57-17.7,57l-50.2,27.6-33.3,1.6-27-38.6h0s-106.2,8-106.2,8h-.3s83.9,33.1,83.9,33.1h0s0,0,0,0l4.4,55h0s.2,0,.2,0l35.9-20h.2s39.1,6.1,39.1,6.1l24.3,60.6-43.8,39.4h-.3c0,0,.6,0,.6,0l53.9-13.2,26.9,70.3h0s104.6,24.8,104.6,24.8l-21.6,125.2h-.1s0,0,0,0h0c0,0,0,0,0,0l34.5,79.4h0s49.6.3,49.6.3l-2.3,46h0s0,0,0,0h0s0,0,0,0l20.2,24.7-53.5,16.4h.1c0,0,69.7,45.3,69.7,45.3l18.9,51.4-42.2,39h0s0,0,0,0l-55.1,4.4h0c0,0,0,0,0,0l-19.7,14.6-30-10.2-.3-.4v.3s.1.2.1.2l-28.7,53.6v.3c-.1,0-.1.1-.1.1l31.9-23.6,6.6,65.8v.3c-.1,0,0-.2,0-.2l81,73.2v.4c0,0,.1-.3.1-.3ZM366.5,1348.1l44.7-47.5,47.9,42.7-92.6,4.8ZM356.9,1252.4v-.2c0,0,19.6,17.5,19.6,17.5l-16.7,12.4-3-29.9v.2ZM386.8,1262.3l12.1,4.1-6.8,17-15.4-13.7,10.1-7.4ZM399.1,1266.4l33.4,11.4-21.3,22.6-19-16.9,6.8-17.1ZM432.8,1277.7l28.8-34.4-.7,31.2-28.1,3.2ZM495.6,1259.6l34.7,16.8-40.4-5,5.7-11.8ZM489.8,1271.2l-27.7-27.9,33.4,16.1-5.7,11.7ZM489.6,1271.3l-13.1,1.5-14.6-29.3,27.7,27.8ZM476.4,1272.8l-15.4,1.7.7-31.1,14.6,29.4ZM460.9,1274.7l-1.6,68.5-47.9-42.7,21.3-22.6h0s0,0,0,0l28.2-3.2ZM366.6,1347.8l25.6-64.2,18.9,16.9-44.6,47.3ZM359.8,1282.2l16.8-12.4,15.5,13.8-25.7,64.3-6.6-65.6ZM356.6,1252.2l3,30-31.6,23.4,28.6-53.4ZM386.6,1262.2l-10,7.4-19.6-17.5,29.6,10.1ZM406.4,1247.8l-7.4,18.5-12-4.1,19.4-14.4ZM406.5,1247.7l25.9,29.9-33.3-11.3,7.4-18.6ZM461.5,1243.2l-28.9,34.5-26-30.1,54.9-4.4ZM448.7,1066.2l56,13.6-35.9,11-20.1-24.7ZM450.9,1019.9l.2-3.3,2.8,3.3h-3ZM366.9,940.5l54.4,41.1,29.7,34.9-.2,3.5-49.5-.3-34.4-79.2ZM419.2,928.7l2.1,52.7-54.4-41.1,52.3-11.6ZM367.2,940.1l51.3-27.9.7,16.3-52,11.6ZM417.7,889.2l-8.2-69.1,20.9,15.9-12.6,53.2ZM430.4,836.1l37.2,28.4-49.9,25,12.6-53.3ZM409.6,820l24.5.2-3.7,15.6-20.8-15.8ZM409.4,819.9l-14.6-41.6,43.3,24.8-4,17-24.7-.2ZM438.2,803.1l30.3,17.3-34.3-.3,4-17ZM468.7,820.6l10.2,38.2-11.2,5.6-37.3-28.5,3.7-15.7,34.6.3ZM479,858.9l4.7,17.6-15.8-12,11.1-5.6ZM483.6,876.7l-65.5,12.7,49.6-24.8,15.9,12.1ZM483.4,876.9l-48.7,26.4-16.9-13.7,65.5-12.7ZM483.6,876.9l-27.8,43.4-21-17,48.8-26.5ZM418.6,912l-.9-22.3,16.8,13.6-15.9,8.7ZM418.5,912.1l-51.4,27.9,50.5-50.2.9,22.3ZM388.4,815l20.9,5,8.3,69.5h0s0,0,0,0l-50.8,50.5,21.6-125ZM388.4,814.9l6.3-36.5,14.6,41.4-20.9-4.9ZM284.1,790.2l110.5-12-6.3,36.7-104.1-24.7ZM283.9,790l67.2-46.5,43.4,34.5-110.5,12ZM291.6,652.3l-32.3-31.3,14.3-4.6,18,35.9ZM273.8,616.4l40.8-13.1-22.7,49.1-18.1-36.1ZM222.3,632.7l25.8-22.4,10.9,10.6-36.8,11.8ZM248.2,610.3l15.6-13.5,9.8,19.5-14.4,4.6-11-10.6ZM263.9,596.7l40-18.7,10.7,25.2-40.9,13.1-9.8-19.6ZM264,596.5l28.3-45.6,11.5,27-39.8,18.7ZM340.1,561l5.2,6.3-30.5,35.8-10.7-25.2,36.1-16.9ZM345.4,567.4l12.1,14.7-42.4,20.9,30.4-35.6ZM357.4,582.3l-1,33.3-41.5-12.4,42.5-20.9ZM356.4,615.7l-1.4,46.9-40.1-59.3,41.5,12.4ZM354.9,662.9l-.3.3-62.7-10.6,22.8-49.2,40.2,59.5ZM351.1,743.4l-43.7-34.8,70.6,16.2-26.9,18.6ZM378.2,724.8l16.4,53.1-43.3-34.5,26.9-18.6ZM307.3,708.4l47.4-45.1h.1s0,0,0,0l.2-.2,23,61.5-70.8-16.2ZM384,690.7l-5.8,33.7-23-61.3,28.8,27.6ZM355.2,663l32.7,5-3.9,22.6-28.8-27.6ZM256.9,719.6l35-66.8,15.2,55.6-50.2,11.2ZM292,652.7l62.6,10.6-47.3,45-15.2-55.6ZM355.4,662.9l39.6-35.5-7,40.5-32.6-5ZM395.1,627.3l55.8,50.2-62.8-9.6,7-40.6ZM395.4,627.3l68.1,19.1-12.3,31.1-55.7-50.2ZM451,677.7l-28.1,50.1-38.7-37.1,3.9-22.7,62.9,9.7ZM422.8,727.9l-6.8,12.1-37.7-15.3,5.8-33.8,38.7,37ZM422.9,728l26.7,25.6-33.4-13.5,6.8-12ZM415.9,740.1l-21.3,37.9-16.4-53.1,37.6,15.3ZM283.8,789.9l23.3-81.4,43.8,34.9-67.2,46.5ZM256.9,719.7l50.1-11.2-23.4,81.4-26.8-70.1h0ZM246.3,693.7l10.3,25.8v.2s-53.9,13.2-53.9,13.2l43.5-39.2ZM291.6,652.9l-34.9,66.6-10.4-25.9,45.3-40.7ZM222.1,633l69.6,19.6-45.4,40.9-24.2-60.5ZM222.2,632.9l37-11.8,32.4,31.4-69.4-19.6ZM222,632.8l-18-25.7,20.9-19.2,23.1,22.4-26,22.5ZM203.9,607.2l17.8,25.5-29.2-15,11.4-10.5ZM182.6,626.7l-40-34.6,49.7,25.6-9.7,9ZM182.8,626.7l9.7-8.9,29.1,15-38.8-6.1ZM142.3,591.9l40.2,34.8-35.8,20-4.4-54.8ZM164.5,550.8l-22.3,40.9-.5-.2h.1c0,.1-83-32.6-83-32.6l105.7-8ZM191.5,589.3l-49.1,2.4,22.3-40.8,26.9,38.4ZM191.6,589.4l12.3,17.6-11.4,10.5-50-25.8,49.1-2.4ZM224.7,587.8l-20.8,19.1-12.2-17.5,33-1.6ZM275,560.3l-11.3,36.3-15.6,13.5-23.1-22.4,50-27.5ZM292.2,550.9l-28.1,45.3,11.1-36,16.9-9.3ZM292.7,503.6l-.5,47.1-17,9.3,17.5-56.4ZM332.5,551.8l-40.1-1.1.5-47.3,39.6,48.4ZM332.6,551.9l7.4,9-36,16.9-11.5-27,40.2,1.1ZM357.7,552.6l-17.5,8.2-7.3-8.9,24.8.7ZM357.7,552.7l-12.3,14.5-5.1-6.3,17.5-8.2ZM357.9,552.7l-.4,29.2-12-14.7,12.4-14.6ZM394.8,626.7l-37.2-44.6.4-29.3,36.7,73.9ZM394.9,627.1l-38.3-11.4,1-33.3,37.3,44.7ZM395,627.2l-39.8,35.6h0s1.5-47.1,1.5-47.1l38.4,11.5ZM481.1,601.9l-17.6,44.4-68.1-19.1,85.7-25.3ZM518.5,661.8l-54.9-15.4,17.6-44.4,37.3,59.8ZM497,690.6l-45.8-13.1h0s0,0,0,0l12.3-31.1,55,15.4-21.5,28.7ZM450.3,753.3l46.8-62.5,21.5,6.1-68.3,56.4ZM450,753.5l1.2-75.8,45.7,13-47,62.8ZM449.8,753.6l-26.9-25.7,28.1-50-1.2,75.7ZM394.8,778l21.3-37.8,33.6,13.6-54.9,24.2ZM449.8,753.9l-11.6,49-43.4-24.8,55-24.3ZM545.9,825.2l-77.1-4.8-30.5-17.5,11.6-49.1,96,71.3ZM479.1,858.7l-10.2-38.2,77,4.8-66.8,33.4ZM545.8,825.5l-89.5,94.4,27.6-43.1h.1s-.1-.1-.1-.1l-4.8-17.8,66.7-33.4ZM456,920.3l90-94.9-19.1,84.2-70.8,10.7ZM419.3,928.5l-.7-16.3,16.1-8.7,21,17-36.4,8.1ZM455.7,920.5l-34.3,60.7-2.1-52.6,36.4-8.1ZM452.1,993.4l-30.7-12,34.3-60.7-3.6,72.7ZM452.1,993.6l-1.1,22.7-29.4-34.6,30.5,11.9ZM520.7,1020.3l-66.6-.4-3-3.5,1.1-22.8,68.5,26.7ZM477.7,1047.7l-23.5-27.6,66.6.4-43.2,27.2ZM448.6,1066l2.3-45.9h3.1s23.5,27.7,23.5,27.7l-29,18.2ZM504.8,1079.7l-56.1-13.6,28.9-18.2,27.1,31.9ZM493.6,1121.1l-24.6-30.1,35.9-11-11.3,41.2ZM493.6,1121.3l-8.6,31.2-69.5-45.1,53.3-16.4,24.7,30.3ZM536.4,1173.8l-51.3-21.2,8.5-31.1,42.8,52.3ZM504.1,1203.9l-18.9-51.3,51.4,21.3-32.5,30ZM511.9,1225.2l-7.8-21.2,32.3-29.8-24.5,51ZM495.5,1259.4l-33.7-16.3,42.2-38.9,7.8,21.2-16.3,34ZM530.6,1276.3l-35-16.9,16.3-33.8,18.7,50.7ZM501.7,1323.4l-25.1-50.4,13.2-1.5,40.8,5.1-28.9,46.8ZM459.4,1343.2l1.6-68.6,15.4-1.7,25.1,50.5-42.2,19.8ZM501.5,1323.6l-10.8,19.5h-31.1c0,.1,41.9-19.5,41.9-19.5ZM459.6,1343.4h31.1c0-.1-8,14.4-8,14.4l-23.1-14.4ZM482.6,1357.9l-35,63.2,11.8-77.7,23.2,14.4ZM490.9,1343.1l10.8-19.5,12.2,19.4h-23ZM584.1,1342.8l-70,.3-12.3-19.5,82.3,19.2ZM532.7,1372.6l-18.5-29.4,70.3-.3-51.8,29.6ZM519,1380.4l-36.3-22.6,8.1-14.6h23.2c0,0,18.6,29.4,18.6,29.4l-13.6,7.8ZM519.1,1380.5l13.5-7.7,16.8,26.6-30.3-18.9ZM447.6,1421.3l35.1-63.3,36.2,22.5-71.2,40.8ZM447.4,1421.3l-80.9-73.1,92.7-4.8-11.9,77.9Z"/>
        <g>
          <path class="cls-2" d="M163.7,552.4c-.9-.5-1.3-1.7-.8-2.6.5-.9,1.7-1.3,2.6-.8.9.5,1.3,1.7.8,2.6-.5.9-1.7,1.3-2.6.8Z"/>
          <path class="cls-2" d="M262.9,598.3c-.9-.5-1.3-1.6-.8-2.6.5-.9,1.6-1.2,2.6-.8.9.5,1.3,1.7.8,2.6-.5.9-1.6,1.2-2.6.8Z"/>
          <path class="cls-2" d="M292,504.6c-.8-.4-1.1-1.4-.6-2.2.4-.8,1.4-1.1,2.2-.6.8.4,1.1,1.4.6,2.2-.4.8-1.4,1.1-2.2.6Z"/>
          <path class="cls-2" d="M356.5,584c-1-.6-1.4-1.8-.8-2.9.6-1,1.8-1.4,2.9-.8,1,.6,1.4,1.8.8,2.9-.6,1-1.8,1.4-2.9.8Z"/>
          <path class="cls-2" d="M480.2,603.7c-1-.6-1.4-1.8-.8-2.9.6-1,1.8-1.4,2.9-.8,1,.6,1.4,1.8.8,2.9-.6,1-1.8,1.4-2.9.8Z"/>
          <path class="cls-2" d="M394.1,629.1c-1-.6-1.4-1.8-.8-2.9.6-1,1.8-1.4,2.9-.8,1,.6,1.4,1.8.8,2.9-.6,1-1.8,1.4-2.9.8Z"/>
          <path class="cls-2" d="M356.9,554.4c-1-.6-1.4-1.9-.9-2.9.6-1,1.9-1.4,2.9-.9,1,.6,1.4,1.9.9,2.9-.6,1-1.9,1.4-2.9.9Z"/>
          <path class="cls-2" d="M291.3,552.6c-1-.6-1.4-1.8-.8-2.9.5-1,1.8-1.4,2.8-.8,1,.6,1.4,1.8.8,2.9-.6,1-1.8,1.4-2.9.8Z"/>
          <path class="cls-2" d="M223.9,589.6c-1-.6-1.4-1.8-.8-2.9.6-1,1.8-1.4,2.9-.8,1,.6,1.4,1.8.8,2.9-.5,1-1.8,1.4-2.8.8Z"/>
          <path class="cls-2" d="M181.9,628.2c-.8-.4-1.1-1.4-.7-2.2.4-.8,1.4-1.1,2.2-.7.8.4,1.1,1.4.7,2.2-.4.8-1.4,1.1-2.2.7Z"/>
          <path class="cls-2" d="M201.8,734.3c-.7-.4-.9-1.3-.6-1.9.4-.7,1.3-1,1.9-.6.7.4,1,1.3.6,2-.4.7-1.3.9-2,.6Z"/>
          <path class="cls-2" d="M416.7,891.4c-1-.6-1.4-1.8-.8-2.9.6-1,1.8-1.4,2.9-.8,1,.6,1.4,1.8.8,2.9-.6,1-1.8,1.4-2.9.8Z"/>
          <path class="cls-2" d="M365.7,942.1c-1-.6-1.4-1.8-.8-2.8.6-1,1.8-1.4,2.9-.8,1,.6,1.4,1.8.8,2.9-.6,1-1.8,1.4-2.9.8Z"/>
          <path class="cls-2" d="M400.2,1021.5c-1-.6-1.4-1.8-.8-2.8.6-1,1.8-1.4,2.9-.8,1,.6,1.4,1.8.8,2.9-.6,1-1.8,1.4-2.9.8Z"/>
          <path class="cls-2" d="M520.1,1022.3c-1-.6-1.4-1.8-.8-2.9.6-1,1.8-1.4,2.9-.8,1,.6,1.4,1.8.8,2.9-.6,1-1.8,1.4-2.9.8Z"/>
          <path class="cls-2" d="M518,663c-.6-.3-.9-1.1-.5-1.8.4-.6,1.2-.9,1.8-.5.6.3.9,1.1.5,1.8-.3.6-1.2.9-1.8.5Z"/>
          <path class="cls-2" d="M518,698.2c-.7-.4-1-1.3-.6-2,.4-.7,1.3-1,2-.6.7.4,1,1.3.6,2-.4.7-1.3,1-2,.6Z"/>
          <path class="cls-2" d="M221,634.7c-1-.6-1.4-1.8-.8-2.9.5-1,1.8-1.4,2.9-.8,1,.5,1.4,1.8.8,2.9-.6,1-1.8,1.4-2.9.8Z"/>
          <path class="cls-2" d="M57.5,560.6c-1-.6-1.4-1.8-.8-2.9.6-1,1.8-1.4,2.9-.8,1,.6,1.4,1.8.8,2.9-.6,1-1.8,1.4-2.9.8Z"/>
          <path class="cls-2" d="M145.6,648.7c-1-.6-1.4-1.8-.8-2.9.6-1,1.8-1.4,2.9-.8,1,.6,1.4,1.8.8,2.9-.6,1-1.8,1.4-2.9.8Z"/>
          <path class="cls-2" d="M255.7,721.6c-1-.6-1.4-1.8-.8-2.9.6-1,1.8-1.4,2.8-.8,1,.6,1.4,1.8.8,2.9-.5,1-1.8,1.4-2.9.8Z"/>
          <path class="cls-2" d="M290.8,654.5c-1-.6-1.4-1.8-.8-2.9.6-1,1.8-1.4,2.9-.8,1,.6,1.4,1.8.8,2.9-.6,1-1.8,1.4-2.9.8Z"/>
          <path class="cls-2" d="M313.7,605c-1-.6-1.4-1.8-.8-2.9.6-1,1.8-1.4,2.9-.8,1,.6,1.4,1.8.8,2.8-.6,1-1.8,1.4-2.9.8Z"/>
          <path class="cls-2" d="M353.9,665c-1.2-.6-1.6-2.1-1-3.2.6-1.2,2.1-1.6,3.2-.9,1.2.6,1.6,2.1,1,3.2-.6,1.2-2.1,1.6-3.2.9Z"/>
          <path class="cls-2" d="M450.1,679.5c-1-.6-1.4-1.8-.8-2.9.6-1,1.8-1.4,2.9-.8,1,.6,1.4,1.8.8,2.9-.6,1-1.8,1.4-2.9.8Z"/>
          <path class="cls-2" d="M377.2,726.5c-1-.6-1.4-1.8-.8-2.9.6-1,1.8-1.4,2.9-.8,1,.6,1.4,1.8.8,2.8-.6,1-1.8,1.4-2.9.8Z"/>
          <path class="cls-2" d="M306.1,710.3c-1-.6-1.4-1.8-.8-2.9.6-1,1.8-1.4,2.9-.8,1,.6,1.4,1.8.8,2.9-.6,1-1.8,1.4-2.9.8Z"/>
          <path class="cls-2" d="M393.6,780c-1-.6-1.4-1.8-.8-2.9.6-1,1.8-1.4,2.9-.8,1,.6,1.4,1.8.8,2.9-.6,1-1.8,1.4-2.9.8Z"/>
          <path class="cls-2" d="M467.8,822.3c-1-.6-1.4-1.8-.8-2.9.6-1,1.8-1.4,2.9-.8,1,.6,1.4,1.8.8,2.9-.6,1-1.8,1.4-2.9.8Z"/>
          <path class="cls-2" d="M483.1,878.1c-.8-.4-1-1.4-.6-2.1.4-.8,1.4-1,2.1-.6.8.4,1,1.4.6,2.1-.4.8-1.4,1-2.1.6Z"/>
          <path class="cls-2" d="M283,791.4c-.7-.4-1-1.3-.6-2,.4-.7,1.3-1,2-.6.7.4,1,1.3.6,2-.4.7-1.3,1-2,.6Z"/>
          <path class="cls-2" d="M408.4,821.8c-1-.6-1.4-1.8-.8-2.9.5-1,1.8-1.4,2.9-.8,1,.6,1.4,1.8.8,2.9-.6,1-1.8,1.4-2.9.8Z"/>
          <path class="cls-2" d="M141.7,592.7c-.5-.3-.7-.9-.4-1.4.3-.5.9-.7,1.4-.4.5.3.7.9.4,1.4-.3.5-.9.7-1.4.4Z"/>
          <path class="cls-2" d="M458.3,1345.2c-.4-.2-.7-.5-.9-.9-.2-.5-.3-1.1,0-1.6.2-.5.6-.9,1.1-1.2.6-.3,1.3-.3,1.9,0,.4.2.7.5.9,1,.5,1,0,2.3-1,2.8-.6.3-1.3.3-1.9,0Z"/>
          <path class="cls-2" d="M405.5,1249.4c-.4-.2-.7-.5-.9-1-.5-1.1,0-2.3,1-2.8.6-.3,1.3-.3,1.9,0,.4.2.7.5.9,1,.2.5.3,1.1,0,1.6-.2.5-.6,1-1.1,1.2-.6.3-1.3.3-1.9,0Z"/>
          <path class="cls-2" d="M326.8,1307.7c-.4-.2-.7-.5-.9-.9-.2-.5-.3-1.1,0-1.6.2-.5.6-1,1.1-1.2.6-.3,1.3-.3,1.9,0,.4.2.7.5.9.9.2.5.3,1.1,0,1.6-.2.5-.6,1-1.1,1.2-.6.3-1.3.3-1.9,0Z"/>
          <path class="cls-2" d="M365.6,1349.6c-.3-.2-.5-.4-.7-.7-.2-.4-.2-.8,0-1.3.1-.4.4-.7.8-.9.5-.2,1-.2,1.5,0,.3.2.5.4.7.7.2.4.2.8,0,1.3-.1.4-.4.7-.8.9-.5.2-1,.2-1.5,0Z"/>
          <path class="cls-2" d="M446.4,1423.3c-.4-.2-.7-.5-.9-.9-.2-.5-.3-1.1,0-1.6.2-.5.6-1,1.1-1.2.6-.3,1.3-.3,1.9,0,.4.2.7.5.9,1,.2.5.3,1.1,0,1.6-.2.5-.6.9-1.1,1.2-.6.3-1.3.3-1.9,0Z"/>
          <path class="cls-2" d="M583.7,1344.7c-.4-.2-.7-.5-.9-1-.2-.5-.3-1.1,0-1.6.2-.5.6-.9,1.1-1.2.6-.3,1.3-.3,1.9,0,.4.2.7.5.9,1,.2.5.3,1.1,0,1.6-.2.5-.6,1-1.1,1.2-.6.3-1.3.3-1.9,0Z"/>
          <path class="cls-2" d="M355.7,1253.8c-.4-.2-.7-.6-.9-1-.2-.5-.3-1.1,0-1.6.2-.5.6-.9,1.1-1.2.6-.3,1.3-.3,1.9,0,.4.2.7.5.9,1,.5,1.1,0,2.3-1,2.8-.6.3-1.3.3-1.9,0Z"/>
          <path class="cls-2" d="M431.5,1279.8c-.4-.2-.8-.6-1-1-.3-.5-.3-1.2,0-1.7.2-.6.6-1,1.2-1.3.7-.3,1.4-.3,2,0,.4.2.8.6,1,1,.5,1.1,0,2.5-1.1,3-.7.3-1.4.3-2,0Z"/>
          <path class="cls-2" d="M488.8,1273.2c-.4-.2-.7-.6-.9-1-.2-.5-.3-1.1,0-1.6.2-.5.6-.9,1.1-1.2.6-.3,1.3-.3,1.9,0,.4.2.7.5.9,1,.5,1,0,2.3-1,2.8-.6.3-1.3.3-1.9,0Z"/>
          <path class="cls-2" d="M535.7,1175.8c-.4-.2-.7-.6-.9-1-.5-1,0-2.3,1-2.8.6-.3,1.3-.3,1.9,0,.4.2.7.5.9,1,.5,1.1,0,2.3-1,2.8-.6.3-1.3.3-1.9,0Z"/>
          <path class="cls-2" d="M447.6,1068c-.4-.2-.7-.5-.9-1-.2-.5-.3-1.1,0-1.6.2-.5.6-1,1.1-1.2.6-.3,1.3-.3,1.9,0,.4.2.7.5.9,1,.2.5.3,1.1,0,1.6-.2.5-.6,1-1.1,1.2-.6.3-1.3.3-1.9,0Z"/>
          <path class="cls-2" d="M455.1,921.7c-.3-.1-.5-.4-.6-.6-.3-.7,0-1.5.7-1.9.4-.2.9-.2,1.3,0,.3.1.5.4.6.6.2.3.2.7,0,1.1-.1.4-.4.6-.7.8-.4.2-.9.2-1.3,0Z"/>
          <path class="cls-2" d="M525.9,911.6c-.4-.2-.7-.5-.9-1-.2-.5-.3-1.1,0-1.6.2-.5.6-.9,1.1-1.2.6-.3,1.3-.3,1.9,0,.4.2.7.5.9,1,.5,1,0,2.3-1,2.8-.6.3-1.3.3-1.9,0Z"/>
          <path class="cls-2" d="M545.1,827.1c-.4-.2-.7-.5-.9-1-.2-.5-.3-1.1,0-1.6.2-.5.6-1,1.1-1.2.6-.3,1.3-.3,1.9,0,.4.2.7.5.9,1,.2.5.3,1.1,0,1.6-.2.5-.6.9-1.1,1.2-.6.3-1.3.3-1.9,0Z"/>
          <path class="cls-2" d="M448.9,755.6c-.4-.2-.7-.5-.9-.9-.5-1,0-2.3,1-2.8.6-.3,1.3-.3,1.9,0,.4.2.7.6.9,1,.2.5.3,1.1,0,1.6-.2.5-.6,1-1.1,1.2-.6.3-1.3.3-1.9,0Z"/>
          <path class="cls-2" d="M461,1244.5c-.3-.2-.5-.4-.7-.7-.4-.8,0-1.7.8-2.1.4-.2,1-.2,1.4,0,.3.2.5.4.7.7.2.4.2.8,0,1.2-.1.4-.4.7-.8.9-.4.2-1,.2-1.4,0Z"/>
          <path class="cls-2" d="M549,1400.8c-.3-.1-.5-.4-.6-.6-.2-.3-.2-.7,0-1,.1-.3.4-.6.7-.8.4-.2.8-.2,1.2,0,.3.1.5.4.6.6.3.7,0,1.5-.6,1.8-.4.2-.8.2-1.2,0Z"/>
          <path class="cls-2" d="M529.9,1278c-.3-.2-.6-.4-.7-.8-.2-.4-.2-.9,0-1.3.2-.4.5-.8.9-1,.5-.2,1.1-.2,1.6,0,.3.2.6.5.7.8.4.9,0,1.9-.8,2.3-.5.2-1.1.2-1.6,0Z"/>
          <path class="cls-2" d="M484,1154.4c-.4-.2-.7-.5-.9-1-.5-1,0-2.3,1-2.8.6-.3,1.3-.3,1.9,0,.4.2.7.5.9.9.5,1,0,2.3-1,2.8-.6.3-1.3.3-1.9,0Z"/>
          <path class="cls-2" d="M504.2,1081.4c-.3-.2-.6-.4-.7-.8-.2-.4-.2-.9,0-1.3.2-.4.5-.8.9-1,.5-.2,1.1-.2,1.5,0,.3.2.6.4.7.8.2.4.2.9,0,1.3-.2.4-.5.8-.9,1-.5.2-1.1.2-1.5,0Z"/>
          <path class="cls-2" d="M414.6,1108.9c-.3-.2-.6-.4-.7-.8-.2-.4-.2-.9,0-1.3.2-.4.5-.8.9-1,.5-.2,1.1-.2,1.5,0,.3.2.6.4.7.8.2.4.2.9,0,1.3-.2.4-.5.8-.9,1-.5.2-1,.2-1.5,0Z"/>
          <path class="cls-2" d="M420.7,982.7c-.3-.1-.5-.4-.6-.6-.2-.3-.2-.7,0-1,.1-.3.4-.6.7-.8.4-.2.8-.2,1.2,0,.3.1.5.4.6.6.3.7,0,1.5-.7,1.8-.4.2-.8.2-1.2,0Z"/>
          <path class="cls-2" d="M500.7,1325.3c-.4-.2-.7-.5-.9-.9-.5-1,0-2.3,1-2.8.6-.3,1.3-.3,1.9,0,.4.2.7.5.9,1,.2.5.3,1.1,0,1.6-.2.5-.6.9-1.1,1.2-.6.3-1.3.3-1.9,0Z"/>
        </g>
        <g>
          <path class="cls-2" d="M56.5,562.4c-2-1.1-2.7-3.6-1.6-5.6,1.1-2,3.6-2.7,5.6-1.6,2,1.1,2.7,3.6,1.6,5.6-1.1,2-3.6,2.7-5.6,1.6ZM60.4,555.3c-1.9-1.1-4.3-.3-5.4,1.6-1,1.9-.3,4.3,1.6,5.4,1.9,1,4.3.3,5.4-1.6,1-1.9.3-4.3-1.6-5.4Z"/>
          <path class="cls-2" d="M144.7,650.5c-2-1.1-2.7-3.6-1.6-5.6,1.1-2,3.6-2.7,5.6-1.6,2,1.1,2.7,3.6,1.6,5.6-1.1,2-3.6,2.7-5.6,1.6ZM148.5,643.4c-1.9-1-4.3-.3-5.4,1.6-1.1,1.9-.3,4.3,1.6,5.4,1.9,1.1,4.3.3,5.4-1.6,1.1-1.9.3-4.3-1.6-5.4Z"/>
          <path class="cls-2" d="M222.9,591.4c-2-1.1-2.7-3.6-1.6-5.6,1.1-2,3.6-2.7,5.6-1.6,2,1.1,2.7,3.6,1.6,5.6-1.1,2-3.6,2.7-5.6,1.6ZM226.8,584.3c-1.9-1-4.3-.3-5.4,1.6-1.1,1.9-.3,4.3,1.6,5.4,1.9,1,4.3.3,5.4-1.6,1-1.9.3-4.3-1.6-5.4Z"/>
          <path class="cls-2" d="M290.4,554.3c-2-1.1-2.7-3.6-1.6-5.6,1.1-2,3.6-2.7,5.6-1.6,2,1.1,2.7,3.6,1.6,5.6-1.1,2-3.6,2.7-5.6,1.6ZM294.2,547.2c-1.9-1.1-4.3-.3-5.4,1.6-1.1,1.9-.3,4.3,1.6,5.4,1.9,1.1,4.3.3,5.4-1.6,1.1-1.9.3-4.3-1.6-5.4Z"/>
          <path class="cls-2" d="M312.8,606.8c-2-1.1-2.7-3.6-1.6-5.6,1.1-2,3.6-2.7,5.6-1.6,2,1.1,2.7,3.6,1.6,5.6-1.1,2-3.6,2.7-5.6,1.6ZM316.6,599.7c-1.9-1.1-4.3-.3-5.4,1.6-1.1,1.9-.3,4.3,1.6,5.4,1.9,1,4.3.3,5.4-1.6,1-1.9.3-4.3-1.6-5.4Z"/>
          <path class="cls-2" d="M220,636.5c-2-1.1-2.7-3.6-1.6-5.6,1.1-2,3.6-2.7,5.6-1.6,2,1.1,2.7,3.6,1.6,5.6-1.1,2-3.6,2.7-5.6,1.6ZM223.9,629.4c-1.9-1.1-4.3-.3-5.4,1.6-1.1,1.9-.3,4.3,1.6,5.4,1.9,1.1,4.3.3,5.4-1.6,1-1.9.3-4.3-1.6-5.4Z"/>
          <path class="cls-2" d="M479.2,605.4c-2-1.1-2.7-3.6-1.6-5.6,1.1-2,3.6-2.7,5.6-1.6,2,1.1,2.7,3.6,1.6,5.6-1.1,2-3.6,2.7-5.6,1.6ZM483.1,598.4c-1.9-1-4.3-.3-5.4,1.6-1,1.9-.3,4.3,1.6,5.4,1.9,1,4.3.3,5.4-1.6,1-1.9.3-4.3-1.6-5.4Z"/>
          <path class="cls-2" d="M254.8,723.3c-2-1.1-2.7-3.6-1.6-5.6,1.1-2,3.6-2.7,5.6-1.6,2,1.1,2.7,3.6,1.6,5.6-1.1,2-3.6,2.7-5.6,1.6ZM258.6,716.2c-1.9-1-4.3-.3-5.4,1.6-1,1.9-.3,4.3,1.6,5.4,1.9,1,4.3.3,5.4-1.6,1-1.9.3-4.3-1.6-5.4Z"/>
          <path class="cls-2" d="M407.4,823.5c-2-1.1-2.7-3.6-1.6-5.6,1.1-2,3.6-2.7,5.6-1.6,2,1.1,2.7,3.6,1.6,5.6-1.1,2-3.6,2.7-5.6,1.6ZM411.3,816.4c-1.9-1-4.3-.3-5.4,1.6-1,1.9-.3,4.3,1.6,5.4,1.9,1,4.3.3,5.4-1.6,1-1.9.3-4.3-1.6-5.4Z"/>
          <path class="cls-2" d="M364.7,943.8c-2-1.1-2.7-3.6-1.6-5.6,1.1-2,3.6-2.7,5.6-1.6,2,1.1,2.7,3.6,1.6,5.6-1.1,2-3.6,2.7-5.6,1.6ZM368.6,936.8c-1.9-1-4.3-.3-5.4,1.6-1,1.9-.3,4.3,1.6,5.4,1.9,1,4.3.3,5.4-1.6,1-1.9.3-4.3-1.6-5.4Z"/>
          <path class="cls-2" d="M525,913.3c-2-1.1-2.7-3.6-1.6-5.6,1.1-2,3.6-2.7,5.6-1.6,2,1.1,2.7,3.6,1.6,5.6-1.1,2-3.6,2.7-5.6,1.6ZM528.8,906.3c-1.9-1.1-4.3-.3-5.4,1.6-1,1.9-.3,4.3,1.6,5.4,1.9,1,4.3.3,5.4-1.6,1-1.9.3-4.3-1.6-5.4Z"/>
          <path class="cls-2" d="M519.1,1024c-2-1.1-2.7-3.6-1.6-5.6,1.1-2,3.6-2.7,5.6-1.6,2,1.1,2.7,3.6,1.6,5.6-1.1,2-3.6,2.7-5.6,1.6ZM523,1016.9c-1.9-1-4.3-.3-5.4,1.6-1,1.9-.3,4.3,1.6,5.4,1.9,1,4.3.3,5.4-1.6,1-1.9.3-4.3-1.6-5.4Z"/>
          <path class="cls-2" d="M446.6,1069.7c-2-1.1-2.7-3.6-1.6-5.6,1.1-2,3.6-2.7,5.6-1.6,2,1.1,2.7,3.6,1.6,5.6-1.1,2-3.6,2.7-5.6,1.6ZM450.5,1062.7c-1.9-1.1-4.3-.3-5.4,1.6-1,1.9-.3,4.3,1.6,5.4,1.9,1,4.3.3,5.4-1.6,1-1.9.3-4.3-1.6-5.4Z"/>
          <path class="cls-2" d="M534.8,1177.4c-2-1.1-2.7-3.6-1.6-5.6,1.1-2,3.6-2.7,5.6-1.6,2,1.1,2.7,3.6,1.6,5.6-1.1,2-3.6,2.7-5.6,1.6ZM538.6,1170.3c-1.9-1-4.3-.3-5.4,1.6-1,1.9-.3,4.3,1.6,5.4,1.9,1,4.3.3,5.4-1.6,1-1.9.3-4.3-1.6-5.4Z"/>
          <path class="cls-2" d="M487.8,1275c-2-1.1-2.7-3.6-1.6-5.6,1.1-2,3.6-2.7,5.6-1.6,2,1.1,2.7,3.6,1.6,5.6-1.1,2-3.6,2.7-5.6,1.6ZM491.7,1267.9c-1.9-1-4.3-.3-5.4,1.6-1,1.9-.3,4.3,1.6,5.4,1.9,1,4.3.3,5.4-1.6,1-1.9.3-4.3-1.6-5.4Z"/>
          <path class="cls-2" d="M354.7,1255.5c-2-1.1-2.7-3.6-1.6-5.6,1.1-2,3.6-2.7,5.6-1.6,2,1.1,2.7,3.6,1.6,5.6-1.1,2-3.6,2.7-5.6,1.6ZM358.6,1248.5c-1.9-1-4.3-.3-5.4,1.6-1,1.9-.3,4.3,1.6,5.4,1.9,1,4.3.3,5.4-1.6,1-1.9.3-4.3-1.6-5.4Z"/>
          <path class="cls-2" d="M582.8,1346.5c-2-1.1-2.7-3.6-1.6-5.6,1.1-2,3.6-2.7,5.6-1.6,2,1.1,2.7,3.6,1.6,5.6-1.1,2-3.6,2.7-5.6,1.6ZM586.6,1339.4c-1.9-1-4.3-.3-5.4,1.6-1,1.9-.3,4.3,1.6,5.4,1.9,1,4.3.3,5.4-1.6,1-1.9.3-4.3-1.6-5.4Z"/>
          <path class="cls-2" d="M457.4,1346.9c-2-1.1-2.7-3.6-1.6-5.6,1.1-2,3.6-2.7,5.6-1.6,2,1.1,2.7,3.6,1.6,5.6-1.1,2-3.6,2.7-5.6,1.6ZM461.2,1339.9c-1.9-1-4.3-.3-5.4,1.6-1.1,1.9-.3,4.3,1.6,5.4,1.9,1.1,4.3.3,5.4-1.6,1-1.9.3-4.3-1.6-5.4Z"/>
          <path class="cls-2" d="M445.5,1425.1c-2-1.1-2.7-3.6-1.6-5.6,1.1-2,3.6-2.7,5.6-1.6,2,1.1,2.7,3.6,1.6,5.6-1.1,2-3.6,2.7-5.6,1.6ZM449.3,1418c-1.9-1-4.3-.3-5.4,1.6-1,1.9-.3,4.3,1.6,5.4,1.9,1,4.3.3,5.4-1.6,1-1.9.3-4.3-1.6-5.4Z"/>
          <path class="cls-2" d="M448.1,757.4c-2-1.1-2.7-3.6-1.6-5.6,1.1-2,3.6-2.7,5.6-1.6,2,1.1,2.7,3.6,1.6,5.6-1.1,2-3.6,2.7-5.6,1.6ZM451.9,750.3c-1.9-1-4.3-.3-5.4,1.6-1,1.9-.3,4.3,1.6,5.4,1.9,1,4.3.3,5.4-1.6,1-1.9.3-4.3-1.6-5.4Z"/>
          <path class="cls-2" d="M544.1,828.9c-2-1.1-2.7-3.6-1.6-5.6,1.1-2,3.6-2.7,5.6-1.6,2,1.1,2.7,3.6,1.6,5.6-1.1,2-3.6,2.7-5.6,1.6ZM548,821.8c-1.9-1-4.3-.3-5.4,1.6-1,1.9-.3,4.3,1.6,5.4,1.9,1,4.3.3,5.4-1.6,1-1.9.3-4.3-1.6-5.4Z"/>
          <path class="cls-2" d="M305.2,712c-2-1.1-2.7-3.6-1.6-5.6,1.1-2,3.6-2.7,5.6-1.6,2,1.1,2.7,3.6,1.6,5.6-1.1,2-3.6,2.7-5.6,1.6ZM309,705c-1.9-1-4.3-.3-5.4,1.6-1.1,1.9-.3,4.3,1.6,5.4,1.9,1,4.3.3,5.4-1.6,1-1.9.3-4.3-1.6-5.4Z"/>
          <path class="cls-2" d="M449.1,681.2c-2-1.1-2.7-3.6-1.6-5.6,1.1-2,3.6-2.7,5.6-1.6,2,1.1,2.7,3.6,1.6,5.6-1.1,2-3.6,2.7-5.6,1.6ZM453,674.2c-1.9-1-4.3-.3-5.4,1.6-1,1.9-.3,4.3,1.6,5.4,1.9,1,4.3.3,5.4-1.6,1-1.9.3-4.3-1.6-5.4Z"/>
        </g>
      </g>
    </g>
    <g>
      <g>
        <path class="cls-1" d="M466.2,1441.7v-.5c-.1,0,116-118.5,116-118.5l.3.3-.2-.5,4-100.4,50.6,32.9v-.2l-.2-.4-48.5-78.7.2-.3v-.4s-.4.6-.4.6l-44.6,18.3-31.2-20.3h0c0-.1,0,0,0,0l-84-1.7h0c0,0,0,0,0,0l-67.6-55.2,24-79.7,101.5-75h.2c0-.1-82.7-20.1-82.7-20.1l28.4-39.4h0c0,0,0-.1,0-.1h0s-7.7-69.6-7.7-69.6l75.2-5h0c0,0,45-123.6,45-123.6h0s0-.1,0-.1h.1c0-.1-.2-.1-.2-.1l-44.2-187.9,156.3-47.2h0c0,0,34.4-109.2,34.4-109.2l83,15.1h.9c0,0-.4-.1-.4-.1l-70-55.7,31.3-94.2,58.7-12.8h.3s56.2,27,56.2,27h.3s0,0,0,0l1.7-83.9h0s0,0,0,0l124.2-57.8h-.5s-161.7-2.5-161.7-2.5h0s-37.4,61.1-37.4,61.1l-50.6.6-78.7-37.2-32.1-85v.2c-.1,0-56.1,77.5-56.1,77.5l-38.2,3.4h-.1c0,0,0,0,0,0l-49.4,116.5h-.1c0-.1,0,0,0,0l-132.8-30.6h0c0,0-51.4,94.8-51.4,94.8h.2c0,0,35.3,41.5,35.3,41.5l-32.3,11.4h.2c0,.1,109.5,79.9,109.5,79.9l-139.2,117.2-.5-.2.4.4,36.9,126.4h0s108.7,9.7,108.7,9.7l12.2,110.3-102,47.1h-.3s68.6,37.7,68.6,37.7l-38.4,51.1h0s21,61.8,21,61.8l-60.4,83.8h-.1c0,0,.1.2.1.2l42.3,75.7-23.8,79.1-.5.3h.6c0-.1,48.2,68.4,48.2,68.4l-124,37h-.4s.4.2.4.2l81.6,40.4-23.4,42.7.4-.3,44.7-31.8,112.2,55.5.3.5ZM441,1323.6l68.8-69.1,72.2,67.9-140.9,1.2ZM588,1176.1l-1.8,45.6-26.5-17.2,28.2-28.4v.3c0,0,0-.3,0-.3ZM559.3,1204.4l-22.1,22.2-11.9-25.2,18-7.4,15.9,10.4ZM537,1226.8l-27.2,27.4-34.3-32.3,49.7-20.3,11.9,25.2ZM432.1,1219.5l-4-47.3,46.9,49.5-42.9-2.2ZM387.8,1217.3l-60.8,11.3,51.1-28.6,9.7,17.3ZM378.4,1199.9l49.2-27.5-39.5,44.8-9.7-17.3ZM427.7,1172.5l-19.4,45.8-20-1,39.4-44.7ZM427.9,1172.4l4,47.1-23.5-1.2,19.5-45.9ZM475.2,1221.9h0c0,0,0,0,0,0l34.4,32.3-68.8,69.1-8.7-103.7,43.1,2.2ZM510,1254.3l27.2-27.3,44.8,95-71.9-67.7ZM582.2,1322l-44.9-95.2,22.2-22.3,26.7,17.3-4,100.1ZM636.5,1254.4l-50.1-32.6,1.8-45.8,48.3,78.4ZM587.6,1176l-28.2,28.3-15.8-10.3,44-18ZM543.1,1193.9l-17.9,7.3-12.9-27.4,30.8,20ZM525,1201.3l-49.5,20.2,36.5-47.8,13,27.5ZM511.9,1173.7l-36.6,48-47-49.6,83.6,1.7ZM403.1,941.7l-55.5-13.4,83.7-25.8-28.3,39.2ZM419.3,832.7l4-5.3.6,5-4.6.3ZM499.1,827.4l-75.1,5-.6-5.3,41.8-55.7,78.8-67.3-44.9,123.2ZM544,703.9l-78.7,67.3-1.7-80.1,80.4,12.8ZM463.6,690.9l-.5-24.8,80.4,37.5-79.9-12.7ZM438.2,551.6l30.2-26-6.2,105.5-24-79.5ZM462.1,631.5l-77.9-33.3,53.8-46.4,24.1,79.7ZM438.2,551.4l-7-23.3,37.1-2.6-30,25.9ZM431.1,527.8l-7.7-25.5,63.5-41.5-18.4,64.4-37.4,2.6ZM430.8,527.8l-52,3.6,44.3-29,7.7,25.4ZM430.9,528l7.1,23.5-54,46.6-17.5-7.5,12-58.9,52.4-3.7ZM383.8,598.2l-22.8,19.7,5.5-27.1,17.3,7.4ZM384.1,598.3l77.5,33.1-100.5-13.3,23-19.8ZM462.1,631.7l-24.4,22.3-76.2-35.6,100.6,13.3ZM437.6,654.2l-30.3,27.7-46.1-63.3,76.4,35.7ZM437.9,654.1l24.3-22.2.7,33.9-25-11.7ZM462.4,631.9l81.2,71.6-80.5-37.6-.7-34ZM544.1,703.5l-81.6-71.9h0c0,0-.1,0-.1,0l6.2-106.2,31.3-9.5,44.2,187.6ZM468.7,525.1l18.3-64.2,12.9,54.8-31.2,9.4ZM500.1,515.7l-12.9-55,168.6,8-155.7,47ZM487.3,460.4l62.6-56.3,106.1,64.3-168.7-8ZM655.7,204.2l22.1,5.6-46.1,50.4,23.9-56ZM631.4,260.5l-39-72.4,63.1,16.1-24.1,56.4ZM678.2,209.7l15.6-17.1,41.3,31.6-56.9-14.5ZM678,209.7l-22.2-5.7,13-30.5,24.9,19-15.7,17.1ZM655.6,204l-63.2-16.1,14-39.2,62.3,24.7-13.1,30.6ZM606.4,148.4l15-42,47.1,66.6-62.1-24.7ZM606.1,148.6l-14,39.2-49.6-51.5,7.3-10.1,56.3,22.3ZM591.7,187.6l-66.2-27.7,16.9-23.4,49.3,51.2ZM591.9,187.9l-61.8,22.6-4.6-50.4,66.4,27.8ZM591.9,188.1l-55.3,93.7-6.5-71.1,61.8-22.6ZM592.2,188.1l39.1,72.6-94.1,21.8-.5-.4,55.5-94ZM507.3,378.1l105.6-31-63.1,56.8-42.5-25.8ZM549.7,404l-62.5,56.2,19.9-82,42.6,25.8ZM507.2,377.8l29.3-95.3.3.3h0s.2,0,.2,0l76,64.1-105.9,31.1ZM536.3,282.5l-29.2,95.1-11.9-50.6,41.2-44.5ZM495.1,326.8l-8-33.9,49.2-10.6-41.2,44.5ZM613.4,346.7l18-85.7,59.1,98.1-77.1-12.4ZM613.2,346.6l-75.9-64,93.9-21.8-18,85.7ZM487,292.7l-14.3-60.8,63.3,50.2-49,10.6ZM486.8,292.8l-94.3,20.4,80-81.2,14.4,60.9ZM392.2,313.1l-21.5-46,101.5-35.2-79.9,81.2ZM486.9,293l8,34-55.3,59.8-47.3-73.4,94.5-20.4ZM495,327.2l12,50.7-55.8,26.6-11.4-17.7,55.2-59.7ZM450.9,404.7l-49.5,23.6,38.1-41.2,11.3,17.6ZM506.9,378.2l-19.9,82.1-35.7-55.5,55.7-26.6ZM550,404l63.3-56.9,42.9,121.3-106.1-64.3ZM690.6,359.6l-34.2,108.7-42.9-121.3,77.1,12.4v.2ZM773.9,374.3l-82.9-15.1v-.2c0,0,13.2-40.1,13.2-40.1l69.6,55.4ZM704.1,318.8l-13.4,40.3-59-97.9,72.4,57.6ZM704.2,318.6l-72.6-57.8,103.8-36.2-31.2,94ZM631.8,260.5l46.3-50.6,57.1,14.6-103.4,36.1ZM694,192.5l33-36.1,33.4,27.3-24.9,40.6-41.5-31.8ZM778.7,198.6l-42.9,25.5,24.7-40.3,18.2,14.9ZM779.1,198.7l73-43.4-57.4,56.1-15.6-12.7ZM736.2,224.2l42.8-25.4,15.5,12.7-58.3,12.7ZM851,238.5l-56.2-27.1,57.8-56.5-1.7,83.5ZM976.3,97.2l-123,57.2.2-.2-.7.4-37.6-60,161,2.5ZM815,94.8l37.6,59.9-74.8.9,37.2-60.8ZM852.4,154.9l-73.5,43.7-18.3-14.9,17.1-27.9,74.7-.9ZM777.5,155.8l-17,27.7-33.2-27.1,50.2-.6ZM726.8,156.3l-33,36.1-24.9-19.1-20.4-54.1,78.4,37.1ZM648.2,119.1l20.2,53.5-46.8-66.1,26.6,12.6ZM648.1,118.8l-26.7-12.6-5-71.3,31.7,83.9ZM616.1,34.4l5,71.7-60.7,5.4,55.7-77.1ZM621.1,106.4l-15,42-56.2-22.3,10.3-14.3,60.9-5.4ZM560,111.8l-10.2,14.2-27.3-10.8,37.6-3.3ZM549.6,126.1l-7.2,10-20-20.8,27.2,10.8ZM542.3,136.3l-16.9,23.3-3.3-44.3,20.2,21ZM521.9,115.5l3.3,44.4-52.3,71,48.9-115.4ZM525.3,160.2l4.6,50.4-57.1,20.9,52.5-71.3ZM529.9,210.8l6.5,71.2h-.1s-63.6-50.3-63.6-50.3l57.2-20.9ZM472.1,231.7l-101.6,35.2-30.8-65.7,132.3,30.5ZM339.6,201.3l30.8,65.7-81.8,28.4,51.1-94.1ZM288.5,295.7l82-28.4,21.6,46h0s0,0,0,0l-68.3,24-35.3-41.6ZM291.6,348.8l32-11.3,76.7,90.5-108.7-79.3ZM323.9,337.4l68.2-24,8.8,114.9-77-90.9ZM392.3,313.7l47.2,73.2-38.4,41.5-8.8-114.7ZM401.3,428.6l49.7-23.8,35.7,55.4-85.5-31.7ZM486.8,460.6l-63.5,41.5-22.1-73.3,85.6,31.7ZM401,428.8l22.2,73.4-44.7,29.3-116.4,14.3,139-116.9ZM262,546l116.3-14.3-12,58.8-104.3-44.6ZM366.3,590.8l-5.6,27.4h-.2c0,.1.2.2.2.2l45.8,62.8-144.4-134.9,104.2,44.5ZM298.6,672.2l-36.7-125.9,145.2,135.6-108.4-9.7ZM407.5,681.9l30.2-27.7,25.2,11.7.5,24.8-55.9-8.9ZM463.4,691.1l1.7,80-57.6-88.9,55.9,8.9ZM407.5,682.4l57.6,88.9-45.4,21-12.2-109.9ZM464.9,771.7l-41.4,55.2-3.8-34.3,45.2-20.9ZM419.4,792.7l3.8,34.5-4.2,5.6-101,6.7,101.4-46.8ZM317.8,839.7l101-6.7-33.1,44-68-37.3ZM386,877.1l33.1-44.1,4.8-.3,7.7,69.5-45.6-25ZM385.8,877.2l45.6,25-83.8,25.8,38.2-50.9ZM347.5,928.5l55.5,13.4-34.6,48-20.9-61.4ZM403.2,941.9l82.3,19.9-101.2,74.8-15.8-46.5,34.7-48.2ZM368.4,990.3l15.8,46.4-75.8,36.9,60.1-83.3ZM308.2,1073.9l75.9-37-23.9,79.5-52-42.5ZM308.3,1074.3l51.8,42.3-9.9,32.8-41.9-75.1ZM350.4,1149.7l9.9-32.9,67.5,55.2-49.6,27.8-27.9-50ZM350.3,1150l27.8,49.8-51.5,28.8,23.7-78.6ZM326.6,1228.9l61.4-11.4,20.1,1-33.4,78.8-48.1-68.4ZM374.9,1297.4l33.5-78.9,23.6,1.2,8.7,103.8-65.8-26.1ZM440.3,1323.6l-47.1,2.7-18.2-28.6,65.3,25.9ZM406.8,1347.7l-13.5-21.2,47.1-2.7-33.6,23.9ZM440.7,1323.9l25.1,116.7-58.9-92.7,33.8-24ZM358,1328.3l16.8-30.6,18.2,28.6-35,2ZM374.5,1297.7l-16.8,30.6-106.3,6,123.1-36.7ZM251,1334.6l106.6-6.1-25.4,46.3-81.2-40.2ZM332.4,1374.9l25.4-46.4,35.2-2,13.6,21.3-52.9,37.6-21.3-10.5ZM309.3,1417l23-41.9,21.2,10.5-44.2,31.4ZM353.9,1385.5l52.8-37.5,59,92.8-111.8-55.3ZM440.9,1323.8l141.1-1.2-115.9,118.3-25.1-117.1Z"/>
        <g>
          <path class="cls-2" d="M816.6,97.1c1.4-.9,1.8-2.7.9-4.1-.9-1.4-2.7-1.8-4.1-.9-1.4.9-1.8,2.7-.9,4.1.9,1.4,2.7,1.8,4.1.9Z"/>
          <path class="cls-2" d="M670.3,175.8c1.4-.8,1.8-2.6.9-4-.8-1.3-2.6-1.7-4-.9-1.3.8-1.8,2.6-.9,4,.8,1.4,2.6,1.8,4,.9Z"/>
          <path class="cls-2" d="M617.5,36.2c1.1-.7,1.5-2.2.8-3.4-.7-1.1-2.2-1.5-3.4-.8-1.1.7-1.5,2.2-.8,3.4.7,1.2,2.2,1.5,3.4.8Z"/>
          <path class="cls-2" d="M527,162.6c1.5-.9,1.9-2.9,1-4.4-.9-1.5-2.9-1.9-4.4-1-1.5.9-1.9,2.9-1,4.4.9,1.5,2.9,1.9,4.4,1Z"/>
          <path class="cls-2" d="M341.3,203.8c1.5-.9,1.9-2.9,1-4.4-.9-1.5-2.9-1.9-4.4-1-1.5.9-1.9,2.9-1,4.4.9,1.5,2.9,1.9,4.4,1Z"/>
          <path class="cls-2" d="M474.2,234.4c1.5-.9,1.9-2.9,1-4.4-.9-1.5-2.9-1.9-4.4-1-1.5.9-1.9,2.9-1,4.4.9,1.5,2.9,1.9,4.4,1Z"/>
          <path class="cls-2" d="M523.7,117.8c1.5-1,2-3,1-4.5-1-1.5-3-2-4.5-1-1.5,1-2,3-1,4.5,1,1.5,3,2,4.5,1Z"/>
          <path class="cls-2" d="M623,109c1.5-.9,1.9-2.9,1-4.4-.9-1.5-2.9-1.9-4.4-1-1.5.9-1.9,2.9-1,4.4.9,1.5,2.9,1.9,4.4,1Z"/>
          <path class="cls-2" d="M728.7,159c1.5-.9,2-2.9,1-4.4-.9-1.5-2.9-1.9-4.4-1-1.5.9-1.9,2.9-1,4.4.9,1.5,2.9,1.9,4.4,1Z"/>
          <path class="cls-2" d="M796,213.6c1.2-.7,1.5-2.3.8-3.4-.7-1.2-2.3-1.5-3.4-.8-1.2.7-1.5,2.3-.8,3.4.7,1.2,2.3,1.5,3.4.8Z"/>
          <path class="cls-2" d="M775.5,376.4c1-.6,1.3-2,.7-3-.6-1-2-1.3-3-.7-1,.6-1.3,2-.7,3,.6,1,2,1.3,3,.7Z"/>
          <path class="cls-2" d="M464,634.4c1.5-.9,1.9-2.9,1-4.4-.9-1.5-2.9-1.9-4.4-1-1.5.9-2,2.9-1,4.4.9,1.5,2.9,1.9,4.4,1Z"/>
          <path class="cls-2" d="M546,706.6c1.5-.9,1.9-2.9,1-4.4-.9-1.5-2.9-2-4.4-1-1.5.9-1.9,2.9-1,4.4.9,1.5,2.9,1.9,4.4,1Z"/>
          <path class="cls-2" d="M500.9,830.2c1.5-.9,1.9-2.9,1-4.4-.9-1.5-2.9-1.9-4.4-1-1.5.9-1.9,2.9-1,4.4.9,1.5,2.9,2,4.4,1Z"/>
          <path class="cls-2" d="M319.2,842.3c1.5-1,2-2.9,1-4.4-.9-1.5-2.9-1.9-4.4-1-1.5.9-1.9,2.9-1,4.4.9,1.5,2.9,1.9,4.4,1Z"/>
          <path class="cls-2" d="M289.4,297.3c.9-.6,1.2-1.8.6-2.8-.6-.9-1.8-1.2-2.8-.6-.9.6-1.2,1.8-.6,2.8.6.9,1.8,1.2,2.8.6Z"/>
          <path class="cls-2" d="M292.6,350.7c1.1-.7,1.4-2.1.7-3.2-.7-1.1-2.1-1.4-3.2-.7-1.1.7-1.4,2.1-.7,3.1.7,1.1,2.1,1.4,3.2.7Z"/>
          <path class="cls-2" d="M737.3,227.2c1.5-.9,1.9-2.9,1-4.4-.9-1.5-2.9-1.9-4.4-1-1.5.9-1.9,2.9-1,4.4.9,1.5,2.9,1.9,4.4,1Z"/>
          <path class="cls-2" d="M978.4,99.8c1.5-.9,1.9-2.9,1-4.4-.9-1.5-2.9-1.9-4.4-1-1.5.9-1.9,2.9-1,4.4.9,1.5,2.9,1.9,4.4,1Z"/>
          <path class="cls-2" d="M852.8,241.4c1.5-.9,1.9-2.9,1-4.4-.9-1.5-2.9-1.9-4.4-1-1.5.9-1.9,2.9-1,4.4.9,1.5,2.9,1.9,4.4,1Z"/>
          <path class="cls-2" d="M692.5,362c1.5-.9,1.9-2.9,1-4.4-.9-1.5-2.9-1.9-4.4-1-1.5.9-2,2.9-1,4.4.9,1.5,2.9,1.9,4.4,1Z"/>
          <path class="cls-2" d="M633.1,263.5c1.5-.9,1.9-2.9,1-4.4-.9-1.5-2.9-1.9-4.4-1-1.5.9-1.9,2.9-1,4.4.9,1.5,2.9,1.9,4.4,1Z"/>
          <path class="cls-2" d="M593.9,190.6c1.5-.9,2-2.9,1-4.4-.9-1.5-2.9-1.9-4.4-1-1.5.9-1.9,2.9-1,4.4.9,1.5,2.9,1.9,4.4,1Z"/>
          <path class="cls-2" d="M538.5,285.2c1.7-1.1,2.2-3.3,1.1-5-1.1-1.7-3.3-2.2-5-1.1-1.7,1.1-2.2,3.3-1.1,5,1.1,1.7,3.3,2.2,5,1.1Z"/>
          <path class="cls-2" d="M393.9,316c1.5-.9,1.9-2.9,1-4.4-.9-1.5-2.9-1.9-4.4-1-1.5.9-1.9,2.9-1,4.4.9,1.5,2.9,1.9,4.4,1Z"/>
          <path class="cls-2" d="M508.8,380.7c1.5-.9,1.9-2.9,1-4.4-.9-1.5-2.9-2-4.4-1-1.5.9-1.9,2.9-1,4.4.9,1.5,2.9,1.9,4.4,1Z"/>
          <path class="cls-2" d="M615,349.5c1.5-.9,1.9-2.9,1-4.4-.9-1.5-2.9-1.9-4.4-1-1.5.9-1.9,2.9-1,4.4.9,1.5,2.9,1.9,4.4,1Z"/>
          <path class="cls-2" d="M488.7,463.3c1.5-.9,1.9-2.9,1-4.4-.9-1.5-2.9-1.9-4.4-1-1.5.9-1.9,2.9-1,4.4.9,1.5,2.9,1.9,4.4,1Z"/>
          <path class="cls-2" d="M380.2,534.3c1.5-.9,1.9-2.9,1-4.4-.9-1.5-2.9-1.9-4.4-1-1.5.9-2,2.9-1,4.4.9,1.5,2.9,1.9,4.4,1Z"/>
          <path class="cls-2" d="M362.1,620.3c1.1-.7,1.5-2.2.8-3.3-.7-1.1-2.2-1.5-3.3-.8-1.1.7-1.5,2.2-.8,3.3.7,1.1,2.2,1.5,3.3.8Z"/>
          <path class="cls-2" d="M657.6,470.4c1-.6,1.3-2,.7-3-.7-1-2-1.3-3-.7-1,.7-1.3,2-.7,3,.6,1,2,1.3,3,.7Z"/>
          <path class="cls-2" d="M470.2,528c1.5-.9,1.9-2.9,1-4.4-.9-1.5-2.9-1.9-4.4-1-1.5.9-1.9,2.9-1,4.4.9,1.5,2.9,2,4.4,1Z"/>
          <path class="cls-2" d="M853.6,156.1c.7-.5,1-1.5.5-2.2-.5-.8-1.5-1-2.2-.5-.7.5-1,1.5-.5,2.2.5.7,1.5,1,2.2.5Z"/>
          <path class="cls-2" d="M442.5,1326.4c.6-.4,1-.9,1.3-1.5.3-.8.3-1.7,0-2.5-.3-.8-1-1.4-1.8-1.7-1-.4-2-.3-2.9.3-.6.4-1,.9-1.3,1.5-.7,1.6.2,3.5,1.8,4.2,1,.4,2,.3,2.9-.3Z"/>
          <path class="cls-2" d="M513.8,1176.3c.6-.4,1-.9,1.3-1.5.7-1.6-.2-3.5-1.8-4.2-1-.4-2-.3-2.9.3-.6.4-1,.9-1.3,1.5-.3.8-.3,1.7,0,2.4.3.8,1,1.4,1.8,1.7.9.4,2,.3,2.9-.3Z"/>
          <path class="cls-2" d="M638.5,1257.4c.6-.4,1-.9,1.3-1.5.3-.8.3-1.7,0-2.4-.3-.8-1-1.4-1.8-1.7-1-.4-2-.3-2.9.3-.6.4-1,.9-1.3,1.5-.3.8-.3,1.7,0,2.4.3.8,1,1.4,1.8,1.7,1,.4,2,.3,2.9-.3Z"/>
          <path class="cls-2" d="M583.6,1324.6c.4-.3.8-.7,1-1.2.3-.6.2-1.3,0-1.9-.3-.6-.7-1.1-1.4-1.3-.7-.3-1.6-.2-2.2.2-.5.3-.8.7-1,1.2-.2.6-.2,1.3,0,1.9.3.6.7,1.1,1.4,1.3.7.3,1.5.2,2.2-.2Z"/>
          <path class="cls-2" d="M467.7,1443.8c.6-.4,1-.9,1.3-1.5.3-.8.3-1.7,0-2.5-.3-.8-1-1.4-1.8-1.7-.9-.4-2-.3-2.9.3-.6.4-1,.9-1.3,1.5-.3.8-.3,1.7,0,2.5.3.8,1,1.4,1.7,1.7,1,.4,2,.3,2.9-.3Z"/>
          <path class="cls-2" d="M252.3,1337.2c.6-.4,1-.9,1.3-1.5.3-.8.3-1.7,0-2.5-.3-.8-1-1.4-1.8-1.7-1-.4-2-.3-2.9.3-.6.4-1,.9-1.3,1.5-.3.8-.3,1.7,0,2.5.3.8,1,1.4,1.8,1.7,1,.4,2,.3,2.9-.3Z"/>
          <path class="cls-2" d="M589.8,1178.4c.6-.4,1-.9,1.3-1.5.3-.8.3-1.6,0-2.4-.3-.8-1-1.4-1.8-1.7-1-.4-2-.3-2.9.3-.6.4-1,.9-1.3,1.5-.7,1.6.1,3.5,1.8,4.2,1,.4,2,.3,2.9-.3Z"/>
          <path class="cls-2" d="M477.1,1224.7c.6-.4,1.1-1,1.4-1.6.3-.8.3-1.8,0-2.6-.4-.8-1-1.5-1.9-1.8-1-.4-2.2-.3-3.1.3-.6.4-1.1,1-1.4,1.6-.7,1.8.2,3.7,1.9,4.4,1,.4,2.1.3,3.1-.3Z"/>
          <path class="cls-2" d="M389.7,1220.1c.6-.4,1-.9,1.3-1.5.3-.8.3-1.7,0-2.4-.3-.8-1-1.4-1.8-1.7-.9-.4-2-.3-2.9.3-.6.3-1,.9-1.3,1.5-.6,1.6.2,3.5,1.8,4.1,1,.4,2,.3,2.9-.3Z"/>
          <path class="cls-2" d="M309.6,1076.6c.6-.4,1-.9,1.3-1.5.6-1.6-.2-3.5-1.8-4.1-1-.4-2-.3-2.9.3-.6.4-1,.9-1.3,1.5-.7,1.6.2,3.5,1.8,4.1,1,.4,2,.3,2.9-.3Z"/>
          <path class="cls-2" d="M433.4,905c.6-.4,1-.9,1.3-1.5.3-.8.3-1.7,0-2.4-.3-.8-1-1.4-1.8-1.7-1-.4-2-.3-2.9.3-.6.4-1,.9-1.3,1.5-.3.8-.3,1.6,0,2.4.3.8,1,1.4,1.8,1.7,1,.4,2,.3,2.9-.3Z"/>
          <path class="cls-2" d="M408.4,683.8c.4-.2.7-.6.9-1,.4-1.1-.1-2.4-1.2-2.8-.6-.3-1.3-.2-1.9.2-.4.2-.7.6-.9,1-.2.5-.2,1.1,0,1.7.2.5.7.9,1.2,1.1.6.3,1.3.2,1.9-.2Z"/>
          <path class="cls-2" d="M300.2,675c.6-.4,1-.9,1.3-1.5.3-.8.3-1.7,0-2.4-.3-.8-1-1.4-1.8-1.7-1-.4-2-.3-2.9.3-.6.4-1,.9-1.3,1.5-.6,1.6.2,3.5,1.8,4.1.9.4,2,.3,2.9-.3Z"/>
          <path class="cls-2" d="M263.3,548.6c.6-.4,1-.9,1.3-1.5.3-.8.3-1.7,0-2.4-.3-.8-1-1.4-1.7-1.7-1-.4-2-.3-2.9.3-.6.4-1,.9-1.3,1.5-.3.8-.3,1.7,0,2.4.3.8,1,1.4,1.8,1.7,1,.4,2,.3,2.9-.3Z"/>
          <path class="cls-2" d="M402.7,431.3c.6-.3,1-.9,1.3-1.5.6-1.6-.2-3.5-1.8-4.2-1-.4-2-.3-2.9.3-.6.4-1,.9-1.3,1.5-.3.8-.3,1.7,0,2.5.3.8,1,1.4,1.8,1.7,1,.4,2,.3,2.9-.3Z"/>
          <path class="cls-2" d="M429.3,1173.9c.4-.3.7-.7.9-1.1.5-1.2-.1-2.6-1.3-3.1-.7-.3-1.5-.2-2.1.2-.4.3-.7.7-.9,1.1-.2.6-.2,1.2,0,1.8.3.6.7,1,1.3,1.3.7.3,1.5.2,2.1-.2Z"/>
          <path class="cls-2" d="M310.1,1419.1c.4-.2.7-.6.8-1,.2-.5.2-1.1,0-1.6-.2-.5-.6-.9-1.1-1.1-.6-.2-1.3-.2-1.9.2-.4.2-.7.6-.8,1-.4,1.1,0,2.3,1.1,2.7.6.2,1.3.2,1.9-.2Z"/>
          <path class="cls-2" d="M327.8,1231.1c.5-.3.8-.7,1.1-1.3.3-.7.2-1.4,0-2-.3-.7-.8-1.2-1.5-1.4-.8-.3-1.7-.2-2.4.2-.5.3-.8.7-1.1,1.3-.5,1.4.1,2.9,1.5,3.5.8.3,1.7.2,2.4-.2Z"/>
          <path class="cls-2" d="M386,1039.4c.6-.4,1-.9,1.3-1.5.7-1.6-.1-3.5-1.8-4.2-1-.4-2-.3-2.9.3-.6.4-1,.9-1.3,1.5-.7,1.6.2,3.5,1.8,4.1,1,.4,2,.3,2.9-.3Z"/>
          <path class="cls-2" d="M348.7,930.5c.5-.3.8-.7,1-1.2.2-.6.2-1.3,0-2-.3-.6-.8-1.1-1.4-1.4-.8-.3-1.6-.2-2.3.2-.5.3-.8.7-1,1.2-.3.6-.2,1.3,0,2,.3.6.8,1.1,1.4,1.4.8.3,1.6.2,2.3-.2Z"/>
          <path class="cls-2" d="M487.2,964c.5-.3.8-.7,1-1.2.2-.6.2-1.3,0-2-.3-.6-.8-1.1-1.4-1.4-.8-.3-1.6-.2-2.3.2-.5.3-.8.7-1,1.2-.3.6-.2,1.4,0,2,.3.6.8,1.1,1.4,1.4.8.3,1.6.2,2.3-.2Z"/>
          <path class="cls-2" d="M466.3,773.2c.4-.2.7-.6.8-1,.2-.5.2-1.1,0-1.6-.2-.5-.6-.9-1.1-1.1-.6-.2-1.3-.2-1.9.2-.4.2-.7.6-.8,1-.4,1,0,2.3,1.1,2.7.6.2,1.3.2,1.9-.2Z"/>
          <path class="cls-2" d="M376.5,1300.2c.6-.4,1-.9,1.3-1.5.6-1.6-.2-3.5-1.8-4.1-1-.4-2-.3-2.9.3-.6.4-1,.9-1.3,1.5-.3.8-.3,1.7,0,2.4.3.8,1,1.4,1.7,1.7,1,.4,2,.3,2.9-.3Z"/>
        </g>
        <g>
          <path class="cls-2" d="M971.4,100.4c-1.8-2.9-.9-6.8,2-8.6,2.9-1.8,6.8-.9,8.6,2,1.8,2.9.9,6.8-2,8.6-2.9,1.8-6.8.9-8.6-2ZM971.6,100.3c1.8,2.8,5.5,3.7,8.3,1.9,2.8-1.8,3.7-5.5,1.9-8.3-1.8-2.8-5.5-3.7-8.3-1.9-2.8,1.8-3.7,5.5-1.9,8.3Z"/>
          <path class="cls-2" d="M845.8,242c-1.8-2.9-.9-6.8,2-8.6,2.9-1.8,6.8-.9,8.6,2,1.8,2.9.9,6.8-2,8.6-2.9,1.8-6.8.9-8.6-2ZM846,241.9c1.8,2.8,5.5,3.7,8.3,1.9,2.8-1.8,3.7-5.5,1.9-8.3-1.8-2.8-5.5-3.7-8.3-1.9-2.8,1.8-3.7,5.5-1.9,8.3Z"/>
          <path class="cls-2" d="M721.7,159.6c-1.8-2.9-.9-6.8,2-8.6,2.9-1.8,6.8-1,8.6,2,1.8,2.9.9,6.8-2,8.6-2.9,1.8-6.8.9-8.6-2ZM721.9,159.4c1.8,2.8,5.5,3.7,8.3,1.9,2.8-1.8,3.7-5.5,1.9-8.3-1.8-2.8-5.5-3.7-8.3-1.9-2.8,1.8-3.7,5.5-1.9,8.3Z"/>
          <path class="cls-2" d="M616,109.6c-1.8-2.9-.9-6.8,2-8.6,2.9-1.8,6.8-.9,8.6,2,1.8,2.9.9,6.8-2,8.6-2.9,1.8-6.8.9-8.6-2ZM616.2,109.5c1.8,2.8,5.5,3.7,8.3,1.9,2.8-1.8,3.7-5.5,1.9-8.3-1.8-2.8-5.5-3.7-8.3-1.9-2.8,1.8-3.7,5.5-1.9,8.3Z"/>
          <path class="cls-2" d="M586.9,191.2c-1.8-2.9-.9-6.8,2-8.6,2.9-1.8,6.8-1,8.6,2,1.8,2.9.9,6.8-2,8.6-2.9,1.8-6.8.9-8.6-2ZM587.1,191.1c1.8,2.8,5.5,3.7,8.3,1.9,2.8-1.8,3.7-5.5,1.9-8.3-1.8-2.8-5.5-3.7-8.3-1.9-2.8,1.8-3.7,5.5-1.9,8.3Z"/>
          <path class="cls-2" d="M730.3,227.8c-1.8-2.9-.9-6.8,2-8.6,2.9-1.8,6.8-.9,8.6,2,1.8,2.9.9,6.8-2,8.6-2.9,1.8-6.8.9-8.6-2ZM730.5,227.6c1.8,2.8,5.5,3.7,8.3,1.9,2.8-1.8,3.7-5.5,1.9-8.3-1.8-2.8-5.5-3.7-8.3-1.9-2.8,1.8-3.7,5.5-1.9,8.3Z"/>
          <path class="cls-2" d="M334.3,204.4c-1.8-2.9-.9-6.8,2-8.6,2.9-1.8,6.8-.9,8.6,2,1.8,2.9.9,6.8-2,8.6-2.9,1.8-6.8.9-8.6-2ZM334.5,204.3c1.8,2.8,5.5,3.7,8.3,1.9,2.8-1.8,3.7-5.5,1.9-8.3-1.8-2.8-5.5-3.7-8.3-1.9-2.8,1.8-3.7,5.5-1.9,8.3Z"/>
          <path class="cls-2" d="M685.5,362.6c-1.8-2.9-.9-6.8,2-8.6,2.9-1.8,6.8-1,8.6,2,1.8,2.9.9,6.8-2,8.6-2.9,1.8-6.8.9-8.6-2ZM685.7,362.5c1.8,2.8,5.5,3.7,8.3,1.9,2.8-1.8,3.7-5.5,1.9-8.3-1.8-2.8-5.5-3.7-8.3-1.9-2.8,1.8-3.7,5.5-1.9,8.3Z"/>
          <path class="cls-2" d="M463.3,528.6c-1.8-2.9-.9-6.8,2-8.6,2.9-1.8,6.8-.9,8.6,2,1.8,2.9.9,6.8-2,8.6-2.9,1.8-6.8.9-8.6-2ZM463.4,528.5c1.8,2.8,5.5,3.7,8.3,1.9,2.8-1.8,3.7-5.5,1.9-8.3-1.8-2.8-5.5-3.7-8.3-1.9-2.8,1.8-3.7,5.5-1.9,8.3Z"/>
          <path class="cls-2" d="M539,707.2c-1.8-2.9-.9-6.8,2-8.6,2.9-1.8,6.8-.9,8.6,2,1.8,2.9.9,6.7-2,8.6-2.9,1.8-6.8.9-8.6-2ZM539.2,707c1.8,2.8,5.5,3.7,8.3,1.9,2.8-1.8,3.7-5.5,1.9-8.3-1.8-2.8-5.5-3.7-8.3-1.9-2.8,1.8-3.7,5.5-1.9,8.3Z"/>
          <path class="cls-2" d="M293.2,675.6c-1.8-2.9-.9-6.8,2-8.6,2.9-1.8,6.8-1,8.6,2,1.8,2.9.9,6.8-2,8.6-2.9,1.8-6.8.9-8.6-2ZM293.4,675.5c1.8,2.8,5.5,3.7,8.3,1.9,2.8-1.8,3.7-5.5,1.9-8.3-1.8-2.8-5.5-3.7-8.3-1.9-2.8,1.8-3.7,5.5-1.9,8.3Z"/>
          <path class="cls-2" d="M312.2,842.9c-1.8-2.9-.9-6.8,2-8.6,2.9-1.8,6.8-.9,8.6,2,1.8,2.9,1,6.8-2,8.6-2.9,1.8-6.8.9-8.6-2ZM312.4,842.8c1.8,2.8,5.5,3.7,8.3,1.9,2.8-1.8,3.7-5.5,1.9-8.3-1.8-2.8-5.5-3.7-8.3-1.9-2.8,1.8-3.7,5.5-1.9,8.3Z"/>
          <path class="cls-2" d="M426.4,905.6c-1.8-2.9-.9-6.8,2-8.6,2.9-1.8,6.8-.9,8.6,2,1.8,2.9.9,6.8-2,8.6-2.9,1.8-6.8.9-8.6-2ZM426.6,905.5c1.8,2.8,5.5,3.7,8.3,1.9,2.8-1.8,3.7-5.5,1.9-8.3-1.8-2.8-5.5-3.7-8.3-1.9-2.8,1.8-3.7,5.5-1.9,8.3Z"/>
          <path class="cls-2" d="M302.5,1077c-1.8-2.9-.9-6.8,2-8.6,2.9-1.8,6.8-.9,8.6,2,1.8,2.9.9,6.8-2,8.6-2.9,1.8-6.8.9-8.6-2ZM302.7,1076.9c1.8,2.8,5.5,3.7,8.3,1.9,2.8-1.8,3.7-5.5,1.9-8.3-1.8-2.8-5.5-3.7-8.3-1.9-2.8,1.8-3.7,5.5-1.9,8.3Z"/>
          <path class="cls-2" d="M382.7,1220.6c-1.8-2.9-.9-6.8,2-8.6,2.9-1.8,6.8-.9,8.6,2,1.8,2.9.9,6.8-2,8.6-2.9,1.8-6.8.9-8.6-2ZM382.9,1220.5c1.8,2.8,5.5,3.7,8.3,1.9,2.8-1.8,3.7-5.5,1.9-8.3-1.8-2.8-5.5-3.7-8.3-1.9-2.8,1.8-3.7,5.5-1.9,8.3Z"/>
          <path class="cls-2" d="M582.8,1179c-1.8-2.9-1-6.8,2-8.6,2.9-1.8,6.8-.9,8.6,2,1.8,2.9.9,6.8-2,8.6-2.9,1.8-6.8.9-8.6-2ZM583,1178.9c1.8,2.8,5.5,3.7,8.3,1.9,2.8-1.8,3.7-5.5,1.9-8.3-1.8-2.8-5.5-3.7-8.3-1.9-2.8,1.8-3.7,5.5-1.9,8.3Z"/>
          <path class="cls-2" d="M245.3,1337.8c-1.8-2.9-.9-6.8,2-8.6,2.9-1.8,6.8-.9,8.6,2,1.8,2.9.9,6.8-2,8.6-2.9,1.8-6.8.9-8.6-2ZM245.5,1337.7c1.8,2.8,5.5,3.7,8.3,1.9,2.8-1.8,3.7-5.5,1.9-8.3-1.8-2.8-5.5-3.7-8.3-1.9-2.8,1.8-3.7,5.5-1.9,8.3Z"/>
          <path class="cls-2" d="M435.5,1327c-1.8-2.9-.9-6.8,2-8.6,2.9-1.8,6.8-.9,8.6,2,1.8,2.9.9,6.8-2,8.6-2.9,1.8-6.8,1-8.6-2ZM435.7,1326.9c1.8,2.8,5.5,3.7,8.3,1.9,2.8-1.8,3.7-5.5,1.9-8.3-1.8-2.8-5.5-3.7-8.3-1.9-2.8,1.8-3.7,5.5-1.9,8.3Z"/>
          <path class="cls-2" d="M460.7,1444.4c-1.8-2.9-1-6.8,2-8.6,2.9-1.8,6.8-.9,8.6,2,1.8,2.9.9,6.8-2,8.6-2.9,1.8-6.8.9-8.6-2ZM460.9,1444.3c1.8,2.8,5.5,3.6,8.3,1.9,2.8-1.8,3.6-5.5,1.9-8.3-1.8-2.8-5.5-3.7-8.3-1.9-2.8,1.8-3.7,5.5-1.9,8.3Z"/>
          <path class="cls-2" d="M395.5,432.1c-1.8-2.9-.9-6.8,2-8.6,2.9-1.8,6.8-.9,8.6,2,1.8,2.9.9,6.8-2,8.6-2.9,1.8-6.8.9-8.6-2ZM395.7,432c1.8,2.8,5.5,3.7,8.3,1.9,2.8-1.8,3.7-5.5,1.9-8.3-1.8-2.8-5.5-3.7-8.3-1.9-2.8,1.8-3.7,5.5-1.9,8.3Z"/>
          <path class="cls-2" d="M256.4,549.2c-1.8-2.9-.9-6.8,2-8.6,2.9-1.8,6.8-.9,8.6,2,1.8,2.9.9,6.8-2,8.6-2.9,1.8-6.8.9-8.6-2ZM256.5,549.1c1.8,2.8,5.5,3.7,8.3,1.9,2.8-1.8,3.7-5.5,1.9-8.3-1.8-2.8-5.5-3.7-8.3-1.9-2.8,1.8-3.7,5.5-1.9,8.3Z"/>
          <path class="cls-2" d="M608,350.1c-1.8-2.9-1-6.8,2-8.6,2.9-1.8,6.8-.9,8.6,2,1.8,2.9,1,6.8-2,8.6-2.9,1.8-6.8,1-8.6-2ZM608.2,350c1.8,2.8,5.5,3.6,8.3,1.9,2.8-1.8,3.7-5.5,1.9-8.3-1.8-2.8-5.5-3.7-8.3-1.9-2.8,1.8-3.7,5.5-1.9,8.3Z"/>
          <path class="cls-2" d="M386.9,316.6c-1.8-2.9-1-6.8,2-8.6,2.9-1.8,6.8-.9,8.6,2,1.8,2.9.9,6.8-2,8.6-2.9,1.8-6.8.9-8.6-2ZM387.1,316.5c1.8,2.8,5.5,3.7,8.3,1.9,2.8-1.8,3.7-5.5,1.9-8.3-1.8-2.8-5.5-3.7-8.3-1.9-2.8,1.8-3.7,5.5-1.9,8.3Z"/>
        </g>
      </g>
      <g>
        <path class="cls-1" d="M440.6,1323.1v.5c.1,0-116,118.5-116,118.5l-.3-.3.2.5-4,100.4-50.6-32.9v.2l.2.4,48.5,78.6-.2.3v.4s.4-.6.4-.6l44.6-18.3,31.2,20.3h0c0,.1,0,0,0,0l84,1.7h0c0,0,0,0,0,0l67.6,55.2-24,79.7-101.5,75h-.2c0,.1,82.7,20.1,82.7,20.1l-28.4,39.4h0s0,0,0,0h0c0,0,0,0,0,0l7.7,69.6-75.2,5h0c0,0-45,123.6-45,123.6h0s0,0,0,0h-.1c0,.1.2.1.2.1l44.2,187.9-156.3,47.2h0c0,0-34.4,109.2-34.4,109.2l-83-15.1h-.9c0,0,.4.1.4.1l70,55.7-31.3,94.2-58.7,12.8h-.3c0,0-56.2-27-56.2-27h-.3s0,0,0,0l-1.7,83.9h0,0c0,0-124.2,57.9-124.2,57.9h.5l161.7,2.5h0c0,0,37.4-61.1,37.4-61.1l50.6-.6,78.7,37.2,32.1,85v-.2c.1,0,56.1-77.5,56.1-77.5l38.2-3.4h.1c0,0,0,0,0,0l49.4-116.5h.1c0,.1,0,0,0,0l132.8,30.6h0c0,0,51.4-94.8,51.4-94.8h-.2c0,0-35.3-41.5-35.3-41.5l32.3-11.4h-.2c0-.1-109.5-79.9-109.5-79.9l139.2-117.2.5.2-.4-.4-36.9-126.4h0s-108.7-9.7-108.7-9.7l-12.2-110.3,102-47.1h.3s-68.6-37.7-68.6-37.7l38.4-51.1h0s-21-61.8-21-61.8l60.4-83.8h.1c0,0-.1-.2-.1-.2l-42.3-75.7,23.8-79,.5-.3h-.6c0,.1-48.2-68.4-48.2-68.4l124-37h.4s-.4-.2-.4-.2l-81.6-40.4,23.4-42.7-.4.3-44.7,31.8-112.2-55.5-.3-.5ZM465.7,1441.2l-68.8,69.1-72.2-67.9,140.9-1.2ZM318.8,1588.7l1.8-45.6,26.5,17.3-28.2,28.4v-.3c0,0,0,.3,0,.3ZM347.5,1560.4l22.1-22.2,11.9,25.2-18,7.4-15.9-10.4ZM369.7,1538l27.2-27.4,34.3,32.3-49.7,20.3-11.9-25.3ZM474.7,1545.3l4,47.3-46.9-49.5,42.9,2.2ZM519,1547.5l60.8-11.3-51.2,28.6-9.7-17.3ZM528.4,1564.9l-49.2,27.5,39.5-44.8,9.7,17.3ZM479.1,1592.3l19.4-45.8,20,1-39.4,44.7ZM478.8,1592.4l-4-47.1,23.5,1.2-19.5,45.9ZM431.6,1542.9h0c0,0,0,0,0,0l-34.4-32.3,68.8-69.1,8.7,103.7-43.1-2.2ZM396.8,1510.5l-27.2,27.3-44.8-95,72,67.7ZM324.6,1442.8l44.9,95.2-22.2,22.3-26.7-17.3,4-100.1ZM270.3,1510.4l50.1,32.6-1.8,45.8-48.3-78.4ZM319.1,1588.8l28.2-28.3,15.8,10.3-44,18ZM363.6,1570.9l17.9-7.3,12.9,27.4-30.8-20ZM381.7,1563.4l49.5-20.2-36.5,47.8-13-27.5ZM394.9,1591.1l36.6-48,47,49.6-83.6-1.7ZM503.6,1823.1l55.5,13.4-83.7,25.8,28.3-39.2ZM487.5,1932.1l-4,5.3-.6-5,4.6-.3ZM407.6,1937.4l75.1-5,.6,5.3-41.8,55.7-78.8,67.3,44.9-123.2ZM362.7,2060.9l78.7-67.3,1.7,80.1-80.4-12.8ZM443.1,2073.9l.5,24.8-80.4-37.5,79.9,12.7ZM468.5,2213.2l-30.2,26,6.2-105.5,24,79.5ZM444.6,2133.3l77.9,33.3-53.8,46.5-24.1-79.7ZM468.6,2213.4l7,23.3-37.1,2.6,30-25.9ZM475.7,2237l7.7,25.5-63.5,41.5,18.4-64.4,37.4-2.6ZM475.9,2237l52-3.6-44.3,29-7.7-25.4ZM475.9,2236.8l-7.1-23.5,54-46.6,17.5,7.5-12,58.9-52.4,3.7ZM522.9,2166.6l22.8-19.7-5.5,27.1-17.3-7.4ZM522.7,2166.5l-77.5-33.1,100.5,13.3-23,19.8ZM444.7,2133.1l24.4-22.3,76.2,35.6-100.6-13.3ZM469.2,2110.6l30.2-27.7,46.1,63.3-76.4-35.7ZM468.8,2110.7l-24.3,22.2-.7-33.9,25,11.7ZM444.3,2132.9l-81.2-71.6,80.5,37.6.7,34ZM362.7,2061.3l81.6,71.9h0c0,0,.1,0,.1,0l-6.2,106.2-31.3,9.5-44.2-187.6ZM438.1,2239.7l-18.3,64.2-12.9-54.8,31.2-9.4ZM406.7,2249.2l12.9,55-168.6-8,155.7-47ZM419.5,2304.4l-62.6,56.3-106.1-64.4,168.7,8ZM251.1,2560.6l-22.1-5.6,46.1-50.4-23.9,56ZM275.4,2504.3l39,72.5-63.1-16.1,24.1-56.4ZM228.6,2555.1l-15.6,17.1-41.3-31.6,56.9,14.5ZM228.8,2555.1l22.2,5.7-13,30.5-24.9-19,15.7-17.1ZM251.2,2560.8l63.2,16.1-14,39.2-62.3-24.7,13.1-30.6ZM300.4,2616.4l-15,42-47.1-66.6,62.1,24.7ZM300.7,2616.2l14-39.2,49.6,51.5-7.3,10-56.3-22.3ZM315,2577.2l66.2,27.7-16.9,23.4-49.3-51.2ZM314.9,2576.9l61.8-22.6,4.6,50.4-66.4-27.8ZM314.8,2576.7l55.3-93.7,6.5,71.1-61.8,22.6ZM314.6,2576.7l-39.1-72.6,94.1-21.8.5.4-55.5,94ZM399.5,2386.7l-105.6,31,63.1-56.8,42.5,25.8ZM357.1,2360.8l62.5-56.3-19.9,82-42.5-25.8ZM399.6,2387l-29.3,95.3-.3-.3h0s-.2,0-.2,0l-76-64.1,105.9-31ZM370.5,2482.3l29.2-95.1,11.9,50.5-41.2,44.5ZM411.7,2438l8,33.9-49.2,10.6,41.2-44.5ZM293.3,2418l-18,85.7-59.1-98.1,77.1,12.4ZM293.5,2418.2l75.9,64-93.9,21.8,18-85.7ZM419.7,2472.1l14.3,60.7-63.3-50.2,49-10.6ZM420,2472l94.3-20.4-80,81.2-14.4-60.9ZM514.6,2451.7l21.5,46-101.5,35.2,79.9-81.2ZM419.9,2471.8l-8-34,55.3-59.8,47.3,73.3-94.5,20.4ZM411.8,2437.6l-12-50.7,55.8-26.6,11.4,17.7-55.2,59.7ZM455.9,2360.1l49.5-23.6-38.1,41.2-11.3-17.6ZM399.9,2386.6l19.9-82.1,35.7,55.5-55.7,26.6ZM356.8,2360.8l-63.3,56.9-42.9-121.3,106.1,64.3ZM216.2,2405.2l34.2-108.7,42.9,121.3-77.1-12.4v-.2ZM132.9,2390.5l82.9,15.1v.2c0,0-13.2,40.1-13.2,40.1l-69.6-55.4ZM202.6,2446l13.4-40.3,59,97.9-72.4-57.6ZM202.6,2446.2l72.6,57.8-103.8,36.2,31.2-94ZM275,2504.3l-46.3,50.6-57.1-14.6,103.4-36ZM212.8,2572.3l-33,36.1-33.4-27.3,24.9-40.6,41.5,31.8ZM128,2566.2l42.9-25.5-24.7,40.3-18.2-14.9ZM127.7,2566.1l-73,43.4,57.4-56.1,15.6,12.7ZM170.6,2540.6l-42.8,25.4-15.5-12.7,58.3-12.7ZM55.8,2526.3l56.2,27.1-57.8,56.5,1.7-83.5ZM-69.5,2667.6l123-57.2-.2.2.7-.4,37.6,59.9-161-2.5ZM91.7,2670l-37.6-59.9,74.8-.9-37.2,60.8ZM54.4,2609.9l73.5-43.7,18.3,14.9-17.1,27.9-74.7.9ZM129.3,2609l17-27.7,33.2,27.1-50.2.6ZM180,2608.5l33-36.1,24.9,19.1,20.4,54.1-78.4-37.1ZM258.6,2645.7l-20.2-53.5,46.8,66.1-26.6-12.6ZM258.7,2646l26.7,12.6,5,71.3-31.7-84ZM290.6,2730.4l-5-71.7,60.7-5.4-55.7,77.1ZM285.6,2658.4l15-42,56.2,22.3-10.3,14.3-60.9,5.4ZM346.8,2653l10.2-14.2,27.3,10.9-37.6,3.3ZM357.1,2638.7l7.2-10,20,20.8-27.2-10.8ZM364.5,2628.5l16.9-23.3,3.3,44.3-20.2-21ZM384.9,2649.3l-3.3-44.4,52.3-71-48.9,115.4ZM381.5,2604.6l-4.6-50.4,57.1-20.9-52.5,71.3ZM376.9,2554l-6.5-71.2h.1s63.6,50.3,63.6,50.3l-57.2,20.9ZM434.6,2533.1l101.6-35.2,30.8,65.7-132.3-30.5ZM567.2,2563.5l-30.8-65.7,81.8-28.4-51.1,94.1ZM618.3,2469.1l-82,28.4-21.6-46h0,0s68.3-24,68.3-24l35.2,41.6ZM615.1,2416l-32,11.3-76.7-90.5,108.7,79.2ZM582.9,2427.4l-68.2,24-8.8-114.8,77,90.9ZM514.5,2451.1l-47.2-73.2,38.4-41.5,8.8,114.7ZM505.5,2336.2l-49.8,23.8-35.7-55.4,85.5,31.7ZM420,2304.2l63.5-41.5,22.1,73.3-85.6-31.7ZM505.8,2336l-22.2-73.4,44.7-29.3,116.4-14.3-139,117ZM644.7,2218.8l-116.3,14.3,12-58.8,104.3,44.6ZM540.5,2174l5.6-27.4h.2c0-.1-.2-.2-.2-.2l-45.8-62.8,144.4,134.9-104.2-44.5ZM608.2,2092.6l36.7,125.9-145.2-135.6,108.4,9.7ZM499.3,2082.9l-30.2,27.7-25.2-11.7-.5-24.8,55.9,8.9ZM443.3,2073.7l-1.7-80,57.6,88.9-55.9-8.9ZM499.3,2082.4l-57.6-88.9,45.4-21,12.2,109.9ZM441.9,1993.1l41.4-55.2,3.8,34.3-45.2,20.9ZM487.3,1972.1l-3.8-34.5,4.2-5.6,101-6.7-101.4,46.8ZM589,1925.1l-101,6.7,33.1-44,68,37.3ZM520.8,1887.7l-33.1,44.1-4.8.3-7.7-69.5,45.6,25ZM520.9,1887.6l-45.6-25,83.8-25.8-38.2,50.9ZM559.2,1836.3l-55.5-13.4,34.6-48,20.9,61.4ZM503.6,1822.9l-82.4-19.9,101.2-74.8,15.8,46.6-34.7,48.2ZM538.4,1774.5l-15.8-46.4,75.8-36.9-60.1,83.3ZM598.6,1690.9l-75.9,37,23.9-79.5,52,42.5ZM598.5,1690.5l-51.8-42.3,9.9-32.8,41.9,75.1ZM556.4,1615.1l-9.9,32.9-67.5-55.2,49.6-27.7,27.9,50ZM556.5,1614.8l-27.8-49.8,51.5-28.8-23.7,78.6ZM580.2,1535.9l-61.4,11.5-20.1-1,33.4-78.8,48.1,68.4ZM531.9,1467.4l-33.5,78.9-23.6-1.2-8.7-103.8,65.8,26.1ZM466.5,1441.2l47.1-2.7,18.2,28.6-65.3-25.9ZM500,1417.1l13.5,21.2-47.1,2.7,33.7-23.9ZM466.1,1440.9l-25.1-116.7,58.9,92.7-33.8,24ZM548.8,1436.5l-16.8,30.6-18.2-28.6,35-2ZM532.3,1467.1l16.8-30.6,106.2-6-123.1,36.7ZM655.8,1430.2l-106.6,6.1,25.4-46.3,81.2,40.2ZM574.4,1389.9l-25.4,46.4-35.2,2-13.6-21.3,52.9-37.6,21.3,10.5ZM597.5,1347.8l-23,41.9-21.2-10.5,44.2-31.4ZM552.9,1379.3l-52.8,37.5-59-92.8,111.8,55.3ZM465.9,1441l-141.1,1.2,115.9-118.3,25.2,117.1Z"/>
        <g>
          <path class="cls-2" d="M90.2,2667.7c-1.4.9-1.8,2.7-.9,4.1.9,1.4,2.7,1.8,4.1.9,1.4-.9,1.8-2.7.9-4.1-.9-1.4-2.7-1.8-4.1-.9Z"/>
          <path class="cls-2" d="M236.5,2589c-1.4.8-1.8,2.6-.9,4,.8,1.3,2.6,1.7,4,.9,1.3-.8,1.8-2.6.9-4-.8-1.3-2.6-1.7-4-.9Z"/>
          <path class="cls-2" d="M289.2,2728.6c-1.2.7-1.5,2.2-.8,3.4.7,1.1,2.2,1.5,3.4.8,1.2-.7,1.5-2.2.8-3.4-.7-1.1-2.2-1.5-3.4-.8Z"/>
          <path class="cls-2" d="M379.7,2602.2c-1.5.9-1.9,2.9-1,4.4.9,1.5,2.9,2,4.4,1,1.5-.9,1.9-2.9,1-4.4-.9-1.5-2.9-2-4.4-1Z"/>
          <path class="cls-2" d="M565.5,2561c-1.5.9-1.9,2.9-1,4.4.9,1.5,2.9,1.9,4.4,1,1.5-.9,1.9-2.9,1-4.4-.9-1.5-2.9-1.9-4.4-1Z"/>
          <path class="cls-2" d="M432.6,2530.4c-1.5.9-1.9,2.9-1,4.4.9,1.5,2.9,1.9,4.4,1,1.5-.9,1.9-2.9,1-4.4-.9-1.5-2.9-1.9-4.4-1Z"/>
          <path class="cls-2" d="M383.1,2647c-1.5,1-2,3-1,4.5,1,1.5,3,2,4.5,1,1.5-1,2-3,1-4.5-1-1.5-3-2-4.5-1Z"/>
          <path class="cls-2" d="M283.8,2655.8c-1.5.9-1.9,2.9-1,4.4.9,1.5,2.9,1.9,4.4,1,1.5-.9,1.9-2.9,1-4.4-.9-1.5-2.9-1.9-4.4-1Z"/>
          <path class="cls-2" d="M178.1,2605.8c-1.5.9-2,2.9-1,4.4.9,1.5,2.9,1.9,4.4,1,1.5-.9,1.9-2.9,1-4.4-.9-1.5-2.9-1.9-4.4-1Z"/>
          <path class="cls-2" d="M110.8,2551.2c-1.2.7-1.5,2.3-.8,3.4.7,1.2,2.3,1.5,3.4.8,1.2-.7,1.5-2.3.8-3.4-.7-1.2-2.3-1.5-3.4-.8Z"/>
          <path class="cls-2" d="M131.3,2388.4c-1,.6-1.3,2-.7,3,.6,1,2,1.3,3,.7,1-.6,1.3-2,.7-3-.6-1-2-1.3-3-.7Z"/>
          <path class="cls-2" d="M442.8,2130.4c-1.5.9-1.9,2.9-1,4.4.9,1.5,2.9,2,4.4,1,1.5-.9,1.9-2.9,1-4.4-.9-1.5-2.9-1.9-4.4-1Z"/>
          <path class="cls-2" d="M360.8,2058.2c-1.5.9-1.9,2.9-1,4.4.9,1.5,2.9,2,4.4,1,1.5-.9,2-2.9,1-4.4-.9-1.5-2.9-2-4.4-1Z"/>
          <path class="cls-2" d="M405.9,1934.6c-1.5.9-1.9,2.9-1,4.4.9,1.5,2.9,2,4.4,1,1.5-.9,1.9-2.9,1-4.4-.9-1.5-2.9-2-4.4-1Z"/>
          <path class="cls-2" d="M587.6,1922.5c-1.5.9-2,2.9-1,4.4.9,1.5,2.9,2,4.4,1,1.5-.9,1.9-2.9,1-4.4-.9-1.5-2.9-1.9-4.4-1Z"/>
          <path class="cls-2" d="M617.4,2467.5c-.9.6-1.2,1.8-.6,2.8.6.9,1.8,1.2,2.8.6.9-.6,1.2-1.8.6-2.8-.6-.9-1.8-1.2-2.8-.6Z"/>
          <path class="cls-2" d="M614.2,2414.1c-1.1.7-1.4,2.1-.7,3.2.7,1.1,2.1,1.4,3.2.7,1.1-.7,1.4-2.1.7-3.1-.7-1.1-2.1-1.4-3.2-.7Z"/>
          <path class="cls-2" d="M169.5,2537.6c-1.5.9-1.9,2.9-1,4.4.9,1.5,2.9,2,4.4,1,1.5-.9,1.9-2.9,1-4.4-.9-1.5-2.9-1.9-4.4-1Z"/>
          <path class="cls-2" d="M-71.6,2665c-1.5.9-2,2.9-1,4.4.9,1.5,2.9,1.9,4.4,1,1.5-.9,1.9-2.9,1-4.4-.9-1.5-2.9-1.9-4.4-1Z"/>
          <path class="cls-2" d="M54,2523.4c-1.5.9-1.9,2.9-1,4.4.9,1.5,2.9,1.9,4.4,1,1.5-.9,1.9-2.9,1-4.4-.9-1.5-2.9-2-4.4-1Z"/>
          <path class="cls-2" d="M214.3,2402.8c-1.5.9-1.9,2.9-1,4.4.9,1.5,2.9,1.9,4.4,1,1.5-.9,2-2.9,1-4.4-.9-1.5-2.9-1.9-4.4-1Z"/>
          <path class="cls-2" d="M273.7,2501.3c-1.5.9-1.9,2.9-1,4.4.9,1.5,2.9,1.9,4.4,1,1.5-.9,1.9-2.9,1-4.4-.9-1.5-2.9-1.9-4.4-1Z"/>
          <path class="cls-2" d="M312.9,2574.2c-1.5.9-2,2.9-1,4.4.9,1.5,2.9,1.9,4.4,1,1.5-.9,1.9-2.9,1-4.4-.9-1.5-2.9-2-4.4-1Z"/>
          <path class="cls-2" d="M368.3,2479.6c-1.7,1.1-2.2,3.3-1.1,5,1.1,1.7,3.3,2.2,5,1.1,1.7-1.1,2.2-3.3,1.1-5-1.1-1.7-3.3-2.2-5-1.1Z"/>
          <path class="cls-2" d="M512.9,2448.8c-1.5.9-2,2.9-1,4.4.9,1.5,2.9,2,4.4,1,1.5-.9,1.9-2.9,1-4.4-.9-1.5-2.9-1.9-4.4-1Z"/>
          <path class="cls-2" d="M398,2384.1c-1.5.9-1.9,2.9-1,4.4.9,1.5,2.9,2,4.4,1,1.5-.9,1.9-2.9,1-4.4-.9-1.5-2.9-1.9-4.4-1Z"/>
          <path class="cls-2" d="M291.8,2415.3c-1.5.9-1.9,2.9-1,4.4.9,1.5,2.9,1.9,4.4,1,1.5-.9,2-2.9,1-4.4-.9-1.5-2.9-1.9-4.4-1Z"/>
          <path class="cls-2" d="M418.1,2301.5c-1.5.9-1.9,2.9-1,4.4.9,1.5,2.9,1.9,4.4,1,1.5-.9,1.9-2.9,1-4.4-.9-1.5-2.9-2-4.4-1Z"/>
          <path class="cls-2" d="M526.6,2230.5c-1.5.9-2,2.9-1,4.4.9,1.5,2.9,1.9,4.4,1,1.5-.9,2-2.9,1-4.4-.9-1.5-2.9-1.9-4.4-1Z"/>
          <path class="cls-2" d="M544.7,2144.5c-1.1.7-1.5,2.2-.8,3.3.7,1.1,2.2,1.4,3.3.7,1.1-.7,1.5-2.2.8-3.3-.7-1.1-2.2-1.5-3.3-.8Z"/>
          <path class="cls-2" d="M249.2,2294.4c-1,.6-1.3,2-.7,3,.7,1,2,1.3,3,.7,1-.7,1.3-2,.7-3-.6-1-2-1.3-3-.7Z"/>
          <path class="cls-2" d="M436.5,2236.8c-1.5.9-1.9,2.9-1,4.4.9,1.5,2.9,1.9,4.4,1,1.5-.9,2-2.9,1-4.4-.9-1.5-2.9-1.9-4.4-1Z"/>
          <path class="cls-2" d="M53.1,2608.7c-.7.5-1,1.5-.5,2.2.5.8,1.5,1,2.2.5.7-.5,1-1.5.5-2.2-.5-.7-1.5-1-2.2-.5Z"/>
          <path class="cls-2" d="M464.3,1438.4c-.6.4-1,.9-1.3,1.5-.3.8-.3,1.7,0,2.5.3.8,1,1.4,1.8,1.7,1,.4,2,.3,2.9-.3.6-.4,1-.9,1.3-1.5.7-1.6-.2-3.5-1.8-4.1-1-.4-2-.3-2.9.3Z"/>
          <path class="cls-2" d="M393,1588.5c-.6.4-1,.9-1.3,1.5-.7,1.6.2,3.5,1.8,4.2,1,.4,2,.3,2.9-.3.6-.4,1-.9,1.3-1.5.3-.8.3-1.7,0-2.4-.3-.8-1-1.4-1.8-1.7-.9-.4-2-.3-2.9.3Z"/>
          <path class="cls-2" d="M268.3,1507.4c-.6.4-1,.9-1.3,1.5-.3.8-.3,1.7,0,2.5.3.8,1,1.4,1.8,1.7,1,.4,2,.3,2.9-.3.6-.4,1-.9,1.3-1.5.3-.8.3-1.7,0-2.4-.3-.8-1-1.4-1.8-1.7-1-.4-2-.3-2.9.3Z"/>
          <path class="cls-2" d="M323.2,1440.2c-.4.3-.8.7-1,1.2-.3.6-.2,1.3,0,1.9.3.6.8,1.1,1.4,1.3.7.3,1.6.2,2.2-.2.4-.3.8-.7,1-1.2.2-.6.2-1.3,0-1.9-.3-.6-.7-1.1-1.4-1.3-.7-.3-1.5-.2-2.2.2Z"/>
          <path class="cls-2" d="M439.1,1321c-.6.4-1,.9-1.3,1.5-.3.8-.3,1.7,0,2.5.3.8,1,1.4,1.8,1.7.9.4,2,.3,2.9-.3.6-.4,1-.9,1.3-1.5.3-.8.3-1.7,0-2.5-.3-.8-1-1.4-1.7-1.7-1-.4-2-.3-2.9.3Z"/>
          <path class="cls-2" d="M654.5,1427.6c-.6.4-1,.9-1.3,1.5-.3.8-.3,1.7,0,2.5.3.8,1,1.4,1.8,1.7,1,.4,2,.3,2.9-.3.6-.3,1-.9,1.3-1.5.3-.8.3-1.7,0-2.4-.3-.8-1-1.4-1.8-1.7-1-.4-2-.3-2.9.3Z"/>
          <path class="cls-2" d="M317,1586.4c-.6.4-1,.9-1.3,1.5-.3.8-.3,1.6,0,2.5.3.8,1,1.4,1.8,1.7,1,.4,2,.3,2.9-.3.6-.4,1-.9,1.3-1.5.7-1.6-.1-3.5-1.8-4.2-1-.4-2-.3-2.9.3Z"/>
          <path class="cls-2" d="M429.7,1540.1c-.6.4-1.1,1-1.4,1.6-.3.8-.3,1.8,0,2.6.4.8,1,1.5,1.9,1.8,1,.4,2.2.3,3.1-.3.6-.4,1.1-.9,1.4-1.6.7-1.8-.2-3.8-1.9-4.5-1-.4-2.2-.3-3.1.3Z"/>
          <path class="cls-2" d="M517.1,1544.7c-.6.4-1,.9-1.3,1.5-.3.8-.3,1.7,0,2.4.3.8,1,1.4,1.8,1.7.9.4,2,.3,2.9-.3.6-.4,1-.9,1.3-1.5.6-1.6-.2-3.5-1.8-4.1-1-.4-2-.3-2.9.2Z"/>
          <path class="cls-2" d="M597.1,1688.2c-.6.4-1,.9-1.3,1.5-.7,1.6.2,3.5,1.8,4.1,1,.4,2,.3,2.9-.3.6-.4,1-.9,1.3-1.5.6-1.6-.2-3.5-1.8-4.1-1-.4-2-.3-2.9.2Z"/>
          <path class="cls-2" d="M473.4,1859.8c-.6.4-1,.9-1.3,1.5-.3.8-.3,1.7,0,2.4.3.8,1,1.4,1.8,1.7,1,.4,2,.3,2.9-.3.6-.4,1-.9,1.3-1.5.3-.8.3-1.6,0-2.4-.3-.8-1-1.4-1.8-1.7-1-.4-2-.3-2.9.3Z"/>
          <path class="cls-2" d="M498.3,2081c-.4.2-.7.6-.9,1-.4,1.1.1,2.3,1.2,2.8.6.3,1.3.2,1.9-.2.4-.2.7-.6.9-1,.2-.5.2-1.1,0-1.7-.2-.5-.7-.9-1.2-1.1-.6-.3-1.3-.2-1.9.2Z"/>
          <path class="cls-2" d="M606.6,2089.8c-.6.4-1,.9-1.3,1.5-.3.8-.3,1.7,0,2.5.3.8,1,1.4,1.8,1.7,1,.4,2,.3,2.9-.3.6-.4,1-.9,1.3-1.5.6-1.6-.2-3.5-1.8-4.1-1-.4-2-.3-2.9.3Z"/>
          <path class="cls-2" d="M643.4,2216.2c-.6.4-1,.9-1.3,1.5-.3.8-.3,1.7,0,2.4.3.8,1,1.4,1.7,1.7,1,.4,2,.3,2.9-.3.6-.4,1-.9,1.3-1.5.3-.8.3-1.7,0-2.4-.3-.8-1-1.4-1.8-1.7-1-.4-2-.3-2.9.3Z"/>
          <path class="cls-2" d="M504.1,2333.5c-.6.4-1,.9-1.3,1.5-.6,1.6.2,3.5,1.8,4.2,1,.4,2,.3,2.9-.3.6-.4,1-.9,1.3-1.5.3-.8.3-1.7,0-2.5-.3-.8-1-1.4-1.8-1.7-1-.4-2-.3-2.9.3Z"/>
          <path class="cls-2" d="M477.5,1590.9c-.4.3-.7.7-.9,1.1-.5,1.2.1,2.6,1.3,3.1.7.3,1.5.2,2.1-.2.4-.3.7-.7.9-1.1.2-.6.2-1.2,0-1.8-.3-.6-.7-1-1.3-1.3-.7-.3-1.5-.2-2.1.2Z"/>
          <path class="cls-2" d="M596.7,1345.7c-.4.2-.7.6-.8,1-.2.5-.2,1.1,0,1.6.2.5.6.9,1.1,1.1.6.2,1.3.2,1.9-.2.4-.2.7-.6.8-1,.4-1.1,0-2.3-1.1-2.7-.6-.2-1.3-.2-1.9.2Z"/>
          <path class="cls-2" d="M579,1533.7c-.5.3-.8.7-1.1,1.3-.3.7-.2,1.4,0,2,.3.7.8,1.2,1.5,1.4.8.3,1.7.2,2.4-.2.5-.3.8-.7,1.1-1.3.5-1.4-.1-2.9-1.5-3.5-.8-.3-1.7-.2-2.4.2Z"/>
          <path class="cls-2" d="M520.8,1725.4c-.6.4-1,.9-1.3,1.5-.7,1.6.1,3.5,1.8,4.1,1,.4,2,.3,2.9-.3.6-.4,1-.9,1.3-1.5.7-1.6-.2-3.5-1.8-4.1-1-.4-2-.3-2.9.3Z"/>
          <path class="cls-2" d="M558,1834.3c-.5.3-.8.7-1,1.2-.2.6-.2,1.3,0,2,.3.6.8,1.1,1.4,1.4.8.3,1.6.2,2.3-.2.5-.3.8-.7,1-1.2.3-.6.2-1.3,0-2-.3-.6-.8-1.1-1.4-1.4-.8-.3-1.6-.2-2.3.2Z"/>
          <path class="cls-2" d="M419.6,1800.8c-.5.3-.8.7-1,1.2-.3.6-.2,1.3,0,2,.3.6.8,1.1,1.4,1.4.8.3,1.6.2,2.3-.2.5-.3.8-.7,1-1.2.3-.6.2-1.3,0-2-.3-.6-.8-1.1-1.4-1.4-.8-.3-1.6-.2-2.3.2Z"/>
          <path class="cls-2" d="M440.5,1991.6c-.4.2-.7.6-.8,1-.2.5-.2,1.1,0,1.6.2.5.6.9,1.1,1.1.6.2,1.3.2,1.9-.2.4-.2.7-.6.8-1,.4-1,0-2.3-1.2-2.7-.6-.2-1.3-.2-1.9.2Z"/>
          <path class="cls-2" d="M530.3,1464.6c-.6.4-1,.9-1.3,1.5-.6,1.6.2,3.5,1.8,4.1,1,.4,2,.3,2.9-.3.6-.4,1-.9,1.3-1.5.3-.8.3-1.7,0-2.5-.3-.8-1-1.4-1.8-1.7-1-.4-2-.3-2.9.3Z"/>
        </g>
        <g>
          <path class="cls-2" d="M-64.7,2664.4c1.8,2.9.9,6.8-2,8.6-2.9,1.8-6.8.9-8.6-2-1.8-2.9-.9-6.8,2-8.6,2.9-1.8,6.8-.9,8.6,2ZM-64.8,2664.5c-1.8-2.8-5.5-3.7-8.3-1.9-2.8,1.8-3.7,5.5-1.9,8.3,1.8,2.8,5.5,3.7,8.3,1.9,2.8-1.8,3.7-5.5,1.9-8.3Z"/>
          <path class="cls-2" d="M60.9,2522.8c1.8,2.9.9,6.8-2,8.6-2.9,1.8-6.8.9-8.6-2-1.8-2.9-.9-6.8,2-8.6,2.9-1.8,6.8-.9,8.6,2ZM60.8,2522.9c-1.8-2.8-5.5-3.7-8.3-1.9-2.8,1.8-3.7,5.5-1.9,8.3,1.8,2.8,5.5,3.7,8.3,1.9,2.8-1.8,3.7-5.5,1.9-8.3Z"/>
          <path class="cls-2" d="M185.1,2605.3c1.8,2.9.9,6.8-2,8.6-2.9,1.8-6.8.9-8.6-2-1.8-2.9-.9-6.8,2-8.6,2.9-1.8,6.8-.9,8.6,2ZM184.9,2605.4c-1.8-2.8-5.5-3.7-8.3-1.9-2.8,1.8-3.7,5.5-1.9,8.3,1.8,2.8,5.5,3.7,8.3,1.9,2.8-1.8,3.7-5.5,1.9-8.3Z"/>
          <path class="cls-2" d="M290.8,2655.2c1.8,2.9.9,6.8-2,8.6-2.9,1.8-6.8.9-8.6-2-1.8-2.9-.9-6.8,2-8.6,2.9-1.8,6.8-.9,8.6,2ZM290.6,2655.4c-1.8-2.8-5.5-3.7-8.3-1.9-2.8,1.8-3.7,5.5-1.9,8.3,1.8,2.8,5.5,3.7,8.3,1.9,2.8-1.7,3.7-5.5,1.9-8.3Z"/>
          <path class="cls-2" d="M319.9,2573.6c1.8,2.9.9,6.8-2,8.6-2.9,1.8-6.8,1-8.6-2-1.8-2.9-.9-6.8,2-8.6,2.9-1.8,6.8-.9,8.6,2ZM319.7,2573.7c-1.8-2.8-5.5-3.7-8.3-1.9-2.8,1.8-3.7,5.5-1.9,8.3,1.8,2.8,5.5,3.7,8.3,1.9,2.8-1.8,3.7-5.5,1.9-8.3Z"/>
          <path class="cls-2" d="M176.5,2537c1.8,2.9.9,6.8-2,8.6-2.9,1.8-6.8.9-8.6-2-1.8-2.9-.9-6.8,2-8.6,2.9-1.8,6.8-.9,8.6,2ZM176.3,2537.2c-1.8-2.8-5.5-3.7-8.3-1.9-2.8,1.8-3.7,5.5-1.9,8.3,1.8,2.8,5.5,3.7,8.3,1.9,2.8-1.8,3.7-5.5,1.9-8.3Z"/>
          <path class="cls-2" d="M572.5,2560.4c1.8,2.9.9,6.8-2,8.6-2.9,1.8-6.8.9-8.6-2-1.8-2.9-.9-6.8,2-8.6,2.9-1.8,6.8-.9,8.6,2ZM572.3,2560.5c-1.8-2.8-5.5-3.7-8.3-1.9-2.8,1.8-3.7,5.5-1.9,8.3,1.8,2.8,5.5,3.7,8.3,1.9,2.8-1.8,3.7-5.5,1.9-8.3Z"/>
          <path class="cls-2" d="M221.3,2402.2c1.8,2.9.9,6.8-2,8.6-2.9,1.8-6.8.9-8.6-2-1.8-2.9-.9-6.8,2-8.6,2.9-1.8,6.8-.9,8.6,2ZM221.1,2402.3c-1.8-2.8-5.5-3.7-8.3-1.9-2.8,1.8-3.7,5.5-1.9,8.3,1.8,2.8,5.5,3.7,8.3,1.9,2.8-1.8,3.7-5.5,1.9-8.3Z"/>
          <path class="cls-2" d="M443.5,2236.2c1.8,2.9.9,6.8-2,8.6-2.9,1.8-6.7.9-8.6-2-1.8-2.9-.9-6.8,2-8.6,2.9-1.8,6.8-.9,8.6,2ZM443.3,2236.3c-1.8-2.8-5.5-3.7-8.3-1.9-2.8,1.8-3.7,5.5-1.9,8.3,1.8,2.8,5.5,3.7,8.3,1.9,2.8-1.8,3.7-5.5,1.9-8.3Z"/>
          <path class="cls-2" d="M367.8,2057.6c1.8,2.9.9,6.7-2,8.6-2.9,1.8-6.7.9-8.6-2-1.8-2.9-.9-6.8,2-8.6,2.9-1.8,6.8-.9,8.6,2ZM367.6,2057.7c-1.8-2.8-5.5-3.7-8.3-1.9-2.8,1.8-3.7,5.5-1.9,8.3,1.8,2.8,5.5,3.7,8.3,1.9,2.8-1.8,3.7-5.5,1.9-8.3Z"/>
          <path class="cls-2" d="M613.6,2089.2c1.8,2.9.9,6.8-2,8.6-2.9,1.8-6.8,1-8.6-2-1.8-2.9-.9-6.8,2-8.6,2.9-1.8,6.8-.9,8.6,2ZM613.4,2089.3c-1.8-2.8-5.5-3.7-8.3-1.9-2.8,1.8-3.7,5.5-1.9,8.3,1.8,2.8,5.5,3.7,8.3,1.9,2.8-1.8,3.7-5.5,1.9-8.3Z"/>
          <path class="cls-2" d="M594.6,1921.9c1.8,2.9.9,6.8-2,8.6-2.9,1.8-6.8.9-8.6-2-1.8-2.9-.9-6.8,2-8.6,2.9-1.8,6.8-.9,8.6,2ZM594.4,1922c-1.8-2.8-5.5-3.7-8.3-1.9-2.8,1.8-3.7,5.5-1.9,8.3,1.8,2.8,5.5,3.7,8.3,1.9,2.8-1.8,3.7-5.5,1.9-8.3Z"/>
          <path class="cls-2" d="M480.4,1859.2c1.8,2.9.9,6.8-2,8.6-2.9,1.8-6.8.9-8.6-2-1.8-2.9-.9-6.8,2-8.6,2.9-1.8,6.8-.9,8.6,2ZM480.2,1859.3c-1.8-2.8-5.5-3.7-8.3-1.9-2.8,1.8-3.7,5.5-1.9,8.3,1.8,2.8,5.5,3.7,8.3,1.9,2.8-1.8,3.7-5.5,1.9-8.3Z"/>
          <path class="cls-2" d="M604.2,1687.8c1.8,2.9.9,6.8-2,8.6-2.9,1.8-6.8.9-8.6-2-1.8-2.9-.9-6.8,2-8.6,2.9-1.8,6.8-.9,8.6,2ZM604.1,1687.9c-1.8-2.8-5.5-3.7-8.3-1.9-2.8,1.8-3.7,5.5-1.9,8.3,1.8,2.8,5.5,3.7,8.3,1.9,2.8-1.8,3.7-5.5,1.9-8.3Z"/>
          <path class="cls-2" d="M524.1,1544.2c1.8,2.9.9,6.8-2,8.6-2.9,1.8-6.8.9-8.6-2-1.8-2.9-.9-6.8,2-8.6,2.9-1.8,6.8-.9,8.6,2ZM523.9,1544.3c-1.8-2.8-5.5-3.7-8.3-1.9-2.8,1.8-3.7,5.5-1.9,8.3,1.8,2.8,5.5,3.7,8.3,1.9,2.8-1.8,3.7-5.5,1.9-8.3Z"/>
          <path class="cls-2" d="M324,1585.8c1.8,2.9,1,6.8-2,8.6-2.9,1.8-6.8.9-8.6-2-1.8-2.9-.9-6.8,2-8.6,2.9-1.8,6.8-.9,8.6,2ZM323.8,1586c-1.8-2.8-5.5-3.7-8.3-1.9-2.8,1.8-3.7,5.5-1.9,8.3,1.8,2.8,5.5,3.7,8.3,1.9,2.8-1.8,3.7-5.5,1.9-8.3Z"/>
          <path class="cls-2" d="M661.5,1427c1.8,2.9.9,6.8-2,8.6-2.9,1.8-6.8.9-8.6-2-1.8-2.9-.9-6.8,2-8.6,2.9-1.8,6.8-.9,8.6,2ZM661.3,1427.1c-1.8-2.8-5.5-3.7-8.3-1.9-2.8,1.8-3.7,5.5-1.9,8.3,1.8,2.8,5.5,3.7,8.3,1.9,2.8-1.8,3.7-5.5,1.9-8.3Z"/>
          <path class="cls-2" d="M471.3,1437.8c1.8,2.9.9,6.8-2,8.6-2.9,1.8-6.8.9-8.6-2-1.8-2.9-.9-6.8,2-8.6,2.9-1.8,6.8-.9,8.6,2ZM471.1,1437.9c-1.8-2.8-5.5-3.7-8.3-1.9-2.8,1.8-3.7,5.5-1.9,8.3,1.8,2.8,5.5,3.7,8.3,1.9,2.8-1.8,3.7-5.5,1.9-8.3Z"/>
          <path class="cls-2" d="M446.1,1320.4c1.8,2.9.9,6.8-2,8.6-2.9,1.8-6.8.9-8.6-2-1.8-2.9-.9-6.8,2-8.6,2.9-1.8,6.8-.9,8.6,2ZM445.9,1320.5c-1.8-2.8-5.5-3.7-8.3-1.9-2.8,1.8-3.6,5.5-1.9,8.3,1.8,2.8,5.5,3.7,8.3,1.9,2.8-1.8,3.7-5.5,1.9-8.3Z"/>
          <path class="cls-2" d="M511.3,2332.7c1.8,2.9.9,6.8-2,8.6-2.9,1.8-6.8.9-8.6-2-1.8-2.9-.9-6.8,2-8.6,2.9-1.8,6.8-.9,8.6,2ZM511.1,2332.8c-1.8-2.8-5.5-3.7-8.3-1.9-2.8,1.8-3.7,5.5-1.9,8.3,1.8,2.8,5.5,3.7,8.3,1.9,2.8-1.8,3.7-5.5,1.9-8.3Z"/>
          <path class="cls-2" d="M650.4,2215.6c1.8,2.9.9,6.8-2,8.6-2.9,1.8-6.8.9-8.6-2-1.8-2.9-.9-6.8,2-8.6,2.9-1.8,6.8-.9,8.6,2ZM650.2,2215.7c-1.8-2.8-5.5-3.7-8.3-1.9-2.8,1.8-3.7,5.5-1.9,8.3,1.8,2.8,5.5,3.7,8.3,1.9,2.8-1.8,3.7-5.5,1.9-8.3Z"/>
          <path class="cls-2" d="M298.7,2414.7c1.8,2.9,1,6.8-2,8.6-2.9,1.8-6.8.9-8.6-2-1.8-2.9-1-6.8,2-8.6,2.9-1.8,6.8-.9,8.6,2ZM298.6,2414.8c-1.8-2.8-5.5-3.7-8.3-1.9-2.8,1.8-3.7,5.5-1.9,8.3,1.8,2.8,5.5,3.7,8.3,1.9,2.8-1.8,3.7-5.5,1.9-8.3Z"/>
          <path class="cls-2" d="M519.9,2448.2c1.8,2.9.9,6.8-2,8.6-2.9,1.8-6.8.9-8.6-2-1.8-2.9-.9-6.8,2-8.6,2.9-1.8,6.8-1,8.6,2ZM519.7,2448.3c-1.8-2.8-5.5-3.7-8.3-1.9-2.8,1.8-3.7,5.5-1.9,8.3,1.8,2.8,5.5,3.7,8.3,1.9,2.8-1.8,3.7-5.5,1.9-8.3Z"/>
        </g>
      </g>
    </g>
  </g>
</svg>