<?xml version="1.0" encoding="UTF-8"?>
<svg id="Ebene_1" data-name="Ebene 1" xmlns="http://www.w3.org/2000/svg" version="1.1" viewBox="0 0 1059.1 2701.4">
  <defs>
    <style>
      .cls-1 {
        fill: #a6a6a6;
      }

      .cls-1, .cls-2 {
        stroke-width: 0px;
      }

      .cls-2 {
        fill: #4b4b4b;
      }

      .cls-3 {
        opacity: .5;
      }

      .cls-4 {
        opacity: .5;
      }
    </style>
  </defs>
  <g class="cls-3">
    <g class="cls-4">
      <g>
        <path class="cls-1" d="M535.5,1311.6l-71.5,40.9-30.6-19.1-.3-.2,17.1,27.1-52,29.8h-.2c0,.1.3.1.3.1l82.9,19.4-29,46.9h-.4s.4.1.4.1l18.8,51-24.8,51.4h0c0,0,0,0,0,0l43,52.6-11.3,41.4h0s27.3,32.1,27.3,32.1l-43.5,27.4h.2s68.9,26.9,68.9,26.9l-3.6,73-71,10.7h0s-19.2,84.5-19.2,84.5l-.3.3.3-.2,96.1,71.4-68.8,56.8h-.1c0,0,21.7,6.3,21.7,6.3l-21.5,28.7h-.1s37.6,60.1,37.6,60.1h0c0,0,86-25.3,86-25.3h0c0,0,0,0,0,0l37.1,74.6h0c0,0,0,0,0,0l25.2.7,39.9,48.7h0c0,0,17.7-57,17.7-57l50.2-27.6,33.3-1.6,27,38.6h0s106.2-8,106.2-8h.3s-83.9-33.1-83.9-33.1h0s0,0,0,0l-4.4-55h0s-.2,0-.2,0l-35.9,20h-.2s-39.1-6.1-39.1-6.1l-24.3-60.6,43.8-39.4h.3c0,0-.6,0-.6,0l-53.9,13.2-26.9-70.4h0s-104.6-24.8-104.6-24.8l21.6-125.2h.1s0,0,0,0h0c0,0,0,0,0,0l-34.5-79.4h0s-49.6-.3-49.6-.3l2.3-46h0s0,0,0,0h0s0,0,0,0l-20.2-24.7,53.5-16.4h-.1c0,0-69.7-45.3-69.7-45.3l-18.9-51.4,42.2-39h0s0,0,0,0l55.1-4.4h0c0,0,0,0,0,0l19.7-14.6,30,10.2.3.4v-.3s-.1-.2-.1-.2l28.7-53.6v-.3c.1,0,.1-.1.1-.1l-31.9,23.6-6.6-65.8v-.3c.1,0,0,.2,0,.2l-81-73.3v-.3c0,0-.1.3-.1.3ZM616.4,1385l-44.7,47.5-47.9-42.7,92.6-4.8ZM626,1480.7v.2c0,0-19.6-17.5-19.6-17.5l16.7-12.4,3,29.9v-.2ZM596.2,1470.9l-12.1-4.1,6.8-17,15.4,13.7-10.1,7.4ZM583.9,1466.7l-33.4-11.4,21.3-22.6,19,16.9-6.8,17.1ZM550.2,1455.4l-28.8,34.4.7-31.2,28.1-3.2ZM487.4,1473.6l-34.7-16.8,40.4,5-5.7,11.8ZM493.2,1461.9l27.7,27.9-33.4-16.1,5.7-11.7ZM493.3,1461.8l13.1-1.5,14.6,29.3-27.7-27.8ZM506.6,1460.3l15.4-1.7-.7,31.1-14.6-29.4ZM522.1,1458.4l1.6-68.5,47.9,42.7-21.3,22.6h0s-28.2,3.2-28.2,3.2ZM616.4,1385.3l-25.6,64.2-18.9-16.9,44.6-47.3ZM623.2,1450.9l-16.8,12.4-15.5-13.7,25.7-64.3,6.6,65.6ZM626.3,1480.9l-3-30,31.6-23.4-28.6,53.4ZM596.3,1470.9l10-7.4,19.6,17.5-29.6-10.1ZM576.6,1485.3l7.4-18.5,12,4.1-19.4,14.4ZM576.4,1485.4l-25.9-29.9,33.3,11.3-7.4,18.6ZM521.4,1489.9l28.9-34.5,26,30.1-54.9,4.4ZM534.2,1666.9l-56-13.6,35.9-11,20.1,24.6ZM532,1713.2l-.2,3.3-2.8-3.3h3ZM616.1,1792.7l-54.4-41.1-29.7-34.9.2-3.5,49.5.3,34.4,79.2ZM563.8,1804.5l-2.1-52.7,54.4,41.1-52.3,11.6ZM615.8,1793l-51.3,27.9-.6-16.3,52-11.6ZM565.2,1844l8.3,69.1-20.9-15.9,12.6-53.2ZM552.5,1897l-37.2-28.4,49.9-25-12.6,53.3ZM573.4,1913.1l-24.5-.2,3.7-15.6,20.8,15.8ZM573.5,1913.3l14.6,41.6-43.3-24.8,4-17.1,24.7.2ZM544.7,1930l-30.3-17.3,34.3.3-4,17ZM514.2,1912.6l-10.2-38.2,11.2-5.6,37.3,28.5-3.7,15.7-34.6-.3ZM504,1874.2l-4.7-17.6,15.8,12-11.1,5.5ZM499.3,1856.4l65.5-12.7-49.6,24.8-15.9-12.1ZM499.6,1856.3l48.7-26.4,16.9,13.7-65.5,12.7ZM499.3,1856.2l27.8-43.4,21,17-48.8,26.5ZM564.3,1821.1l.9,22.3-16.8-13.6,15.9-8.7ZM564.4,1821.1l51.4-27.9-50.5,50.2-.9-22.4ZM594.6,1918.1l-20.9-5-8.3-69.5h0s0,0,0,0l50.8-50.5-21.6,125ZM594.6,1918.2l-6.3,36.5-14.6-41.4,20.9,4.9ZM698.8,1943l-110.5,12,6.3-36.7,104.1,24.7ZM699,1943.1l-67.2,46.5-43.4-34.5,110.5-12ZM691.3,2080.8l32.3,31.3-14.3,4.6-18-35.9ZM709.2,2116.7l-40.8,13.1,22.7-49.1,18.1,36.1ZM760.7,2100.4l-25.8,22.4-10.9-10.6,36.8-11.8ZM734.7,2122.9l-15.6,13.5-9.8-19.5,14.4-4.6,11,10.6ZM719,2136.4l-40,18.7-10.7-25.2,40.9-13.1,9.8,19.6ZM718.9,2136.6l-28.3,45.7-11.5-27,39.8-18.7ZM642.9,2172.1l-5.2-6.3,30.5-35.8,10.7,25.2-36.1,16.9ZM637.6,2165.7l-12.1-14.7,42.4-20.8-30.4,35.6ZM625.5,2150.8l1-33.3,41.5,12.4-42.5,20.9ZM626.5,2117.4l1.4-46.9,40.1,59.3-41.5-12.4ZM628,2070.2l.3-.3,62.7,10.6-22.8,49.2-40.2-59.5ZM631.8,1989.7l43.7,34.8-70.6-16.2,26.9-18.6ZM604.8,2008.3l-16.4-53.1,43.3,34.5-26.9,18.6ZM675.7,2024.7l-47.4,45.1h-.1s0,0,0,0l-.2.2-23-61.5,70.8,16.2ZM598.9,2042.4l5.8-33.7,23,61.3-28.8-27.6ZM627.7,2070.1l-32.7-5,3.9-22.6,28.8,27.6ZM726.1,2013.5l-35,66.8-15.2-55.6,50.2-11.2ZM691,2080.4l-62.6-10.6,47.3-45,15.2,55.6ZM627.6,2070.3l-39.6,35.5,7-40.5,32.6,5ZM587.8,2105.8l-55.8-50.2,62.8,9.6-7,40.6ZM587.6,2105.8l-68.1-19.1,12.3-31.1,55.7,50.2ZM532,2055.4l28.1-50.1,38.7,37.1-3.9,22.7-62.9-9.7ZM560.2,2005.2l6.8-12,37.7,15.3-5.8,33.8-38.7-37ZM560.1,2005.1l-26.7-25.6,33.4,13.5-6.8,12ZM567,1993l21.3-37.9,16.4,53.1-37.6-15.3ZM699.1,1943.2l-23.3,81.4-43.8-34.9,67.2-46.5ZM726,2013.4l-50.1,11.2,23.4-81.4,26.8,70.1h0ZM736.7,2039.4l-10.3-25.8v-.2s53.9-13.2,53.9-13.2l-43.5,39.2ZM691.3,2080.2l34.9-66.6,10.4,25.9-45.2,40.7ZM760.8,2100.1l-69.6-19.6,45.4-40.9,24.2,60.5ZM760.7,2100.2l-37,11.8-32.4-31.4,69.4,19.6ZM760.9,2100.3l18,25.7-20.9,19.2-23.1-22.4,26-22.5ZM779,2125.9l-17.8-25.5,29.2,15-11.4,10.5ZM800.3,2106.4l40,34.6-49.7-25.6,9.7-9ZM800.2,2106.4l-9.7,8.9-29.1-15,38.8,6ZM840.7,2141.2l-40.2-34.8,35.8-20,4.4,54.8ZM818.5,2182.3l22.3-40.9.5.2h-.1c0-.1,83,32.6,83,32.6l-105.7,8ZM791.5,2143.8l49.2-2.4-22.3,40.8-26.9-38.4ZM791.4,2143.7l-12.3-17.6,11.4-10.5,50,25.8-49.1,2.4ZM758.2,2145.3l20.8-19.1,12.2,17.5-33,1.6ZM707.9,2172.8l11.3-36.3,15.6-13.5,23.1,22.4-50,27.5ZM690.8,2182.2l28.1-45.3-11.1,36-16.9,9.3ZM690.2,2229.5l.5-47.1,17-9.4-17.5,56.4ZM650.4,2181.4l40.1,1.1-.5,47.3-39.6-48.4ZM650.3,2181.2l-7.4-9,36-16.9,11.5,27-40.2-1.1ZM625.3,2180.5l17.5-8.2,7.3,8.9-24.8-.7ZM625.3,2180.4l12.3-14.5,5.1,6.3-17.5,8.2ZM625.1,2180.4l.4-29.2,12,14.7-12.4,14.6ZM588.2,2106.4l37.2,44.6-.4,29.3-36.7-73.9ZM588.1,2106l38.3,11.4-1,33.3-37.3-44.7ZM588,2105.9l39.8-35.6h0s-1.5,47.1-1.5,47.1l-38.4-11.5ZM501.9,2131.2l17.6-44.4,68.1,19.1-85.7,25.3ZM464.5,2071.4l54.9,15.4-17.6,44.4-37.3-59.8ZM485.9,2042.5l45.8,13.1h0s0,0,0,0l-12.3,31.1-55-15.4,21.5-28.7ZM532.7,1979.8l-46.8,62.5-21.5-6.1,68.3-56.4ZM533,1979.6l-1.2,75.8-45.7-13,47-62.8ZM533.1,1979.5l26.9,25.7-28.1,50,1.2-75.7ZM588.1,1955.2l-21.3,37.8-33.6-13.6,54.9-24.2ZM533.2,1979.2l11.6-49,43.4,24.8-55,24.3ZM437.1,1907.9l77.1,4.8,30.5,17.4-11.6,49.1-96-71.3ZM503.9,1874.4l10.2,38.2-77-4.8,66.8-33.4ZM437.2,1907.6l89.5-94.4-27.6,43.1h-.1s.1.1.1.1l4.8,17.8-66.7,33.4ZM526.9,1812.8l-90,94.9,19.1-84.2,70.8-10.7ZM563.7,1804.6l.6,16.3-16.1,8.7-21-17,36.4-8.1ZM527.3,1812.6l34.3-60.7,2.1,52.6-36.4,8.1ZM530.8,1739.7l30.7,12-34.3,60.7,3.6-72.7ZM530.8,1739.5l1.1-22.7,29.4,34.6-30.5-11.9ZM462.2,1712.8l66.6.4,3,3.5-1.1,22.8-68.5-26.7ZM505.2,1685.4l23.5,27.6-66.6-.4,43.2-27.2ZM534.3,1667.1l-2.3,45.9h-3.1s-23.5-27.7-23.5-27.7l29-18.2ZM478.2,1653.4l56.1,13.6-28.9,18.2-27.1-31.9ZM489.4,1612l24.6,30.1-35.9,11,11.3-41.1ZM489.4,1611.8l8.6-31.2,69.5,45.1-53.3,16.4-24.7-30.3ZM446.5,1559.3l51.3,21.3-8.5,31.1-42.8-52.3ZM478.9,1529.2l18.9,51.2-51.4-21.3,32.5-30ZM471.1,1507.9l7.8,21.2-32.3,29.8,24.5-51ZM487.5,1473.7l33.7,16.3-42.2,38.9-7.8-21.2,16.3-34ZM452.4,1456.8l35,16.9-16.3,33.8-18.7-50.7ZM481.3,1409.8l25.1,50.4-13.2,1.5-40.8-5.1,28.9-46.8ZM523.5,1389.9l-1.6,68.5-15.4,1.7-25.1-50.5,42.2-19.8ZM481.4,1409.5l10.8-19.5h31.1c0-.1-41.9,19.5-41.9,19.5ZM523.4,1389.7h-31.1c0,.1,8-14.4,8-14.4l23.1,14.4ZM500.4,1375.2l35-63.2-11.8,77.7-23.2-14.4ZM492.1,1390l-10.8,19.5-12.2-19.4h23ZM398.8,1390.3l70-.3,12.3,19.5-82.3-19.2ZM450.3,1360.5l18.5,29.4-70.3.2,51.8-29.6ZM464,1352.7l36.3,22.6-8.1,14.6h-23.2c0,0-18.6-29.4-18.6-29.4l13.6-7.8ZM463.8,1352.6l-13.5,7.7-16.8-26.6,30.3,18.9ZM535.3,1311.8l-35.1,63.3-36.2-22.5,71.2-40.8ZM535.6,1311.8l80.9,73.1-92.7,4.8,11.9-77.9Z"/>
        <g>
          <path class="cls-2" d="M819.3,2180.7c.9.5,1.3,1.7.8,2.6-.5.9-1.7,1.3-2.6.8-.9-.5-1.3-1.7-.8-2.6.5-.9,1.7-1.3,2.6-.8Z"/>
          <path class="cls-2" d="M720,2134.8c.9.5,1.3,1.7.8,2.6-.5.9-1.7,1.2-2.6.7-.9-.5-1.3-1.6-.8-2.6.5-.9,1.7-1.3,2.6-.8Z"/>
          <path class="cls-2" d="M690.9,2228.6c.8.4,1.1,1.4.6,2.2-.4.8-1.4,1.1-2.2.6-.8-.4-1.1-1.4-.6-2.2.4-.8,1.4-1.1,2.2-.6Z"/>
          <path class="cls-2" d="M626.4,2149.1c1,.6,1.4,1.8.8,2.9-.6,1-1.8,1.4-2.9.8-1-.6-1.4-1.8-.8-2.9.6-1,1.8-1.4,2.9-.8Z"/>
          <path class="cls-2" d="M502.8,2129.4c1,.6,1.4,1.8.8,2.9-.6,1-1.8,1.4-2.9.8-1-.6-1.4-1.8-.8-2.9.6-1,1.8-1.4,2.9-.8Z"/>
          <path class="cls-2" d="M588.9,2104.1c1,.6,1.4,1.8.8,2.9-.6,1-1.8,1.4-2.9.8-1-.6-1.4-1.8-.8-2.9.6-1,1.8-1.4,2.9-.8Z"/>
          <path class="cls-2" d="M626,2178.7c1,.6,1.4,1.9.9,2.9-.6,1-1.9,1.4-2.9.9-1-.6-1.4-1.9-.9-2.9.6-1,1.9-1.4,2.9-.9Z"/>
          <path class="cls-2" d="M691.6,2180.6c1,.6,1.4,1.8.8,2.9-.6,1-1.8,1.4-2.8.8-1-.6-1.4-1.8-.8-2.8.6-1,1.8-1.4,2.9-.8Z"/>
          <path class="cls-2" d="M759,2143.5c1,.6,1.4,1.8.8,2.9-.6,1-1.8,1.4-2.9.8-1-.6-1.4-1.8-.8-2.9.6-1,1.8-1.4,2.8-.8Z"/>
          <path class="cls-2" d="M801.1,2104.9c.8.4,1.1,1.4.7,2.2-.4.8-1.4,1.1-2.2.7-.8-.4-1.1-1.4-.7-2.2.4-.8,1.4-1.1,2.2-.7Z"/>
          <path class="cls-2" d="M781.2,1998.8c.7.4.9,1.3.6,2-.4.7-1.3,1-1.9.6-.7-.4-.9-1.2-.6-2,.4-.7,1.3-.9,1.9-.6Z"/>
          <path class="cls-2" d="M566.3,1841.7c1,.6,1.4,1.8.8,2.9-.6,1-1.8,1.4-2.9.8-1-.6-1.4-1.8-.8-2.9.6-1,1.8-1.4,2.9-.8Z"/>
          <path class="cls-2" d="M617.3,1791c1,.6,1.4,1.8.8,2.8-.6,1-1.8,1.4-2.9.8-1-.6-1.4-1.8-.8-2.9.6-1,1.8-1.4,2.9-.8Z"/>
          <path class="cls-2" d="M582.7,1711.6c1,.6,1.4,1.8.8,2.9-.6,1-1.8,1.4-2.9.8-1-.6-1.4-1.8-.8-2.9.6-1,1.8-1.4,2.9-.8Z"/>
          <path class="cls-2" d="M462.8,1710.9c1,.6,1.4,1.8.8,2.9-.6,1-1.8,1.4-2.9.8-1-.6-1.4-1.8-.8-2.9.5-1,1.8-1.4,2.8-.8Z"/>
          <path class="cls-2" d="M464.9,2070.1c.6.4.9,1.2.5,1.8-.4.6-1.2.9-1.8.5-.6-.3-.9-1.1-.5-1.8.3-.6,1.2-.9,1.8-.5Z"/>
          <path class="cls-2" d="M465,2034.9c.7.4,1,1.3.6,2-.4.7-1.3,1-2,.6-.7-.4-1-1.3-.6-2,.4-.7,1.3-1,2-.6Z"/>
          <path class="cls-2" d="M762,2098.4c1,.6,1.4,1.8.8,2.9-.6,1-1.8,1.4-2.9.8-1-.5-1.4-1.8-.8-2.9.6-1,1.8-1.4,2.9-.8Z"/>
          <path class="cls-2" d="M925.5,2172.5c1,.6,1.4,1.8.8,2.9-.6,1-1.8,1.4-2.9.8-1-.6-1.4-1.8-.8-2.9.6-1,1.8-1.4,2.9-.8Z"/>
          <path class="cls-2" d="M837.3,2084.4c1,.6,1.4,1.8.8,2.9-.6,1-1.8,1.4-2.9.8-1-.6-1.4-1.8-.8-2.9.6-1,1.8-1.4,2.9-.8Z"/>
          <path class="cls-2" d="M727.2,2011.5c1,.6,1.4,1.8.8,2.9-.6,1-1.8,1.4-2.8.8-1-.6-1.4-1.8-.8-2.9.6-1,1.8-1.4,2.9-.8Z"/>
          <path class="cls-2" d="M692.1,2078.6c1,.6,1.4,1.8.8,2.9-.6,1-1.8,1.4-2.9.8-1-.6-1.4-1.8-.8-2.9.6-1,1.8-1.4,2.9-.8Z"/>
          <path class="cls-2" d="M669.2,2128.1c1,.6,1.4,1.8.8,2.9-.6,1-1.8,1.4-2.9.8-1-.6-1.4-1.8-.8-2.9.6-1,1.8-1.4,2.9-.8Z"/>
          <path class="cls-2" d="M629.1,2068.1c1.2.6,1.6,2.1,1,3.2-.6,1.2-2.1,1.6-3.2.9-1.2-.6-1.6-2.1-1-3.2.6-1.2,2.1-1.6,3.2-1Z"/>
          <path class="cls-2" d="M532.9,2053.6c1,.6,1.4,1.8.8,2.9-.6,1-1.8,1.4-2.9.8-1-.6-1.4-1.8-.8-2.9.6-1,1.8-1.4,2.9-.8Z"/>
          <path class="cls-2" d="M605.8,2006.6c1,.6,1.4,1.8.8,2.9-.6,1-1.8,1.4-2.9.8-1-.6-1.4-1.8-.8-2.9.6-1,1.8-1.4,2.9-.8Z"/>
          <path class="cls-2" d="M676.8,2022.8c1,.6,1.4,1.8.8,2.8-.6,1-1.8,1.4-2.9.8-1-.6-1.4-1.8-.8-2.9.6-1,1.8-1.4,2.9-.8Z"/>
          <path class="cls-2" d="M589.3,1953.1c1,.6,1.4,1.8.8,2.9-.6,1-1.8,1.4-2.9.8-1-.6-1.4-1.8-.8-2.9.6-1,1.8-1.4,2.9-.8Z"/>
          <path class="cls-2" d="M515.2,1910.8c1,.6,1.4,1.8.8,2.9-.6,1-1.8,1.4-2.9.8-1-.6-1.4-1.8-.8-2.9.6-1,1.8-1.4,2.9-.8Z"/>
          <path class="cls-2" d="M499.9,1855c.8.4,1,1.4.6,2.1-.4.8-1.4,1-2.1.6-.8-.4-1-1.4-.6-2.1.4-.8,1.4-1,2.1-.6Z"/>
          <path class="cls-2" d="M699.9,1941.7c.7.4,1,1.3.6,2-.4.7-1.3,1-2,.6-.7-.4-1-1.3-.6-2,.4-.7,1.3-1,2-.6Z"/>
          <path class="cls-2" d="M574.6,1911.3c1,.6,1.4,1.8.8,2.9-.6,1-1.8,1.4-2.9.8-1-.6-1.4-1.8-.8-2.8.6-1,1.8-1.4,2.9-.8Z"/>
          <path class="cls-2" d="M841.3,2140.4c.5.3.7.9.4,1.4-.3.5-.9.7-1.4.4-.5-.3-.7-.9-.4-1.4.3-.5.9-.7,1.4-.4Z"/>
          <path class="cls-2" d="M524.6,1388c.4.2.7.5.9.9.2.5.3,1.1,0,1.6-.2.5-.6.9-1.1,1.2-.6.3-1.3.3-1.9,0-.4-.2-.7-.5-.9-1-.5-1,0-2.3,1-2.8.6-.3,1.3-.3,1.9,0Z"/>
          <path class="cls-2" d="M577.4,1483.7c.4.2.7.6.9,1,.5,1,0,2.3-1,2.8-.6.3-1.3.3-1.9,0-.4-.2-.7-.5-.9-1-.2-.5-.3-1.1,0-1.6.2-.5.6-1,1.1-1.2.6-.3,1.3-.3,1.9,0Z"/>
          <path class="cls-2" d="M656.1,1425.5c.4.2.7.5.9,1,.2.5.3,1.1,0,1.6-.2.5-.6,1-1.1,1.2-.6.3-1.3.3-1.9,0-.4-.2-.7-.5-.9-1-.2-.5-.3-1.1,0-1.6.2-.5.6-1,1.1-1.2.6-.3,1.3-.3,1.9,0Z"/>
          <path class="cls-2" d="M617.4,1383.5c.3.2.5.4.7.7.2.4.2.8,0,1.3-.1.4-.4.7-.8.9-.5.2-1,.2-1.5,0-.3-.2-.5-.4-.7-.7-.2-.4-.2-.8,0-1.3.1-.4.4-.7.9-.9.5-.2,1-.2,1.5,0Z"/>
          <path class="cls-2" d="M536.5,1309.8c.4.2.7.5.9,1,.2.5.3,1.1,0,1.6-.2.5-.6.9-1.1,1.2-.6.3-1.3.3-1.9,0-.4-.2-.7-.6-.9-1-.2-.5-.3-1.1,0-1.6.2-.5.6-.9,1.1-1.2.6-.3,1.3-.3,1.9,0Z"/>
          <path class="cls-2" d="M399.2,1388.4c.4.2.7.6.9,1,.2.5.3,1.1,0,1.6-.2.5-.6,1-1.1,1.2-.6.3-1.3.3-1.9,0-.4-.2-.7-.5-.9-.9-.2-.5-.3-1.1,0-1.6.2-.5.6-1,1.1-1.2.6-.3,1.3-.3,1.9,0Z"/>
          <path class="cls-2" d="M627.3,1479.3c.4.2.7.6.9,1,.2.5.3,1.1,0,1.6-.2.5-.6.9-1.1,1.2-.6.3-1.3.3-1.9,0-.4-.2-.7-.5-.9-1-.5-1.1,0-2.3,1-2.8.6-.3,1.3-.3,1.9,0Z"/>
          <path class="cls-2" d="M551.4,1453.3c.4.2.8.6,1,1,.3.5.3,1.2,0,1.7-.2.6-.6,1-1.2,1.3-.7.3-1.4.3-2,0-.4-.2-.8-.6-1-1-.5-1.1,0-2.5,1.1-3,.7-.3,1.4-.3,2,0Z"/>
          <path class="cls-2" d="M494.2,1459.9c.4.2.7.5.9,1,.2.5.3,1.1,0,1.6-.2.5-.6,1-1.1,1.2-.6.3-1.3.3-1.9,0-.4-.2-.7-.5-.9-1-.5-1,0-2.3,1-2.8.6-.3,1.3-.3,1.9,0Z"/>
          <path class="cls-2" d="M447.3,1557.3c.4.2.7.6.9,1,.5,1.1,0,2.3-1,2.8-.6.3-1.3.3-1.9,0-.4-.2-.7-.5-.9-1-.5-1,0-2.3,1-2.8.6-.3,1.3-.3,1.9,0Z"/>
          <path class="cls-2" d="M535.4,1665.1c.4.2.7.6.9,1,.2.5.3,1.1,0,1.6-.2.5-.6,1-1.1,1.2-.6.3-1.3.3-1.9,0-.4-.2-.7-.5-.9-1-.2-.5-.3-1.1,0-1.6.2-.5.6-1,1.1-1.2.6-.3,1.3-.3,1.9,0Z"/>
          <path class="cls-2" d="M527.8,1811.4c.3.1.5.4.6.6.3.7,0,1.6-.7,1.9-.4.2-.9.2-1.3,0-.3-.1-.5-.4-.6-.6-.2-.3-.2-.7,0-1.1.1-.4.4-.6.7-.8.4-.2.9-.2,1.3,0Z"/>
          <path class="cls-2" d="M457,1821.5c.4.2.7.5.9,1,.2.5.3,1.1,0,1.6-.2.5-.6,1-1.1,1.2-.6.3-1.3.3-1.9,0-.4-.2-.7-.5-.9-1-.5-1,0-2.3,1-2.8.6-.3,1.3-.3,1.9,0Z"/>
          <path class="cls-2" d="M437.9,1906c.4.2.7.5.9,1,.2.5.3,1.1,0,1.6-.2.5-.6.9-1.1,1.2-.6.3-1.3.3-1.9,0-.4-.2-.7-.6-.9-1-.2-.5-.3-1.1,0-1.6.2-.5.6-1,1.1-1.2.6-.3,1.3-.3,1.9,0Z"/>
          <path class="cls-2" d="M534.1,1977.5c.4.2.7.5.9.9.5,1.1,0,2.3-1,2.8-.6.3-1.3.3-1.9,0-.4-.2-.7-.5-.9-.9-.2-.5-.3-1.1,0-1.6.2-.5.6-.9,1.1-1.2.6-.3,1.3-.3,1.9,0Z"/>
          <path class="cls-2" d="M522,1488.6c.3.2.5.4.7.7.4.8,0,1.7-.8,2.1-.4.2-1,.2-1.4,0-.3-.2-.5-.4-.7-.7-.2-.4-.2-.8,0-1.2.1-.4.4-.7.8-.9.4-.2,1-.2,1.4,0Z"/>
          <path class="cls-2" d="M434,1332.3c.3.1.5.4.6.6.2.3.2.7,0,1-.1.3-.4.6-.7.8-.4.2-.8.2-1.2,0-.2-.1-.4-.4-.6-.6-.3-.7,0-1.5.6-1.8.4-.2.8-.2,1.2,0Z"/>
          <path class="cls-2" d="M453.1,1455.1c.3.2.6.4.7.8.2.4.2.9,0,1.3-.2.5-.5.8-.9,1-.5.2-1.1.2-1.6,0-.3-.2-.6-.5-.7-.8-.4-.9,0-1.9.8-2.3.5-.2,1.1-.2,1.6,0Z"/>
          <path class="cls-2" d="M498.9,1578.7c.4.2.7.5.9.9.5,1,0,2.3-1,2.8-.6.3-1.3.3-1.9,0-.4-.2-.7-.5-.9-1-.5-1.1,0-2.3,1-2.8.6-.3,1.3-.3,1.9,0Z"/>
          <path class="cls-2" d="M478.8,1651.8c.3.2.6.4.7.8.2.4.2.9,0,1.3-.2.4-.5.8-.9,1-.5.2-1.1.2-1.5,0-.3-.2-.6-.4-.7-.8-.2-.4-.2-.9,0-1.3.2-.4.5-.8.9-1,.5-.2,1.1-.2,1.5,0Z"/>
          <path class="cls-2" d="M568.4,1624.3c.3.2.6.4.7.8.2.4.2.9,0,1.3-.2.4-.5.8-.9,1-.5.2-1.1.2-1.5,0-.3-.2-.6-.4-.7-.8-.2-.4-.2-.9,0-1.3.2-.4.5-.8.9-1,.5-.2,1.1-.2,1.5,0Z"/>
          <path class="cls-2" d="M562.3,1750.4c.3.1.5.3.6.6.2.3.2.7,0,1-.1.3-.4.6-.7.8-.4.2-.8.2-1.2,0-.3-.1-.5-.4-.6-.6-.3-.7,0-1.5.6-1.8.4-.2.8-.2,1.2,0Z"/>
          <path class="cls-2" d="M482.3,1407.8c.4.2.7.5.9,1,.5,1,0,2.3-1,2.8-.6.3-1.3.3-1.9,0-.4-.2-.7-.5-.9-1-.2-.5-.3-1.1,0-1.6.2-.5.6-1,1.1-1.2.6-.3,1.3-.3,1.9,0Z"/>
        </g>
        <g>
          <path class="cls-2" d="M926.4,2170.7c2,1.1,2.7,3.6,1.6,5.6-1.1,2-3.6,2.7-5.6,1.6-2-1.1-2.7-3.6-1.6-5.6,1.1-2,3.6-2.7,5.6-1.6ZM922.6,2177.8c1.9,1,4.3.3,5.4-1.6,1-1.9.3-4.3-1.6-5.4-1.9-1-4.3-.3-5.4,1.6-1,1.9-.3,4.3,1.6,5.4Z"/>
          <path class="cls-2" d="M838.3,2082.7c2,1.1,2.7,3.6,1.6,5.6-1.1,2-3.6,2.7-5.6,1.6-2-1.1-2.7-3.6-1.6-5.6,1.1-2,3.6-2.7,5.6-1.6ZM834.4,2089.7c1.9,1,4.3.3,5.4-1.6,1.1-1.9.3-4.3-1.6-5.4-1.9-1-4.3-.3-5.4,1.6-1.1,1.9-.3,4.3,1.6,5.4Z"/>
          <path class="cls-2" d="M760,2141.8c2,1.1,2.7,3.6,1.6,5.6-1.1,2-3.6,2.7-5.6,1.6-2-1.1-2.7-3.6-1.6-5.6,1.1-2,3.6-2.7,5.6-1.6ZM756.1,2148.8c1.9,1,4.3.3,5.4-1.6,1.1-1.9.3-4.3-1.6-5.4-1.9-1-4.3-.3-5.4,1.6-1,1.9-.3,4.3,1.6,5.4Z"/>
          <path class="cls-2" d="M692.6,2178.8c2,1.1,2.7,3.6,1.6,5.6-1.1,2-3.6,2.7-5.6,1.6-2-1.1-2.7-3.6-1.6-5.6,1.1-2,3.6-2.7,5.6-1.6ZM688.7,2185.9c1.9,1.1,4.3.3,5.4-1.6,1.1-1.9.3-4.3-1.6-5.4-1.9-1.1-4.3-.3-5.4,1.6-1,1.9-.3,4.3,1.6,5.4Z"/>
          <path class="cls-2" d="M670.2,2126.3c2,1.1,2.7,3.6,1.6,5.6-1.1,2-3.6,2.7-5.6,1.6-2-1.1-2.7-3.6-1.6-5.6,1.1-2,3.6-2.7,5.6-1.6ZM666.3,2133.4c1.9,1,4.3.3,5.4-1.6,1.1-1.9.3-4.3-1.6-5.4-1.9-1.1-4.3-.3-5.4,1.6-1,1.9-.3,4.3,1.6,5.4Z"/>
          <path class="cls-2" d="M762.9,2096.6c2,1.1,2.7,3.6,1.6,5.6-1.1,2-3.6,2.7-5.6,1.6-2-1.1-2.7-3.6-1.6-5.6,1.1-2,3.6-2.7,5.6-1.6ZM759.1,2103.7c1.9,1,4.3.3,5.4-1.6,1.1-1.9.3-4.3-1.6-5.4-1.9-1.1-4.3-.3-5.4,1.6-1,1.9-.3,4.3,1.6,5.4Z"/>
          <path class="cls-2" d="M503.7,2127.7c2,1.1,2.7,3.6,1.6,5.6-1.1,2-3.6,2.7-5.6,1.6-2-1.1-2.7-3.6-1.6-5.6,1.1-2,3.6-2.7,5.6-1.6ZM499.9,2134.8c1.9,1,4.3.3,5.4-1.6,1-1.9.3-4.3-1.6-5.4-1.9-1-4.3-.3-5.4,1.6-1,1.9-.3,4.3,1.6,5.4Z"/>
          <path class="cls-2" d="M728.2,2009.8c2,1.1,2.7,3.6,1.6,5.6-1.1,2-3.6,2.7-5.6,1.6-2-1.1-2.7-3.6-1.6-5.6,1.1-2,3.6-2.7,5.6-1.6ZM724.3,2016.9c1.9,1,4.3.3,5.4-1.6,1-1.9.3-4.3-1.6-5.4-1.9-1.1-4.3-.3-5.4,1.6-1,1.9-.3,4.3,1.6,5.4Z"/>
          <path class="cls-2" d="M575.6,1909.6c2,1.1,2.7,3.6,1.6,5.6-1.1,2-3.6,2.7-5.6,1.6-2-1.1-2.7-3.6-1.6-5.6,1.1-2,3.6-2.7,5.6-1.6ZM571.7,1916.7c1.9,1,4.3.3,5.4-1.6,1-1.9.3-4.3-1.6-5.4-1.9-1-4.3-.3-5.4,1.6-1,1.9-.3,4.3,1.6,5.4Z"/>
          <path class="cls-2" d="M618.2,1789.3c2,1.1,2.7,3.6,1.6,5.6-1.1,2-3.6,2.7-5.6,1.6-2-1.1-2.7-3.6-1.6-5.6,1.1-2,3.6-2.7,5.6-1.6ZM614.4,1796.3c1.9,1,4.3.3,5.4-1.6,1-1.9.3-4.3-1.6-5.4-1.9-1-4.3-.3-5.4,1.6-1,1.9-.3,4.3,1.6,5.4Z"/>
          <path class="cls-2" d="M458,1819.8c2,1.1,2.7,3.6,1.6,5.6-1.1,2-3.6,2.7-5.6,1.6-2-1.1-2.7-3.6-1.6-5.6,1.1-2,3.6-2.7,5.6-1.6ZM454.1,1826.8c1.9,1,4.3.3,5.4-1.6,1-1.9.3-4.3-1.6-5.4-1.9-1-4.3-.3-5.4,1.6-1,1.9-.3,4.3,1.6,5.4Z"/>
          <path class="cls-2" d="M463.8,1709.1c2,1.1,2.7,3.6,1.6,5.6-1.1,2-3.6,2.7-5.6,1.6-2-1.1-2.7-3.6-1.6-5.6,1.1-2,3.6-2.7,5.6-1.6ZM459.9,1716.2c1.9,1,4.3.3,5.4-1.6,1-1.9.3-4.3-1.6-5.4-1.9-1-4.3-.3-5.4,1.6-1,1.9-.3,4.3,1.6,5.4Z"/>
          <path class="cls-2" d="M536.4,1663.4c2,1.1,2.7,3.6,1.6,5.6-1.1,2-3.6,2.7-5.6,1.6-2-1.1-2.7-3.6-1.6-5.6,1.1-2,3.6-2.7,5.6-1.6ZM532.5,1670.5c1.9,1,4.3.3,5.4-1.6,1-1.9.3-4.3-1.6-5.4-1.9-1-4.3-.3-5.4,1.6-1,1.9-.3,4.3,1.6,5.4Z"/>
          <path class="cls-2" d="M448.2,1555.7c2,1.1,2.7,3.6,1.6,5.6-1.1,2-3.6,2.7-5.6,1.6-2-1.1-2.7-3.6-1.6-5.6,1.1-2,3.6-2.7,5.6-1.6ZM444.3,1562.8c1.9,1,4.3.3,5.4-1.6,1-1.9.3-4.3-1.6-5.4-1.9-1-4.3-.3-5.4,1.6-1,1.9-.3,4.3,1.6,5.4Z"/>
          <path class="cls-2" d="M495.1,1458.2c2,1.1,2.7,3.6,1.6,5.6-1.1,2-3.6,2.7-5.6,1.6-2-1.1-2.7-3.6-1.6-5.6,1.1-2,3.6-2.7,5.6-1.6ZM491.3,1465.2c1.9,1,4.3.3,5.4-1.6,1-1.9.3-4.3-1.6-5.4-1.9-1.1-4.3-.3-5.4,1.6-1,1.9-.3,4.3,1.6,5.4Z"/>
          <path class="cls-2" d="M628.2,1477.6c2,1.1,2.7,3.6,1.6,5.6-1.1,2-3.6,2.7-5.6,1.6-2-1.1-2.7-3.6-1.6-5.6,1.1-2,3.6-2.7,5.6-1.6ZM624.4,1484.7c1.9,1,4.3.3,5.4-1.6,1-1.9.3-4.3-1.6-5.4-1.9-1-4.3-.3-5.4,1.6-1,1.9-.3,4.3,1.6,5.4Z"/>
          <path class="cls-2" d="M400.2,1386.6c2,1.1,2.7,3.6,1.6,5.6-1.1,2-3.6,2.7-5.6,1.6-2-1.1-2.7-3.6-1.6-5.6,1.1-2,3.6-2.7,5.6-1.6ZM396.3,1393.7c1.9,1.1,4.3.3,5.4-1.6,1-1.9.3-4.3-1.6-5.4-1.9-1.1-4.3-.3-5.4,1.6-1,1.9-.3,4.3,1.6,5.4Z"/>
          <path class="cls-2" d="M525.6,1386.2c2,1.1,2.7,3.6,1.6,5.6-1.1,2-3.6,2.7-5.6,1.6-2-1.1-2.7-3.6-1.6-5.6,1.1-2,3.6-2.7,5.6-1.6ZM521.7,1393.3c1.9,1,4.3.3,5.4-1.6,1.1-1.9.3-4.3-1.6-5.4-1.9-1-4.3-.3-5.4,1.6-1,1.9-.3,4.3,1.6,5.4Z"/>
          <path class="cls-2" d="M537.5,1308c2,1.1,2.7,3.6,1.6,5.6s-3.6,2.7-5.6,1.6c-2-1.1-2.7-3.6-1.6-5.6,1.1-2,3.6-2.7,5.6-1.6ZM533.6,1315.1c1.9,1,4.3.3,5.4-1.6,1-1.9.3-4.3-1.6-5.4-1.9-1-4.3-.3-5.4,1.6-1,1.9-.3,4.3,1.6,5.4Z"/>
          <path class="cls-2" d="M534.9,1975.7c2,1.1,2.7,3.6,1.6,5.6-1.1,2-3.6,2.7-5.6,1.6-2-1.1-2.7-3.6-1.6-5.6,1.1-2,3.6-2.7,5.6-1.6ZM531,1982.8c1.9,1,4.3.3,5.4-1.6,1-1.9.3-4.3-1.6-5.4-1.9-1-4.3-.3-5.4,1.6-1,1.9-.3,4.3,1.6,5.4Z"/>
          <path class="cls-2" d="M438.8,1904.3c2,1.1,2.7,3.6,1.6,5.6-1.1,2-3.6,2.7-5.6,1.6-2-1.1-2.7-3.6-1.6-5.6,1.1-2,3.6-2.7,5.6-1.6ZM434.9,1911.3c1.9,1.1,4.3.3,5.4-1.6,1-1.9.3-4.3-1.6-5.4-1.9-1.1-4.3-.3-5.4,1.6-1,1.9-.3,4.3,1.6,5.4Z"/>
          <path class="cls-2" d="M677.8,2021.1c2,1.1,2.7,3.6,1.6,5.6-1.1,2-3.6,2.7-5.6,1.6-2-1.1-2.7-3.6-1.6-5.6,1.1-2,3.6-2.7,5.6-1.6ZM673.9,2028.1c1.9,1,4.3.3,5.4-1.6,1-1.9.3-4.3-1.6-5.4-1.9-1-4.3-.3-5.4,1.6-1,1.9-.3,4.3,1.6,5.4Z"/>
          <path class="cls-2" d="M533.8,2051.9c2,1.1,2.7,3.6,1.6,5.6-1.1,2-3.6,2.7-5.6,1.6-2-1.1-2.7-3.6-1.6-5.6,1.1-2,3.6-2.7,5.6-1.6ZM530,2058.9c1.9,1.1,4.3.3,5.4-1.6,1-1.9.3-4.3-1.6-5.4-1.9-1-4.3-.3-5.4,1.6-1,1.9-.3,4.3,1.6,5.4Z"/>
        </g>
      </g>
      <g>
        <path class="cls-1" d="M523.7,1389.8l71.5-40.9,30.6,19.1.3.2-17.1-27.1,52-29.8h.2c0-.1-.3-.1-.3-.1l-82.9-19.4,29-46.9h.4s-.4-.1-.4-.1l-18.8-51,24.8-51.4h0c0,0,0-.1,0-.1l-43-52.6,11.3-41.4h0s-27.3-32.1-27.3-32.1l43.5-27.4h-.2s-68.9-26.9-68.9-26.9l3.6-73,71-10.7h0s19.2-84.5,19.2-84.5l.3-.3-.3.2-96.1-71.4,68.8-56.8h.1c0,0-21.7-6.3-21.7-6.3l21.5-28.7h.1s-37.6-60.2-37.6-60.2h0c0,0-86,25.3-86,25.3h0c0,0,0,0,0,0l-37.1-74.6h0c0,0,0,0,0,0l-25.2-.7-39.8-48.7h0c0,0-17.7,57-17.7,57l-50.2,27.6-33.3,1.6-27-38.6h0s-106.2,8-106.2,8h-.3s83.9,33.1,83.9,33.1h0s0,0,0,0l4.4,55h0s.2,0,.2,0l35.9-20h.2s39.1,6.1,39.1,6.1l24.3,60.6-43.8,39.4h-.3c0,0,.6,0,.6,0l53.9-13.2,26.9,70.3h0s104.6,24.8,104.6,24.8l-21.6,125.2h-.1s0,0,0,0h0c0,0,0,0,0,0l34.5,79.4h0s49.6.3,49.6.3l-2.3,46h0s0,0,0,0h0s0,0,0,0l20.2,24.7-53.5,16.4h.1c0,0,69.7,45.3,69.7,45.3l18.9,51.4-42.2,39h0s0,0,0,0l-55.1,4.4h0c0,0,0,0,0,0l-19.7,14.6-30-10.2-.3-.4v.3s.1.2.1.2l-28.7,53.6v.3c-.1,0-.1.1-.1.1l31.9-23.6,6.6,65.8v.3c-.1,0,0-.2,0-.2l81,73.2v.4c0,0,.1-.3.1-.3ZM442.7,1316.4l44.7-47.5,47.9,42.7-92.6,4.8ZM433.1,1220.7v-.2c0,0,19.6,17.5,19.6,17.5l-16.7,12.4-3-29.9v.2ZM463,1230.6l12.1,4.1-6.8,17-15.4-13.7,10.1-7.4ZM475.2,1234.8l33.4,11.4-21.3,22.6-19-16.9,6.8-17.1ZM509,1246l28.8-34.4-.7,31.2-28.1,3.2ZM571.7,1227.9l34.7,16.8-40.4-5,5.7-11.8ZM565.9,1239.6l-27.7-27.9,33.4,16.1-5.7,11.7ZM565.8,1239.6l-13.1,1.5-14.6-29.3,27.7,27.8ZM552.6,1241.1l-15.4,1.7.7-31.1,14.6,29.4ZM537.1,1243l-1.6,68.5-47.9-42.7,21.3-22.6h0s0,0,0,0l28.2-3.2ZM442.7,1316.2l25.6-64.2,18.9,16.9-44.6,47.3ZM436,1250.5l16.8-12.4,15.5,13.8-25.7,64.3-6.6-65.6ZM432.8,1220.5l3,30-31.6,23.4,28.6-53.4ZM462.8,1230.5l-10,7.4-19.6-17.5,29.6,10.1ZM482.5,1216.1l-7.4,18.5-12-4.1,19.4-14.4ZM482.7,1216l25.9,29.9-33.3-11.3,7.4-18.6ZM537.7,1211.5l-28.9,34.5-26-30.1,54.9-4.4ZM524.9,1034.6l56,13.6-35.9,11-20.1-24.7ZM527.1,988.2l.2-3.3,2.8,3.3h-3ZM443,908.8l54.4,41.1,29.7,34.9-.2,3.5-49.5-.3-34.4-79.2ZM495.3,897l2.1,52.7-54.4-41.1,52.3-11.6ZM443.3,908.4l51.3-27.9.7,16.3-52,11.6ZM493.9,857.5l-8.2-69.1,20.9,15.9-12.6,53.2ZM506.6,804.4l37.2,28.4-49.9,25,12.6-53.3ZM485.8,788.3l24.5.2-3.7,15.6-20.8-15.8ZM485.6,788.2l-14.6-41.6,43.3,24.8-4,17-24.7-.2ZM514.4,771.4l30.3,17.3-34.3-.3,4-17ZM544.9,788.9l10.2,38.2-11.2,5.6-37.3-28.5,3.7-15.7,34.6.3ZM555.2,827.2l4.7,17.6-15.8-12,11.1-5.6ZM559.8,845l-65.5,12.7,49.6-24.8,15.9,12.1ZM559.6,845.2l-48.7,26.4-16.9-13.7,65.5-12.7ZM559.8,845.2l-27.8,43.4-21-17,48.8-26.5ZM494.8,880.3l-.9-22.3,16.8,13.6-15.9,8.7ZM494.7,880.4l-51.4,27.9,50.5-50.2.9,22.3ZM464.5,783.3l20.9,5,8.3,69.5h0s0,0,0,0l-50.8,50.5,21.6-125ZM464.6,783.2l6.3-36.5,14.6,41.4-20.9-4.9ZM360.3,758.5l110.5-12-6.3,36.7-104.1-24.7ZM360.1,758.3l67.2-46.5,43.4,34.5-110.5,12ZM367.8,620.6l-32.3-31.3,14.3-4.6,18,35.9ZM350,584.7l40.8-13.1-22.7,49.1-18.1-36.1ZM298.5,601l25.8-22.4,10.9,10.6-36.8,11.8ZM324.4,578.6l15.6-13.5,9.8,19.5-14.4,4.6-11-10.6ZM340.1,565l40-18.7,10.7,25.2-40.9,13.1-9.8-19.6ZM340.2,564.8l28.3-45.6,11.5,27-39.8,18.7ZM416.3,529.3l5.2,6.3-30.5,35.8-10.7-25.2,36.1-16.9ZM421.5,535.7l12.1,14.7-42.4,20.9,30.4-35.6ZM433.6,550.6l-1,33.3-41.5-12.4,42.5-20.9ZM432.6,584l-1.4,46.9-40.1-59.3,41.5,12.4ZM431.1,631.2l-.3.3-62.7-10.6,22.8-49.2,40.2,59.5ZM427.3,711.7l-43.7-34.8,70.6,16.2-26.9,18.6ZM454.3,693.1l16.4,53.1-43.3-34.5,26.9-18.6ZM383.5,676.7l47.4-45.1h.1s0,0,0,0l.2-.2,23,61.5-70.8-16.2ZM460.2,659.1l-5.8,33.7-23-61.3,28.8,27.6ZM431.4,631.3l32.7,5-3.9,22.6-28.8-27.6ZM333.1,687.9l35-66.8,15.2,55.6-50.2,11.2ZM368.1,621l62.6,10.6-47.3,45-15.2-55.6ZM431.5,631.2l39.6-35.5-7,40.5-32.6-5ZM471.3,595.7l55.8,50.2-62.8-9.6,7-40.6ZM471.5,595.7l68.1,19.1-12.3,31.1-55.7-50.2ZM527.2,646l-28.1,50.1-38.7-37.1,3.9-22.7,62.9,9.7ZM499,696.2l-6.8,12.1-37.7-15.3,5.8-33.8,38.7,37ZM499.1,696.3l26.7,25.6-33.4-13.5,6.8-12ZM492.1,708.4l-21.3,37.9-16.4-53.1,37.6,15.3ZM360,758.3l23.3-81.4,43.8,34.9-67.2,46.5ZM333.1,688.1l50.1-11.2-23.4,81.4-26.8-70.1h0ZM322.4,662.1l10.3,25.8v.2s-53.9,13.2-53.9,13.2l43.5-39.2ZM367.8,621.2l-34.9,66.6-10.4-25.9,45.3-40.7ZM298.3,601.3l69.6,19.6-45.4,40.9-24.2-60.5ZM298.4,601.2l37-11.8,32.4,31.4-69.4-19.6ZM298.2,601.1l-18-25.7,20.9-19.2,23.1,22.4-26,22.5ZM280.1,575.5l17.8,25.5-29.2-15,11.4-10.5ZM258.8,595l-40-34.6,49.7,25.6-9.7,9ZM259,595l9.7-8.9,29.1,15-38.8-6.1ZM218.5,560.3l40.2,34.8-35.8,20-4.4-54.8ZM240.7,519.1l-22.3,40.9-.5-.2h.1c0,.1-83-32.6-83-32.6l105.7-8ZM267.6,557.6l-49.1,2.4,22.3-40.8,26.9,38.4ZM267.7,557.8l12.3,17.6-11.4,10.5-50-25.8,49.1-2.4ZM300.9,556.2l-20.8,19.1-12.2-17.5,33-1.6ZM351.2,528.6l-11.3,36.3-15.6,13.5-23.1-22.4,50-27.5ZM368.3,519.2l-28.1,45.3,11.1-36,16.9-9.3ZM368.9,471.9l-.5,47.1-17,9.3,17.5-56.4ZM408.7,520.1l-40.1-1.1.5-47.3,39.6,48.4ZM408.8,520.2l7.4,9-36,16.9-11.5-27,40.2,1.1ZM433.8,520.9l-17.5,8.2-7.3-8.9,24.8.7ZM433.9,521l-12.3,14.5-5.1-6.3,17.5-8.2ZM434.1,521l-.4,29.2-12-14.7,12.4-14.6ZM470.9,595l-37.2-44.6.4-29.3,36.7,73.9ZM471.1,595.4l-38.3-11.4,1-33.3,37.3,44.7ZM471.1,595.6l-39.8,35.6h0s1.5-47.1,1.5-47.1l38.4,11.5ZM557.2,570.3l-17.6,44.4-68.1-19.1,85.7-25.3ZM594.7,630.1l-54.9-15.4,17.6-44.4,37.3,59.8ZM573.2,659l-45.8-13.1h0s0,0,0,0l12.3-31.1,55,15.4-21.5,28.7ZM526.5,721.6l46.8-62.5,21.5,6.1-68.3,56.4ZM526.1,721.8l1.2-75.8,45.7,13-47,62.8ZM526,721.9l-26.9-25.7,28.1-50-1.2,75.7ZM471,746.3l21.3-37.8,33.6,13.6-54.9,24.2ZM526,722.2l-11.6,49-43.4-24.8,55-24.3ZM622.1,793.5l-77.1-4.8-30.5-17.5,11.6-49.1,96,71.3ZM555.3,827l-10.2-38.2,77,4.8-66.8,33.4ZM622,793.8l-89.5,94.4,27.6-43.1h.1s-.1-.1-.1-.1l-4.8-17.8,66.7-33.4ZM532.2,888.7l90-94.9-19.1,84.2-70.8,10.7ZM495.5,896.8l-.7-16.3,16.1-8.7,21,17-36.4,8.1ZM531.9,888.9l-34.3,60.7-2.1-52.6,36.4-8.1ZM528.3,961.7l-30.7-12,34.3-60.7-3.6,72.7ZM528.3,961.9l-1.1,22.7-29.4-34.6,30.5,11.9ZM596.9,988.7l-66.6-.4-3-3.5,1.1-22.8,68.5,26.7ZM553.9,1016l-23.5-27.6,66.6.4-43.2,27.2ZM524.8,1034.3l2.3-45.9h3.1s23.5,27.7,23.5,27.7l-29,18.2ZM581,1048.1l-56.1-13.6,28.9-18.2,27.1,31.9ZM569.8,1089.4l-24.6-30.1,35.9-11-11.3,41.2ZM569.7,1089.6l-8.6,31.2-69.5-45.1,53.3-16.4,24.7,30.3ZM612.6,1142.1l-51.3-21.2,8.5-31.1,42.8,52.3ZM580.2,1172.3l-18.9-51.3,51.4,21.3-32.5,30ZM588.1,1193.6l-7.8-21.2,32.3-29.8-24.5,51ZM571.7,1227.7l-33.7-16.3,42.2-38.9,7.8,21.2-16.3,34ZM606.8,1244.6l-35-16.9,16.3-33.8,18.7,50.7ZM577.9,1291.7l-25.1-50.4,13.2-1.5,40.8,5.1-28.9,46.8ZM535.6,1311.5l1.6-68.6,15.4-1.7,25.1,50.5-42.2,19.8ZM577.7,1292l-10.8,19.5h-31.1c0,.1,41.9-19.5,41.9-19.5ZM535.7,1311.7h31.1c0-.1-8,14.4-8,14.4l-23.1-14.4ZM558.7,1326.2l-35,63.2,11.8-77.7,23.2,14.4ZM567.1,1311.5l10.8-19.5,12.2,19.4h-23ZM660.3,1311.1l-70,.3-12.3-19.5,82.3,19.2ZM608.9,1340.9l-18.5-29.4,70.3-.3-51.8,29.6ZM595.2,1348.7l-36.3-22.6,8.1-14.6h23.2c0,0,18.6,29.4,18.6,29.4l-13.6,7.8ZM595.3,1348.8l13.5-7.7,16.8,26.6-30.3-18.9ZM523.8,1389.6l35.1-63.3,36.2,22.5-71.2,40.8ZM523.6,1389.7l-80.9-73.1,92.7-4.8-11.9,77.9Z"/>
        <g>
          <path class="cls-2" d="M239.8,520.7c-.9-.5-1.3-1.7-.8-2.6.5-.9,1.7-1.3,2.6-.8.9.5,1.3,1.7.8,2.6-.5.9-1.7,1.3-2.6.8Z"/>
          <path class="cls-2" d="M339.1,566.6c-.9-.5-1.3-1.6-.8-2.6.5-.9,1.6-1.2,2.6-.8.9.5,1.3,1.7.8,2.6-.5.9-1.6,1.2-2.6.8Z"/>
          <path class="cls-2" d="M368.2,472.9c-.8-.4-1.1-1.4-.6-2.2.4-.8,1.4-1.1,2.2-.6.8.4,1.1,1.4.6,2.2-.4.8-1.4,1.1-2.2.6Z"/>
          <path class="cls-2" d="M432.7,552.3c-1-.6-1.4-1.8-.8-2.9.6-1,1.8-1.4,2.9-.8,1,.6,1.4,1.8.8,2.9-.6,1-1.8,1.4-2.9.8Z"/>
          <path class="cls-2" d="M556.3,572c-1-.6-1.4-1.8-.8-2.9.6-1,1.8-1.4,2.9-.8,1,.6,1.4,1.8.8,2.9-.6,1-1.8,1.4-2.9.8Z"/>
          <path class="cls-2" d="M470.2,597.4c-1-.6-1.4-1.8-.8-2.9.6-1,1.8-1.4,2.9-.8,1,.6,1.4,1.8.8,2.9-.6,1-1.8,1.4-2.9.8Z"/>
          <path class="cls-2" d="M433.1,522.7c-1-.6-1.4-1.9-.9-2.9.6-1,1.9-1.4,2.9-.9,1,.6,1.4,1.9.9,2.9-.6,1-1.9,1.4-2.9.9Z"/>
          <path class="cls-2" d="M367.5,520.9c-1-.6-1.4-1.8-.8-2.9.5-1,1.8-1.4,2.8-.8,1,.6,1.4,1.8.8,2.9-.6,1-1.8,1.4-2.9.8Z"/>
          <path class="cls-2" d="M300.1,557.9c-1-.6-1.4-1.8-.8-2.9.6-1,1.8-1.4,2.9-.8,1,.6,1.4,1.8.8,2.9-.5,1-1.8,1.4-2.8.8Z"/>
          <path class="cls-2" d="M258,596.5c-.8-.4-1.1-1.4-.7-2.2.4-.8,1.4-1.1,2.2-.7.8.4,1.1,1.4.7,2.2-.4.8-1.4,1.1-2.2.7Z"/>
          <path class="cls-2" d="M278,702.6c-.7-.4-.9-1.3-.6-1.9.4-.7,1.3-1,1.9-.6.7.4,1,1.3.6,2-.4.7-1.3.9-2,.6Z"/>
          <path class="cls-2" d="M492.8,859.7c-1-.6-1.4-1.8-.8-2.9.6-1,1.8-1.4,2.9-.8,1,.6,1.4,1.8.8,2.9-.6,1-1.8,1.4-2.9.8Z"/>
          <path class="cls-2" d="M441.9,910.4c-1-.6-1.4-1.8-.8-2.8.6-1,1.8-1.4,2.9-.8,1,.6,1.4,1.8.8,2.9-.6,1-1.8,1.4-2.9.8Z"/>
          <path class="cls-2" d="M476.4,989.9c-1-.6-1.4-1.8-.8-2.8.6-1,1.8-1.4,2.9-.8,1,.6,1.4,1.8.8,2.9-.6,1-1.8,1.4-2.9.8Z"/>
          <path class="cls-2" d="M596.3,990.6c-1-.6-1.4-1.8-.8-2.9.6-1,1.8-1.4,2.9-.8,1,.6,1.4,1.8.8,2.9-.6,1-1.8,1.4-2.9.8Z"/>
          <path class="cls-2" d="M594.2,631.3c-.6-.3-.9-1.1-.5-1.8.4-.6,1.2-.9,1.8-.5.6.3.9,1.1.5,1.8-.3.6-1.2.9-1.8.5Z"/>
          <path class="cls-2" d="M594.2,666.5c-.7-.4-1-1.3-.6-2,.4-.7,1.3-1,2-.6.7.4,1,1.3.6,2-.4.7-1.3,1-2,.6Z"/>
          <path class="cls-2" d="M297.1,603.1c-1-.6-1.4-1.8-.8-2.9.5-1,1.8-1.4,2.9-.8,1,.5,1.4,1.8.8,2.9-.6,1-1.8,1.4-2.9.8Z"/>
          <path class="cls-2" d="M133.7,529c-1-.6-1.4-1.8-.8-2.9.6-1,1.8-1.4,2.9-.8,1,.6,1.4,1.8.8,2.9-.6,1-1.8,1.4-2.9.8Z"/>
          <path class="cls-2" d="M221.8,617c-1-.6-1.4-1.8-.8-2.9.6-1,1.8-1.4,2.9-.8,1,.6,1.4,1.8.8,2.9-.6,1-1.8,1.4-2.9.8Z"/>
          <path class="cls-2" d="M331.9,689.9c-1-.6-1.4-1.8-.8-2.9.6-1,1.8-1.4,2.8-.8,1,.6,1.4,1.8.8,2.9-.5,1-1.8,1.4-2.9.8Z"/>
          <path class="cls-2" d="M367,622.8c-1-.6-1.4-1.8-.8-2.9.6-1,1.8-1.4,2.9-.8,1,.6,1.4,1.8.8,2.9-.6,1-1.8,1.4-2.9.8Z"/>
          <path class="cls-2" d="M389.9,573.4c-1-.6-1.4-1.8-.8-2.9.6-1,1.8-1.4,2.9-.8,1,.6,1.4,1.8.8,2.8-.6,1-1.8,1.4-2.9.8Z"/>
          <path class="cls-2" d="M430.1,633.3c-1.2-.6-1.6-2.1-1-3.2.6-1.2,2.1-1.6,3.2-.9,1.2.6,1.6,2.1,1,3.2-.6,1.2-2.1,1.6-3.2.9Z"/>
          <path class="cls-2" d="M526.3,647.8c-1-.6-1.4-1.8-.8-2.9.6-1,1.8-1.4,2.9-.8,1,.6,1.4,1.8.8,2.9-.6,1-1.8,1.4-2.9.8Z"/>
          <path class="cls-2" d="M453.4,694.9c-1-.6-1.4-1.8-.8-2.9.6-1,1.8-1.4,2.9-.8,1,.6,1.4,1.8.8,2.8-.6,1-1.8,1.4-2.9.8Z"/>
          <path class="cls-2" d="M382.3,678.6c-1-.6-1.4-1.8-.8-2.9.6-1,1.8-1.4,2.9-.8,1,.6,1.4,1.8.8,2.9-.6,1-1.8,1.4-2.9.8Z"/>
          <path class="cls-2" d="M469.8,748.3c-1-.6-1.4-1.8-.8-2.9.6-1,1.8-1.4,2.9-.8,1,.6,1.4,1.8.8,2.9-.6,1-1.8,1.4-2.9.8Z"/>
          <path class="cls-2" d="M544,790.6c-1-.6-1.4-1.8-.8-2.9.6-1,1.8-1.4,2.9-.8,1,.6,1.4,1.8.8,2.9-.6,1-1.8,1.4-2.9.8Z"/>
          <path class="cls-2" d="M559.2,846.4c-.8-.4-1-1.4-.6-2.1.4-.8,1.4-1,2.1-.6.8.4,1,1.4.6,2.1-.4.8-1.4,1-2.1.6Z"/>
          <path class="cls-2" d="M359.2,759.7c-.7-.4-1-1.3-.6-2,.4-.7,1.3-1,2-.6.7.4,1,1.3.6,2-.4.7-1.3,1-2,.6Z"/>
          <path class="cls-2" d="M484.5,790.1c-1-.6-1.4-1.8-.8-2.9.5-1,1.8-1.4,2.9-.8,1,.6,1.4,1.8.8,2.9-.6,1-1.8,1.4-2.9.8Z"/>
          <path class="cls-2" d="M217.9,561c-.5-.3-.7-.9-.4-1.4.3-.5.9-.7,1.4-.4.5.3.7.9.4,1.4-.3.5-.9.7-1.4.4Z"/>
          <path class="cls-2" d="M534.5,1313.5c-.4-.2-.7-.5-.9-.9-.2-.5-.3-1.1,0-1.6.2-.5.6-.9,1.1-1.2.6-.3,1.3-.3,1.9,0,.4.2.7.5.9,1,.5,1,0,2.3-1,2.8-.6.3-1.3.3-1.9,0Z"/>
          <path class="cls-2" d="M481.7,1217.7c-.4-.2-.7-.5-.9-1-.5-1.1,0-2.3,1-2.8.6-.3,1.3-.3,1.9,0,.4.2.7.5.9,1,.2.5.3,1.1,0,1.6-.2.5-.6,1-1.1,1.2-.6.3-1.3.3-1.9,0Z"/>
          <path class="cls-2" d="M403,1276c-.4-.2-.7-.5-.9-.9-.2-.5-.3-1.1,0-1.6.2-.5.6-1,1.1-1.2.6-.3,1.3-.3,1.9,0,.4.2.7.5.9.9.2.5.3,1.1,0,1.6-.2.5-.6,1-1.1,1.2-.6.3-1.3.3-1.9,0Z"/>
          <path class="cls-2" d="M441.7,1317.9c-.3-.2-.5-.4-.7-.7-.2-.4-.2-.8,0-1.3.1-.4.4-.7.8-.9.5-.2,1-.2,1.5,0,.3.2.5.4.7.7.2.4.2.8,0,1.3-.1.4-.4.7-.8.9-.5.2-1,.2-1.5,0Z"/>
          <path class="cls-2" d="M522.6,1391.6c-.4-.2-.7-.5-.9-.9-.2-.5-.3-1.1,0-1.6.2-.5.6-1,1.1-1.2.6-.3,1.3-.3,1.9,0,.4.2.7.5.9,1,.2.5.3,1.1,0,1.6-.2.5-.6.9-1.1,1.2-.6.3-1.3.3-1.9,0Z"/>
          <path class="cls-2" d="M659.9,1313c-.4-.2-.7-.5-.9-1-.2-.5-.3-1.1,0-1.6.2-.5.6-.9,1.1-1.2.6-.3,1.3-.3,1.9,0,.4.2.7.5.9,1,.2.5.3,1.1,0,1.6-.2.5-.6,1-1.1,1.2-.6.3-1.3.3-1.9,0Z"/>
          <path class="cls-2" d="M431.8,1222.1c-.4-.2-.7-.6-.9-1-.2-.5-.3-1.1,0-1.6.2-.5.6-.9,1.1-1.2.6-.3,1.3-.3,1.9,0,.4.2.7.5.9,1,.5,1.1,0,2.3-1,2.8-.6.3-1.3.3-1.9,0Z"/>
          <path class="cls-2" d="M507.7,1248.1c-.4-.2-.8-.6-1-1-.3-.5-.3-1.2,0-1.7.2-.6.6-1,1.2-1.3.7-.3,1.4-.3,2,0,.4.2.8.6,1,1,.5,1.1,0,2.5-1.1,3-.7.3-1.4.3-2,0Z"/>
          <path class="cls-2" d="M565,1241.5c-.4-.2-.7-.6-.9-1-.2-.5-.3-1.1,0-1.6.2-.5.6-.9,1.1-1.2.6-.3,1.3-.3,1.9,0,.4.2.7.5.9,1,.5,1,0,2.3-1,2.8-.6.3-1.3.3-1.9,0Z"/>
          <path class="cls-2" d="M611.8,1144.1c-.4-.2-.7-.6-.9-1-.5-1,0-2.3,1-2.8.6-.3,1.3-.3,1.9,0,.4.2.7.5.9,1,.5,1.1,0,2.3-1,2.8-.6.3-1.3.3-1.9,0Z"/>
          <path class="cls-2" d="M523.7,1036.3c-.4-.2-.7-.5-.9-1-.2-.5-.3-1.1,0-1.6.2-.5.6-1,1.1-1.2.6-.3,1.3-.3,1.9,0,.4.2.7.5.9,1,.2.5.3,1.1,0,1.6-.2.5-.6,1-1.1,1.2-.6.3-1.3.3-1.9,0Z"/>
          <path class="cls-2" d="M531.3,890c-.3-.1-.5-.4-.6-.6-.3-.7,0-1.5.7-1.9.4-.2.9-.2,1.3,0,.3.1.5.4.6.6.2.3.2.7,0,1.1-.1.4-.4.6-.7.8-.4.2-.9.2-1.3,0Z"/>
          <path class="cls-2" d="M602.1,879.9c-.4-.2-.7-.5-.9-1-.2-.5-.3-1.1,0-1.6.2-.5.6-.9,1.1-1.2.6-.3,1.3-.3,1.9,0,.4.2.7.5.9,1,.5,1,0,2.3-1,2.8-.6.3-1.3.3-1.9,0Z"/>
          <path class="cls-2" d="M621.3,795.4c-.4-.2-.7-.5-.9-1-.2-.5-.3-1.1,0-1.6.2-.5.6-1,1.1-1.2.6-.3,1.3-.3,1.9,0,.4.2.7.5.9,1,.2.5.3,1.1,0,1.6-.2.5-.6.9-1.1,1.2-.6.3-1.3.3-1.9,0Z"/>
          <path class="cls-2" d="M525,723.9c-.4-.2-.7-.5-.9-.9-.5-1,0-2.3,1-2.8.6-.3,1.3-.3,1.9,0,.4.2.7.6.9,1,.2.5.3,1.1,0,1.6-.2.5-.6,1-1.1,1.2-.6.3-1.3.3-1.9,0Z"/>
          <path class="cls-2" d="M537.1,1212.8c-.3-.2-.5-.4-.7-.7-.4-.8,0-1.7.8-2.1.4-.2,1-.2,1.4,0,.3.2.5.4.7.7.2.4.2.8,0,1.2-.1.4-.4.7-.8.9-.4.2-1,.2-1.4,0Z"/>
          <path class="cls-2" d="M625.2,1369.1c-.3-.1-.5-.4-.6-.6-.2-.3-.2-.7,0-1,.1-.3.4-.6.7-.8.4-.2.8-.2,1.2,0,.3.1.5.4.6.6.3.7,0,1.5-.6,1.8-.4.2-.8.2-1.2,0Z"/>
          <path class="cls-2" d="M606,1246.3c-.3-.2-.6-.4-.7-.8-.2-.4-.2-.9,0-1.3.2-.4.5-.8.9-1,.5-.2,1.1-.2,1.6,0,.3.2.6.5.7.8.4.9,0,1.9-.8,2.3-.5.2-1.1.2-1.6,0Z"/>
          <path class="cls-2" d="M560.2,1122.7c-.4-.2-.7-.5-.9-1-.5-1,0-2.3,1-2.8.6-.3,1.3-.3,1.9,0,.4.2.7.5.9.9.5,1,0,2.3-1,2.8-.6.3-1.3.3-1.9,0Z"/>
          <path class="cls-2" d="M580.4,1049.7c-.3-.2-.6-.4-.7-.8-.2-.4-.2-.9,0-1.3.2-.4.5-.8.9-1,.5-.2,1.1-.2,1.5,0,.3.2.6.4.7.8.2.4.2.9,0,1.3-.2.4-.5.8-.9,1-.5.2-1.1.2-1.5,0Z"/>
          <path class="cls-2" d="M490.7,1077.2c-.3-.2-.6-.4-.7-.8-.2-.4-.2-.9,0-1.3.2-.4.5-.8.9-1,.5-.2,1.1-.2,1.5,0,.3.2.6.4.7.8.2.4.2.9,0,1.3-.2.4-.5.8-.9,1-.5.2-1,.2-1.5,0Z"/>
          <path class="cls-2" d="M496.9,951c-.3-.1-.5-.4-.6-.6-.2-.3-.2-.7,0-1,.1-.3.4-.6.7-.8.4-.2.8-.2,1.2,0,.3.1.5.4.6.6.3.7,0,1.5-.7,1.8-.4.2-.8.2-1.2,0Z"/>
          <path class="cls-2" d="M576.8,1293.7c-.4-.2-.7-.5-.9-.9-.5-1,0-2.3,1-2.8.6-.3,1.3-.3,1.9,0,.4.2.7.5.9,1,.2.5.3,1.1,0,1.6-.2.5-.6.9-1.1,1.2-.6.3-1.3.3-1.9,0Z"/>
        </g>
        <g>
          <path class="cls-2" d="M132.7,530.7c-2-1.1-2.7-3.6-1.6-5.6,1.1-2,3.6-2.7,5.6-1.6,2,1.1,2.7,3.6,1.6,5.6-1.1,2-3.6,2.7-5.6,1.6ZM136.6,523.6c-1.9-1.1-4.3-.3-5.4,1.6-1,1.9-.3,4.3,1.6,5.4,1.9,1,4.3.3,5.4-1.6,1-1.9.3-4.3-1.6-5.4Z"/>
          <path class="cls-2" d="M220.8,618.8c-2-1.1-2.7-3.6-1.6-5.6,1.1-2,3.6-2.7,5.6-1.6,2,1.1,2.7,3.6,1.6,5.6-1.1,2-3.6,2.7-5.6,1.6ZM224.7,611.7c-1.9-1-4.3-.3-5.4,1.6-1.1,1.9-.3,4.3,1.6,5.4,1.9,1.1,4.3.3,5.4-1.6,1.1-1.9.3-4.3-1.6-5.4Z"/>
          <path class="cls-2" d="M299.1,559.7c-2-1.1-2.7-3.6-1.6-5.6,1.1-2,3.6-2.7,5.6-1.6,2,1.1,2.7,3.6,1.6,5.6-1.1,2-3.6,2.7-5.6,1.6ZM303,552.6c-1.9-1-4.3-.3-5.4,1.6-1.1,1.9-.3,4.3,1.6,5.4,1.9,1,4.3.3,5.4-1.6,1-1.9.3-4.3-1.6-5.4Z"/>
          <path class="cls-2" d="M366.6,522.6c-2-1.1-2.7-3.6-1.6-5.6,1.1-2,3.6-2.7,5.6-1.6,2,1.1,2.7,3.6,1.6,5.6-1.1,2-3.6,2.7-5.6,1.6ZM370.4,515.6c-1.9-1.1-4.3-.3-5.4,1.6-1.1,1.9-.3,4.3,1.6,5.4,1.9,1.1,4.3.3,5.4-1.6,1.1-1.9.3-4.3-1.6-5.4Z"/>
          <path class="cls-2" d="M388.9,575.1c-2-1.1-2.7-3.6-1.6-5.6,1.1-2,3.6-2.7,5.6-1.6,2,1.1,2.7,3.6,1.6,5.6-1.1,2-3.6,2.7-5.6,1.6ZM392.8,568c-1.9-1.1-4.3-.3-5.4,1.6-1.1,1.9-.3,4.3,1.6,5.4,1.9,1,4.3.3,5.4-1.6,1-1.9.3-4.3-1.6-5.4Z"/>
          <path class="cls-2" d="M296.2,604.8c-2-1.1-2.7-3.6-1.6-5.6,1.1-2,3.6-2.7,5.6-1.6,2,1.1,2.7,3.6,1.6,5.6-1.1,2-3.6,2.7-5.6,1.6ZM300.1,597.7c-1.9-1.1-4.3-.3-5.4,1.6-1.1,1.9-.3,4.3,1.6,5.4,1.9,1.1,4.3.3,5.4-1.6,1-1.9.3-4.3-1.6-5.4Z"/>
          <path class="cls-2" d="M555.4,573.7c-2-1.1-2.7-3.6-1.6-5.6,1.1-2,3.6-2.7,5.6-1.6,2,1.1,2.7,3.6,1.6,5.6-1.1,2-3.6,2.7-5.6,1.6ZM559.3,566.7c-1.9-1-4.3-.3-5.4,1.6-1,1.9-.3,4.3,1.6,5.4,1.9,1,4.3.3,5.4-1.6,1-1.9.3-4.3-1.6-5.4Z"/>
          <path class="cls-2" d="M331,691.6c-2-1.1-2.7-3.6-1.6-5.6,1.1-2,3.6-2.7,5.6-1.6,2,1.1,2.7,3.6,1.6,5.6-1.1,2-3.6,2.7-5.6,1.6ZM334.8,684.6c-1.9-1-4.3-.3-5.4,1.6-1,1.9-.3,4.3,1.6,5.4,1.9,1,4.3.3,5.4-1.6,1-1.9.3-4.3-1.6-5.4Z"/>
          <path class="cls-2" d="M483.6,791.8c-2-1.1-2.7-3.6-1.6-5.6,1.1-2,3.6-2.7,5.6-1.6,2,1.1,2.7,3.6,1.6,5.6-1.1,2-3.6,2.7-5.6,1.6ZM487.4,784.8c-1.9-1-4.3-.3-5.4,1.6-1,1.9-.3,4.3,1.6,5.4,1.9,1,4.3.3,5.4-1.6,1-1.9.3-4.3-1.6-5.4Z"/>
          <path class="cls-2" d="M440.9,912.2c-2-1.1-2.7-3.6-1.6-5.6,1.1-2,3.6-2.7,5.6-1.6,2,1.1,2.7,3.6,1.6,5.6-1.1,2-3.6,2.7-5.6,1.6ZM444.8,905.1c-1.9-1-4.3-.3-5.4,1.6-1,1.9-.3,4.3,1.6,5.4,1.9,1,4.3.3,5.4-1.6,1-1.9.3-4.3-1.6-5.4Z"/>
          <path class="cls-2" d="M601.1,881.7c-2-1.1-2.7-3.6-1.6-5.6,1.1-2,3.6-2.7,5.6-1.6,2,1.1,2.7,3.6,1.6,5.6-1.1,2-3.6,2.7-5.6,1.6ZM605,874.6c-1.9-1.1-4.3-.3-5.4,1.6-1,1.9-.3,4.3,1.6,5.4,1.9,1,4.3.3,5.4-1.6,1-1.9.3-4.3-1.6-5.4Z"/>
          <path class="cls-2" d="M595.3,992.3c-2-1.1-2.7-3.6-1.6-5.6,1.1-2,3.6-2.7,5.6-1.6,2,1.1,2.7,3.6,1.6,5.6-1.1,2-3.6,2.7-5.6,1.6ZM599.2,985.2c-1.9-1-4.3-.3-5.4,1.6-1,1.9-.3,4.3,1.6,5.4,1.9,1,4.3.3,5.4-1.6,1-1.9.3-4.3-1.6-5.4Z"/>
          <path class="cls-2" d="M522.8,1038c-2-1.1-2.7-3.6-1.6-5.6,1.1-2,3.6-2.7,5.6-1.6,2,1.1,2.7,3.6,1.6,5.6-1.1,2-3.6,2.7-5.6,1.6ZM526.6,1031c-1.9-1.1-4.3-.3-5.4,1.6-1,1.9-.3,4.3,1.6,5.4,1.9,1,4.3.3,5.4-1.6,1-1.9.3-4.3-1.6-5.4Z"/>
          <path class="cls-2" d="M611,1145.7c-2-1.1-2.7-3.6-1.6-5.6,1.1-2,3.6-2.7,5.6-1.6,2,1.1,2.7,3.6,1.6,5.6-1.1,2-3.6,2.7-5.6,1.6ZM614.8,1138.6c-1.9-1-4.3-.3-5.4,1.6-1,1.9-.3,4.3,1.6,5.4,1.9,1,4.3.3,5.4-1.6,1-1.9.3-4.3-1.6-5.4Z"/>
          <path class="cls-2" d="M564,1243.3c-2-1.1-2.7-3.6-1.6-5.6,1.1-2,3.6-2.7,5.6-1.6,2,1.1,2.7,3.6,1.6,5.6-1.1,2-3.6,2.7-5.6,1.6ZM567.9,1236.2c-1.9-1-4.3-.3-5.4,1.6-1,1.9-.3,4.3,1.6,5.4,1.9,1,4.3.3,5.4-1.6,1-1.9.3-4.3-1.6-5.4Z"/>
          <path class="cls-2" d="M430.9,1223.8c-2-1.1-2.7-3.6-1.6-5.6,1.1-2,3.6-2.7,5.6-1.6,2,1.1,2.7,3.6,1.6,5.6-1.1,2-3.6,2.7-5.6,1.6ZM434.8,1216.8c-1.9-1-4.3-.3-5.4,1.6-1,1.9-.3,4.3,1.6,5.4,1.9,1,4.3.3,5.4-1.6,1-1.9.3-4.3-1.6-5.4Z"/>
          <path class="cls-2" d="M658.9,1314.8c-2-1.1-2.7-3.6-1.6-5.6,1.1-2,3.6-2.7,5.6-1.6,2,1.1,2.7,3.6,1.6,5.6-1.1,2-3.6,2.7-5.6,1.6ZM662.8,1307.7c-1.9-1-4.3-.3-5.4,1.6-1,1.9-.3,4.3,1.6,5.4,1.9,1,4.3.3,5.4-1.6,1-1.9.3-4.3-1.6-5.4Z"/>
          <path class="cls-2" d="M533.5,1315.2c-2-1.1-2.7-3.6-1.6-5.6,1.1-2,3.6-2.7,5.6-1.6,2,1.1,2.7,3.6,1.6,5.6-1.1,2-3.6,2.7-5.6,1.6ZM537.4,1308.2c-1.9-1-4.3-.3-5.4,1.6-1.1,1.9-.3,4.3,1.6,5.4,1.9,1.1,4.3.3,5.4-1.6,1-1.9.3-4.3-1.6-5.4Z"/>
          <path class="cls-2" d="M521.6,1393.4c-2-1.1-2.7-3.6-1.6-5.6,1.1-2,3.6-2.7,5.6-1.6,2,1.1,2.7,3.6,1.6,5.6-1.1,2-3.6,2.7-5.6,1.6ZM525.5,1386.3c-1.9-1-4.3-.3-5.4,1.6-1,1.9-.3,4.3,1.6,5.4,1.9,1,4.3.3,5.4-1.6,1-1.9.3-4.3-1.6-5.4Z"/>
          <path class="cls-2" d="M524.2,725.7c-2-1.1-2.7-3.6-1.6-5.6,1.1-2,3.6-2.7,5.6-1.6,2,1.1,2.7,3.6,1.6,5.6-1.1,2-3.6,2.7-5.6,1.6ZM528.1,718.7c-1.9-1-4.3-.3-5.4,1.6-1,1.9-.3,4.3,1.6,5.4,1.9,1,4.3.3,5.4-1.6,1-1.9.3-4.3-1.6-5.4Z"/>
          <path class="cls-2" d="M620.3,797.2c-2-1.1-2.7-3.6-1.6-5.6,1.1-2,3.6-2.7,5.6-1.6,2,1.1,2.7,3.6,1.6,5.6-1.1,2-3.6,2.7-5.6,1.6ZM624.2,790.1c-1.9-1-4.3-.3-5.4,1.6-1,1.9-.3,4.3,1.6,5.4,1.9,1,4.3.3,5.4-1.6,1-1.9.3-4.3-1.6-5.4Z"/>
          <path class="cls-2" d="M381.4,680.4c-2-1.1-2.7-3.6-1.6-5.6,1.1-2,3.6-2.7,5.6-1.6,2,1.1,2.7,3.6,1.6,5.6-1.1,2-3.6,2.7-5.6,1.6ZM385.2,673.3c-1.9-1-4.3-.3-5.4,1.6-1.1,1.9-.3,4.3,1.6,5.4,1.9,1,4.3.3,5.4-1.6,1-1.9.3-4.3-1.6-5.4Z"/>
          <path class="cls-2" d="M525.3,649.5c-2-1.1-2.7-3.6-1.6-5.6,1.1-2,3.6-2.7,5.6-1.6,2,1.1,2.7,3.6,1.6,5.6-1.1,2-3.6,2.7-5.6,1.6ZM529.2,642.5c-1.9-1-4.3-.3-5.4,1.6-1,1.9-.3,4.3,1.6,5.4,1.9,1,4.3.3,5.4-1.6,1-1.9.3-4.3-1.6-5.4Z"/>
        </g>
      </g>
    </g>
    <g>
      <g>
        <path class="cls-1" d="M542.4,1410v-.5c-.1,0,116-118.5,116-118.5l.3.3-.2-.5,4-100.4,50.6,32.9v-.2l-.2-.4-48.5-78.7.2-.3v-.4s-.4.6-.4.6l-44.6,18.3-31.2-20.3h0c0-.1,0,0,0,0l-84-1.7h0c0,0,0,0,0,0l-67.6-55.2,24-79.7,101.5-75h.2c0-.1-82.7-20.1-82.7-20.1l28.4-39.4h0c0,0,0-.1,0-.1h0s-7.7-69.6-7.7-69.6l75.2-5h0c0,0,45-123.6,45-123.6h0s0-.1,0-.1h.1c0-.1-.2-.1-.2-.1l-44.2-187.9,156.3-47.2h0c0,0,34.4-109.2,34.4-109.2l83,15.1h.9c0,0-.4-.1-.4-.1l-70-55.7,31.3-94.2,58.7-12.8h.3s56.2,27,56.2,27h.3s0,0,0,0l1.7-83.9h0s0,0,0,0l124.2-57.8h-.5s-161.7-2.5-161.7-2.5h0s-37.4,61.1-37.4,61.1l-50.6.6-78.7-37.2L692.4,2.2v.2c-.1,0-56.1,77.5-56.1,77.5l-38.2,3.4h-.1c0,0,0,0,0,0l-49.4,116.5h-.1c0-.1,0,0,0,0l-132.8-30.6h0c0,0-51.4,94.8-51.4,94.8h.2c0,0,35.3,41.5,35.3,41.5l-32.3,11.4h.2c0,.1,109.5,79.9,109.5,79.9l-139.2,117.2-.5-.2.4.4,36.9,126.4h0s108.7,9.7,108.7,9.7l12.2,110.3-102,47.1h-.3s68.6,37.7,68.6,37.7l-38.4,51.1h0s21,61.8,21,61.8l-60.4,83.8h-.1c0,0,.1.2.1.2l42.3,75.7-23.8,79.1-.5.3h.6c0-.1,48.2,68.4,48.2,68.4l-124,37h-.4s.4.2.4.2l81.6,40.4-23.4,42.7.4-.3,44.7-31.8,112.2,55.5.3.5ZM517.2,1291.9l68.8-69.1,72.2,67.9-140.9,1.2ZM664.1,1144.4l-1.8,45.6-26.5-17.2,28.2-28.4v.3c0,0,0-.3,0-.3ZM635.5,1172.8l-22.1,22.2-11.9-25.2,18-7.4,15.9,10.4ZM613.2,1195.1l-27.2,27.4-34.3-32.3,49.7-20.3,11.9,25.2ZM508.3,1187.8l-4-47.3,46.9,49.5-42.9-2.2ZM464,1185.6l-60.8,11.3,51.1-28.6,9.7,17.3ZM454.5,1168.2l49.2-27.5-39.5,44.8-9.7-17.3ZM503.8,1140.8l-19.4,45.8-20-1,39.4-44.7ZM504.1,1140.7l4,47.1-23.5-1.2,19.5-45.9ZM551.4,1190.2h0c0,0,0,0,0,0l34.4,32.3-68.8,69.1-8.7-103.7,43.1,2.2ZM586.1,1222.6l27.2-27.3,44.8,95-71.9-67.7ZM658.3,1290.3l-44.9-95.2,22.2-22.3,26.7,17.3-4,100.1ZM712.7,1222.7l-50.1-32.6,1.8-45.8,48.3,78.4ZM663.8,1144.3l-28.2,28.3-15.8-10.3,44-18ZM619.3,1162.3l-17.9,7.3-12.9-27.4,30.8,20ZM601.2,1169.7l-49.5,20.2,36.5-47.8,13,27.5ZM588.1,1142l-36.6,48-47-49.6,83.6,1.7ZM479.3,910l-55.5-13.4,83.7-25.8-28.3,39.2ZM495.5,801.1l4-5.3.6,5-4.6.3ZM575.3,795.7l-75.1,5-.6-5.3,41.8-55.7,78.8-67.3-44.9,123.2ZM620.2,672.2l-78.7,67.3-1.7-80.1,80.4,12.8ZM539.8,659.2l-.5-24.8,80.4,37.5-79.9-12.7ZM514.4,519.9l30.2-26-6.2,105.5-24-79.5ZM538.3,599.8l-77.9-33.3,53.8-46.4,24.1,79.7ZM514.4,519.7l-7-23.3,37.1-2.6-30,25.9ZM507.2,496.1l-7.7-25.5,63.5-41.5-18.4,64.4-37.4,2.6ZM507,496.1l-52,3.6,44.3-29,7.7,25.4ZM507.1,496.3l7.1,23.5-54,46.6-17.5-7.5,12-58.9,52.4-3.7ZM460,566.6l-22.8,19.7,5.5-27.1,17.3,7.4ZM460.2,566.6l77.5,33.1-100.5-13.3,23-19.8ZM538.3,600l-24.4,22.3-76.2-35.6,100.6,13.3ZM513.7,622.5l-30.3,27.7-46.1-63.3,76.4,35.7ZM514.1,622.4l24.3-22.2.7,33.9-25-11.7ZM538.6,600.2l81.2,71.6-80.5-37.6-.7-34ZM620.3,671.9l-81.6-71.9h0c0,0-.1,0-.1,0l6.2-106.2,31.3-9.5,44.2,187.6ZM544.9,493.4l18.3-64.2,12.9,54.8-31.2,9.4ZM576.3,484l-12.9-55,168.6,8-155.7,47ZM563.4,428.8l62.6-56.3,106.1,64.3-168.7-8ZM731.9,172.5l22.1,5.6-46.1,50.4,23.9-56ZM707.5,228.8l-39-72.4,63.1,16.1-24.1,56.4ZM754.4,178l15.6-17.1,41.3,31.6-56.9-14.5ZM754.2,178l-22.2-5.7,13-30.5,24.9,19-15.7,17.1ZM731.7,172.3l-63.2-16.1,14-39.2,62.3,24.7-13.1,30.6ZM682.5,116.8l15-42,47.1,66.6-62.1-24.7ZM682.3,116.9l-14,39.2-49.6-51.5,7.3-10.1,56.3,22.3ZM667.9,155.9l-66.2-27.7,16.9-23.4,49.3,51.2ZM668.1,156.2l-61.8,22.6-4.6-50.4,66.4,27.8ZM668.1,156.4l-55.3,93.7-6.5-71.1,61.8-22.6ZM668.4,156.4l39.1,72.6-94.1,21.8-.5-.4,55.5-94ZM583.5,346.4l105.6-31-63.1,56.8-42.5-25.8ZM625.9,372.3l-62.5,56.2,19.9-82,42.6,25.8ZM583.4,346.2l29.3-95.3.3.3h0s.2,0,.2,0l76,64.1-105.9,31.1ZM612.5,250.9l-29.2,95.1-11.9-50.6,41.2-44.5ZM571.2,295.1l-8-33.9,49.2-10.6-41.2,44.5ZM689.6,315.1l18-85.7,59.1,98.1-77.1-12.4ZM689.4,315l-75.9-64,93.9-21.8-18,85.7ZM563.2,261l-14.3-60.8,63.3,50.2-49,10.6ZM563,261.1l-94.3,20.4,80-81.2,14.4,60.9ZM468.4,281.5l-21.5-46,101.5-35.2-79.9,81.2ZM563,261.3l8,34-55.3,59.8-47.3-73.4,94.5-20.4ZM571.1,295.6l12,50.7-55.8,26.6-11.4-17.7,55.2-59.7ZM527.1,373l-49.5,23.6,38.1-41.2,11.3,17.6ZM583.1,346.5l-19.9,82.1-35.7-55.5,55.7-26.6ZM626.2,372.3l63.3-56.9,42.9,121.3-106.1-64.3ZM766.8,327.9l-34.2,108.7-42.9-121.3,77.1,12.4v.2ZM850.1,342.7l-82.9-15.1v-.2c0,0,13.2-40.1,13.2-40.1l69.6,55.4ZM780.3,287.1l-13.4,40.3-59-97.9,72.4,57.6ZM780.4,286.9l-72.6-57.8,103.8-36.2-31.2,94ZM707.9,228.8l46.3-50.6,57.1,14.6-103.4,36.1ZM770.1,160.8l33-36.1,33.4,27.3-24.9,40.6-41.5-31.8ZM854.9,167l-42.9,25.5,24.7-40.3,18.2,14.9ZM855.3,167l73-43.4-57.4,56.1-15.6-12.7ZM812.3,192.5l42.8-25.4,15.5,12.7-58.3,12.7ZM927.2,206.9l-56.2-27.1,57.8-56.5-1.7,83.5ZM1052.4,65.5l-123,57.2.2-.2-.7.4-37.6-60,161,2.5ZM891.2,63.1l37.6,59.9-74.8.9,37.2-60.8ZM928.6,123.2l-73.5,43.7-18.3-14.9,17.1-27.9,74.7-.9ZM853.6,124.1l-17,27.7-33.2-27.1,50.2-.6ZM803,124.6l-33,36.1-24.9-19.1-20.4-54.1,78.4,37.1ZM724.3,87.4l20.2,53.5-46.8-66.1,26.6,12.6ZM724.2,87.1l-26.7-12.6-5-71.3,31.7,83.9ZM692.3,2.8l5,71.7-60.7,5.4L692.3,2.8ZM697.3,74.7l-15,42-56.2-22.3,10.3-14.3,60.9-5.4ZM636.2,80.1l-10.2,14.2-27.3-10.8,37.6-3.3ZM625.8,94.5l-7.2,10-20-20.8,27.2,10.8ZM618.5,104.6l-16.9,23.3-3.3-44.3,20.2,21ZM598.1,83.8l3.3,44.4-52.3,71,48.9-115.4ZM601.4,128.5l4.6,50.4-57.1,20.9,52.5-71.3ZM606.1,179.1l6.5,71.2h-.1s-63.6-50.3-63.6-50.3l57.2-20.9ZM548.3,200l-101.6,35.2-30.8-65.7,132.3,30.5ZM415.8,169.7l30.8,65.7-81.8,28.4,51.1-94.1ZM364.7,264l82-28.4,21.6,46h0s0,0,0,0l-68.3,24-35.3-41.6ZM367.8,317.1l32-11.3,76.7,90.5-108.7-79.3ZM400.1,305.8l68.2-24,8.8,114.9-77-90.9ZM468.5,282l47.2,73.2-38.4,41.5-8.8-114.7ZM477.5,396.9l49.7-23.8,35.7,55.4-85.5-31.7ZM563,428.9l-63.5,41.5-22.1-73.3,85.6,31.7ZM477.1,397.1l22.2,73.4-44.7,29.3-116.4,14.3,139-116.9ZM338.2,514.3l116.3-14.3-12,58.8-104.3-44.6ZM442.5,559.1l-5.6,27.4h-.2c0,.1.2.2.2.2l45.8,62.8-144.4-134.9,104.2,44.5ZM374.7,640.5l-36.7-125.9,145.2,135.6-108.4-9.7ZM483.7,650.2l30.2-27.7,25.2,11.7.5,24.8-55.9-8.9ZM539.6,659.4l1.7,80-57.6-88.9,55.9,8.9ZM483.6,650.8l57.6,88.9-45.4,21-12.2-109.9ZM541,740l-41.4,55.2-3.8-34.3,45.2-20.9ZM495.6,761l3.8,34.5-4.2,5.6-101,6.7,101.4-46.8ZM394,808l101-6.7-33.1,44-68-37.3ZM462.1,845.4l33.1-44.1,4.8-.3,7.7,69.5-45.6-25ZM462,845.6l45.6,25-83.8,25.8,38.2-50.9ZM423.7,896.8l55.5,13.4-34.6,48-20.9-61.4ZM479.4,910.3l82.3,19.9-101.2,74.8-15.8-46.5,34.7-48.2ZM444.5,958.6l15.8,46.4-75.8,36.9,60.1-83.3ZM384.3,1042.2l75.9-37-23.9,79.5-52-42.5ZM384.5,1042.7l51.8,42.3-9.9,32.8-41.9-75.1ZM426.5,1118l9.9-32.9,67.5,55.2-49.6,27.8-27.9-50ZM426.4,1118.3l27.8,49.8-51.5,28.8,23.7-78.6ZM402.8,1197.2l61.4-11.4,20.1,1-33.4,78.8-48.1-68.4ZM451,1265.8l33.5-78.9,23.6,1.2,8.7,103.8-65.8-26.1ZM516.5,1291.9l-47.1,2.7-18.2-28.6,65.3,25.9ZM483,1316l-13.5-21.2,47.1-2.7-33.6,23.9ZM516.9,1292.2l25.1,116.7-58.9-92.7,33.8-24ZM434.1,1296.6l16.8-30.6,18.2,28.6-35,2ZM450.7,1266l-16.8,30.6-106.3,6,123.1-36.7ZM327.2,1302.9l106.6-6.1-25.4,46.3-81.2-40.2ZM408.6,1343.2l25.4-46.4,35.2-2,13.6,21.3-52.9,37.6-21.3-10.5ZM385.5,1385.3l23-41.9,21.2,10.5-44.2,31.4ZM430.1,1353.9l52.8-37.5,59,92.8-111.8-55.3ZM517.1,1292.1l141.1-1.2-115.9,118.3-25.1-117.1Z"/>
        <g>
          <path class="cls-2" d="M892.8,65.4c1.4-.9,1.8-2.7.9-4.1-.9-1.4-2.7-1.8-4.1-.9-1.4.9-1.8,2.7-.9,4.1.9,1.4,2.7,1.8,4.1.9Z"/>
          <path class="cls-2" d="M746.4,144.1c1.4-.8,1.8-2.6.9-4-.8-1.3-2.6-1.7-4-.9-1.3.8-1.8,2.6-.9,4,.8,1.4,2.6,1.8,4,.9Z"/>
          <path class="cls-2" d="M693.7,4.5c1.1-.7,1.5-2.2.8-3.4-.7-1.1-2.2-1.5-3.4-.8-1.1.7-1.5,2.2-.8,3.4.7,1.2,2.2,1.5,3.4.8Z"/>
          <path class="cls-2" d="M603.2,131c1.5-.9,1.9-2.9,1-4.4-.9-1.5-2.9-1.9-4.4-1-1.5.9-1.9,2.9-1,4.4.9,1.5,2.9,1.9,4.4,1Z"/>
          <path class="cls-2" d="M417.5,172.1c1.5-.9,1.9-2.9,1-4.4-.9-1.5-2.9-1.9-4.4-1-1.5.9-1.9,2.9-1,4.4.9,1.5,2.9,1.9,4.4,1Z"/>
          <path class="cls-2" d="M550.4,202.7c1.5-.9,1.9-2.9,1-4.4-.9-1.5-2.9-1.9-4.4-1-1.5.9-1.9,2.9-1,4.4.9,1.5,2.9,1.9,4.4,1Z"/>
          <path class="cls-2" d="M599.9,86.1c1.5-1,2-3,1-4.5-1-1.5-3-2-4.5-1-1.5,1-2,3-1,4.5,1,1.5,3,2,4.5,1Z"/>
          <path class="cls-2" d="M699.2,77.3c1.5-.9,1.9-2.9,1-4.4-.9-1.5-2.9-1.9-4.4-1-1.5.9-1.9,2.9-1,4.4.9,1.5,2.9,1.9,4.4,1Z"/>
          <path class="cls-2" d="M804.8,127.3c1.5-.9,2-2.9,1-4.4-.9-1.5-2.9-1.9-4.4-1-1.5.9-1.9,2.9-1,4.4.9,1.5,2.9,1.9,4.4,1Z"/>
          <path class="cls-2" d="M872.2,182c1.2-.7,1.5-2.3.8-3.4-.7-1.2-2.3-1.5-3.4-.8-1.2.7-1.5,2.3-.8,3.4.7,1.2,2.3,1.5,3.4.8Z"/>
          <path class="cls-2" d="M851.7,344.7c1-.6,1.3-2,.7-3-.6-1-2-1.3-3-.7-1,.6-1.3,2-.7,3,.6,1,2,1.3,3,.7Z"/>
          <path class="cls-2" d="M540.2,602.7c1.5-.9,1.9-2.9,1-4.4-.9-1.5-2.9-1.9-4.4-1-1.5.9-2,2.9-1,4.4.9,1.5,2.9,1.9,4.4,1Z"/>
          <path class="cls-2" d="M622.2,674.9c1.5-.9,1.9-2.9,1-4.4-.9-1.5-2.9-2-4.4-1-1.5.9-1.9,2.9-1,4.4.9,1.5,2.9,1.9,4.4,1Z"/>
          <path class="cls-2" d="M577.1,798.6c1.5-.9,1.9-2.9,1-4.4-.9-1.5-2.9-1.9-4.4-1-1.5.9-1.9,2.9-1,4.4.9,1.5,2.9,2,4.4,1Z"/>
          <path class="cls-2" d="M395.3,810.6c1.5-1,2-2.9,1-4.4-.9-1.5-2.9-1.9-4.4-1-1.5.9-1.9,2.9-1,4.4.9,1.5,2.9,1.9,4.4,1Z"/>
          <path class="cls-2" d="M365.5,265.6c.9-.6,1.2-1.8.6-2.8-.6-.9-1.8-1.2-2.8-.6-.9.6-1.2,1.8-.6,2.8.6.9,1.8,1.2,2.8.6Z"/>
          <path class="cls-2" d="M368.8,319c1.1-.7,1.4-2.1.7-3.2-.7-1.1-2.1-1.4-3.2-.7-1.1.7-1.4,2.1-.7,3.1.7,1.1,2.1,1.4,3.2.7Z"/>
          <path class="cls-2" d="M813.4,195.5c1.5-.9,1.9-2.9,1-4.4-.9-1.5-2.9-1.9-4.4-1-1.5.9-1.9,2.9-1,4.4.9,1.5,2.9,1.9,4.4,1Z"/>
          <path class="cls-2" d="M1054.6,68.1c1.5-.9,1.9-2.9,1-4.4-.9-1.5-2.9-1.9-4.4-1-1.5.9-1.9,2.9-1,4.4.9,1.5,2.9,1.9,4.4,1Z"/>
          <path class="cls-2" d="M929,209.7c1.5-.9,1.9-2.9,1-4.4-.9-1.5-2.9-1.9-4.4-1-1.5.9-1.9,2.9-1,4.4.9,1.5,2.9,1.9,4.4,1Z"/>
          <path class="cls-2" d="M768.7,330.3c1.5-.9,1.9-2.9,1-4.4-.9-1.5-2.9-1.9-4.4-1-1.5.9-2,2.9-1,4.4.9,1.5,2.9,1.9,4.4,1Z"/>
          <path class="cls-2" d="M709.3,231.8c1.5-.9,1.9-2.9,1-4.4-.9-1.5-2.9-1.9-4.4-1-1.5.9-1.9,2.9-1,4.4.9,1.5,2.9,1.9,4.4,1Z"/>
          <path class="cls-2" d="M670.1,158.9c1.5-.9,2-2.9,1-4.4-.9-1.5-2.9-1.9-4.4-1-1.5.9-1.9,2.9-1,4.4.9,1.5,2.9,1.9,4.4,1Z"/>
          <path class="cls-2" d="M614.6,253.5c1.7-1.1,2.2-3.3,1.1-5-1.1-1.7-3.3-2.2-5-1.1-1.7,1.1-2.2,3.3-1.1,5,1.1,1.7,3.3,2.2,5,1.1Z"/>
          <path class="cls-2" d="M470,284.3c1.5-.9,1.9-2.9,1-4.4-.9-1.5-2.9-1.9-4.4-1-1.5.9-1.9,2.9-1,4.4.9,1.5,2.9,1.9,4.4,1Z"/>
          <path class="cls-2" d="M584.9,349c1.5-.9,1.9-2.9,1-4.4-.9-1.5-2.9-2-4.4-1-1.5.9-1.9,2.9-1,4.4.9,1.5,2.9,1.9,4.4,1Z"/>
          <path class="cls-2" d="M691.2,317.9c1.5-.9,1.9-2.9,1-4.4-.9-1.5-2.9-1.9-4.4-1-1.5.9-1.9,2.9-1,4.4.9,1.5,2.9,1.9,4.4,1Z"/>
          <path class="cls-2" d="M564.9,431.6c1.5-.9,1.9-2.9,1-4.4-.9-1.5-2.9-1.9-4.4-1-1.5.9-1.9,2.9-1,4.4.9,1.5,2.9,1.9,4.4,1Z"/>
          <path class="cls-2" d="M456.3,502.6c1.5-.9,1.9-2.9,1-4.4-.9-1.5-2.9-1.9-4.4-1-1.5.9-2,2.9-1,4.4.9,1.5,2.9,1.9,4.4,1Z"/>
          <path class="cls-2" d="M438.3,588.6c1.1-.7,1.5-2.2.8-3.3-.7-1.1-2.2-1.5-3.3-.8-1.1.7-1.5,2.2-.8,3.3.7,1.1,2.2,1.5,3.3.8Z"/>
          <path class="cls-2" d="M733.7,438.8c1-.6,1.3-2,.7-3-.7-1-2-1.3-3-.7-1,.7-1.3,2-.7,3,.6,1,2,1.3,3,.7Z"/>
          <path class="cls-2" d="M546.4,496.3c1.5-.9,1.9-2.9,1-4.4-.9-1.5-2.9-1.9-4.4-1-1.5.9-1.9,2.9-1,4.4.9,1.5,2.9,2,4.4,1Z"/>
          <path class="cls-2" d="M929.8,124.4c.7-.5,1-1.5.5-2.2-.5-.8-1.5-1-2.2-.5-.7.5-1,1.5-.5,2.2.5.7,1.5,1,2.2.5Z"/>
          <path class="cls-2" d="M518.7,1294.7c.6-.4,1-.9,1.3-1.5.3-.8.3-1.7,0-2.5-.3-.8-1-1.4-1.8-1.7-1-.4-2-.3-2.9.3-.6.4-1,.9-1.3,1.5-.7,1.6.2,3.5,1.8,4.2,1,.4,2,.3,2.9-.3Z"/>
          <path class="cls-2" d="M590,1144.6c.6-.4,1-.9,1.3-1.5.7-1.6-.2-3.5-1.8-4.2-1-.4-2-.3-2.9.3-.6.4-1,.9-1.3,1.5-.3.8-.3,1.7,0,2.4.3.8,1,1.4,1.8,1.7.9.4,2,.3,2.9-.3Z"/>
          <path class="cls-2" d="M714.7,1225.8c.6-.4,1-.9,1.3-1.5.3-.8.3-1.7,0-2.4-.3-.8-1-1.4-1.8-1.7-1-.4-2-.3-2.9.3-.6.4-1,.9-1.3,1.5-.3.8-.3,1.7,0,2.4.3.8,1,1.4,1.8,1.7,1,.4,2,.3,2.9-.3Z"/>
          <path class="cls-2" d="M659.8,1292.9c.4-.3.8-.7,1-1.2.3-.6.2-1.3,0-1.9-.3-.6-.7-1.1-1.4-1.3-.7-.3-1.6-.2-2.2.2-.5.3-.8.7-1,1.2-.2.6-.2,1.3,0,1.9.3.6.7,1.1,1.4,1.3.7.3,1.5.2,2.2-.2Z"/>
          <path class="cls-2" d="M543.9,1412.1c.6-.4,1-.9,1.3-1.5.3-.8.3-1.7,0-2.5-.3-.8-1-1.4-1.8-1.7-.9-.4-2-.3-2.9.3-.6.4-1,.9-1.3,1.5-.3.8-.3,1.7,0,2.5.3.8,1,1.4,1.7,1.7,1,.4,2,.3,2.9-.3Z"/>
          <path class="cls-2" d="M328.4,1305.5c.6-.4,1-.9,1.3-1.5.3-.8.3-1.7,0-2.5-.3-.8-1-1.4-1.8-1.7-1-.4-2-.3-2.9.3-.6.4-1,.9-1.3,1.5-.3.8-.3,1.7,0,2.5.3.8,1,1.4,1.8,1.7,1,.4,2,.3,2.9-.3Z"/>
          <path class="cls-2" d="M666,1146.7c.6-.4,1-.9,1.3-1.5.3-.8.3-1.6,0-2.4-.3-.8-1-1.4-1.8-1.7-1-.4-2-.3-2.9.3-.6.4-1,.9-1.3,1.5-.7,1.6.1,3.5,1.8,4.2,1,.4,2,.3,2.9-.3Z"/>
          <path class="cls-2" d="M553.3,1193.1c.6-.4,1.1-1,1.4-1.6.3-.8.3-1.8,0-2.6-.4-.8-1-1.5-1.9-1.8-1-.4-2.2-.3-3.1.3-.6.4-1.1,1-1.4,1.6-.7,1.8.2,3.7,1.9,4.4,1,.4,2.1.3,3.1-.3Z"/>
          <path class="cls-2" d="M465.9,1188.4c.6-.4,1-.9,1.3-1.5.3-.8.3-1.7,0-2.4-.3-.8-1-1.4-1.8-1.7-.9-.4-2-.3-2.9.3-.6.3-1,.9-1.3,1.5-.6,1.6.2,3.5,1.8,4.1,1,.4,2,.3,2.9-.3Z"/>
          <path class="cls-2" d="M385.8,1044.9c.6-.4,1-.9,1.3-1.5.6-1.6-.2-3.5-1.8-4.1-1-.4-2-.3-2.9.3-.6.4-1,.9-1.3,1.5-.7,1.6.2,3.5,1.8,4.1,1,.4,2,.3,2.9-.3Z"/>
          <path class="cls-2" d="M509.6,873.3c.6-.4,1-.9,1.3-1.5.3-.8.3-1.7,0-2.4-.3-.8-1-1.4-1.8-1.7-1-.4-2-.3-2.9.3-.6.4-1,.9-1.3,1.5-.3.8-.3,1.6,0,2.4.3.8,1,1.4,1.8,1.7,1,.4,2,.3,2.9-.3Z"/>
          <path class="cls-2" d="M484.6,652.1c.4-.2.7-.6.9-1,.4-1.1-.1-2.4-1.2-2.8-.6-.3-1.3-.2-1.9.2-.4.2-.7.6-.9,1-.2.5-.2,1.1,0,1.7.2.5.7.9,1.2,1.1.6.3,1.3.2,1.9-.2Z"/>
          <path class="cls-2" d="M376.4,643.3c.6-.4,1-.9,1.3-1.5.3-.8.3-1.7,0-2.4-.3-.8-1-1.4-1.8-1.7-1-.4-2-.3-2.9.3-.6.4-1,.9-1.3,1.5-.6,1.6.2,3.5,1.8,4.1.9.4,2,.3,2.9-.3Z"/>
          <path class="cls-2" d="M339.5,517c.6-.4,1-.9,1.3-1.5.3-.8.3-1.7,0-2.4-.3-.8-1-1.4-1.7-1.7-1-.4-2-.3-2.9.3-.6.4-1,.9-1.3,1.5-.3.8-.3,1.7,0,2.4.3.8,1,1.4,1.8,1.7,1,.4,2,.3,2.9-.3Z"/>
          <path class="cls-2" d="M478.9,399.6c.6-.3,1-.9,1.3-1.5.6-1.6-.2-3.5-1.8-4.2-1-.4-2-.3-2.9.3-.6.4-1,.9-1.3,1.5-.3.8-.3,1.7,0,2.5.3.8,1,1.4,1.8,1.7,1,.4,2,.3,2.9-.3Z"/>
          <path class="cls-2" d="M505.4,1142.3c.4-.3.7-.7.9-1.1.5-1.2-.1-2.6-1.3-3.1-.7-.3-1.5-.2-2.1.2-.4.3-.7.7-.9,1.1-.2.6-.2,1.2,0,1.8.3.6.7,1,1.3,1.3.7.3,1.5.2,2.1-.2Z"/>
          <path class="cls-2" d="M386.2,1387.4c.4-.2.7-.6.8-1,.2-.5.2-1.1,0-1.6-.2-.5-.6-.9-1.1-1.1-.6-.2-1.3-.2-1.9.2-.4.2-.7.6-.8,1-.4,1.1,0,2.3,1.1,2.7.6.2,1.3.2,1.9-.2Z"/>
          <path class="cls-2" d="M404,1199.4c.5-.3.8-.7,1.1-1.3.3-.7.2-1.4,0-2-.3-.7-.8-1.2-1.5-1.4-.8-.3-1.7-.2-2.4.2-.5.3-.8.7-1.1,1.3-.5,1.4.1,2.9,1.5,3.5.8.3,1.7.2,2.4-.2Z"/>
          <path class="cls-2" d="M462.1,1007.8c.6-.4,1-.9,1.3-1.5.7-1.6-.1-3.5-1.8-4.2-1-.4-2-.3-2.9.3-.6.4-1,.9-1.3,1.5-.7,1.6.2,3.5,1.8,4.1,1,.4,2,.3,2.9-.3Z"/>
          <path class="cls-2" d="M424.9,898.8c.5-.3.8-.7,1-1.2.2-.6.2-1.3,0-2-.3-.6-.8-1.1-1.4-1.4-.8-.3-1.6-.2-2.3.2-.5.3-.8.7-1,1.2-.3.6-.2,1.3,0,2,.3.6.8,1.1,1.4,1.4.8.3,1.6.2,2.3-.2Z"/>
          <path class="cls-2" d="M563.4,932.3c.5-.3.8-.7,1-1.2.2-.6.2-1.3,0-2-.3-.6-.8-1.1-1.4-1.4-.8-.3-1.6-.2-2.3.2-.5.3-.8.7-1,1.2-.3.6-.2,1.4,0,2,.3.6.8,1.1,1.4,1.4.8.3,1.6.2,2.3-.2Z"/>
          <path class="cls-2" d="M542.5,741.5c.4-.2.7-.6.8-1,.2-.5.2-1.1,0-1.6-.2-.5-.6-.9-1.1-1.1-.6-.2-1.3-.2-1.9.2-.4.2-.7.6-.8,1-.4,1,0,2.3,1.1,2.7.6.2,1.3.2,1.9-.2Z"/>
          <path class="cls-2" d="M452.6,1268.5c.6-.4,1-.9,1.3-1.5.6-1.6-.2-3.5-1.8-4.1-1-.4-2-.3-2.9.3-.6.4-1,.9-1.3,1.5-.3.8-.3,1.7,0,2.4.3.8,1,1.4,1.7,1.7,1,.4,2,.3,2.9-.3Z"/>
        </g>
        <g>
          <path class="cls-2" d="M1047.6,68.7c-1.8-2.9-.9-6.8,2-8.6,2.9-1.8,6.8-.9,8.6,2,1.8,2.9.9,6.8-2,8.6-2.9,1.8-6.8.9-8.6-2ZM1047.8,68.6c1.8,2.8,5.5,3.7,8.3,1.9,2.8-1.8,3.7-5.5,1.9-8.3-1.8-2.8-5.5-3.7-8.3-1.9-2.8,1.8-3.7,5.5-1.9,8.3Z"/>
          <path class="cls-2" d="M922,210.3c-1.8-2.9-.9-6.8,2-8.6,2.9-1.8,6.8-.9,8.6,2,1.8,2.9.9,6.8-2,8.6-2.9,1.8-6.8.9-8.6-2ZM922.2,210.2c1.8,2.8,5.5,3.7,8.3,1.9,2.8-1.8,3.7-5.5,1.9-8.3-1.8-2.8-5.5-3.7-8.3-1.9-2.8,1.8-3.7,5.5-1.9,8.3Z"/>
          <path class="cls-2" d="M797.9,127.9c-1.8-2.9-.9-6.8,2-8.6,2.9-1.8,6.8-1,8.6,2,1.8,2.9.9,6.8-2,8.6-2.9,1.8-6.8.9-8.6-2ZM798.1,127.8c1.8,2.8,5.5,3.7,8.3,1.9,2.8-1.8,3.7-5.5,1.9-8.3-1.8-2.8-5.5-3.7-8.3-1.9-2.8,1.8-3.7,5.5-1.9,8.3Z"/>
          <path class="cls-2" d="M692.2,77.9c-1.8-2.9-.9-6.8,2-8.6,2.9-1.8,6.8-.9,8.6,2,1.8,2.9.9,6.8-2,8.6-2.9,1.8-6.8.9-8.6-2ZM692.4,77.8c1.8,2.8,5.5,3.7,8.3,1.9,2.8-1.8,3.7-5.5,1.9-8.3-1.8-2.8-5.5-3.7-8.3-1.9-2.8,1.8-3.7,5.5-1.9,8.3Z"/>
          <path class="cls-2" d="M663.1,159.5c-1.8-2.9-.9-6.8,2-8.6,2.9-1.8,6.8-1,8.6,2,1.8,2.9.9,6.8-2,8.6-2.9,1.8-6.8.9-8.6-2ZM663.3,159.4c1.8,2.8,5.5,3.7,8.3,1.9,2.8-1.8,3.7-5.5,1.9-8.3-1.8-2.8-5.5-3.7-8.3-1.9-2.8,1.8-3.7,5.5-1.9,8.3Z"/>
          <path class="cls-2" d="M806.4,196.1c-1.8-2.9-.9-6.8,2-8.6,2.9-1.8,6.8-.9,8.6,2,1.8,2.9.9,6.8-2,8.6-2.9,1.8-6.8.9-8.6-2ZM806.6,196c1.8,2.8,5.5,3.7,8.3,1.9,2.8-1.8,3.7-5.5,1.9-8.3-1.8-2.8-5.5-3.7-8.3-1.9-2.8,1.8-3.7,5.5-1.9,8.3Z"/>
          <path class="cls-2" d="M410.5,172.7c-1.8-2.9-.9-6.8,2-8.6,2.9-1.8,6.8-.9,8.6,2,1.8,2.9.9,6.8-2,8.6-2.9,1.8-6.8.9-8.6-2ZM410.7,172.6c1.8,2.8,5.5,3.7,8.3,1.9,2.8-1.8,3.7-5.5,1.9-8.3-1.8-2.8-5.5-3.7-8.3-1.9-2.8,1.8-3.7,5.5-1.9,8.3Z"/>
          <path class="cls-2" d="M761.7,330.9c-1.8-2.9-.9-6.8,2-8.6,2.9-1.8,6.8-1,8.6,2,1.8,2.9.9,6.8-2,8.6-2.9,1.8-6.8.9-8.6-2ZM761.9,330.8c1.8,2.8,5.5,3.7,8.3,1.9,2.8-1.8,3.7-5.5,1.9-8.3-1.8-2.8-5.5-3.7-8.3-1.9-2.8,1.8-3.7,5.5-1.9,8.3Z"/>
          <path class="cls-2" d="M539.4,496.9c-1.8-2.9-.9-6.8,2-8.6,2.9-1.8,6.8-.9,8.6,2,1.8,2.9.9,6.8-2,8.6-2.9,1.8-6.8.9-8.6-2ZM539.6,496.8c1.8,2.8,5.5,3.7,8.3,1.9,2.8-1.8,3.7-5.5,1.9-8.3-1.8-2.8-5.5-3.7-8.3-1.9-2.8,1.8-3.7,5.5-1.9,8.3Z"/>
          <path class="cls-2" d="M615.2,675.5c-1.8-2.9-.9-6.8,2-8.6,2.9-1.8,6.8-.9,8.6,2,1.8,2.9.9,6.7-2,8.6-2.9,1.8-6.8.9-8.6-2ZM615.4,675.4c1.8,2.8,5.5,3.7,8.3,1.9,2.8-1.8,3.7-5.5,1.9-8.3-1.8-2.8-5.5-3.7-8.3-1.9-2.8,1.8-3.7,5.5-1.9,8.3Z"/>
          <path class="cls-2" d="M369.4,643.9c-1.8-2.9-.9-6.8,2-8.6,2.9-1.8,6.8-1,8.6,2,1.8,2.9.9,6.8-2,8.6-2.9,1.8-6.8.9-8.6-2ZM369.6,643.8c1.8,2.8,5.5,3.7,8.3,1.9,2.8-1.8,3.7-5.5,1.9-8.3-1.8-2.8-5.5-3.7-8.3-1.9-2.8,1.8-3.7,5.5-1.9,8.3Z"/>
          <path class="cls-2" d="M388.4,811.2c-1.8-2.9-.9-6.8,2-8.6,2.9-1.8,6.8-.9,8.6,2,1.8,2.9,1,6.8-2,8.6-2.9,1.8-6.8.9-8.6-2ZM388.5,811.1c1.8,2.8,5.5,3.7,8.3,1.9,2.8-1.8,3.7-5.5,1.9-8.3-1.8-2.8-5.5-3.7-8.3-1.9-2.8,1.8-3.7,5.5-1.9,8.3Z"/>
          <path class="cls-2" d="M502.6,873.9c-1.8-2.9-.9-6.8,2-8.6,2.9-1.8,6.8-.9,8.6,2,1.8,2.9.9,6.8-2,8.6-2.9,1.8-6.8.9-8.6-2ZM502.8,873.8c1.8,2.8,5.5,3.7,8.3,1.9,2.8-1.8,3.7-5.5,1.9-8.3-1.8-2.8-5.5-3.7-8.3-1.9-2.8,1.8-3.7,5.5-1.9,8.3Z"/>
          <path class="cls-2" d="M378.7,1045.3c-1.8-2.9-.9-6.8,2-8.6,2.9-1.8,6.8-.9,8.6,2,1.8,2.9.9,6.8-2,8.6-2.9,1.8-6.8.9-8.6-2ZM378.9,1045.2c1.8,2.8,5.5,3.7,8.3,1.9,2.8-1.8,3.7-5.5,1.9-8.3-1.8-2.8-5.5-3.7-8.3-1.9-2.8,1.8-3.7,5.5-1.9,8.3Z"/>
          <path class="cls-2" d="M458.9,1189c-1.8-2.9-.9-6.8,2-8.6,2.9-1.8,6.8-.9,8.6,2,1.8,2.9.9,6.8-2,8.6-2.9,1.8-6.8.9-8.6-2ZM459.1,1188.9c1.8,2.8,5.5,3.7,8.3,1.9,2.8-1.8,3.7-5.5,1.9-8.3-1.8-2.8-5.5-3.7-8.3-1.9-2.8,1.8-3.7,5.5-1.9,8.3Z"/>
          <path class="cls-2" d="M659,1147.3c-1.8-2.9-1-6.8,2-8.6,2.9-1.8,6.8-.9,8.6,2,1.8,2.9.9,6.8-2,8.6-2.9,1.8-6.8.9-8.6-2ZM659.2,1147.2c1.8,2.8,5.5,3.7,8.3,1.9,2.8-1.8,3.7-5.5,1.9-8.3-1.8-2.8-5.5-3.7-8.3-1.9-2.8,1.8-3.7,5.5-1.9,8.3Z"/>
          <path class="cls-2" d="M321.5,1306.1c-1.8-2.9-.9-6.8,2-8.6,2.9-1.8,6.8-.9,8.6,2,1.8,2.9.9,6.8-2,8.6-2.9,1.8-6.8.9-8.6-2ZM321.6,1306c1.8,2.8,5.5,3.7,8.3,1.9,2.8-1.8,3.7-5.5,1.9-8.3-1.8-2.8-5.5-3.7-8.3-1.9-2.8,1.8-3.7,5.5-1.9,8.3Z"/>
          <path class="cls-2" d="M511.7,1295.3c-1.8-2.9-.9-6.8,2-8.6,2.9-1.8,6.8-.9,8.6,2,1.8,2.9.9,6.8-2,8.6-2.9,1.8-6.8,1-8.6-2ZM511.9,1295.2c1.8,2.8,5.5,3.7,8.3,1.9,2.8-1.8,3.7-5.5,1.9-8.3-1.8-2.8-5.5-3.7-8.3-1.9-2.8,1.8-3.7,5.5-1.9,8.3Z"/>
          <path class="cls-2" d="M536.9,1412.7c-1.8-2.9-1-6.8,2-8.6,2.9-1.8,6.8-.9,8.6,2,1.8,2.9.9,6.8-2,8.6-2.9,1.8-6.8.9-8.6-2ZM537.1,1412.6c1.8,2.8,5.5,3.6,8.3,1.9,2.8-1.8,3.6-5.5,1.9-8.3-1.8-2.8-5.5-3.7-8.3-1.9-2.8,1.8-3.7,5.5-1.9,8.3Z"/>
          <path class="cls-2" d="M471.7,400.4c-1.8-2.9-.9-6.8,2-8.6,2.9-1.8,6.8-.9,8.6,2,1.8,2.9.9,6.8-2,8.6-2.9,1.8-6.8.9-8.6-2ZM471.9,400.3c1.8,2.8,5.5,3.7,8.3,1.9,2.8-1.8,3.7-5.5,1.9-8.3-1.8-2.8-5.5-3.7-8.3-1.9-2.8,1.8-3.7,5.5-1.9,8.3Z"/>
          <path class="cls-2" d="M332.5,517.6c-1.8-2.9-.9-6.8,2-8.6,2.9-1.8,6.8-.9,8.6,2,1.8,2.9.9,6.8-2,8.6-2.9,1.8-6.8.9-8.6-2ZM332.7,517.4c1.8,2.8,5.5,3.7,8.3,1.9,2.8-1.8,3.7-5.5,1.9-8.3-1.8-2.8-5.5-3.7-8.3-1.9-2.8,1.8-3.7,5.5-1.9,8.3Z"/>
          <path class="cls-2" d="M684.2,318.5c-1.8-2.9-1-6.8,2-8.6,2.9-1.8,6.8-.9,8.6,2,1.8,2.9,1,6.8-2,8.6-2.9,1.8-6.8,1-8.6-2ZM684.4,318.4c1.8,2.8,5.5,3.6,8.3,1.9,2.8-1.8,3.7-5.5,1.9-8.3-1.8-2.8-5.5-3.7-8.3-1.9-2.8,1.8-3.7,5.5-1.9,8.3Z"/>
          <path class="cls-2" d="M463.1,285c-1.8-2.9-1-6.8,2-8.6,2.9-1.8,6.8-.9,8.6,2,1.8,2.9.9,6.8-2,8.6-2.9,1.8-6.8.9-8.6-2ZM463.2,284.8c1.8,2.8,5.5,3.7,8.3,1.9,2.8-1.8,3.7-5.5,1.9-8.3-1.8-2.8-5.5-3.7-8.3-1.9-2.8,1.8-3.7,5.5-1.9,8.3Z"/>
        </g>
      </g>
      <g>
        <path class="cls-1" d="M516.7,1291.4v.5c.1,0-116,118.5-116,118.5l-.3-.3.2.5-4,100.4-50.6-32.9v.2l.2.4,48.5,78.6-.2.3v.4s.4-.6.4-.6l44.6-18.3,31.2,20.3h0c0,.1,0,0,0,0l84,1.7h0c0,0,0,0,0,0l67.6,55.2-24,79.7-101.5,75h-.2c0,.1,82.7,20.1,82.7,20.1l-28.4,39.4h0s0,0,0,0h0c0,0,0,0,0,0l7.7,69.6-75.2,5h0c0,0-45,123.6-45,123.6h0s0,0,0,0h-.1c0,.1.2.1.2.1l44.2,187.9-156.3,47.2h0c0,0-34.4,109.2-34.4,109.2l-83-15.1h-.9c0,0,.4.1.4.1l70,55.7-31.3,94.2-58.7,12.8h-.3c0,0-56.2-27-56.2-27h-.3s0,0,0,0l-1.7,83.9h0,0c0,0-124.2,57.9-124.2,57.9h.5l161.7,2.5h0c0,0,37.4-61.1,37.4-61.1l50.6-.6,78.7,37.2,32.1,85v-.2c.1,0,56.1-77.5,56.1-77.5l38.2-3.4h.1c0,0,0,0,0,0l49.4-116.5h.1c0,.1,0,0,0,0l132.8,30.6h0c0,0,51.4-94.8,51.4-94.8h-.2c0,0-35.3-41.5-35.3-41.5l32.3-11.4h-.2c0-.1-109.5-79.9-109.5-79.9l139.2-117.2.5.2-.4-.4-36.9-126.4h0s-108.7-9.7-108.7-9.7l-12.2-110.3,102-47.1h.3s-68.6-37.7-68.6-37.7l38.4-51.1h0s-21-61.8-21-61.8l60.4-83.8h.1c0,0-.1-.2-.1-.2l-42.3-75.7,23.8-79,.5-.3h-.6c0,.1-48.2-68.4-48.2-68.4l124-37h.4s-.4-.2-.4-.2l-81.6-40.4,23.4-42.7-.4.3-44.7,31.8-112.2-55.5-.3-.5ZM541.9,1409.5l-68.8,69.1-72.2-67.9,140.9-1.2ZM395,1557.1l1.8-45.6,26.5,17.3-28.2,28.4v-.3c0,0,0,.3,0,.3ZM423.7,1528.7l22.1-22.2,11.9,25.2-18,7.4-15.9-10.4ZM445.9,1506.3l27.2-27.4,34.3,32.3-49.7,20.3-11.9-25.3ZM550.8,1513.6l4,47.3-46.9-49.5,42.9,2.2ZM595.1,1515.8l60.8-11.3-51.2,28.6-9.7-17.3ZM604.6,1533.3l-49.2,27.5,39.5-44.8,9.7,17.3ZM555.3,1560.6l19.4-45.8,20,1-39.4,44.7ZM555,1560.7l-4-47.1,23.5,1.2-19.5,45.9ZM507.7,1511.2h0c0,0,0,0,0,0l-34.4-32.3,68.8-69.1,8.7,103.7-43.1-2.2ZM473,1478.8l-27.2,27.3-44.8-95,72,67.7ZM400.8,1411.1l44.9,95.2-22.2,22.3-26.7-17.3,4-100.1ZM346.5,1478.7l50.1,32.6-1.8,45.8-48.3-78.4ZM395.3,1557.2l28.2-28.3,15.8,10.3-44,18ZM439.8,1539.2l17.9-7.3,12.9,27.4-30.8-20ZM457.9,1531.8l49.5-20.2-36.5,47.8-13-27.5ZM471.1,1559.4l36.6-48,47,49.6-83.6-1.7ZM579.8,1791.4l55.5,13.4-83.7,25.8,28.3-39.2ZM563.7,1900.4l-4,5.3-.6-5,4.6-.3ZM483.8,1905.7l75.1-5,.6,5.3-41.8,55.7-78.8,67.3,44.9-123.2ZM438.9,2029.2l78.7-67.3,1.7,80.1-80.4-12.8ZM519.3,2042.2l.5,24.8-80.4-37.5,79.9,12.7ZM544.7,2181.5l-30.2,26,6.2-105.5,24,79.5ZM520.8,2101.7l77.9,33.3-53.8,46.5-24.1-79.7ZM544.8,2181.8l7,23.3-37.1,2.6,30-25.9ZM551.9,2205.3l7.7,25.5-63.5,41.5,18.4-64.4,37.4-2.6ZM552.1,2205.3l52-3.6-44.3,29-7.7-25.4ZM552,2205.1l-7.1-23.5,54-46.6,17.5,7.5-12,58.9-52.4,3.7ZM599.1,2134.9l22.8-19.7-5.5,27.1-17.3-7.4ZM598.9,2134.8l-77.5-33.1,100.5,13.3-23,19.8ZM520.9,2101.4l24.4-22.3,76.2,35.6-100.6-13.3ZM545.4,2079l30.2-27.7,46.1,63.3-76.4-35.7ZM545,2079l-24.3,22.2-.7-33.9,25,11.7ZM520.5,2101.2l-81.2-71.6,80.5,37.6.7,34ZM438.8,2029.6l81.6,71.9h0c0,0,.1,0,.1,0l-6.2,106.2-31.3,9.5-44.2-187.6ZM514.3,2208l-18.3,64.2-12.9-54.8,31.2-9.4ZM482.9,2217.5l12.9,55-168.6-8,155.7-47ZM495.7,2272.7l-62.6,56.3-106.1-64.4,168.7,8ZM327.3,2528.9l-22.1-5.6,46.1-50.4-23.9,56ZM351.6,2472.6l39,72.5-63.1-16.1,24.1-56.4ZM304.7,2523.4l-15.6,17.1-41.3-31.6,56.9,14.5ZM305,2523.5l22.2,5.7-13,30.5-24.9-19,15.7-17.1ZM327.4,2529.2l63.2,16.1-14,39.2-62.3-24.7,13.1-30.6ZM376.6,2584.7l-15,42-47.1-66.6,62.1,24.7ZM376.9,2584.6l14-39.2,49.6,51.5-7.3,10-56.3-22.3ZM391.2,2545.5l66.2,27.7-16.9,23.4-49.3-51.2ZM391.1,2545.2l61.8-22.6,4.6,50.4-66.4-27.8ZM391,2545l55.3-93.7,6.5,71.1-61.8,22.6ZM390.8,2545l-39.1-72.6,94.1-21.8.5.4-55.5,94ZM475.7,2355.1l-105.6,31,63.1-56.8,42.5,25.8ZM433.3,2329.1l62.5-56.3-19.9,82-42.5-25.8ZM475.7,2355.3l-29.3,95.3-.3-.3h0s-.2,0-.2,0l-76-64.1,105.9-31ZM446.7,2450.6l29.2-95.1,11.9,50.5-41.2,44.5ZM487.9,2406.3l8,33.9-49.2,10.6,41.2-44.5ZM369.5,2386.4l-18,85.7-59.1-98.1,77.1,12.4ZM369.7,2386.5l75.9,64-93.9,21.8,18-85.7ZM495.9,2440.4l14.3,60.7-63.3-50.2,49-10.6ZM496.1,2440.3l94.3-20.4-80,81.2-14.4-60.9ZM590.8,2420l21.5,46-101.5,35.2,79.9-81.2ZM496.1,2440.1l-8-34,55.3-59.8,47.3,73.3-94.5,20.4ZM488,2405.9l-12-50.7,55.8-26.6,11.4,17.7-55.2,59.7ZM532,2328.4l49.5-23.6-38.1,41.2-11.3-17.6ZM476,2354.9l19.9-82.1,35.7,55.5-55.7,26.6ZM432.9,2329.2l-63.3,56.9-42.9-121.3,106.1,64.3ZM292.3,2373.5l34.2-108.7,42.9,121.3-77.1-12.4v-.2ZM209,2358.8l82.9,15.1v.2c0,0-13.2,40.1-13.2,40.1l-69.6-55.4ZM278.8,2414.3l13.4-40.3,59,97.9-72.4-57.6ZM278.7,2414.5l72.6,57.8-103.8,36.2,31.2-94ZM351.2,2472.6l-46.3,50.6-57.1-14.6,103.4-36ZM289,2540.6l-33,36.1-33.4-27.3,24.9-40.6,41.5,31.8ZM204.2,2534.5l42.9-25.5-24.7,40.3-18.2-14.9ZM203.8,2534.4l-73,43.4,57.4-56.1,15.6,12.7ZM246.8,2508.9l-42.8,25.4-15.5-12.7,58.3-12.7ZM131.9,2494.6l56.2,27.1-57.8,56.5,1.7-83.5ZM6.7,2636l123-57.2-.2.2.7-.4,37.6,59.9-161-2.5ZM167.9,2638.4l-37.6-59.9,74.8-.9-37.2,60.8ZM130.6,2578.3l73.5-43.7,18.3,14.9-17.1,27.9-74.7.9ZM205.5,2577.4l17-27.7,33.2,27.1-50.2.6ZM256.1,2576.8l33-36.1,24.9,19.1,20.4,54.1-78.4-37.1ZM334.8,2614l-20.2-53.5,46.8,66.1-26.6-12.6ZM334.9,2614.3l26.7,12.6,5,71.3-31.7-84ZM366.8,2698.7l-5-71.7,60.7-5.4-55.7,77.1ZM361.8,2626.7l15-42,56.2,22.3-10.3,14.3-60.9,5.4ZM423,2621.3l10.2-14.2,27.3,10.9-37.6,3.3ZM433.3,2607l7.2-10,20,20.8-27.2-10.8ZM440.7,2596.8l16.9-23.3,3.3,44.3-20.2-21ZM461,2617.6l-3.3-44.4,52.3-71-48.9,115.4ZM457.7,2572.9l-4.6-50.4,57.1-20.9-52.5,71.3ZM453.1,2522.3l-6.5-71.2h.1s63.6,50.3,63.6,50.3l-57.2,20.9ZM510.8,2501.4l101.6-35.2,30.8,65.7-132.3-30.5ZM643.4,2531.8l-30.8-65.7,81.8-28.4-51.1,94.1ZM694.5,2437.4l-82,28.4-21.6-46h0,0s68.3-24,68.3-24l35.2,41.6ZM691.3,2384.3l-32,11.3-76.7-90.5,108.7,79.2ZM659.1,2395.7l-68.2,24-8.8-114.8,77,90.9ZM590.7,2419.4l-47.2-73.2,38.4-41.5,8.8,114.7ZM581.7,2304.5l-49.8,23.8-35.7-55.4,85.5,31.7ZM496.2,2272.6l63.5-41.5,22.1,73.3-85.6-31.7ZM582,2304.3l-22.2-73.4,44.7-29.3,116.4-14.3-139,117ZM720.9,2187.1l-116.3,14.3,12-58.8,104.3,44.6ZM616.6,2142.4l5.6-27.4h.2c0-.1-.2-.2-.2-.2l-45.8-62.8,144.4,134.9-104.2-44.5ZM684.4,2060.9l36.7,125.9-145.2-135.6,108.4,9.7ZM575.4,2051.2l-30.2,27.7-25.2-11.7-.5-24.8,55.9,8.9ZM519.5,2042.1l-1.7-80,57.6,88.9-55.9-8.9ZM575.5,2050.7l-57.6-88.9,45.4-21,12.2,109.9ZM518.1,1961.4l41.4-55.2,3.8,34.3-45.2,20.9ZM563.5,1940.5l-3.8-34.5,4.2-5.6,101-6.7-101.4,46.8ZM665.1,1893.4l-101,6.7,33.1-44,68,37.3ZM597,1856l-33.1,44.1-4.8.3-7.7-69.5,45.6,25ZM597.1,1855.9l-45.6-25,83.8-25.8-38.2,50.9ZM635.4,1804.6l-55.5-13.4,34.6-48,20.9,61.4ZM579.7,1791.2l-82.4-19.9,101.2-74.8,15.8,46.6-34.7,48.2ZM614.6,1742.8l-15.8-46.4,75.8-36.9-60.1,83.3ZM674.8,1659.2l-75.9,37,23.9-79.5,52,42.5ZM674.6,1658.8l-51.8-42.3,9.9-32.8,41.9,75.1ZM632.6,1583.4l-9.9,32.9-67.5-55.2,49.6-27.7,27.9,50ZM632.7,1583.2l-27.8-49.8,51.5-28.8-23.7,78.6ZM656.4,1504.2l-61.4,11.5-20.1-1,33.4-78.8,48.1,68.4ZM608.1,1435.7l-33.5,78.9-23.6-1.2-8.7-103.8,65.8,26.1ZM542.7,1409.5l47.1-2.7,18.2,28.6-65.3-25.9ZM576.2,1385.4l13.5,21.2-47.1,2.7,33.7-23.9ZM542.2,1409.2l-25.1-116.7,58.9,92.7-33.8,24ZM625,1404.8l-16.8,30.6-18.2-28.6,35-2ZM608.4,1435.4l16.8-30.6,106.2-6-123.1,36.7ZM732,1398.5l-106.6,6.1,25.4-46.3,81.2,40.2ZM650.6,1358.2l-25.4,46.4-35.2,2-13.6-21.3,52.9-37.6,21.3,10.5ZM673.7,1316.1l-23,41.9-21.2-10.5,44.2-31.4ZM629,1347.6l-52.8,37.5-59-92.8,111.8,55.3ZM542,1409.3l-141.1,1.2,115.9-118.3,25.2,117.1Z"/>
        <g>
          <path class="cls-2" d="M166.3,2636.1c-1.4.9-1.8,2.7-.9,4.1.9,1.4,2.7,1.8,4.1.9,1.4-.9,1.8-2.7.9-4.1-.9-1.4-2.7-1.8-4.1-.9Z"/>
          <path class="cls-2" d="M312.7,2557.3c-1.4.8-1.8,2.6-.9,4,.8,1.3,2.6,1.7,4,.9,1.3-.8,1.8-2.6.9-4-.8-1.3-2.6-1.7-4-.9Z"/>
          <path class="cls-2" d="M365.4,2696.9c-1.2.7-1.5,2.2-.8,3.4.7,1.1,2.2,1.5,3.4.8,1.2-.7,1.5-2.2.8-3.4-.7-1.1-2.2-1.5-3.4-.8Z"/>
          <path class="cls-2" d="M455.9,2570.5c-1.5.9-1.9,2.9-1,4.4.9,1.5,2.9,2,4.4,1,1.5-.9,1.9-2.9,1-4.4-.9-1.5-2.9-2-4.4-1Z"/>
          <path class="cls-2" d="M641.7,2529.3c-1.5.9-1.9,2.9-1,4.4.9,1.5,2.9,1.9,4.4,1,1.5-.9,1.9-2.9,1-4.4-.9-1.5-2.9-1.9-4.4-1Z"/>
          <path class="cls-2" d="M508.7,2498.7c-1.5.9-1.9,2.9-1,4.4.9,1.5,2.9,1.9,4.4,1,1.5-.9,1.9-2.9,1-4.4-.9-1.5-2.9-1.9-4.4-1Z"/>
          <path class="cls-2" d="M459.2,2615.3c-1.5,1-2,3-1,4.5,1,1.5,3,2,4.5,1,1.5-1,2-3,1-4.5-1-1.5-3-2-4.5-1Z"/>
          <path class="cls-2" d="M360,2624.2c-1.5.9-1.9,2.9-1,4.4.9,1.5,2.9,1.9,4.4,1,1.5-.9,1.9-2.9,1-4.4-.9-1.5-2.9-1.9-4.4-1Z"/>
          <path class="cls-2" d="M254.3,2574.2c-1.5.9-2,2.9-1,4.4.9,1.5,2.9,1.9,4.4,1,1.5-.9,1.9-2.9,1-4.4-.9-1.5-2.9-1.9-4.4-1Z"/>
          <path class="cls-2" d="M187,2519.5c-1.2.7-1.5,2.3-.8,3.4.7,1.2,2.3,1.5,3.4.8,1.2-.7,1.5-2.3.8-3.4-.7-1.2-2.3-1.5-3.4-.8Z"/>
          <path class="cls-2" d="M207.5,2356.7c-1,.6-1.3,2-.7,3,.6,1,2,1.3,3,.7,1-.6,1.3-2,.7-3-.6-1-2-1.3-3-.7Z"/>
          <path class="cls-2" d="M518.9,2098.8c-1.5.9-1.9,2.9-1,4.4.9,1.5,2.9,2,4.4,1,1.5-.9,1.9-2.9,1-4.4-.9-1.5-2.9-1.9-4.4-1Z"/>
          <path class="cls-2" d="M437,2026.6c-1.5.9-1.9,2.9-1,4.4.9,1.5,2.9,2,4.4,1,1.5-.9,2-2.9,1-4.4-.9-1.5-2.9-2-4.4-1Z"/>
          <path class="cls-2" d="M482,1902.9c-1.5.9-1.9,2.9-1,4.4.9,1.5,2.9,2,4.4,1,1.5-.9,1.9-2.9,1-4.4-.9-1.5-2.9-2-4.4-1Z"/>
          <path class="cls-2" d="M663.8,1890.8c-1.5.9-2,2.9-1,4.4.9,1.5,2.9,2,4.4,1,1.5-.9,1.9-2.9,1-4.4-.9-1.5-2.9-1.9-4.4-1Z"/>
          <path class="cls-2" d="M693.6,2435.8c-.9.6-1.2,1.8-.6,2.8.6.9,1.8,1.2,2.8.6.9-.6,1.2-1.8.6-2.8-.6-.9-1.8-1.2-2.8-.6Z"/>
          <path class="cls-2" d="M690.3,2382.4c-1.1.7-1.4,2.1-.7,3.2.7,1.1,2.1,1.4,3.2.7,1.1-.7,1.4-2.1.7-3.1-.7-1.1-2.1-1.4-3.2-.7Z"/>
          <path class="cls-2" d="M245.7,2506c-1.5.9-1.9,2.9-1,4.4.9,1.5,2.9,2,4.4,1,1.5-.9,1.9-2.9,1-4.4-.9-1.5-2.9-1.9-4.4-1Z"/>
          <path class="cls-2" d="M4.5,2633.4c-1.5.9-2,2.9-1,4.4.9,1.5,2.9,1.9,4.4,1,1.5-.9,1.9-2.9,1-4.4-.9-1.5-2.9-1.9-4.4-1Z"/>
          <path class="cls-2" d="M130.1,2491.7c-1.5.9-1.9,2.9-1,4.4.9,1.5,2.9,1.9,4.4,1,1.5-.9,1.9-2.9,1-4.4-.9-1.5-2.9-2-4.4-1Z"/>
          <path class="cls-2" d="M290.5,2371.1c-1.5.9-1.9,2.9-1,4.4.9,1.5,2.9,1.9,4.4,1,1.5-.9,2-2.9,1-4.4-.9-1.5-2.9-1.9-4.4-1Z"/>
          <path class="cls-2" d="M349.9,2469.6c-1.5.9-1.9,2.9-1,4.4.9,1.5,2.9,1.9,4.4,1,1.5-.9,1.9-2.9,1-4.4-.9-1.5-2.9-1.9-4.4-1Z"/>
          <path class="cls-2" d="M389.1,2542.5c-1.5.9-2,2.9-1,4.4.9,1.5,2.9,1.9,4.4,1,1.5-.9,1.9-2.9,1-4.4-.9-1.5-2.9-2-4.4-1Z"/>
          <path class="cls-2" d="M444.5,2447.9c-1.7,1.1-2.2,3.3-1.1,5,1.1,1.7,3.3,2.2,5,1.1,1.7-1.1,2.2-3.3,1.1-5-1.1-1.7-3.3-2.2-5-1.1Z"/>
          <path class="cls-2" d="M589.1,2417.1c-1.5.9-2,2.9-1,4.4.9,1.5,2.9,2,4.4,1,1.5-.9,1.9-2.9,1-4.4-.9-1.5-2.9-1.9-4.4-1Z"/>
          <path class="cls-2" d="M474.2,2352.4c-1.5.9-1.9,2.9-1,4.4.9,1.5,2.9,2,4.4,1,1.5-.9,1.9-2.9,1-4.4-.9-1.5-2.9-1.9-4.4-1Z"/>
          <path class="cls-2" d="M367.9,2383.6c-1.5.9-1.9,2.9-1,4.4.9,1.5,2.9,1.9,4.4,1,1.5-.9,2-2.9,1-4.4-.9-1.5-2.9-1.9-4.4-1Z"/>
          <path class="cls-2" d="M494.2,2269.9c-1.5.9-1.9,2.9-1,4.4.9,1.5,2.9,1.9,4.4,1,1.5-.9,1.9-2.9,1-4.4-.9-1.5-2.9-2-4.4-1Z"/>
          <path class="cls-2" d="M602.8,2198.8c-1.5.9-2,2.9-1,4.4.9,1.5,2.9,1.9,4.4,1,1.5-.9,2-2.9,1-4.4-.9-1.5-2.9-1.9-4.4-1Z"/>
          <path class="cls-2" d="M620.8,2112.9c-1.1.7-1.5,2.2-.8,3.3.7,1.1,2.2,1.4,3.3.7,1.1-.7,1.5-2.2.8-3.3-.7-1.1-2.2-1.5-3.3-.8Z"/>
          <path class="cls-2" d="M325.4,2262.7c-1,.6-1.3,2-.7,3,.7,1,2,1.3,3,.7,1-.7,1.3-2,.7-3-.6-1-2-1.3-3-.7Z"/>
          <path class="cls-2" d="M512.7,2205.1c-1.5.9-1.9,2.9-1,4.4.9,1.5,2.9,1.9,4.4,1,1.5-.9,2-2.9,1-4.4-.9-1.5-2.9-1.9-4.4-1Z"/>
          <path class="cls-2" d="M129.3,2577c-.7.5-1,1.5-.5,2.2.5.8,1.5,1,2.2.5.7-.5,1-1.5.5-2.2-.5-.7-1.5-1-2.2-.5Z"/>
          <path class="cls-2" d="M540.5,1406.7c-.6.4-1,.9-1.3,1.5-.3.8-.3,1.7,0,2.5.3.8,1,1.4,1.8,1.7,1,.4,2,.3,2.9-.3.6-.4,1-.9,1.3-1.5.7-1.6-.2-3.5-1.8-4.1-1-.4-2-.3-2.9.3Z"/>
          <path class="cls-2" d="M469.2,1556.8c-.6.4-1,.9-1.3,1.5-.7,1.6.2,3.5,1.8,4.2,1,.4,2,.3,2.9-.3.6-.4,1-.9,1.3-1.5.3-.8.3-1.7,0-2.4-.3-.8-1-1.4-1.8-1.7-.9-.4-2-.3-2.9.3Z"/>
          <path class="cls-2" d="M344.4,1475.7c-.6.4-1,.9-1.3,1.5-.3.8-.3,1.7,0,2.5.3.8,1,1.4,1.8,1.7,1,.4,2,.3,2.9-.3.6-.4,1-.9,1.3-1.5.3-.8.3-1.7,0-2.4-.3-.8-1-1.4-1.8-1.7-1-.4-2-.3-2.9.3Z"/>
          <path class="cls-2" d="M399.4,1408.5c-.4.3-.8.7-1,1.2-.3.6-.2,1.3,0,1.9.3.6.8,1.1,1.4,1.3.7.3,1.6.2,2.2-.2.4-.3.8-.7,1-1.2.2-.6.2-1.3,0-1.9-.3-.6-.7-1.1-1.4-1.3-.7-.3-1.5-.2-2.2.2Z"/>
          <path class="cls-2" d="M515.2,1289.3c-.6.4-1,.9-1.3,1.5-.3.8-.3,1.7,0,2.5.3.8,1,1.4,1.8,1.7.9.4,2,.3,2.9-.3.6-.4,1-.9,1.3-1.5.3-.8.3-1.7,0-2.5-.3-.8-1-1.4-1.7-1.7-1-.4-2-.3-2.9.3Z"/>
          <path class="cls-2" d="M730.7,1395.9c-.6.4-1,.9-1.3,1.5-.3.8-.3,1.7,0,2.5.3.8,1,1.4,1.8,1.7,1,.4,2,.3,2.9-.3.6-.3,1-.9,1.3-1.5.3-.8.3-1.7,0-2.4-.3-.8-1-1.4-1.8-1.7-1-.4-2-.3-2.9.3Z"/>
          <path class="cls-2" d="M393.2,1554.7c-.6.4-1,.9-1.3,1.5-.3.8-.3,1.6,0,2.5.3.8,1,1.4,1.8,1.7,1,.4,2,.3,2.9-.3.6-.4,1-.9,1.3-1.5.7-1.6-.1-3.5-1.8-4.2-1-.4-2-.3-2.9.3Z"/>
          <path class="cls-2" d="M505.9,1508.4c-.6.4-1.1,1-1.4,1.6-.3.8-.3,1.8,0,2.6.4.8,1,1.5,1.9,1.8,1,.4,2.2.3,3.1-.3.6-.4,1.1-.9,1.4-1.6.7-1.8-.2-3.8-1.9-4.5-1-.4-2.2-.3-3.1.3Z"/>
          <path class="cls-2" d="M593.3,1513.1c-.6.4-1,.9-1.3,1.5-.3.8-.3,1.7,0,2.4.3.8,1,1.4,1.8,1.7.9.4,2,.3,2.9-.3.6-.4,1-.9,1.3-1.5.6-1.6-.2-3.5-1.8-4.1-1-.4-2-.3-2.9.2Z"/>
          <path class="cls-2" d="M673.3,1656.5c-.6.4-1,.9-1.3,1.5-.7,1.6.2,3.5,1.8,4.1,1,.4,2,.3,2.9-.3.6-.4,1-.9,1.3-1.5.6-1.6-.2-3.5-1.8-4.1-1-.4-2-.3-2.9.2Z"/>
          <path class="cls-2" d="M549.6,1828.1c-.6.4-1,.9-1.3,1.5-.3.8-.3,1.7,0,2.4.3.8,1,1.4,1.8,1.7,1,.4,2,.3,2.9-.3.6-.4,1-.9,1.3-1.5.3-.8.3-1.6,0-2.4-.3-.8-1-1.4-1.8-1.7-1-.4-2-.3-2.9.3Z"/>
          <path class="cls-2" d="M574.5,2049.3c-.4.2-.7.6-.9,1-.4,1.1.1,2.3,1.2,2.8.6.3,1.3.2,1.9-.2.4-.2.7-.6.9-1,.2-.5.2-1.1,0-1.7-.2-.5-.7-.9-1.2-1.1-.6-.3-1.3-.2-1.9.2Z"/>
          <path class="cls-2" d="M682.8,2058.1c-.6.4-1,.9-1.3,1.5-.3.8-.3,1.7,0,2.5.3.8,1,1.4,1.8,1.7,1,.4,2,.3,2.9-.3.6-.4,1-.9,1.3-1.5.6-1.6-.2-3.5-1.8-4.1-1-.4-2-.3-2.9.3Z"/>
          <path class="cls-2" d="M719.6,2184.5c-.6.4-1,.9-1.3,1.5-.3.8-.3,1.7,0,2.4.3.8,1,1.4,1.7,1.7,1,.4,2,.3,2.9-.3.6-.4,1-.9,1.3-1.5.3-.8.3-1.7,0-2.4-.3-.8-1-1.4-1.8-1.7-1-.4-2-.3-2.9.3Z"/>
          <path class="cls-2" d="M580.2,2301.8c-.6.4-1,.9-1.3,1.5-.6,1.6.2,3.5,1.8,4.2,1,.4,2,.3,2.9-.3.6-.4,1-.9,1.3-1.5.3-.8.3-1.7,0-2.5-.3-.8-1-1.4-1.8-1.7-1-.4-2-.3-2.9.3Z"/>
          <path class="cls-2" d="M553.7,1559.2c-.4.3-.7.7-.9,1.1-.5,1.2.1,2.6,1.3,3.1.7.3,1.5.2,2.1-.2.4-.3.7-.7.9-1.1.2-.6.2-1.2,0-1.8-.3-.6-.7-1-1.3-1.3-.7-.3-1.5-.2-2.1.2Z"/>
          <path class="cls-2" d="M672.9,1314c-.4.2-.7.6-.8,1-.2.5-.2,1.1,0,1.6.2.5.6.9,1.1,1.1.6.2,1.3.2,1.9-.2.4-.2.7-.6.8-1,.4-1.1,0-2.3-1.1-2.7-.6-.2-1.3-.2-1.9.2Z"/>
          <path class="cls-2" d="M655.1,1502c-.5.3-.8.7-1.1,1.3-.3.7-.2,1.4,0,2,.3.7.8,1.2,1.5,1.4.8.3,1.7.2,2.4-.2.5-.3.8-.7,1.1-1.3.5-1.4-.1-2.9-1.5-3.5-.8-.3-1.7-.2-2.4.2Z"/>
          <path class="cls-2" d="M597,1693.7c-.6.4-1,.9-1.3,1.5-.7,1.6.1,3.5,1.8,4.1,1,.4,2,.3,2.9-.3.6-.4,1-.9,1.3-1.5.7-1.6-.2-3.5-1.8-4.1-1-.4-2-.3-2.9.3Z"/>
          <path class="cls-2" d="M634.2,1802.6c-.5.3-.8.7-1,1.2-.2.6-.2,1.3,0,2,.3.6.8,1.1,1.4,1.4.8.3,1.6.2,2.3-.2.5-.3.8-.7,1-1.2.3-.6.2-1.3,0-2-.3-.6-.8-1.1-1.4-1.4-.8-.3-1.6-.2-2.3.2Z"/>
          <path class="cls-2" d="M495.8,1769.1c-.5.3-.8.7-1,1.2-.3.6-.2,1.3,0,2,.3.6.8,1.1,1.4,1.4.8.3,1.6.2,2.3-.2.5-.3.8-.7,1-1.2.3-.6.2-1.3,0-2-.3-.6-.8-1.1-1.4-1.4-.8-.3-1.6-.2-2.3.2Z"/>
          <path class="cls-2" d="M516.6,1960c-.4.2-.7.6-.8,1-.2.5-.2,1.1,0,1.6.2.5.6.9,1.1,1.1.6.2,1.3.2,1.9-.2.4-.2.7-.6.8-1,.4-1,0-2.3-1.2-2.7-.6-.2-1.3-.2-1.9.2Z"/>
          <path class="cls-2" d="M606.5,1432.9c-.6.4-1,.9-1.3,1.5-.6,1.6.2,3.5,1.8,4.1,1,.4,2,.3,2.9-.3.6-.4,1-.9,1.3-1.5.3-.8.3-1.7,0-2.5-.3-.8-1-1.4-1.8-1.7-1-.4-2-.3-2.9.3Z"/>
        </g>
        <g>
          <path class="cls-2" d="M11.5,2632.7c1.8,2.9.9,6.8-2,8.6-2.9,1.8-6.8.9-8.6-2-1.8-2.9-.9-6.8,2-8.6,2.9-1.8,6.8-.9,8.6,2ZM11.3,2632.9c-1.8-2.8-5.5-3.7-8.3-1.9-2.8,1.8-3.7,5.5-1.9,8.3,1.8,2.8,5.5,3.7,8.3,1.9,2.8-1.8,3.7-5.5,1.9-8.3Z"/>
          <path class="cls-2" d="M137.1,2491.1c1.8,2.9.9,6.8-2,8.6-2.9,1.8-6.8.9-8.6-2-1.8-2.9-.9-6.8,2-8.6,2.9-1.8,6.8-.9,8.6,2ZM136.9,2491.2c-1.8-2.8-5.5-3.7-8.3-1.9-2.8,1.8-3.7,5.5-1.9,8.3,1.8,2.8,5.5,3.7,8.3,1.9,2.8-1.8,3.7-5.5,1.9-8.3Z"/>
          <path class="cls-2" d="M261.2,2573.6c1.8,2.9.9,6.8-2,8.6-2.9,1.8-6.8.9-8.6-2-1.8-2.9-.9-6.8,2-8.6,2.9-1.8,6.8-.9,8.6,2ZM261.1,2573.7c-1.8-2.8-5.5-3.7-8.3-1.9-2.8,1.8-3.7,5.5-1.9,8.3,1.8,2.8,5.5,3.7,8.3,1.9,2.8-1.8,3.7-5.5,1.9-8.3Z"/>
          <path class="cls-2" d="M366.9,2623.6c1.8,2.9.9,6.8-2,8.6-2.9,1.8-6.8.9-8.6-2-1.8-2.9-.9-6.8,2-8.6,2.9-1.8,6.8-.9,8.6,2ZM366.8,2623.7c-1.8-2.8-5.5-3.7-8.3-1.9-2.8,1.8-3.7,5.5-1.9,8.3,1.8,2.8,5.5,3.7,8.3,1.9,2.8-1.7,3.7-5.5,1.9-8.3Z"/>
          <path class="cls-2" d="M396,2541.9c1.8,2.9.9,6.8-2,8.6-2.9,1.8-6.8,1-8.6-2-1.8-2.9-.9-6.8,2-8.6,2.9-1.8,6.8-.9,8.6,2ZM395.9,2542c-1.8-2.8-5.5-3.7-8.3-1.9-2.8,1.8-3.7,5.5-1.9,8.3,1.8,2.8,5.5,3.7,8.3,1.9,2.8-1.8,3.7-5.5,1.9-8.3Z"/>
          <path class="cls-2" d="M252.7,2505.4c1.8,2.9.9,6.8-2,8.6-2.9,1.8-6.8.9-8.6-2-1.8-2.9-.9-6.8,2-8.6,2.9-1.8,6.8-.9,8.6,2ZM252.5,2505.5c-1.8-2.8-5.5-3.7-8.3-1.9-2.8,1.8-3.7,5.5-1.9,8.3,1.8,2.8,5.5,3.7,8.3,1.9,2.8-1.8,3.7-5.5,1.9-8.3Z"/>
          <path class="cls-2" d="M648.6,2528.7c1.8,2.9.9,6.8-2,8.6-2.9,1.8-6.8.9-8.6-2-1.8-2.9-.9-6.8,2-8.6,2.9-1.8,6.8-.9,8.6,2ZM648.4,2528.8c-1.8-2.8-5.5-3.7-8.3-1.9-2.8,1.8-3.7,5.5-1.9,8.3,1.8,2.8,5.5,3.7,8.3,1.9,2.8-1.8,3.7-5.5,1.9-8.3Z"/>
          <path class="cls-2" d="M297.4,2370.5c1.8,2.9.9,6.8-2,8.6-2.9,1.8-6.8.9-8.6-2-1.8-2.9-.9-6.8,2-8.6,2.9-1.8,6.8-.9,8.6,2ZM297.3,2370.6c-1.8-2.8-5.5-3.7-8.3-1.9-2.8,1.8-3.7,5.5-1.9,8.3,1.8,2.8,5.5,3.7,8.3,1.9,2.8-1.8,3.7-5.5,1.9-8.3Z"/>
          <path class="cls-2" d="M519.7,2204.5c1.8,2.9.9,6.8-2,8.6-2.9,1.8-6.7.9-8.6-2-1.8-2.9-.9-6.8,2-8.6,2.9-1.8,6.8-.9,8.6,2ZM519.5,2204.6c-1.8-2.8-5.5-3.7-8.3-1.9-2.8,1.8-3.7,5.5-1.9,8.3,1.8,2.8,5.5,3.7,8.3,1.9,2.8-1.8,3.7-5.5,1.9-8.3Z"/>
          <path class="cls-2" d="M443.9,2026c1.8,2.9.9,6.7-2,8.6-2.9,1.8-6.7.9-8.6-2-1.8-2.9-.9-6.8,2-8.6,2.9-1.8,6.8-.9,8.6,2ZM443.8,2026.1c-1.8-2.8-5.5-3.7-8.3-1.9-2.8,1.8-3.7,5.5-1.9,8.3,1.8,2.8,5.5,3.7,8.3,1.9,2.8-1.8,3.7-5.5,1.9-8.3Z"/>
          <path class="cls-2" d="M689.7,2057.5c1.8,2.9.9,6.8-2,8.6-2.9,1.8-6.8,1-8.6-2-1.8-2.9-.9-6.8,2-8.6,2.9-1.8,6.8-.9,8.6,2ZM689.6,2057.6c-1.8-2.8-5.5-3.7-8.3-1.9-2.8,1.8-3.7,5.5-1.9,8.3,1.8,2.8,5.5,3.7,8.3,1.9,2.8-1.8,3.7-5.5,1.9-8.3Z"/>
          <path class="cls-2" d="M670.8,1890.2c1.8,2.9.9,6.8-2,8.6-2.9,1.8-6.8.9-8.6-2-1.8-2.9-.9-6.8,2-8.6,2.9-1.8,6.8-.9,8.6,2ZM670.6,1890.3c-1.8-2.8-5.5-3.7-8.3-1.9-2.8,1.8-3.7,5.5-1.9,8.3,1.8,2.8,5.5,3.7,8.3,1.9,2.8-1.8,3.7-5.5,1.9-8.3Z"/>
          <path class="cls-2" d="M556.6,1827.5c1.8,2.9.9,6.8-2,8.6-2.9,1.8-6.8.9-8.6-2-1.8-2.9-.9-6.8,2-8.6,2.9-1.8,6.8-.9,8.6,2ZM556.4,1827.6c-1.8-2.8-5.5-3.7-8.3-1.9-2.8,1.8-3.7,5.5-1.9,8.3,1.8,2.8,5.5,3.7,8.3,1.9,2.8-1.8,3.7-5.5,1.9-8.3Z"/>
          <path class="cls-2" d="M680.4,1656.1c1.8,2.9.9,6.8-2,8.6-2.9,1.8-6.8.9-8.6-2-1.8-2.9-.9-6.8,2-8.6,2.9-1.8,6.8-.9,8.6,2ZM680.2,1656.2c-1.8-2.8-5.5-3.7-8.3-1.9-2.8,1.8-3.7,5.5-1.9,8.3,1.8,2.8,5.5,3.7,8.3,1.9,2.8-1.8,3.7-5.5,1.9-8.3Z"/>
          <path class="cls-2" d="M600.2,1512.5c1.8,2.9.9,6.8-2,8.6-2.9,1.8-6.8.9-8.6-2-1.8-2.9-.9-6.8,2-8.6,2.9-1.8,6.8-.9,8.6,2ZM600.1,1512.6c-1.8-2.8-5.5-3.7-8.3-1.9-2.8,1.8-3.7,5.5-1.9,8.3,1.8,2.8,5.5,3.7,8.3,1.9,2.8-1.8,3.7-5.5,1.9-8.3Z"/>
          <path class="cls-2" d="M400.1,1554.1c1.8,2.9,1,6.8-2,8.6-2.9,1.8-6.8.9-8.6-2-1.8-2.9-.9-6.8,2-8.6,2.9-1.8,6.8-.9,8.6,2ZM400,1554.3c-1.8-2.8-5.5-3.7-8.3-1.9-2.8,1.8-3.7,5.5-1.9,8.3,1.8,2.8,5.5,3.7,8.3,1.9,2.8-1.8,3.7-5.5,1.9-8.3Z"/>
          <path class="cls-2" d="M737.7,1395.3c1.8,2.9.9,6.8-2,8.6-2.9,1.8-6.8.9-8.6-2-1.8-2.9-.9-6.8,2-8.6,2.9-1.8,6.8-.9,8.6,2ZM737.5,1395.4c-1.8-2.8-5.5-3.7-8.3-1.9-2.8,1.8-3.7,5.5-1.9,8.3,1.8,2.8,5.5,3.7,8.3,1.9,2.8-1.8,3.7-5.5,1.9-8.3Z"/>
          <path class="cls-2" d="M547.5,1406.1c1.8,2.9.9,6.8-2,8.6-2.9,1.8-6.8.9-8.6-2-1.8-2.9-.9-6.8,2-8.6,2.9-1.8,6.8-.9,8.6,2ZM547.3,1406.2c-1.8-2.8-5.5-3.7-8.3-1.9-2.8,1.8-3.7,5.5-1.9,8.3,1.8,2.8,5.5,3.7,8.3,1.9,2.8-1.8,3.7-5.5,1.9-8.3Z"/>
          <path class="cls-2" d="M522.2,1288.7c1.8,2.9.9,6.8-2,8.6-2.9,1.8-6.8.9-8.6-2-1.8-2.9-.9-6.8,2-8.6,2.9-1.8,6.8-.9,8.6,2ZM522,1288.8c-1.8-2.8-5.5-3.7-8.3-1.9-2.8,1.8-3.6,5.5-1.9,8.3,1.8,2.8,5.5,3.7,8.3,1.9,2.8-1.8,3.7-5.5,1.9-8.3Z"/>
          <path class="cls-2" d="M587.4,2301c1.8,2.9.9,6.8-2,8.6-2.9,1.8-6.8.9-8.6-2-1.8-2.9-.9-6.8,2-8.6,2.9-1.8,6.8-.9,8.6,2ZM587.3,2301.1c-1.8-2.8-5.5-3.7-8.3-1.9-2.8,1.8-3.7,5.5-1.9,8.3,1.8,2.8,5.5,3.7,8.3,1.9,2.8-1.8,3.7-5.5,1.9-8.3Z"/>
          <path class="cls-2" d="M726.6,2183.9c1.8,2.9.9,6.8-2,8.6-2.9,1.8-6.8.9-8.6-2-1.8-2.9-.9-6.8,2-8.6,2.9-1.8,6.8-.9,8.6,2ZM726.4,2184c-1.8-2.8-5.5-3.7-8.3-1.9-2.8,1.8-3.7,5.5-1.9,8.3,1.8,2.8,5.5,3.7,8.3,1.9,2.8-1.8,3.7-5.5,1.9-8.3Z"/>
          <path class="cls-2" d="M374.9,2383c1.8,2.9,1,6.8-2,8.6-2.9,1.8-6.8.9-8.6-2-1.8-2.9-1-6.8,2-8.6,2.9-1.8,6.8-.9,8.6,2ZM374.7,2383.1c-1.8-2.8-5.5-3.7-8.3-1.9-2.8,1.8-3.7,5.5-1.9,8.3,1.8,2.8,5.5,3.7,8.3,1.9,2.8-1.8,3.7-5.5,1.9-8.3Z"/>
          <path class="cls-2" d="M596.1,2416.5c1.8,2.9.9,6.8-2,8.6-2.9,1.8-6.8.9-8.6-2-1.8-2.9-.9-6.8,2-8.6,2.9-1.8,6.8-1,8.6,2ZM595.9,2416.6c-1.8-2.8-5.5-3.7-8.3-1.9-2.8,1.8-3.7,5.5-1.9,8.3,1.8,2.8,5.5,3.7,8.3,1.9,2.8-1.8,3.7-5.5,1.9-8.3Z"/>
        </g>
      </g>
    </g>
  </g>
</svg>