<?xml version="1.0" encoding="UTF-8"?>
<svg id="Ebene_1" data-name="Ebene 1" xmlns="http://www.w3.org/2000/svg" version="1.1" viewBox="0 0 1389.4 1430.5">
  <defs>
    <style>
      .cls-1 {
        fill: #a6a6a6;
      }

      .cls-1, .cls-2 {
        stroke-width: 0px;
      }

      .cls-2 {
        fill: #4b4b4b;
      }

      .cls-3 {
        opacity: .5;
      }

      .cls-4 {
        opacity: .5;
      }
    </style>
  </defs>
  <g class="cls-3">
    <g class="cls-4">
      <g>
        <path class="cls-1" d="M741.4-289.3l-88.5,50.7-37.9-23.6-.3-.2,21.2,33.6-64.3,36.8-.3.2h.3s102.6,24,102.6,24l-35.8,58h-.5c0,0,.4.1.4.1l23.3,63.1-30.6,63.6h0c0,0,.1.1.1.1l53.2,65.1-14,51.2h0s33.7,39.7,33.7,39.7l-53.9,34h.3s85.2,33.3,85.2,33.3l-4.5,90.3-87.9,13.2h0s-23.7,104.6-23.7,104.6l-.3.3.4-.2,118.9,88.4-85.1,70.3h-.1c0,.1,26.9,7.8,26.9,7.8l-26.6,35.6h-.2s46.5,74.4,46.5,74.4h0c0,0,106.5-31.3,106.5-31.3h0c0,.1.1,0,.1,0l45.9,92.3h0c0,.1.1,0,.1,0l31.2.9,49.3,60.2h0c0,.1,21.9-70.6,21.9-70.6l62.1-34.1,41.2-2,33.4,47.8h0s131.3-10,131.3-10h.4s-103.8-40.9-103.8-40.9h0s0,0,0,0l-5.5-68.1h0s-.2,0-.2,0l-44.4,24.8h-.3s-48.4-7.6-48.4-7.6l-30-75,54.1-48.7h.3c0,0-.7,0-.7,0l-66.7,16.4-33.3-87.1h0s-129.4-30.7-129.4-30.7l26.7-154.9h.1s-.1-.1-.1-.1h0c0-.1,0,0,0,0l-42.7-98.2h0s-61.4-.4-61.4-.4l2.8-57h0s0,0,0,0h0s0,0,0,0l-25-30.6,66.2-20.3h-.1c0,0-86.2-56.1-86.2-56.1l-23.4-63.6,52.3-48.2h0s0,0,0,0l68.2-5.5h0c0,0,0,0,0,0l24.4-18,37.2,12.6.4.5v-.3s-.2-.3-.2-.3l35.5-66.3v-.3c.1,0,.1-.2.1-.2l-39.5,29.2-8.2-81.4.2-.4-.3.3-100.2-90.6v-.4c0,0-.2.4-.2.4ZM841.6-198.4l-55.3,58.7-59.3-52.8,114.6-5.9ZM853.5-80v.3c0,0-24.3-21.7-24.3-21.7l20.7-15.3,3.7,37-.2-.2ZM816.5-92.2l-15-5.1,8.4-21.1,19.1,17-12.4,9.2ZM801.4-97.4l-41.4-14.1,26.3-27.9,23.5,20.9-8.4,21.1ZM759.6-111.3l-35.7,42.5.9-38.6,34.8-3.9ZM682-88.8l-43-20.8,50,6.2-7,14.5ZM689.1-103.3l34.3,34.5-41.3-20,7-14.5ZM689.3-103.4l16.2-1.8,18,36.3-34.3-34.4ZM705.7-105.2l19-2.1-.9,38.5-18.1-36.4ZM724.9-107.5l2-84.8,59.3,52.8-26.3,28h0c0,0-34.9,4-34.9,4ZM841.6-198.1l-31.7,79.4-23.4-20.9,55.2-58.6ZM849.9-116.9l-20.8,15.4-19.1-17,31.8-79.6,8.2,81.2ZM853.9-79.7l-3.7-37.1,39.1-29-35.4,66.1ZM816.7-92.1l12.4-9.2,24.3,21.7-36.7-12.5ZM792.3-74.3l9.1-22.9,14.9,5.1-24,17.8ZM792.1-74.2l-32-37,41.2,14-9.2,23ZM724.1-68.6l35.8-42.7,32.1,37.2-67.9,5.5ZM739.9,150.4l-69.3-16.9,44.4-13.6,24.9,30.5ZM737.2,207.7l-.2,4.1-3.5-4.1h3.7ZM841.2,306l-67.3-50.8-36.7-43.2.2-4.3,61.3.4,42.6,98ZM776.5,320.6l-2.6-65.2,67.3,50.8-64.7,14.4ZM840.8,306.5l-63.5,34.5-.8-20.2,64.3-14.3ZM778.3,369.5l10.2,85.5-25.8-19.7,15.6-65.8ZM762.6,435.2l-46-35.1,61.7-30.9-15.6,66ZM788.4,455.1l-30.3-.3,4.6-19.3,25.7,19.6ZM788.6,455.2l18.1,51.5-53.6-30.6,5-21.1,30.5.3ZM752.9,476l-37.5-21.4,42.4.4-5,21ZM715.1,454.4l-12.6-47.3,13.8-6.9,46.2,35.2-4.6,19.4-42.8-.4ZM702.5,406.9l-5.8-21.8,19.5,14.9-13.7,6.9ZM696.7,384.9l81-15.7-61.4,30.7-19.7-15ZM697,384.7l60.2-32.7,20.9,16.9-81.1,15.7ZM696.8,384.7l34.4-53.8,26,21-60.3,32.7ZM777.1,341.2l1.1,27.6-20.8-16.9,19.7-10.7ZM777.3,341.2l63.6-34.5-62.5,62.2-1.1-27.7ZM814.6,461.2l-25.9-6.1-10.3-86h0s0,0,0,0l62.8-62.5-26.7,154.7ZM814.6,461.4l-7.8,45.1-18-51.3,25.8,6.1ZM943.6,492l-136.7,14.8,7.8-45.4,128.9,30.5ZM943.8,492.1l-83.1,57.5-53.7-42.7,136.8-14.8ZM934.3,662.6l39.9,38.7-17.7,5.7-22.2-44.4ZM956.4,707l-50.5,16.2,28.1-60.8,22.4,44.6ZM1020.1,686.8l-32,27.7-13.5-13.1,45.5-14.6ZM988,714.6l-19.3,16.7-12.1-24.2,17.8-5.7,13.6,13.2ZM968.6,731.4l-49.4,23.2-13.3-31.2,50.6-16.2,12.1,24.2ZM968.5,731.6l-35,56.5-14.2-33.4,49.3-23.1ZM874.3,775.6l-6.4-7.8,37.8-44.3,13.3,31.1-44.6,20.9ZM867.8,767.6l-14.9-18.2,52.5-25.8-37.6,44ZM852.9,749.2l1.3-41.2,51.4,15.3-52.6,25.9ZM854.1,707.8l1.8-58.1,49.6,73.4-51.4-15.3ZM856,649.5l.4-.3,77.6,13.1-28.2,60.9-49.7-73.7ZM860.7,549.9l54.1,43.1-87.4-20,33.3-23.1ZM827.2,572.8l-20.2-65.7,53.6,42.7-33.3,23.1ZM914.9,593.1l-58.6,55.8h-.2s0,0,0,0l-.2.2-28.5-76,87.6,20ZM820,615l7.2-41.7,28.4,75.8-35.6-34.2ZM855.6,649.3l-40.5-6.2,4.8-27.9,35.6,34.1ZM977.3,579.3l-43.3,82.7-18.8-68.8,62.1-13.9ZM933.9,662.1l-77.4-13.1,58.6-55.7,18.9,68.8ZM855.4,649.5l-49,43.9,8.7-50.1,40.3,6.2ZM806.2,693.5l-69-62.1,77.7,11.9-8.7,50.2ZM806,693.4l-84.2-23.6,15.2-38.4,69,62.1ZM737.1,631.1l34.8-62,47.9,45.9-4.9,28-77.8-12ZM772,569l8.4-14.9,46.7,18.9-7.2,41.8-47.8-45.8ZM771.9,568.9l-33-31.6,41.4,16.8-8.4,14.9ZM780.5,554l26.3-46.9,20.2,65.7-46.6-18.9ZM943.9,492.2l-28.9,100.7-54.2-43.2,83.1-57.5ZM977.2,579.1l-62,13.9,28.9-100.7,33.2,86.7v.2ZM990.4,611.3l-12.8-31.9v-.2s66.6-16.3,66.6-16.3l-53.9,48.5ZM934.3,661.8l43.1-82.5,12.9,32.1-56,50.4ZM1020.3,686.4l-86.1-24.3,56.2-50.5,30,74.9ZM1020.2,686.6l-45.7,14.7-40.1-38.9,85.8,24.2ZM1020.5,686.7l22.2,31.8-25.8,23.8-28.6-27.7,32.2-27.9ZM1042.8,718.4l-22-31.6,36.1,18.6-14.1,13ZM1069.2,694.3l49.4,42.8-61.5-31.7,12-11.1ZM1069,694.2l-12,11.1-36-18.6,48,7.5ZM1119.1,737.3l-49.8-43.1,44.3-24.8,5.5,67.8ZM1091.6,788.2l27.6-50.6.6.3h-.2c0-.1,102.8,40.3,102.8,40.3l-130.8,10ZM1058.2,740.5l60.8-3-27.6,50.5-33.2-47.6ZM1058.1,740.3l-15.2-21.8,14.1-13,61.9,31.9-60.7,3ZM1017.1,742.3l25.7-23.7,15.2,21.7-40.8,2ZM954.8,776.4l13.9-44.9,19.3-16.8,28.6,27.7-61.9,34ZM933.6,788l34.8-56-13.8,44.5-21,11.5ZM932.9,846.6l.6-58.2,21.1-11.6-21.6,69.8ZM883.7,787l49.6,1.4-.6,58.5-49.1-59.9ZM883.5,786.8l-9.1-11.1,44.6-20.9,14.2,33.4-49.7-1.4ZM852.6,785.9l21.7-10.2,9,11-30.7-.9ZM852.6,785.8l15.3-17.9,6.4,7.7-21.6,10.1ZM852.3,785.8l.5-36.2,14.9,18.1-15.4,18ZM806.7,694.2l46,55.2-.5,36.3-45.5-91.4ZM806.5,693.8l47.4,14.2-1.3,41.2-46.2-55.3ZM806.5,693.6l49.2-44.1h.1s-1.8,58.3-1.8,58.3l-47.5-14.2ZM699.9,724.9l21.8-54.9,84.3,23.6-106.1,31.3ZM653.6,650.9l67.9,19.1-21.8,54.9-46.1-74ZM680.2,615.1l56.7,16.2h0s0,0,0,0l-15.3,38.5-68-19.1,26.6-35.6ZM738,537.6l-57.9,77.3-26.6-7.6,84.5-69.8ZM738.4,537.3l-1.5,93.8-56.6-16.1,58.1-77.7ZM738.6,537.2l33.2,31.8-34.7,61.8,1.5-93.6ZM806.6,507.1l-26.3,46.8-41.6-16.9,67.9-30ZM738.6,536.9l14.4-60.7,53.6,30.6-68,30ZM619.7,448.7l95.4,5.9,37.8,21.6-14.4,60.8-118.7-88.2ZM702.3,407.1l12.6,47.2-95.2-5.9,82.6-41.4ZM619.8,448.3l110.7-116.8-34.1,53.3h-.1s.1.1.1.1l5.9,22-82.5,41.3ZM730.9,330.9l-111.3,117.4,23.7-104.2,87.7-13.2ZM776.3,320.8l.8,20.2-19.9,10.8-25.9-21,45-10ZM731.3,330.6l42.4-75.1,2.6,65.1-45,10ZM735.7,240.5l38,14.8-42.5,75.1,4.5-89.9ZM735.7,240.3l1.4-28.1,36.4,42.8-37.8-14.8ZM650.8,207.2l82.4.5,3.7,4.4-1.4,28.2-84.7-33.1ZM704.1,173.3l29,34.1-82.4-.5,53.4-33.7ZM740,150.7l-2.8,56.8h-3.9s-29.1-34.3-29.1-34.3l35.8-22.6ZM670.5,133.7l69.4,16.9-35.8,22.6-33.6-39.5ZM684.4,82.4l30.5,37.3-44.4,13.6,14-50.9ZM684.4,82.2l10.6-38.6,86,55.8-66,20.2-30.6-37.4ZM631.4,17.3l63.5,26.3-10.5,38.5-52.9-64.8ZM671.4-20l23.4,63.4-63.6-26.3,40.2-37.1ZM661.7-46.4l9.6,26.2-40,36.9,30.4-63.1ZM682.1-88.6l41.7,20.1-52.2,48.2-9.7-26.3,20.2-42ZM638.6-109.6l43.3,20.9-20.1,41.9-23.1-62.8ZM674.4-167.8l31.1,62.4-16.3,1.8-50.5-6.3,35.8-58ZM726.7-192.4l-2,84.8-19.1,2.2-31.1-62.5,52.2-24.4ZM674.6-168.1l13.4-24.1h38.4c0-.1-51.8,24.1-51.8,24.1ZM726.5-192.6h-38.4c0,.1,9.9-17.8,9.9-17.8l28.5,17.8ZM698-210.5l43.3-78.2-14.6,96.1-28.7-17.9ZM687.8-192.3l-13.4,24.1-15.2-24h28.5ZM572.4-191.9l86.7-.3,15.2,24.1-101.8-23.8ZM636-228.7l22.9,36.4-87,.3,64-36.7ZM653-238.4l44.9,27.9-10,18h-28.7c0,.1-23-36.3-23-36.3l16.8-9.6ZM652.8-238.5l-16.7,9.6-20.8-32.9,37.5,23.4ZM741.3-289l-43.4,78.4-44.8-27.9,88.1-50.5ZM741.6-289l100.1,90.5-114.7,5.9,14.7-96.4Z"/>
        <g>
          <path class="cls-2" d="M1092.6,786.1c1.2.6,1.6,2.1,1,3.3-.6,1.2-2.1,1.6-3.3,1-1.2-.6-1.6-2.1-1-3.3.6-1.2,2.1-1.6,3.3-1Z"/>
          <path class="cls-2" d="M969.8,729.4c1.1.6,1.6,2,.9,3.2-.6,1.1-2,1.5-3.2.9-1.1-.6-1.6-2-.9-3.2.6-1.1,2-1.6,3.2-.9Z"/>
          <path class="cls-2" d="M933.8,845.4c1,.5,1.3,1.7.8,2.7-.5,1-1.7,1.3-2.7.8-1-.5-1.3-1.7-.8-2.7.5-1,1.7-1.3,2.7-.8Z"/>
          <path class="cls-2" d="M854,747.1c1.3.7,1.7,2.3,1,3.5-.7,1.3-2.3,1.7-3.5,1-1.3-.7-1.7-2.3-1-3.5.7-1.3,2.3-1.7,3.5-1Z"/>
          <path class="cls-2" d="M701,722.7c1.3.7,1.7,2.3,1,3.5-.7,1.3-2.3,1.7-3.5,1-1.3-.7-1.7-2.3-1-3.5.7-1.3,2.3-1.7,3.5-1Z"/>
          <path class="cls-2" d="M807.5,691.3c1.3.7,1.7,2.3,1,3.5-.7,1.3-2.3,1.7-3.5,1-1.3-.7-1.7-2.3-1-3.5.7-1.3,2.3-1.7,3.5-1Z"/>
          <path class="cls-2" d="M853.5,783.7c1.3.7,1.8,2.3,1.1,3.6-.7,1.3-2.3,1.8-3.6,1.1-1.3-.7-1.8-2.3-1.1-3.6.7-1.3,2.3-1.8,3.6-1.1Z"/>
          <path class="cls-2" d="M934.7,786c1.3.7,1.7,2.3,1,3.5-.7,1.3-2.3,1.7-3.5,1-1.3-.7-1.7-2.3-1-3.5.7-1.3,2.3-1.7,3.5-1Z"/>
          <path class="cls-2" d="M1018.1,740.1c1.3.7,1.7,2.3,1,3.5-.7,1.3-2.3,1.7-3.5,1-1.3-.7-1.7-2.3-1-3.5.7-1.3,2.3-1.7,3.5-1Z"/>
          <path class="cls-2" d="M1070.1,692.4c1,.5,1.4,1.8.8,2.7-.5,1-1.8,1.3-2.8.8-1-.5-1.4-1.8-.8-2.8.5-1,1.8-1.3,2.8-.8Z"/>
          <path class="cls-2" d="M1045.5,561.1c.9.5,1.2,1.6.7,2.4-.5.9-1.6,1.2-2.4.7-.9-.5-1.2-1.5-.7-2.4.5-.9,1.6-1.2,2.4-.7Z"/>
          <path class="cls-2" d="M779.6,366.7c1.3.7,1.7,2.3,1,3.5-.7,1.3-2.3,1.7-3.5,1-1.3-.7-1.7-2.3-1-3.5.7-1.3,2.3-1.7,3.5-1Z"/>
          <path class="cls-2" d="M842.7,304c1.3.7,1.7,2.3,1,3.5-.7,1.3-2.3,1.7-3.5,1-1.3-.7-1.7-2.3-1-3.5.7-1.3,2.3-1.7,3.5-1Z"/>
          <path class="cls-2" d="M799.9,205.7c1.3.7,1.7,2.3,1,3.5-.7,1.3-2.3,1.7-3.5,1-1.3-.7-1.7-2.3-1-3.5.7-1.3,2.3-1.7,3.5-1Z"/>
          <path class="cls-2" d="M651.6,204.8c1.3.7,1.7,2.3,1,3.5-.7,1.3-2.3,1.7-3.5,1-1.3-.7-1.7-2.3-1-3.5.7-1.3,2.3-1.7,3.5-1Z"/>
          <path class="cls-2" d="M654.2,649.3c.8.4,1.1,1.4.7,2.2-.4.8-1.4,1.1-2.2.6-.8-.4-1.1-1.4-.7-2.2.4-.8,1.4-1.1,2.2-.7Z"/>
          <path class="cls-2" d="M654.2,605.7c.9.5,1.2,1.6.7,2.5-.5.9-1.6,1.2-2.5.7-.9-.5-1.2-1.6-.7-2.5.5-.9,1.6-1.2,2.5-.7Z"/>
          <path class="cls-2" d="M1021.7,684.3c1.3.7,1.7,2.3,1,3.5-.7,1.3-2.3,1.7-3.5,1-1.3-.7-1.7-2.3-1-3.5.7-1.3,2.3-1.7,3.5-1Z"/>
          <path class="cls-2" d="M1224,776c1.3.7,1.7,2.3,1,3.5-.7,1.3-2.3,1.7-3.5,1-1.3-.7-1.7-2.3-1-3.5.7-1.3,2.3-1.7,3.5-1Z"/>
          <path class="cls-2" d="M1115,667c1.3.7,1.7,2.3,1,3.5-.7,1.3-2.3,1.7-3.5,1-1.3-.7-1.7-2.3-1-3.5.7-1.3,2.3-1.7,3.5-1Z"/>
          <path class="cls-2" d="M978.7,576.9c1.3.7,1.7,2.3,1,3.5-.7,1.3-2.3,1.7-3.5,1-1.3-.7-1.7-2.3-1-3.5.7-1.3,2.3-1.7,3.5-1Z"/>
          <path class="cls-2" d="M935.3,659.9c1.3.7,1.7,2.3,1,3.5-.7,1.3-2.3,1.7-3.5,1-1.3-.7-1.7-2.3-1-3.5.7-1.3,2.3-1.7,3.5-1Z"/>
          <path class="cls-2" d="M907,721c1.3.7,1.7,2.3,1,3.5-.7,1.3-2.3,1.7-3.5,1-1.3-.7-1.7-2.3-1-3.5.7-1.3,2.3-1.7,3.5-1Z"/>
          <path class="cls-2" d="M857.3,646.9c1.4.8,2,2.6,1.2,4-.8,1.4-2.6,2-4,1.2-1.4-.8-2-2.6-1.2-4,.8-1.4,2.6-2,4-1.2Z"/>
          <path class="cls-2" d="M738.2,628.9c1.3.7,1.7,2.3,1,3.5-.7,1.3-2.3,1.7-3.5,1-1.3-.7-1.7-2.3-1-3.5.7-1.3,2.3-1.7,3.5-1Z"/>
          <path class="cls-2" d="M828.4,570.7c1.3.7,1.7,2.3,1,3.5-.7,1.3-2.3,1.7-3.5,1-1.3-.7-1.7-2.3-1-3.5.7-1.3,2.3-1.7,3.5-1Z"/>
          <path class="cls-2" d="M916.3,590.8c1.3.7,1.7,2.3,1,3.5-.7,1.3-2.3,1.7-3.5,1-1.3-.7-1.7-2.3-1-3.5.7-1.3,2.3-1.7,3.5-1Z"/>
          <path class="cls-2" d="M808.1,504.6c1.3.7,1.7,2.3,1,3.5-.7,1.3-2.3,1.7-3.5,1-1.3-.7-1.7-2.3-1-3.5.7-1.3,2.3-1.7,3.5-1Z"/>
          <path class="cls-2" d="M716.3,452.2c1.3.7,1.7,2.3,1,3.5-.7,1.3-2.3,1.7-3.5,1-1.3-.7-1.7-2.3-1-3.5.7-1.3,2.3-1.7,3.5-1Z"/>
          <path class="cls-2" d="M697.4,383.2c.9.5,1.3,1.7.8,2.6-.5.9-1.7,1.3-2.6.8-.9-.5-1.3-1.7-.8-2.6.5-.9,1.7-1.3,2.6-.8Z"/>
          <path class="cls-2" d="M945,490.4c.9.5,1.2,1.6.7,2.4-.5.9-1.6,1.2-2.4.7-.9-.5-1.2-1.6-.7-2.4.5-.9,1.6-1.2,2.4-.7Z"/>
          <path class="cls-2" d="M789.9,452.9c1.3.7,1.7,2.3,1,3.5-.7,1.3-2.3,1.7-3.5,1-1.3-.7-1.7-2.3-1-3.5.7-1.3,2.3-1.7,3.5-1Z"/>
          <path class="cls-2" d="M1119.8,736.3c.6.3.9,1.1.5,1.8-.3.6-1.1.9-1.8.5-.6-.3-.9-1.1-.5-1.8.3-.6,1.1-.9,1.8-.5Z"/>
          <path class="cls-2" d="M728-194.8c.5.3.9.7,1.1,1.2.3.6.3,1.3,0,2-.2.7-.7,1.2-1.3,1.5-.8.4-1.6.3-2.4,0-.5-.3-.9-.7-1.1-1.2-.6-1.3,0-2.9,1.3-3.5.8-.4,1.6-.3,2.4,0Z"/>
          <path class="cls-2" d="M793.4-76.3c.5.3.9.7,1.1,1.2.6,1.3,0,2.8-1.3,3.5-.8.4-1.6.3-2.4,0-.5-.3-.9-.7-1.1-1.2-.3-.6-.3-1.3,0-2,.2-.7.7-1.2,1.4-1.5.7-.4,1.6-.3,2.3,0Z"/>
          <path class="cls-2" d="M890.8-148.4c.5.3.9.7,1.1,1.2.3.6.3,1.3,0,2-.2.7-.7,1.2-1.3,1.5-.8.3-1.6.3-2.4,0-.5-.3-.9-.7-1.1-1.2-.3-.6-.3-1.3,0-2,.2-.7.7-1.2,1.3-1.5.8-.4,1.6-.3,2.4,0Z"/>
          <path class="cls-2" d="M842.8-200.2c.4.2.7.5.9.9.2.5.3,1,0,1.6-.2.5-.6.9-1,1.1-.6.3-1.3.3-1.8,0-.4-.2-.7-.5-.9-.9-.2-.5-.3-1,0-1.5.2-.5.6-.9,1.1-1.1.6-.3,1.2-.3,1.8,0Z"/>
          <path class="cls-2" d="M742.8-291.5c.5.3.9.7,1.1,1.2.3.6.3,1.3,0,2-.2.7-.7,1.2-1.4,1.5-.8.4-1.6.3-2.3,0-.5-.3-.9-.7-1.1-1.2-.3-.6-.3-1.3,0-2,.2-.6.7-1.2,1.3-1.5.8-.4,1.6-.3,2.4,0Z"/>
          <path class="cls-2" d="M572.9-194.2c.5.3.9.7,1.1,1.2.3.6.3,1.3.1,2-.2.7-.7,1.2-1.4,1.5-.8.4-1.6.3-2.4,0-.5-.3-.9-.7-1.1-1.2-.3-.6-.3-1.3,0-2,.2-.7.7-1.2,1.3-1.5.8-.4,1.6-.3,2.3,0Z"/>
          <path class="cls-2" d="M855.1-81.7c.5.3.9.7,1.1,1.2.3.6.3,1.3,0,2-.2.6-.7,1.2-1.4,1.5-.8.4-1.6.3-2.4,0-.5-.3-.9-.7-1.1-1.2-.6-1.3,0-2.9,1.3-3.5.8-.4,1.6-.3,2.4,0Z"/>
          <path class="cls-2" d="M761.2-113.8c.5.3.9.7,1.2,1.3.3.7.4,1.4.1,2.1-.3.7-.8,1.3-1.4,1.6-.8.4-1.7.4-2.5,0-.5-.3-.9-.7-1.2-1.3-.6-1.4,0-3.1,1.4-3.7.8-.4,1.7-.4,2.5,0Z"/>
          <path class="cls-2" d="M690.4-105.7c.5.3.9.7,1.1,1.2.3.6.3,1.3,0,2-.2.7-.7,1.2-1.3,1.5-.8.4-1.6.3-2.4,0-.5-.3-.9-.7-1.1-1.2-.6-1.3,0-2.9,1.2-3.5.8-.4,1.6-.3,2.4,0Z"/>
          <path class="cls-2" d="M632.3,14.8c.5.3.9.7,1.1,1.2.6,1.3,0,2.9-1.3,3.5-.8.4-1.6.3-2.4,0-.5-.3-.9-.7-1.1-1.2-.6-1.3,0-2.9,1.3-3.5.8-.4,1.6-.3,2.3,0Z"/>
          <path class="cls-2" d="M741.4,148.2c.5.3.9.7,1.1,1.2.3.6.3,1.3,0,2-.2.6-.7,1.2-1.3,1.5-.8.4-1.6.3-2.4,0-.5-.3-.9-.7-1.1-1.2-.3-.6-.3-1.3,0-2,.2-.7.7-1.2,1.3-1.5.8-.4,1.6-.3,2.4,0Z"/>
          <path class="cls-2" d="M732,329.2c.3.2.6.5.7.8.4.9,0,1.9-.9,2.3-.5.2-1.1.2-1.6,0-.3-.2-.6-.5-.7-.8-.2-.4-.2-.9,0-1.3.2-.4.5-.8.9-1,.5-.2,1.1-.2,1.6,0Z"/>
          <path class="cls-2" d="M644.4,341.7c.5.3.9.7,1.1,1.2.3.6.3,1.3,0,2-.2.7-.7,1.2-1.3,1.5-.8.3-1.6.3-2.3,0-.5-.3-.9-.7-1.1-1.2-.6-1.3,0-2.9,1.3-3.5.8-.4,1.6-.3,2.4,0Z"/>
          <path class="cls-2" d="M620.7,446.3c.5.3.9.7,1.1,1.2.3.6.3,1.3,0,2-.2.7-.7,1.2-1.3,1.5-.8.4-1.6.3-2.4,0-.5-.3-.9-.7-1.1-1.2-.3-.6-.3-1.3,0-2,.2-.7.7-1.2,1.3-1.5.8-.4,1.6-.3,2.4,0Z"/>
          <path class="cls-2" d="M739.7,534.8c.5.3.9.7,1.1,1.2.6,1.3,0,2.9-1.3,3.5-.8.4-1.6.3-2.4,0-.5-.3-.9-.7-1.1-1.2-.3-.6-.3-1.3,0-2,.2-.7.7-1.2,1.3-1.5.8-.4,1.6-.3,2.4,0Z"/>
          <path class="cls-2" d="M724.8-70.2c.4.2.6.5.8.9.4,1,0,2.1-.9,2.5-.5.3-1.2.2-1.7,0-.4-.2-.6-.5-.8-.9-.2-.5-.2-1,0-1.5.2-.5.5-.9,1-1.1.6-.3,1.2-.2,1.7,0Z"/>
          <path class="cls-2" d="M615.8-263.6c.3.2.6.4.7.8.2.4.2.9,0,1.3-.1.4-.5.8-.9.9-.5.2-1,.2-1.5,0-.3-.2-.6-.4-.7-.8-.4-.8,0-1.8.8-2.2.5-.2,1.1-.2,1.5,0Z"/>
          <path class="cls-2" d="M639.5-111.6c.4.2.7.6.9,1,.2.5.3,1.1,0,1.6-.2.6-.6,1-1.1,1.2-.6.3-1.3.3-2,0-.4-.2-.7-.6-.9-1-.5-1.1,0-2.4,1-2.9.6-.3,1.3-.3,2,0Z"/>
          <path class="cls-2" d="M696.2,41.3c.5.3.9.7,1.1,1.2.6,1.3,0,2.9-1.3,3.5-.8.3-1.6.3-2.3,0-.5-.3-.9-.7-1.1-1.2-.6-1.3,0-2.9,1.3-3.5.8-.4,1.6-.3,2.4,0Z"/>
          <path class="cls-2" d="M671.3,131.7c.4.2.7.5.9,1,.2.5.3,1.1,0,1.6-.2.5-.6,1-1.1,1.2-.6.3-1.3.3-1.9,0-.4-.2-.7-.5-.9-1-.2-.5-.3-1.1,0-1.6.2-.5.6-.9,1.1-1.2.6-.3,1.3-.3,1.9,0Z"/>
          <path class="cls-2" d="M782.2,97.6c.4.2.7.5.9,1,.2.5.3,1.1,0,1.6-.2.5-.6,1-1.1,1.2-.6.3-1.3.3-1.9,0-.4-.2-.7-.6-.9-1-.2-.5-.3-1.1,0-1.6.2-.5.6-1,1.1-1.2.6-.3,1.3-.3,1.9,0Z"/>
          <path class="cls-2" d="M774.6,253.8c.3.2.6.4.7.8.2.4.2.9,0,1.3-.2.4-.5.8-.9.9-.5.2-1,.2-1.5,0-.3-.2-.6-.4-.7-.8-.4-.8,0-1.8.8-2.2.5-.2,1-.2,1.5,0Z"/>
          <path class="cls-2" d="M675.6-170.2c.5.3.9.7,1.1,1.2.6,1.3,0,2.8-1.3,3.5-.8.4-1.6.3-2.4,0-.5-.3-.9-.7-1.1-1.2-.3-.6-.3-1.3,0-2,.2-.7.7-1.2,1.3-1.5.8-.4,1.6-.3,2.4,0Z"/>
        </g>
        <g>
          <path class="cls-2" d="M1225.2,773.8c2.5,1.3,3.4,4.4,2,6.9-1.3,2.5-4.4,3.4-6.9,2-2.5-1.3-3.4-4.4-2-6.9,1.3-2.5,4.4-3.4,6.9-2ZM1220.4,782.6c2.4,1.3,5.4.4,6.7-2,1.3-2.4.4-5.4-2-6.6-2.4-1.3-5.4-.4-6.7,2-1.3,2.4-.4,5.4,2,6.6Z"/>
          <path class="cls-2" d="M1116.1,664.8c2.5,1.3,3.4,4.4,2,6.9-1.3,2.5-4.4,3.4-6.9,2-2.5-1.3-3.4-4.4-2-6.9,1.3-2.5,4.4-3.4,6.9-2ZM1111.4,673.6c2.4,1.3,5.3.4,6.6-2,1.3-2.4.4-5.4-2-6.6-2.4-1.3-5.4-.4-6.6,1.9-1.3,2.4-.4,5.4,2,6.7Z"/>
          <path class="cls-2" d="M1019.3,738c2.4,1.3,3.4,4.4,2,6.9-1.3,2.5-4.4,3.4-6.9,2-2.5-1.3-3.4-4.4-2-6.9,1.3-2.5,4.4-3.4,6.9-2ZM1014.5,746.7c2.4,1.3,5.4.4,6.6-2,1.3-2.4.4-5.4-1.9-6.7-2.4-1.3-5.4-.4-6.7,2-1.3,2.4-.4,5.3,2,6.6Z"/>
          <path class="cls-2" d="M935.8,783.8c2.5,1.3,3.4,4.4,2,6.9-1.3,2.5-4.4,3.4-6.9,2-2.5-1.3-3.4-4.4-2-6.9,1.3-2.5,4.4-3.4,6.9-2ZM931.1,792.6c2.4,1.3,5.3.4,6.6-2,1.3-2.4.4-5.4-2-6.6-2.4-1.3-5.4-.4-6.6,1.9-1.3,2.4-.4,5.4,2,6.7Z"/>
          <path class="cls-2" d="M908.2,718.9c2.5,1.3,3.4,4.4,2,6.9-1.3,2.5-4.4,3.4-6.9,2-2.5-1.3-3.4-4.4-2-6.9,1.3-2.5,4.4-3.4,6.9-2ZM903.4,727.6c2.4,1.3,5.4.4,6.6-1.9,1.3-2.4.4-5.4-2-6.7-2.4-1.3-5.4-.4-6.6,1.9-1.3,2.4-.4,5.4,2,6.7Z"/>
          <path class="cls-2" d="M1022.9,682.1c2.5,1.3,3.4,4.4,2,6.9-1.3,2.4-4.4,3.4-6.9,2-2.5-1.3-3.4-4.4-2-6.9,1.3-2.4,4.4-3.4,6.9-2ZM1018.1,690.9c2.4,1.3,5.3.4,6.6-2,1.3-2.4.4-5.3-1.9-6.6-2.4-1.3-5.4-.4-6.7,2-1.3,2.4-.4,5.4,2,6.6Z"/>
          <path class="cls-2" d="M702.2,720.6c2.5,1.3,3.4,4.4,2,6.9-1.3,2.5-4.4,3.4-6.9,2-2.5-1.3-3.4-4.4-2-6.9,1.3-2.5,4.4-3.4,6.9-2ZM697.4,729.3c2.4,1.3,5.4.4,6.7-2,1.3-2.4.4-5.4-2-6.6-2.4-1.3-5.3-.4-6.6,2-1.3,2.4-.4,5.4,1.9,6.7Z"/>
          <path class="cls-2" d="M979.9,574.7c2.5,1.3,3.3,4.4,2,6.9-1.3,2.5-4.4,3.4-6.9,2-2.5-1.3-3.4-4.4-2-6.9,1.3-2.5,4.4-3.4,6.9-2ZM975.1,583.4c2.4,1.3,5.4.4,6.7-2,1.3-2.4.4-5.3-2-6.6-2.4-1.3-5.4-.4-6.7,2-1.3,2.4-.4,5.4,2,6.6Z"/>
          <path class="cls-2" d="M791,450.7c2.5,1.3,3.4,4.4,2,6.9-1.3,2.4-4.4,3.4-6.9,2-2.5-1.3-3.4-4.4-2-6.9,1.3-2.5,4.4-3.4,6.9-2ZM786.3,459.5c2.4,1.3,5.4.4,6.7-1.9,1.3-2.4.4-5.4-2-6.7-2.4-1.3-5.4-.4-6.7,2-1.3,2.4-.4,5.3,2,6.6Z"/>
          <path class="cls-2" d="M843.8,301.8c2.5,1.3,3.4,4.4,2,6.9-1.3,2.5-4.4,3.4-6.9,2-2.5-1.3-3.4-4.4-2-6.9,1.3-2.4,4.4-3.4,6.9-2ZM839.1,310.6c2.4,1.3,5.4.4,6.7-2,1.3-2.4.4-5.4-2-6.6-2.4-1.3-5.4-.4-6.7,2-1.3,2.4-.4,5.4,2,6.6Z"/>
          <path class="cls-2" d="M645.6,339.6c2.5,1.3,3.4,4.4,2,6.9-1.3,2.5-4.4,3.4-6.9,2-2.5-1.3-3.4-4.4-2-6.9,1.3-2.5,4.4-3.4,6.9-2ZM640.8,348.3c2.4,1.3,5.3.4,6.6-1.9,1.3-2.4.4-5.4-2-6.7-2.4-1.3-5.4-.4-6.7,2-1.3,2.4-.4,5.4,2,6.6Z"/>
          <path class="cls-2" d="M652.8,202.6c2.5,1.3,3.4,4.4,2,6.9-1.3,2.5-4.4,3.4-6.9,2-2.5-1.3-3.4-4.4-2-6.9,1.3-2.5,4.4-3.4,6.9-2ZM648,211.4c2.4,1.3,5.4.4,6.6-2,1.3-2.4.4-5.4-2-6.6-2.4-1.3-5.4-.4-6.7,2-1.3,2.4-.4,5.4,2,6.7Z"/>
          <path class="cls-2" d="M742.5,146c2.5,1.3,3.4,4.4,2,6.9-1.3,2.5-4.4,3.4-6.9,2-2.5-1.3-3.4-4.4-2-6.9,1.3-2.5,4.4-3.4,6.9-2ZM737.8,154.8c2.4,1.3,5.4.4,6.6-1.9,1.3-2.4.4-5.4-2-6.6-2.4-1.3-5.4-.4-6.7,1.9-1.3,2.4-.4,5.4,2,6.7Z"/>
          <path class="cls-2" d="M633.4,12.8c2.4,1.3,3.4,4.4,2,6.9-1.3,2.4-4.4,3.4-6.9,2-2.5-1.3-3.4-4.4-2-6.9,1.3-2.5,4.4-3.4,6.9-2ZM628.6,21.6c2.4,1.3,5.4.4,6.6-2,1.3-2.4.4-5.4-1.9-6.6-2.4-1.3-5.4-.4-6.6,2-1.3,2.4-.4,5.4,2,6.6Z"/>
          <path class="cls-2" d="M691.5-107.9c2.5,1.3,3.4,4.4,2,6.9-1.3,2.5-4.4,3.4-6.9,2-2.5-1.3-3.4-4.4-2-6.9,1.3-2.5,4.4-3.4,6.9-2ZM686.8-99.1c2.4,1.3,5.3.4,6.6-2,1.3-2.4.4-5.3-2-6.6-2.4-1.3-5.3-.4-6.7,1.9-1.3,2.4-.4,5.4,2,6.7Z"/>
          <path class="cls-2" d="M856.2-83.9c2.4,1.3,3.4,4.4,2,6.9-1.3,2.5-4.4,3.4-6.9,2-2.5-1.3-3.4-4.4-2-6.9,1.3-2.5,4.4-3.4,6.9-2ZM851.5-75.1c2.4,1.3,5.3.4,6.6-2,1.3-2.4.4-5.4-1.9-6.6-2.4-1.3-5.4-.4-6.6,2-1.3,2.4-.4,5.3,2,6.6Z"/>
          <path class="cls-2" d="M574.1-196.4c2.5,1.3,3.4,4.4,2,6.9-1.3,2.5-4.4,3.4-6.9,2-2.5-1.3-3.4-4.4-2-6.9,1.3-2.5,4.4-3.4,6.9-2ZM569.3-187.6c2.4,1.3,5.4.4,6.6-1.9,1.3-2.4.4-5.4-2-6.6-2.4-1.3-5.4-.4-6.6,2-1.3,2.4-.4,5.4,2,6.6Z"/>
          <path class="cls-2" d="M729.2-196.9c2.4,1.3,3.4,4.4,2,6.9-1.3,2.5-4.4,3.4-6.9,2-2.5-1.3-3.4-4.4-2-6.9,1.3-2.5,4.4-3.4,6.9-2ZM724.4-188.2c2.4,1.3,5.4.4,6.6-2,1.3-2.4.4-5.3-1.9-6.6-2.4-1.3-5.4-.4-6.7,1.9-1.3,2.4-.4,5.4,2,6.7Z"/>
          <path class="cls-2" d="M743.9-293.7c2.5,1.3,3.4,4.4,2,6.9-1.3,2.5-4.4,3.4-6.9,2-2.5-1.3-3.4-4.4-2-6.9,1.3-2.5,4.4-3.4,6.9-2ZM739.2-284.9c2.4,1.3,5.4.4,6.6-2,1.3-2.4.4-5.3-1.9-6.6-2.4-1.3-5.4-.4-6.7,1.9-1.3,2.4-.4,5.4,2,6.7Z"/>
          <path class="cls-2" d="M740.7,532.5c2.4,1.3,3.4,4.4,2,6.9-1.3,2.5-4.4,3.4-6.9,2-2.5-1.3-3.4-4.4-2-6.9,1.3-2.5,4.4-3.4,6.9-2ZM736,541.2c2.4,1.3,5.4.4,6.6-2,1.3-2.4.4-5.4-1.9-6.7-2.4-1.3-5.4-.4-6.7,2-1.3,2.4-.4,5.4,2,6.7Z"/>
          <path class="cls-2" d="M621.8,444.1c2.4,1.3,3.4,4.4,2,6.9-1.3,2.5-4.4,3.4-6.9,2-2.5-1.3-3.4-4.4-2-6.9,1.3-2.4,4.4-3.4,6.9-2ZM617.1,452.8c2.4,1.3,5.4.4,6.7-1.9,1.3-2.4.4-5.4-2-6.6-2.4-1.3-5.3-.4-6.6,2-1.3,2.4-.4,5.4,2,6.6Z"/>
          <path class="cls-2" d="M917.5,588.6c2.5,1.3,3.4,4.4,2,6.9-1.3,2.4-4.4,3.4-6.9,2-2.5-1.3-3.4-4.4-2-6.9,1.3-2.5,4.4-3.4,6.9-2ZM912.7,597.4c2.4,1.3,5.4.4,6.6-2,1.3-2.4.4-5.4-2-6.6-2.4-1.3-5.4-.4-6.6,1.9-1.3,2.4-.4,5.4,2,6.7Z"/>
          <path class="cls-2" d="M739.4,626.8c2.5,1.3,3.4,4.4,2,6.9-1.3,2.5-4.4,3.4-6.9,2-2.5-1.3-3.4-4.4-2-6.9,1.3-2.5,4.4-3.4,6.9-2ZM734.6,635.5c2.4,1.3,5.4.4,6.7-1.9,1.3-2.4.4-5.4-2-6.7-2.4-1.3-5.3-.4-6.6,2-1.3,2.4-.4,5.4,2,6.6Z"/>
        </g>
      </g>
      <g>
        <path class="cls-1" d="M726.8-192.4l88.5-50.7,37.9,23.6.3.2-21.2-33.6,64.3-36.8.3-.2h-.3s-102.6-24-102.6-24l35.8-58h.5c0,0-.4-.2-.4-.2l-23.3-63.1,30.6-63.6h0c0,0-.1-.1-.1-.1l-53.2-65.1,14-51.2h0s-33.7-39.7-33.7-39.7l53.9-34h-.3s-85.2-33.2-85.2-33.2l4.5-90.3,87.9-13.2h0s23.8-104.6,23.8-104.6l.3-.3-.4.2-118.9-88.4,85.1-70.3h.1c0-.1-26.8-7.8-26.8-7.8l26.6-35.6h.2s-46.5-74.4-46.5-74.4h0c0,0-106.5,31.3-106.5,31.3h0c0-.1-.1,0-.1,0l-45.9-92.3h0c0-.1-.1,0-.1,0l-31.2-.9-49.3-60.2h0c0-.1-21.9,70.6-21.9,70.6l-62.1,34.1-41.2,2-33.4-47.8h0s-131.4,10-131.4,10h-.4s103.8,40.9,103.8,40.9h0s0,0,0,0l5.5,68.1h0s.2,0,.2,0l44.4-24.8h.3s48.4,7.6,48.4,7.6l30,75-54.1,48.7h-.3c0,0,.7,0,.7,0l66.7-16.4,33.3,87h0s129.4,30.7,129.4,30.7l-26.7,154.9h-.1s.1.1.1.1h0c0,.1,0,0,0,0l42.7,98.2h0s61.4.4,61.4.4l-2.8,57h0s0,0,0,0h0s0,0,0,0l25,30.6-66.2,20.3h.1c0,0,86.2,56.1,86.2,56.1l23.4,63.6-52.3,48.2h0s0,0,0,0l-68.2,5.5h0c0,0,0,0,0,0l-24.4,18-37.2-12.6-.4-.5v.3s.2.3.2.3l-35.5,66.3v.3c-.1,0-.1.2-.1.2l39.5-29.2,8.2,81.4-.2.4.3-.3,100.2,90.6v.4c0,0,.2-.4.2-.4ZM626.7-283.3l55.3-58.7,59.3,52.8-114.6,5.9ZM614.8-401.7v-.3c0,0,24.3,21.7,24.3,21.7l-20.7,15.3-3.7-37,.2.2ZM651.7-389.5l15,5.1-8.4,21.1-19.1-17,12.4-9.2ZM666.9-384.3l41.4,14.1-26.3,27.9-23.5-20.9,8.4-21.1ZM708.7-370.4l35.7-42.5-.9,38.6-34.8,3.9ZM786.3-392.8l43,20.8-50-6.2,7-14.5ZM779.2-378.4l-34.3-34.5,41.3,20-7,14.5ZM779-378.3l-16.2,1.8-18-36.3,34.3,34.4ZM762.6-376.4l-19,2.1.9-38.5,18.1,36.4ZM743.4-374.1l-2,84.7-59.3-52.8,26.3-28h0s0,0,0,0l34.9-3.9ZM626.7-283.6l31.7-79.4,23.4,20.9-55.2,58.6ZM618.3-364.8l20.8-15.4,19.1,17-31.8,79.6-8.2-81.2ZM614.4-402l3.7,37.1-39.1,29,35.4-66.1ZM651.5-389.6l-12.4,9.2-24.3-21.6,36.7,12.5ZM676-407.4l-9.1,22.9-14.9-5.1,24-17.8ZM676.2-407.5l32,37-41.2-14,9.2-23ZM744.2-413.1l-35.8,42.6-32.1-37.2,67.9-5.5ZM728.4-632l69.3,16.9-44.4,13.6-24.9-30.5ZM731.1-689.4l.2-4.1,3.5,4.1h-3.7ZM627.1-787.7l67.3,50.8,36.7,43.2-.2,4.3-61.3-.4-42.6-98ZM691.8-802.3l2.6,65.2-67.3-50.8,64.7-14.4ZM627.5-788.2l63.5-34.5.8,20.2-64.3,14.3ZM690-851.2l-10.2-85.5,25.8,19.7-15.6,65.8ZM705.7-916.8l46,35.1-61.7,30.9,15.6-66ZM679.9-936.7l30.3.3-4.6,19.3-25.7-19.6ZM679.7-936.9l-18.1-51.5,53.6,30.6-5,21.1-30.5-.3ZM715.4-957.6l37.5,21.4-42.5-.4,5-21ZM753.1-936.1l12.6,47.3-13.8,6.9-46.2-35.2,4.6-19.4,42.8.4ZM765.8-888.6l5.8,21.8-19.5-14.9,13.7-6.9ZM771.6-866.6l-81,15.7,61.4-30.7,19.7,15ZM771.3-866.4l-60.2,32.7-20.9-16.9,81.1-15.7ZM771.5-866.3l-34.4,53.8-26-21,60.3-32.7ZM691.1-822.9l-1.1-27.6,20.8,16.9-19.7,10.7ZM691-822.8l-63.6,34.5,62.5-62.2,1.1,27.7ZM653.7-942.9l25.9,6.1,10.3,86h0s0,0,0,0l-62.8,62.5,26.7-154.7ZM653.7-943.1l7.8-45.2,18,51.3-25.8-6.1ZM524.7-973.7l136.7-14.8-7.8,45.4-128.9-30.6ZM524.5-973.8l83.1-57.5,53.7,42.7-136.8,14.8ZM534-1144.3l-39.9-38.7,17.7-5.7,22.2,44.4ZM511.9-1188.7l50.5-16.2-28.1,60.8-22.4-44.6ZM448.2-1168.5l32-27.7,13.5,13.1-45.5,14.6ZM480.3-1196.3l19.3-16.7,12.1,24.1-17.8,5.7-13.6-13.2ZM499.7-1213.1l49.4-23.2,13.3,31.2-50.6,16.2-12.1-24.2ZM499.8-1213.3l35-56.5,14.2,33.4-49.3,23.1ZM593.9-1257.2l6.4,7.8-37.8,44.3-13.3-31.1,44.6-20.9ZM600.5-1249.3l14.9,18.2-52.5,25.8,37.6-44ZM615.4-1230.9l-1.3,41.2-51.4-15.3,52.6-25.9ZM614.1-1189.5l-1.8,58.1-49.6-73.4,51.4,15.3ZM612.3-1131.2l-.4.3-77.6-13.1,28.2-60.9,49.7,73.7ZM607.6-1031.6l-54.1-43.1,87.4,20-33.3,23.1ZM641.1-1054.5l20.2,65.7-53.6-42.7,33.3-23.1ZM553.4-1074.8l58.6-55.8h.2s0,0,0,0l.2-.2,28.5,76-87.6-20ZM648.3-1096.7l-7.2,41.7-28.4-75.8,35.6,34.2ZM612.7-1131l40.5,6.2-4.8,27.9-35.6-34.1ZM491-1060.9l43.3-82.7,18.8,68.8-62.1,13.9ZM534.4-1143.7l77.4,13.1-58.6,55.7-18.9-68.8ZM612.8-1131.2l49-43.9-8.7,50.1-40.3-6.2ZM662.1-1175.1l69,62.1-77.7-11.9,8.7-50.2ZM662.3-1175.1l84.2,23.6-15.3,38.4-69-62.1ZM731.2-1112.8l-34.8,62-47.9-45.9,4.9-28,77.8,12ZM696.3-1050.7l-8.4,14.9-46.7-18.9,7.2-41.8,47.8,45.8ZM696.4-1050.6l33,31.6-41.4-16.8,8.4-14.9ZM687.8-1035.6l-26.3,46.9-20.2-65.7,46.6,18.9ZM524.4-973.9l28.9-100.7,54.2,43.2-83.1,57.5ZM491.1-1060.8l62-13.9-28.9,100.7-33.2-86.7v-.2ZM477.9-1093l12.8,31.9v.2s-66.6,16.3-66.6,16.3l53.9-48.5ZM534-1143.5l-43.1,82.5-12.9-32.1,56-50.4ZM448-1168.1l86.1,24.3-56.2,50.6-30-74.9ZM448.1-1168.3l45.7-14.7,40.1,38.9-85.8-24.2ZM447.8-1168.4l-22.2-31.8,25.8-23.8,28.6,27.7-32.2,27.9ZM425.5-1200.1l22.1,31.6-36.1-18.6,14.1-13ZM399.1-1176l-49.4-42.8,61.5,31.7-12,11.1ZM399.3-1175.9l12-11.1,36,18.6-48-7.5ZM349.2-1218.9l49.8,43.1-44.3,24.8-5.5-67.8ZM376.7-1269.8l-27.6,50.6-.6-.3h.2c0,.1-102.8-40.3-102.8-40.3l130.8-10ZM410-1222.2l-60.8,3,27.6-50.5,33.2,47.6ZM410.2-1222l15.2,21.8-14.1,13-61.9-31.9,60.7-2.9ZM451.2-1224l-25.7,23.7-15.2-21.7,40.8-2ZM513.4-1258.1l-13.9,44.9-19.3,16.8-28.6-27.7,61.9-34ZM534.6-1269.7l-34.8,56,13.8-44.5,21-11.5ZM535.4-1328.2l-.6,58.2-21.1,11.6,21.6-69.8ZM584.6-1268.7l-49.6-1.4.6-58.5,49.1,59.9ZM584.7-1268.5l9.1,11.1-44.6,20.9-14.2-33.4,49.7,1.4ZM615.7-1267.6l-21.7,10.2-9-11,30.7.9ZM615.7-1267.5l-15.3,17.9-6.3-7.8,21.6-10.1ZM616-1267.5l-.5,36.2-14.9-18.1,15.4-18ZM661.6-1175.9l-46-55.1.5-36.3,45.5,91.4ZM661.7-1175.5l-47.4-14.2,1.3-41.2,46.2,55.3ZM661.8-1175.3l-49.2,44.1h-.1s1.8-58.2,1.8-58.2l47.5,14.2ZM768.4-1206.6l-21.8,54.9-84.3-23.6,106.1-31.3ZM814.7-1132.5l-67.9-19.1,21.8-54.9,46.1,74ZM788.1-1096.8l-56.7-16.2h0s0,0,0,0l15.3-38.5,68,19.1-26.6,35.6ZM730.3-1019.3l57.9-77.3,26.6,7.6-84.5,69.8ZM729.9-1019l1.5-93.8,56.6,16.1-58.1,77.7ZM729.7-1018.9l-33.2-31.8,34.7-61.8-1.5,93.6ZM661.7-988.8l26.3-46.8,41.6,16.9-67.9,30ZM729.7-1018.6l-14.4,60.7-53.6-30.6,68-30ZM848.6-930.3l-95.4-5.9-37.8-21.6,14.4-60.8,118.7,88.2ZM765.9-888.8l-12.6-47.2,95.2,5.9-82.6,41.4ZM848.5-929.9l-110.7,116.8,34.1-53.3h.2s-.1-.1-.1-.1l-5.9-22,82.5-41.3ZM737.4-812.6l111.3-117.4-23.7,104.2-87.7,13.2ZM692-802.5l-.8-20.2,19.9-10.8,25.9,21-45,10ZM737-812.3l-42.4,75.1-2.6-65.1,45-10ZM732.6-722.2l-38-14.8,42.5-75.1-4.5,89.9ZM732.6-722l-1.4,28.1-36.4-42.8,37.8,14.8ZM817.5-688.8l-82.4-.5-3.7-4.4,1.4-28.2,84.7,33.1ZM764.2-655l-29-34.1,82.4.5-53.4,33.7ZM728.3-632.3l2.8-56.8h3.9s29.1,34.3,29.1,34.3l-35.8,22.6ZM797.8-615.3l-69.4-16.9,35.8-22.6,33.6,39.5ZM783.9-564.1l-30.5-37.3,44.4-13.6-14,50.9ZM783.8-563.9l-10.6,38.6-86-55.8,66-20.2,30.6,37.4ZM836.9-499l-63.5-26.3,10.5-38.5,52.9,64.8ZM796.8-461.7l-23.4-63.4,63.6,26.3-40.2,37.1ZM806.6-435.3l-9.6-26.2,40-36.9-30.4,63.1ZM786.2-393.1l-41.7-20.1,52.2-48.2,9.7,26.3-20.2,42ZM829.7-372.1l-43.3-20.9,20.1-41.9,23.1,62.8ZM793.9-313.9l-31-62.4,16.3-1.8,50.5,6.3-35.8,58ZM741.6-289.3l2-84.8,19.1-2.2,31.1,62.5-52.2,24.4ZM793.7-313.5l-13.4,24.1h-38.4c0,.1,51.8-24.1,51.8-24.1ZM741.8-289.1h38.4c0-.1-9.9,17.8-9.9,17.8l-28.5-17.8ZM770.2-271.2l-43.3,78.2,14.6-96.1,28.7,17.9ZM780.5-289.4l13.4-24.1,15.2,24h-28.5ZM895.9-289.8l-86.7.3-15.2-24.1,101.8,23.8ZM832.3-253l-22.9-36.4,87-.3-64,36.7ZM815.3-243.3l-44.9-27.9,10-18h28.7c0-.1,23,36.3,23,36.3l-16.8,9.6ZM815.5-243.2l16.7-9.6,20.8,32.9-37.5-23.4ZM727-192.7l43.4-78.4,44.8,27.9-88.2,50.5ZM726.7-192.7l-100.1-90.5,114.7-6-14.7,96.4Z"/>
        <g>
          <path class="cls-2" d="M375.6-1267.8c-1.2-.6-1.6-2.1-1-3.3.6-1.2,2.1-1.6,3.3-1,1.2.6,1.6,2.1,1,3.3-.6,1.2-2.1,1.6-3.3,1Z"/>
          <path class="cls-2" d="M498.5-1211c-1.1-.6-1.6-2-.9-3.2.6-1.1,2-1.5,3.2-.9,1.1.6,1.6,2,.9,3.2-.6,1.1-2,1.5-3.2.9Z"/>
          <path class="cls-2" d="M534.5-1327.1c-1-.5-1.3-1.7-.8-2.7.5-1,1.7-1.3,2.7-.8,1,.5,1.3,1.7.8,2.7-.5,1-1.7,1.3-2.7.8Z"/>
          <path class="cls-2" d="M614.3-1228.7c-1.3-.7-1.7-2.3-1-3.5.7-1.3,2.3-1.7,3.5-1,1.3.7,1.7,2.3,1,3.5-.7,1.3-2.3,1.7-3.5,1Z"/>
          <path class="cls-2" d="M767.3-1204.4c-1.3-.7-1.7-2.3-1-3.5.7-1.3,2.3-1.7,3.5-1,1.3.7,1.7,2.3,1,3.5-.7,1.3-2.3,1.7-3.5,1Z"/>
          <path class="cls-2" d="M660.7-1173c-1.3-.7-1.7-2.3-1-3.5.7-1.3,2.3-1.7,3.5-1,1.3.7,1.7,2.3,1,3.5-.7,1.3-2.3,1.7-3.5,1Z"/>
          <path class="cls-2" d="M614.8-1265.4c-1.3-.7-1.8-2.3-1.1-3.6.7-1.3,2.3-1.8,3.6-1.1,1.3.7,1.8,2.3,1.1,3.6-.7,1.3-2.3,1.8-3.6,1.1Z"/>
          <path class="cls-2" d="M533.6-1267.7c-1.3-.7-1.7-2.3-1-3.5.7-1.3,2.3-1.7,3.5-1,1.3.7,1.7,2.3,1,3.5-.7,1.3-2.3,1.7-3.5,1Z"/>
          <path class="cls-2" d="M450.2-1221.8c-1.3-.7-1.7-2.3-1-3.5.7-1.3,2.3-1.7,3.5-1,1.3.7,1.7,2.3,1,3.5-.7,1.3-2.3,1.7-3.5,1Z"/>
          <path class="cls-2" d="M398.2-1174.1c-1-.5-1.3-1.8-.8-2.8.5-1,1.8-1.3,2.8-.8,1,.5,1.3,1.8.8,2.8-.5,1-1.8,1.3-2.7.8Z"/>
          <path class="cls-2" d="M422.8-1042.8c-.9-.5-1.2-1.6-.7-2.4.5-.9,1.6-1.2,2.4-.7.9.5,1.2,1.6.7,2.4-.5.9-1.6,1.2-2.4.7Z"/>
          <path class="cls-2" d="M688.7-848.4c-1.3-.7-1.7-2.3-1-3.5.7-1.3,2.3-1.7,3.5-1,1.3.7,1.7,2.3,1,3.5-.7,1.3-2.3,1.7-3.5,1Z"/>
          <path class="cls-2" d="M625.6-785.7c-1.3-.7-1.7-2.3-1-3.5.7-1.3,2.3-1.7,3.5-1,1.3.7,1.7,2.3,1,3.5-.7,1.3-2.3,1.7-3.5,1Z"/>
          <path class="cls-2" d="M668.3-687.3c-1.3-.7-1.7-2.3-1-3.5.7-1.3,2.3-1.7,3.5-1,1.3.7,1.7,2.3,1,3.5-.7,1.3-2.3,1.7-3.5,1Z"/>
          <path class="cls-2" d="M816.7-686.5c-1.3-.7-1.7-2.3-1-3.5.7-1.3,2.3-1.7,3.5-1,1.3.7,1.7,2.3,1,3.5-.7,1.3-2.3,1.7-3.5,1Z"/>
          <path class="cls-2" d="M814.1-1131c-.8-.4-1.1-1.4-.7-2.2.4-.8,1.4-1.1,2.2-.6.8.4,1.1,1.4.7,2.2-.4.8-1.4,1.1-2.2.6Z"/>
          <path class="cls-2" d="M814.1-1087.4c-.9-.5-1.2-1.6-.7-2.5.5-.9,1.6-1.2,2.5-.7.9.5,1.2,1.6.7,2.5-.5.9-1.6,1.2-2.5.7Z"/>
          <path class="cls-2" d="M446.6-1166c-1.3-.7-1.7-2.3-1-3.5.7-1.3,2.3-1.7,3.5-1,1.2.7,1.7,2.3,1,3.5-.7,1.3-2.3,1.7-3.5,1Z"/>
          <path class="cls-2" d="M244.3-1257.7c-1.3-.7-1.7-2.3-1-3.5.7-1.2,2.3-1.7,3.5-1,1.3.7,1.7,2.3,1,3.5-.7,1.3-2.3,1.7-3.5,1Z"/>
          <path class="cls-2" d="M353.3-1148.7c-1.3-.7-1.7-2.3-1-3.5.7-1.3,2.3-1.7,3.5-1,1.3.7,1.7,2.3,1,3.5-.7,1.3-2.3,1.7-3.5,1Z"/>
          <path class="cls-2" d="M489.6-1058.5c-1.3-.7-1.7-2.3-1-3.5.7-1.3,2.3-1.7,3.5-1,1.3.7,1.7,2.3,1,3.5-.7,1.3-2.3,1.7-3.5,1Z"/>
          <path class="cls-2" d="M533-1141.6c-1.2-.7-1.7-2.3-1-3.5.7-1.3,2.3-1.7,3.5-1,1.2.7,1.7,2.3,1,3.5-.7,1.3-2.3,1.7-3.5,1Z"/>
          <path class="cls-2" d="M561.3-1202.7c-1.3-.7-1.7-2.3-1-3.5.7-1.2,2.3-1.7,3.5-1,1.3.7,1.7,2.3,1,3.5-.7,1.3-2.3,1.7-3.5,1Z"/>
          <path class="cls-2" d="M611-1128.6c-1.4-.8-2-2.6-1.2-4,.8-1.4,2.6-2,4-1.2,1.4.8,2,2.6,1.2,4-.8,1.4-2.6,2-4,1.2Z"/>
          <path class="cls-2" d="M730.1-1110.6c-1.3-.7-1.7-2.3-1-3.5.7-1.3,2.3-1.7,3.5-1,1.3.7,1.7,2.3,1,3.5-.7,1.3-2.3,1.7-3.5,1Z"/>
          <path class="cls-2" d="M639.9-1052.4c-1.3-.7-1.7-2.3-1-3.5.7-1.3,2.3-1.7,3.5-1,1.3.7,1.7,2.3,1,3.5-.7,1.3-2.3,1.7-3.5,1Z"/>
          <path class="cls-2" d="M551.9-1072.5c-1.3-.7-1.7-2.3-1-3.5.7-1.3,2.3-1.7,3.5-1,1.3.7,1.7,2.3,1,3.5-.7,1.3-2.3,1.7-3.5,1Z"/>
          <path class="cls-2" d="M660.2-986.3c-1.3-.7-1.7-2.3-1-3.5.7-1.3,2.3-1.7,3.5-1,1.2.7,1.7,2.3,1,3.5-.7,1.3-2.3,1.7-3.5,1Z"/>
          <path class="cls-2" d="M752-933.9c-1.3-.7-1.7-2.3-1-3.5.7-1.3,2.3-1.7,3.5-1,1.3.7,1.7,2.3,1,3.5-.7,1.3-2.3,1.7-3.5,1Z"/>
          <path class="cls-2" d="M770.9-864.9c-.9-.5-1.3-1.7-.8-2.6.5-.9,1.7-1.3,2.6-.8.9.5,1.3,1.7.8,2.6-.5.9-1.7,1.3-2.6.8Z"/>
          <path class="cls-2" d="M523.3-972.1c-.9-.5-1.2-1.6-.7-2.4.5-.9,1.6-1.2,2.4-.7.9.5,1.2,1.6.7,2.4-.5.9-1.6,1.2-2.4.7Z"/>
          <path class="cls-2" d="M678.4-934.6c-1.3-.7-1.7-2.3-1-3.5.7-1.2,2.3-1.7,3.5-1,1.3.7,1.7,2.3,1,3.5-.7,1.3-2.3,1.7-3.5,1Z"/>
          <path class="cls-2" d="M348.5-1218c-.6-.3-.9-1.1-.5-1.8.3-.6,1.1-.9,1.8-.5.6.3.9,1.1.5,1.8-.3.6-1.1.9-1.8.5Z"/>
          <path class="cls-2" d="M740.2-286.9c-.5-.3-.9-.7-1.1-1.2-.3-.6-.3-1.3,0-2,.2-.6.7-1.2,1.3-1.5.8-.4,1.6-.3,2.4,0,.5.3.9.7,1.1,1.2.6,1.3,0,2.9-1.2,3.5-.8.4-1.6.3-2.4,0Z"/>
          <path class="cls-2" d="M674.9-405.4c-.5-.3-.9-.7-1.1-1.2-.6-1.3,0-2.9,1.3-3.5.8-.4,1.6-.3,2.4,0,.5.3.9.7,1.1,1.2.3.6.3,1.3,0,2-.2.6-.7,1.2-1.4,1.5-.8.4-1.6.3-2.4,0Z"/>
          <path class="cls-2" d="M577.5-333.3c-.5-.3-.9-.7-1.1-1.2-.3-.6-.3-1.3,0-2,.2-.7.7-1.2,1.3-1.5.8-.4,1.6-.3,2.4,0,.5.3.9.7,1.1,1.2.3.6.3,1.3,0,2-.2.6-.7,1.2-1.3,1.5-.8.4-1.6.3-2.4,0Z"/>
          <path class="cls-2" d="M625.5-281.4c-.4-.2-.7-.5-.9-.9-.2-.5-.3-1,0-1.6.2-.5.6-.9,1-1.1.6-.3,1.3-.3,1.8,0,.4.2.7.5.9.9.2.5.3,1,0,1.6-.2.5-.6.9-1.1,1.1-.6.3-1.2.3-1.8,0Z"/>
          <path class="cls-2" d="M725.5-190.2c-.5-.3-.9-.7-1.1-1.2-.3-.6-.3-1.3,0-2,.2-.7.7-1.2,1.3-1.5.7-.4,1.6-.3,2.4,0,.5.3.9.7,1.1,1.2.3.6.3,1.3,0,2-.2.6-.7,1.2-1.3,1.5-.8.4-1.6.3-2.4,0Z"/>
          <path class="cls-2" d="M895.4-287.5c-.5-.3-.9-.7-1.1-1.2-.3-.6-.3-1.3,0-2,.2-.6.7-1.2,1.3-1.5.8-.4,1.6-.3,2.4,0,.5.3.9.7,1.1,1.2.3.6.3,1.3,0,2-.2.7-.7,1.2-1.3,1.5-.8.4-1.6.3-2.3,0Z"/>
          <path class="cls-2" d="M613.2-400c-.5-.3-.9-.7-1.1-1.2-.3-.6-.3-1.3,0-2,.2-.6.7-1.2,1.4-1.5.8-.4,1.6-.3,2.4,0,.5.3.9.7,1.1,1.2.6,1.3,0,2.9-1.3,3.5-.8.4-1.6.3-2.4,0Z"/>
          <path class="cls-2" d="M707.1-367.8c-.5-.3-.9-.7-1.2-1.3-.3-.7-.4-1.4-.1-2.1.3-.7.8-1.3,1.4-1.6.8-.4,1.7-.4,2.5,0,.5.3.9.7,1.2,1.3.6,1.4,0,3.1-1.4,3.7-.8.4-1.7.4-2.5,0Z"/>
          <path class="cls-2" d="M777.9-375.9c-.5-.3-.9-.7-1.1-1.2-.3-.6-.3-1.3,0-2,.2-.7.7-1.2,1.3-1.5.8-.3,1.6-.3,2.4,0,.5.3.9.7,1.1,1.2.6,1.3,0,2.9-1.3,3.5-.8.4-1.6.3-2.4,0Z"/>
          <path class="cls-2" d="M835.9-496.5c-.5-.3-.9-.7-1.1-1.2-.6-1.3,0-2.9,1.3-3.5.8-.4,1.6-.3,2.4,0,.5.3.9.7,1.1,1.2.6,1.3,0,2.9-1.3,3.5-.8.4-1.6.3-2.3,0Z"/>
          <path class="cls-2" d="M726.9-629.9c-.5-.3-.9-.7-1.1-1.2-.3-.6-.3-1.3,0-2,.2-.6.7-1.2,1.3-1.5.8-.4,1.6-.3,2.4,0,.5.3.9.7,1.1,1.2.3.6.3,1.3,0,2-.2.7-.7,1.2-1.3,1.5-.8.4-1.6.3-2.4,0Z"/>
          <path class="cls-2" d="M736.3-810.9c-.3-.2-.6-.5-.7-.8-.4-.9,0-1.9.8-2.3.5-.2,1.1-.2,1.6,0,.3.2.6.5.7.8.2.4.2.9,0,1.3-.2.4-.5.8-.9,1-.5.2-1.1.2-1.6,0Z"/>
          <path class="cls-2" d="M823.9-823.4c-.5-.3-.9-.7-1.1-1.2-.3-.6-.3-1.3,0-2,.2-.7.7-1.2,1.3-1.5.8-.4,1.6-.3,2.3,0,.5.3.9.7,1.1,1.2.6,1.3,0,2.9-1.3,3.5-.8.4-1.6.3-2.4,0Z"/>
          <path class="cls-2" d="M847.6-928c-.5-.3-.9-.7-1.1-1.2-.3-.6-.3-1.3,0-2,.2-.7.7-1.2,1.3-1.5.8-.4,1.6-.3,2.4,0,.5.3.9.7,1.1,1.2.3.6.3,1.3,0,2-.2.7-.7,1.2-1.3,1.5-.8.4-1.6.3-2.4,0Z"/>
          <path class="cls-2" d="M728.6-1016.4c-.5-.3-.9-.7-1.1-1.2-.6-1.3,0-2.9,1.2-3.5.8-.4,1.6-.3,2.4,0,.5.3.9.7,1.1,1.2.3.6.3,1.3,0,2-.2.7-.7,1.2-1.3,1.5-.8.4-1.6.3-2.4,0Z"/>
          <path class="cls-2" d="M743.5-411.5c-.4-.2-.6-.5-.8-.9-.4-1,0-2.1.9-2.5.6-.3,1.2-.2,1.7,0,.4.2.6.5.8.9.2.5.2,1,0,1.5-.2.5-.5.9-1,1.1-.6.3-1.2.2-1.7,0Z"/>
          <path class="cls-2" d="M852.5-218.1c-.3-.2-.6-.4-.7-.8-.2-.4-.2-.9,0-1.3.1-.4.5-.8.9-.9.5-.2,1-.2,1.5,0,.3.2.6.4.7.8.4.8,0,1.8-.8,2.2-.5.2-1,.2-1.5,0Z"/>
          <path class="cls-2" d="M828.8-370c-.4-.2-.7-.6-.9-1-.2-.5-.3-1.1,0-1.6.2-.6.6-1,1.1-1.2.6-.3,1.3-.3,2,0,.4.2.7.6.9,1,.5,1.1,0,2.4-1,2.9-.6.3-1.3.3-2,0Z"/>
          <path class="cls-2" d="M772.1-522.9c-.5-.3-.9-.7-1.1-1.2-.6-1.3,0-2.8,1.3-3.5.8-.3,1.6-.3,2.4,0,.5.3.9.7,1.1,1.2.6,1.3,0,2.9-1.3,3.5-.8.4-1.6.3-2.4,0Z"/>
          <path class="cls-2" d="M797-613.3c-.4-.2-.7-.5-.9-1-.2-.5-.3-1.1,0-1.6.2-.5.6-1,1.1-1.2.6-.3,1.3-.3,1.9,0,.4.2.7.6.9,1,.2.5.3,1.1,0,1.6-.2.5-.6,1-1.1,1.2-.6.3-1.3.3-1.9,0Z"/>
          <path class="cls-2" d="M686.1-579.3c-.4-.2-.7-.5-.9-1-.2-.5-.3-1.1,0-1.6.2-.5.6-1,1.1-1.2.6-.3,1.3-.3,1.9,0,.4.2.7.5.9,1,.2.5.3,1.1,0,1.6-.2.5-.6,1-1.1,1.2-.6.3-1.3.3-1.9,0Z"/>
          <path class="cls-2" d="M693.7-735.5c-.3-.2-.6-.4-.7-.8-.2-.4-.2-.9,0-1.3.2-.4.5-.8.9-.9.5-.2,1-.2,1.5,0,.3.2.6.4.7.8.4.8,0,1.8-.8,2.2-.5.2-1,.2-1.5,0Z"/>
          <path class="cls-2" d="M792.6-311.4c-.5-.3-.9-.7-1.1-1.2-.6-1.3,0-2.9,1.3-3.5.8-.4,1.6-.3,2.4,0,.5.3.9.7,1.1,1.2.3.6.3,1.3,0,2-.2.6-.7,1.2-1.3,1.5-.8.4-1.6.3-2.4,0Z"/>
        </g>
        <g>
          <path class="cls-2" d="M243.1-1255.5c-2.5-1.3-3.4-4.4-2-6.9,1.3-2.4,4.4-3.4,6.9-2,2.5,1.3,3.3,4.4,2,6.9-1.3,2.4-4.4,3.4-6.9,2ZM247.9-1264.2c-2.4-1.3-5.4-.4-6.7,1.9-1.3,2.4-.4,5.4,2,6.7,2.4,1.3,5.4.4,6.7-2,1.3-2.4.4-5.3-2-6.6Z"/>
          <path class="cls-2" d="M352.1-1146.5c-2.4-1.3-3.4-4.4-2-6.9,1.3-2.5,4.4-3.4,6.9-2,2.5,1.3,3.4,4.4,2,6.9-1.3,2.5-4.4,3.4-6.9,2ZM356.9-1155.3c-2.4-1.3-5.4-.4-6.6,1.9-1.3,2.4-.4,5.4,2,6.6,2.4,1.3,5.4.4,6.6-1.9,1.3-2.4.4-5.4-2-6.6Z"/>
          <path class="cls-2" d="M449-1219.7c-2.4-1.3-3.4-4.4-2-6.9,1.3-2.5,4.4-3.4,6.9-2,2.5,1.3,3.4,4.4,2,6.9-1.3,2.5-4.4,3.4-6.9,2ZM453.8-1228.4c-2.4-1.3-5.4-.4-6.6,2-1.3,2.4-.4,5.3,1.9,6.7,2.4,1.3,5.4.4,6.7-2,1.3-2.4.4-5.4-2-6.7Z"/>
          <path class="cls-2" d="M532.4-1265.5c-2.5-1.3-3.4-4.4-2-6.9,1.3-2.5,4.4-3.4,6.9-2,2.5,1.3,3.4,4.4,2,6.9-1.3,2.5-4.4,3.4-6.9,2ZM537.2-1274.3c-2.4-1.3-5.4-.4-6.6,2-1.3,2.4-.4,5.3,2,6.6,2.4,1.3,5.4.4,6.6-2,1.3-2.4.4-5.4-2-6.6Z"/>
          <path class="cls-2" d="M560.1-1200.6c-2.5-1.3-3.4-4.4-2-6.9,1.3-2.5,4.4-3.4,6.9-2,2.5,1.3,3.4,4.4,2,6.9-1.3,2.5-4.4,3.4-6.9,2ZM564.9-1209.3c-2.4-1.3-5.4-.4-6.6,1.9-1.3,2.4-.4,5.4,2,6.7,2.4,1.3,5.4.4,6.6-2,1.3-2.4.4-5.4-2-6.6Z"/>
          <path class="cls-2" d="M445.4-1163.8c-2.5-1.3-3.4-4.4-2-6.9,1.3-2.4,4.4-3.4,6.9-2,2.5,1.3,3.4,4.4,2,6.9-1.3,2.5-4.4,3.4-6.9,2ZM450.2-1172.6c-2.4-1.3-5.4-.4-6.6,2-1.3,2.4-.4,5.4,1.9,6.6,2.4,1.3,5.4.4,6.7-2,1.3-2.4.4-5.4-2-6.6Z"/>
          <path class="cls-2" d="M766.1-1202.2c-2.5-1.3-3.4-4.4-2-6.9,1.3-2.5,4.4-3.4,6.9-2,2.5,1.3,3.4,4.4,2,6.9-1.3,2.5-4.4,3.4-6.9,2ZM770.9-1211c-2.4-1.3-5.4-.4-6.7,2-1.3,2.4-.4,5.4,2,6.6,2.4,1.3,5.4.4,6.6-1.9,1.3-2.4.4-5.4-1.9-6.7Z"/>
          <path class="cls-2" d="M488.4-1056.4c-2.4-1.3-3.3-4.4-2-6.9,1.3-2.5,4.4-3.4,6.9-2,2.5,1.3,3.4,4.4,2,6.9-1.3,2.5-4.4,3.4-6.9,2ZM493.2-1065.1c-2.4-1.3-5.4-.4-6.7,2-1.3,2.4-.4,5.4,2,6.7,2.4,1.3,5.4.4,6.7-2,1.3-2.4.4-5.4-2-6.6Z"/>
          <path class="cls-2" d="M677.2-932.4c-2.5-1.3-3.4-4.4-2-6.9,1.3-2.4,4.4-3.4,6.9-2,2.5,1.3,3.4,4.4,2,6.9-1.3,2.5-4.4,3.4-6.9,2ZM682-941.1c-2.4-1.3-5.4-.4-6.7,2-1.3,2.4-.4,5.4,2,6.7,2.4,1.3,5.4.4,6.7-2,1.3-2.4.4-5.3-2-6.6Z"/>
          <path class="cls-2" d="M624.4-783.5c-2.5-1.3-3.4-4.4-2-6.9,1.3-2.5,4.4-3.4,6.9-2,2.5,1.3,3.4,4.4,2,6.9-1.3,2.4-4.4,3.4-6.9,2ZM629.2-792.3c-2.4-1.3-5.4-.4-6.7,2-1.3,2.4-.4,5.4,2,6.7,2.4,1.3,5.4.4,6.7-2,1.3-2.4.4-5.4-2-6.7Z"/>
          <path class="cls-2" d="M822.7-821.2c-2.5-1.3-3.4-4.4-2-6.9,1.3-2.5,4.4-3.4,6.9-2,2.5,1.3,3.4,4.4,2,6.9-1.3,2.5-4.4,3.4-6.9,2ZM827.5-830c-2.4-1.3-5.4-.4-6.7,1.9-1.3,2.4-.4,5.4,2,6.7,2.4,1.3,5.4.4,6.7-2,1.3-2.4.4-5.3-2-6.6Z"/>
          <path class="cls-2" d="M815.5-684.3c-2.5-1.3-3.4-4.4-2-6.9,1.3-2.5,4.4-3.4,6.9-2,2.5,1.3,3.4,4.4,2,6.9-1.3,2.5-4.4,3.4-6.9,2ZM820.3-693.1c-2.4-1.3-5.4-.4-6.7,2-1.3,2.4-.4,5.4,2,6.6,2.4,1.3,5.4.4,6.7-2,1.3-2.4.4-5.4-2-6.7Z"/>
          <path class="cls-2" d="M725.7-627.7c-2.5-1.3-3.4-4.4-2-6.9,1.3-2.5,4.4-3.4,6.9-2,2.5,1.3,3.4,4.4,2,6.9-1.3,2.5-4.4,3.4-6.9,2ZM730.5-636.5c-2.4-1.3-5.4-.4-6.6,1.9-1.3,2.4-.4,5.4,1.9,6.7,2.4,1.3,5.4.4,6.7-1.9,1.3-2.4.4-5.4-2-6.7Z"/>
          <path class="cls-2" d="M834.9-494.5c-2.5-1.3-3.4-4.4-2-6.9,1.3-2.4,4.4-3.4,6.9-2,2.5,1.3,3.4,4.4,2,6.9-1.3,2.5-4.4,3.4-6.9,2ZM839.6-503.3c-2.4-1.3-5.4-.4-6.6,2-1.3,2.4-.4,5.3,1.9,6.6,2.4,1.3,5.4.4,6.7-2,1.3-2.4.4-5.4-2-6.7Z"/>
          <path class="cls-2" d="M776.8-373.8c-2.5-1.3-3.4-4.4-2-6.9,1.3-2.4,4.4-3.4,6.9-2,2.5,1.3,3.4,4.4,2,6.9-1.3,2.5-4.4,3.4-6.9,2ZM781.5-382.5c-2.4-1.3-5.4-.4-6.6,2-1.3,2.4-.4,5.4,2,6.6,2.4,1.3,5.4.4,6.7-1.9,1.3-2.4.4-5.4-2-6.7Z"/>
          <path class="cls-2" d="M612.1-397.8c-2.4-1.3-3.4-4.4-2-6.9,1.3-2.5,4.4-3.4,6.9-2,2.5,1.3,3.4,4.4,2,6.9-1.3,2.5-4.4,3.4-6.9,2ZM616.8-406.6c-2.4-1.3-5.3-.4-6.6,2-1.3,2.4-.4,5.4,1.9,6.6,2.4,1.3,5.4.4,6.6-2,1.3-2.4.4-5.4-2-6.6Z"/>
          <path class="cls-2" d="M894.2-285.3c-2.5-1.3-3.4-4.4-2-6.9,1.3-2.5,4.4-3.4,6.9-2,2.5,1.3,3.4,4.4,2,6.9-1.3,2.5-4.4,3.4-6.9,2ZM899-294c-2.4-1.3-5.4-.4-6.6,2-1.3,2.4-.4,5.4,2,6.7,2.4,1.3,5.4.4,6.6-2,1.3-2.4.4-5.4-2-6.7Z"/>
          <path class="cls-2" d="M739.1-284.7c-2.5-1.3-3.4-4.4-2-6.9,1.3-2.5,4.4-3.4,6.9-2,2.5,1.3,3.4,4.4,2,6.9-1.3,2.5-4.4,3.4-6.9,2ZM743.9-293.5c-2.4-1.3-5.4-.4-6.6,2-1.3,2.4-.4,5.4,2,6.6,2.4,1.3,5.4.4,6.6-1.9,1.3-2.4.4-5.4-2-6.7Z"/>
          <path class="cls-2" d="M724.3-188c-2.5-1.3-3.4-4.4-2-6.9,1.3-2.5,4.4-3.4,6.9-2,2.5,1.3,3.4,4.4,2,6.9-1.3,2.5-4.4,3.4-6.9,2ZM729.1-196.8c-2.4-1.3-5.4-.4-6.7,2-1.3,2.4-.4,5.4,1.9,6.6,2.4,1.3,5.4.4,6.7-2,1.3-2.4.4-5.4-1.9-6.6Z"/>
          <path class="cls-2" d="M727.6-1014.2c-2.4-1.3-3.4-4.4-2-6.9,1.3-2.5,4.4-3.4,6.9-2,2.5,1.3,3.4,4.4,2,6.9-1.3,2.5-4.4,3.4-6.9,2ZM732.3-1022.9c-2.4-1.3-5.4-.4-6.6,2-1.3,2.4-.4,5.4,2,6.7,2.4,1.3,5.4.4,6.7-2,1.3-2.4.4-5.4-2-6.7Z"/>
          <path class="cls-2" d="M846.4-925.8c-2.4-1.3-3.4-4.4-2-6.9,1.3-2.5,4.4-3.4,6.9-2,2.5,1.3,3.4,4.4,2,6.9-1.3,2.4-4.4,3.4-6.9,2ZM851.2-934.5c-2.4-1.3-5.4-.4-6.7,2-1.3,2.4-.4,5.4,2,6.7,2.4,1.3,5.4.4,6.6-2,1.3-2.4.4-5.4-2-6.7Z"/>
          <path class="cls-2" d="M550.8-1070.3c-2.5-1.3-3.4-4.4-2-6.9,1.3-2.4,4.4-3.4,6.9-2,2.5,1.3,3.4,4.4,2,6.9-1.3,2.5-4.4,3.4-6.9,2ZM555.5-1079.1c-2.4-1.3-5.4-.4-6.6,2-1.3,2.4-.4,5.4,2,6.7,2.4,1.3,5.3.4,6.6-2,1.3-2.4.4-5.4-2-6.7Z"/>
          <path class="cls-2" d="M728.9-1108.4c-2.5-1.3-3.4-4.4-2-6.9,1.3-2.5,4.4-3.4,6.9-2,2.5,1.3,3.4,4.4,2,6.9-1.3,2.5-4.4,3.4-6.9,2ZM733.7-1117.2c-2.4-1.3-5.4-.4-6.7,2-1.3,2.4-.4,5.4,2,6.7,2.4,1.3,5.4.4,6.6-2,1.3-2.4.4-5.4-2-6.6Z"/>
        </g>
      </g>
    </g>
    <g>
      <g>
        <path class="cls-1" d="M750-167.5v-.6c-.1,0,143.6-146.7,143.6-146.7l.4.4-.3-.6,4.9-124.3,62.6,40.7v-.2l-.3-.5-60-97.3.2-.4v-.5s-.5.8-.5.8l-55.2,22.6-38.6-25.1v-.2c0,0-.2.1-.2.1l-103.9-2.1h0c0-.1,0,0,0,0l-83.7-68.3,29.7-98.6,125.6-92.8.2-.2-102.3-24.7,35.1-48.7h0c0,0,0-.2,0-.2h0s-9.5-86.2-9.5-86.2l93.1-6.2h0c0,0,55.7-153,55.7-153h.1c0,0,0-.1,0-.1h.2c0-.1-.2-.2-.2-.2l-54.7-232.5,193.4-58.4h0c0,0,42.6-135.2,42.6-135.2l102.7,18.7h1.1c0,0-.5-.2-.5-.2l-86.6-68.9,38.7-116.5,72.7-15.9h.4c0,0,69.6,33.4,69.6,33.4h.4s0,0,0,0l2.1-103.8h0s0,0,0,0l153.7-71.6h-.6s-200.1-3.1-200.1-3.1h0c0,0-46.2,75.6-46.2,75.6l-62.6.8-97.3-46-39.7-105.2v.2c-.1,0-69.4,95.9-69.4,95.9l-47.2,4.2h-.2c0,0,0,.1,0,.1l-61.1,144.2h-.2c0-.1,0,0,0,0l-164.3-37.8h0c0,.1-63.6,117.3-63.6,117.3h.2c0,0,43.6,51.4,43.6,51.4l-40,14.1h.2c0,.1,135.5,98.9,135.5,98.9l-172.3,145-.6-.3.5.5,45.6,156.4h0s134.5,12,134.5,12l15.1,136.5-126.2,58.2h-.4s84.8,46.6,84.8,46.6l-47.5,63.3h0c0,0,26,76.4,26,76.4l-74.7,103.6h-.2c0,0,.1.2.1.2l52.3,93.7-29.5,97.8-.7.3h.7c0-.1,59.7,84.6,59.7,84.6l-153.4,45.8h-.5s.4.3.4.3l100.9,50-29,52.9.5-.3,55.3-39.3,138.8,68.7.4.6ZM718.9-313.6l85.1-85.5,89.3,84-174.4,1.5ZM900.7-496.2l-2.2,56.4-32.8-21.3,34.9-35.1v.4c-.1,0,.1-.4.1-.4ZM865.2-461l-27.3,27.5-14.7-31.2,22.3-9.1,19.7,12.8ZM837.7-433.4l-33.7,33.9-42.5-40,61.5-25.2,14.7,31.2ZM707.8-442.4l-4.9-58.5,58,61.2-53.1-2.7ZM653-445.2l-75.2,14,63.3-35.4,11.9,21.4ZM641.3-466.7l60.8-34.1-48.9,55.5-12-21.4ZM702.3-500.6l-24,56.6-24.8-1.3,48.8-55.4ZM702.6-500.7l4.9,58.3-29-1.5,24.1-56.8ZM761.2-439.4h0c0,0,0,0,0,0l42.5,40-85.1,85.5-10.8-128.4,53.3,2.7ZM804.1-399.3l33.6-33.8,55.4,117.5-89-83.8ZM893.5-315.5l-55.5-117.8,27.4-27.6,33,21.4-4.9,123.9ZM960.7-399.2l-62-40.3,2.3-56.7,59.8,97ZM900.3-496.3l-34.9,35.1-19.6-12.8,54.5-22.3ZM845.2-474l-22.1,9.1-16-33.9,38.1,24.8ZM822.8-464.9l-61.2,25,45.1-59.1,16,34.1ZM806.5-499.1l-45.3,59.4-58.2-61.4,103.5,2ZM672-786.1l-68.6-16.6,103.6-32-35,48.5ZM691.9-921l4.9-6.6.7,6.2-5.6.4ZM790.8-927.5l-92.9,6.2-.7-6.5,51.7-68.9,97.5-83.3-55.6,152.5ZM846.3-1080.4l-97.4,83.2-2.1-99.1,99.5,15.9ZM746.8-1096.5l-.6-30.7,99.5,46.4-98.9-15.8ZM715.4-1268.9l37.3-32.2-7.6,130.6-29.7-98.3ZM745-1170l-96.4-41.2,66.6-57.5,29.8,98.7ZM715.3-1269.2l-8.7-28.9,45.9-3.2-37.2,32.1ZM706.5-1298.3l-9.5-31.5,78.5-51.4-22.8,79.7-46.3,3.2ZM706.2-1298.3l-64.3,4.5,54.9-35.9,9.5,31.4ZM706.3-1298l8.8,29.1-66.8,57.6-21.6-9.2,14.8-72.9,64.8-4.5ZM648.1-1211.1l-28.3,24.4,6.8-33.5,21.4,9.2ZM648.4-1211l95.9,41-124.3-16.4,28.4-24.5ZM744.9-1169.7l-30.1,27.6-94.3-44,124.4,16.4ZM714.6-1141.9l-37.4,34.3-57.1-78.4,94.5,44.1ZM715-1142l30.1-27.5.9,41.9-30.9-14.4ZM745.3-1169.5l100.5,88.6-99.6-46.5-.9-42ZM846.4-1080.8l-101-89h0c0,0-.2-.1-.2-.1l7.7-131.4,38.7-11.7,54.6,232.2ZM753.1-1301.6l22.7-79.4,15.9,67.8-38.6,11.6ZM791.9-1313.3l-16-68.1,208.6,9.9-192.6,58.2ZM776.1-1381.6l77.5-69.7,131.3,79.6-208.8-9.9ZM984.5-1698.7l27.4,7-57,62.4,29.6-69.3ZM954.4-1629l-48.2-89.6,78.1,19.9-29.8,69.7ZM1012.3-1691.9l19.3-21.1,51,39.1-70.4-17.9ZM1012-1692l-27.5-7,16.1-37.7,30.8,23.5-19.4,21.2ZM984.3-1699l-78.2-19.9,17.3-48.5,77.1,30.6-16.2,37.8ZM923.4-1767.7l18.5-51.9,58.3,82.5-76.8-30.5ZM923.1-1767.6l-17.3,48.5-61.3-63.7,9-12.4,69.6,27.6ZM905.3-1719.2l-82-34.3,20.9-29,61,63.3ZM905.5-1718.9l-76.5,28-5.7-62.4,82.2,34.4ZM905.6-1718.6l-68.5,115.9-8-87.9,76.5-28ZM905.9-1718.6l48.3,89.8-116.4,27-.6-.5,68.7-116.3ZM800.8-1483.6l130.7-38.3-78,70.3-52.6-31.9ZM853.3-1451.5l-77.3,69.6,24.7-101.5,52.7,31.9ZM800.8-1483.8l36.3-117.9.4.3h0s.2,0,.2,0l94.1,79.3-131,38.4ZM836.7-1601.8l-36.2,117.6-14.8-62.6,50.9-55.1ZM785.7-1547l-9.9-41.9,60.8-13.1-50.9,55ZM932.2-1522.3l22.3-106.1,73.2,121.4-95.4-15.4ZM932-1522.5l-93.9-79.2,116.2-26.9-22.3,106.1ZM775.8-1589.2l-17.8-75.2,78.4,62.1-60.6,13.1ZM775.5-1589.1l-116.7,25.2,98.9-100.5,17.8,75.3ZM658.4-1563.9l-26.7-56.9,125.5-43.6-98.9,100.5ZM775.6-1588.9l9.9,42.1-68.4,74-58.5-90.8,117-25.3ZM785.6-1546.5l14.8,62.8-69.1,33-14.1-21.8,68.3-73.9ZM731.1-1450.6l-61.2,29.2,47.1-51,14,21.8ZM800.4-1483.4l-24.7,101.6-44.2-68.7,68.9-32.9ZM853.7-1451.5l78.3-70.5,53,150.1-131.3-79.6ZM1027.7-1506.5l-42.4,134.5-53.1-150.1,95.4,15.4v.2ZM1130.8-1488.2l-102.5-18.7v-.3c0,0,16.4-49.6,16.4-49.6l86.1,68.5ZM1044.4-1556.9l-16.5,49.8-73-121.1,89.5,71.3ZM1044.5-1557.2l-89.8-71.5,128.4-44.8-38.6,116.3ZM954.8-1629l57.3-62.6,70.7,18-128,44.6ZM1031.8-1713.2l40.9-44.7,41.3,33.7-30.8,50.3-51.4-39.3ZM1136.7-1705.6l-53.1,31.5,30.5-49.9,22.5,18.4ZM1137.2-1705.5l90.3-53.7-71.1,69.4-19.2-15.7ZM1084-1674l52.9-31.4,19.2,15.7-72.1,15.8ZM1226.2-1656.2l-69.5-33.5,71.6-69.9-2.1,103.4ZM1381.1-1831.2l-152.1,70.8.2-.2-.8.5-46.5-74.2,199.2,3.1ZM1181.7-1834.1l46.5,74.1-92.5,1.1,46-75.2ZM1227.9-1759.8l-90.9,54-22.6-18.5,21.1-34.5,92.4-1.1ZM1135.2-1758.7l-21,34.3-41.1-33.6,62.1-.7ZM1072.5-1758l-40.8,44.7-30.9-23.6-25.3-66.9,97,45.9ZM975.2-1804l25,66.2-57.9-81.8,32.9,15.5ZM975-1804.4l-33-15.6-6.2-88.3,39.2,103.9ZM935.5-1908.8l6.2,88.7-75.1,6.6,68.9-95.4ZM941.7-1819.8l-18.5,51.9-69.5-27.6,12.8-17.7,75.3-6.6ZM866.1-1813.1l-12.7,17.5-33.8-13.4,46.5-4.1ZM853.2-1795.3l-8.9,12.3-24.8-25.7,33.7,13.4ZM844.2-1782.8l-20.9,28.9-4.1-54.8,25,25.9ZM818.9-1808.5l4.1,55-64.7,87.9,60.6-142.8ZM823.1-1753.1l5.7,62.3-70.6,25.8,64.9-88.2ZM828.8-1690.5l8.1,88.2h-.2s-78.6-62.3-78.6-62.3l70.8-25.9ZM757.3-1664.7l-125.7,43.6-38.1-81.3,163.8,37.7ZM593.3-1702.2l38.1,81.3-101.2,35.1,63.2-116.4ZM530.1-1585.5l101.4-35.2,26.7,57h0s0,0,0,0l-84.5,29.7-43.6-51.5ZM534-1519.8l39.6-13.9,94.9,112-134.5-98.1ZM573.9-1533.8l84.4-29.7,10.9,142.1-95.3-112.5ZM658.6-1563.2l58.4,90.6-47.5,51.3-10.9-141.9ZM669.7-1421l61.6-29.4,44.2,68.6-105.8-39.2ZM775.5-1381.5l-78.5,51.4-27.4-90.7,105.9,39.3ZM669.3-1420.8l27.4,90.8-55.3,36.2-144.1,17.7,172-144.7ZM497.4-1275.8l143.9-17.7-14.8,72.8-129.1-55.1ZM626.4-1220.4l-6.9,33.9-.2.2h.2s56.6,77.8,56.6,77.8l-178.7-166.9,128.9,55.1ZM542.6-1119.6l-45.5-155.8,179.6,167.8-134.2-12ZM677.4-1107.6l37.4-34.2,31.1,14.5.6,30.7-69.2-11ZM746.6-1096.3l2.1,99-71.3-110,69.2,11ZM677.3-1107l71.3,110-56.2,26-15.1-136ZM748.4-996.5l-51.3,68.3-4.7-42.4,56-25.8ZM692.1-970.6l4.7,42.6-5.3,7-125,8.3,125.5-57.9ZM566.4-912.4l125-8.3-40.9,54.4-84.1-46.2ZM650.7-866.1l41-54.6,5.9-.4,9.5,85.9-56.4-30.9ZM650.6-865.9l56.4,31-103.6,32,47.3-62.9ZM603.2-802.5l68.6,16.6-42.8,59.4-25.8-75.9ZM672.1-785.9l101.9,24.6-125.3,92.5-19.6-57.6,43-59.6ZM628.9-726l19.5,57.4-93.8,45.7,74.3-103.1ZM554.4-622.6l94-45.8-29.6,98.3-64.3-52.6ZM554.6-622l64.1,52.3-12.2,40.6-51.8-92.9ZM606.7-528.8l12.3-40.7,83.6,68.3-61.3,34.3-34.5-61.9ZM606.6-528.5l34.4,61.6-63.7,35.7,29.3-97.3ZM577.2-430.8l76-14.2,24.9,1.3-41.4,97.5-59.6-84.6ZM637-346l41.4-97.7,29.1,1.5,10.8,128.5-81.4-32.3ZM717.9-313.6l-58.3,3.3-22.5-35.4,80.8,32ZM676.5-283.7l-16.7-26.3,58.3-3.3-41.6,29.6ZM718.5-313.3l31,144.4-72.9-114.7,41.8-29.7ZM616.1-307.8l20.8-37.9,22.5,35.4-43.3,2.5ZM636.6-345.7l-20.8,37.9-131.5,7.5,152.3-45.4ZM483.7-300l131.9-7.5-31.4,57.3-100.5-49.7ZM584.4-250.1l31.5-57.4,43.6-2.5,16.8,26.4-65.5,46.5-26.4-13ZM555.8-198l28.5-51.9,26.3,13-54.7,38.9ZM611.1-237l65.3-46.4,73,114.9-138.3-68.5ZM718.7-313.4l174.6-1.5-143.4,146.4-31.1-144.9Z"/>
        <g>
          <path class="cls-2" d="M1183.6-1831.3c1.7-1.1,2.2-3.3,1.2-5-1.1-1.7-3.3-2.2-5-1.2-1.7,1.1-2.2,3.3-1.2,5,1.1,1.7,3.3,2.2,5,1.2Z"/>
          <path class="cls-2" d="M1002.5-1733.9c1.7-1,2.2-3.2,1.1-4.9-1-1.7-3.2-2.2-4.9-1.1-1.7,1-2.2,3.2-1.1,4.9,1,1.7,3.2,2.2,4.9,1.1Z"/>
          <path class="cls-2" d="M937.2-1906.6c1.4-.9,1.9-2.8,1-4.2-.9-1.4-2.8-1.9-4.2-1-1.4.9-1.9,2.8-1,4.2.9,1.4,2.8,1.8,4.2,1Z"/>
          <path class="cls-2" d="M825.3-1750.1c1.8-1.2,2.4-3.6,1.2-5.4-1.2-1.8-3.6-2.4-5.5-1.3-1.8,1.2-2.4,3.6-1.2,5.5,1.2,1.9,3.6,2.4,5.4,1.3Z"/>
          <path class="cls-2" d="M595.5-1699.2c1.8-1.2,2.4-3.6,1.2-5.5-1.2-1.8-3.6-2.4-5.5-1.2-1.8,1.2-2.4,3.6-1.2,5.5,1.2,1.9,3.6,2.4,5.5,1.2Z"/>
          <path class="cls-2" d="M759.9-1661.3c1.8-1.2,2.4-3.6,1.2-5.5-1.2-1.8-3.6-2.4-5.5-1.3-1.8,1.2-2.4,3.6-1.3,5.5,1.2,1.8,3.6,2.4,5.5,1.2Z"/>
          <path class="cls-2" d="M821.2-1805.6c1.9-1.2,2.5-3.7,1.3-5.6-1.2-1.9-3.7-2.5-5.6-1.3-1.9,1.2-2.5,3.7-1.3,5.6,1.2,1.9,3.7,2.5,5.6,1.3Z"/>
          <path class="cls-2" d="M944-1816.6c1.8-1.2,2.4-3.6,1.2-5.4-1.2-1.8-3.6-2.4-5.4-1.2-1.8,1.2-2.4,3.6-1.3,5.4,1.2,1.9,3.6,2.4,5.5,1.3Z"/>
          <path class="cls-2" d="M1074.8-1754.7c1.9-1.2,2.4-3.6,1.3-5.5-1.2-1.8-3.6-2.4-5.4-1.2-1.9,1.2-2.4,3.6-1.2,5.5,1.1,1.8,3.6,2.4,5.4,1.3Z"/>
          <path class="cls-2" d="M1158.1-1687c1.4-.9,1.9-2.8,1-4.2-.9-1.4-2.8-1.9-4.2-1-1.4.9-1.9,2.8-1,4.2.9,1.4,2.8,1.9,4.2,1Z"/>
          <path class="cls-2" d="M1132.7-1485.7c1.3-.8,1.6-2.5.8-3.7-.8-1.3-2.5-1.7-3.7-.9-1.3.8-1.6,2.5-.8,3.7.8,1.3,2.5,1.6,3.7.9Z"/>
          <path class="cls-2" d="M747.3-1166.5c1.8-1.2,2.4-3.6,1.3-5.5-1.2-1.9-3.6-2.4-5.4-1.3-1.9,1.2-2.4,3.6-1.3,5.5,1.2,1.9,3.6,2.4,5.5,1.3Z"/>
          <path class="cls-2" d="M848.7-1077.1c1.9-1.2,2.4-3.6,1.2-5.4-1.2-1.9-3.6-2.4-5.5-1.3-1.8,1.2-2.4,3.6-1.3,5.5,1.2,1.8,3.6,2.4,5.5,1.2Z"/>
          <path class="cls-2" d="M793-924.1c1.8-1.2,2.4-3.6,1.2-5.5-1.2-1.9-3.6-2.4-5.5-1.3-1.8,1.2-2.4,3.6-1.2,5.4,1.2,1.8,3.6,2.4,5.5,1.3Z"/>
          <path class="cls-2" d="M568-909.1c1.9-1.2,2.4-3.6,1.3-5.5-1.2-1.9-3.6-2.4-5.5-1.2-1.9,1.2-2.4,3.6-1.2,5.5,1.1,1.8,3.6,2.4,5.4,1.3Z"/>
          <path class="cls-2" d="M531.2-1583.5c1.2-.7,1.5-2.3.8-3.4-.7-1.1-2.3-1.5-3.4-.8-1.2.7-1.5,2.3-.8,3.4.7,1.2,2.3,1.5,3.4.8Z"/>
          <path class="cls-2" d="M535.2-1517.5c1.3-.8,1.7-2.6.9-3.9-.8-1.3-2.6-1.7-3.9-.9-1.3.8-1.7,2.6-.9,3.9.8,1.3,2.6,1.7,3.9.9Z"/>
          <path class="cls-2" d="M1085.4-1670.3c1.8-1.2,2.4-3.6,1.2-5.5-1.2-1.8-3.6-2.4-5.5-1.2-1.8,1.1-2.4,3.6-1.2,5.5,1.1,1.8,3.6,2.4,5.5,1.2Z"/>
          <path class="cls-2" d="M1383.8-1827.9c1.8-1.2,2.4-3.6,1.2-5.5-1.2-1.8-3.6-2.4-5.4-1.2-1.9,1.2-2.4,3.6-1.3,5.5,1.2,1.8,3.6,2.4,5.5,1.2Z"/>
          <path class="cls-2" d="M1228.4-1652.7c1.9-1.2,2.4-3.6,1.2-5.5-1.2-1.8-3.6-2.4-5.4-1.2-1.8,1.1-2.4,3.6-1.2,5.4,1.2,1.9,3.6,2.4,5.5,1.3Z"/>
          <path class="cls-2" d="M1030-1503.4c1.8-1.2,2.4-3.6,1.2-5.5-1.2-1.9-3.6-2.4-5.4-1.2-1.9,1.2-2.4,3.6-1.3,5.4,1.2,1.9,3.6,2.4,5.5,1.3Z"/>
          <path class="cls-2" d="M956.5-1625.4c1.8-1.2,2.4-3.6,1.2-5.5-1.2-1.8-3.6-2.4-5.4-1.2-1.8,1.2-2.4,3.6-1.2,5.5,1.2,1.8,3.6,2.4,5.5,1.3Z"/>
          <path class="cls-2" d="M908-1715.5c1.8-1.2,2.4-3.6,1.2-5.5-1.1-1.8-3.6-2.4-5.5-1.3-1.9,1.2-2.4,3.6-1.2,5.5,1.2,1.9,3.6,2.4,5.4,1.3Z"/>
          <path class="cls-2" d="M839.4-1598.5c2.1-1.3,2.7-4.1,1.4-6.2-1.3-2.1-4.1-2.7-6.2-1.4-2.1,1.3-2.7,4.1-1.4,6.2,1.3,2.1,4.1,2.7,6.2,1.4Z"/>
          <path class="cls-2" d="M660.5-1560.3c1.8-1.2,2.4-3.6,1.2-5.4-1.1-1.9-3.6-2.4-5.5-1.3-1.8,1.2-2.4,3.6-1.2,5.5,1.2,1.9,3.6,2.4,5.5,1.2Z"/>
          <path class="cls-2" d="M802.7-1480.3c1.8-1.2,2.4-3.6,1.3-5.4-1.2-1.9-3.6-2.4-5.5-1.3-1.8,1.2-2.4,3.6-1.3,5.5,1.2,1.9,3.6,2.4,5.5,1.3Z"/>
          <path class="cls-2" d="M934.1-1518.9c1.8-1.2,2.4-3.6,1.3-5.4-1.2-1.8-3.6-2.4-5.4-1.3-1.9,1.2-2.4,3.6-1.3,5.5,1.2,1.9,3.6,2.4,5.5,1.2Z"/>
          <path class="cls-2" d="M777.9-1378.2c1.8-1.2,2.4-3.6,1.2-5.5-1.2-1.8-3.6-2.4-5.5-1.3-1.8,1.2-2.4,3.6-1.2,5.5,1.1,1.9,3.6,2.4,5.5,1.3Z"/>
          <path class="cls-2" d="M643.5-1290.3c1.8-1.2,2.4-3.6,1.2-5.5-1.2-1.8-3.6-2.4-5.4-1.3-1.9,1.2-2.4,3.6-1.3,5.5,1.2,1.9,3.6,2.4,5.5,1.3Z"/>
          <path class="cls-2" d="M621.2-1183.9c1.4-.9,1.8-2.7.9-4.1-.9-1.4-2.7-1.8-4.1-.9-1.4.9-1.8,2.7-.9,4.1.9,1.4,2.7,1.8,4.1.9Z"/>
          <path class="cls-2" d="M986.8-1369.3c1.3-.8,1.7-2.5.9-3.8-.8-1.3-2.5-1.6-3.8-.9-1.3.8-1.7,2.5-.9,3.8.8,1.3,2.5,1.6,3.8.9Z"/>
          <path class="cls-2" d="M755-1298.1c1.8-1.2,2.4-3.6,1.2-5.5-1.1-1.8-3.6-2.4-5.4-1.2-1.8,1.2-2.4,3.6-1.3,5.4,1.2,1.9,3.6,2.4,5.5,1.3Z"/>
          <path class="cls-2" d="M1229.4-1758.2c.9-.6,1.2-1.8.6-2.7-.6-.9-1.8-1.2-2.7-.6-.9.6-1.2,1.8-.6,2.7.6.9,1.8,1.2,2.7.6Z"/>
          <path class="cls-2" d="M720.7-310.2c.7-.4,1.2-1.1,1.6-1.9.4-1,.4-2.1,0-3-.4-1-1.2-1.7-2.2-2.1-1.2-.5-2.5-.3-3.6.3-.7.4-1.3,1.1-1.6,1.9-.8,2,.2,4.3,2.2,5.1,1.2.5,2.5.3,3.6-.3Z"/>
          <path class="cls-2" d="M808.9-495.8c.7-.4,1.3-1.1,1.6-1.9.8-2-.2-4.3-2.2-5.1-1.2-.5-2.5-.3-3.6.3-.7.5-1.3,1.1-1.6,1.9-.4,1-.4,2.1,0,3,.4,1,1.2,1.7,2.2,2.1,1.2.5,2.5.4,3.6-.3Z"/>
          <path class="cls-2" d="M963.2-395.5c.7-.4,1.3-1.1,1.6-1.9.4-1,.4-2.1,0-3-.4-1-1.2-1.7-2.2-2.1-1.2-.5-2.5-.3-3.6.3-.7.4-1.3,1.1-1.6,1.9-.4,1-.4,2,0,3,.4,1,1.2,1.7,2.2,2.1,1.2.5,2.5.4,3.6-.3Z"/>
          <path class="cls-2" d="M895.2-312.4c.5-.4,1-.9,1.2-1.5.3-.8.3-1.6,0-2.4-.3-.7-.9-1.3-1.7-1.6-.9-.4-1.9-.3-2.8.3-.6.3-1,.9-1.2,1.5-.3.8-.3,1.6,0,2.4.3.8.9,1.3,1.7,1.6.9.4,1.9.3,2.8-.3Z"/>
          <path class="cls-2" d="M751.9-164.8c.7-.4,1.2-1.1,1.6-1.9.4-1,.4-2.1,0-3-.4-1-1.2-1.7-2.2-2.1-1.2-.5-2.5-.4-3.6.3-.7.5-1.3,1.1-1.6,1.9-.4,1-.4,2.1,0,3,.4,1,1.2,1.7,2.2,2.1,1.2.5,2.5.4,3.6-.3Z"/>
          <path class="cls-2" d="M485.3-296.7c.7-.5,1.3-1.1,1.6-1.9.4-1,.4-2.1,0-3-.4-1-1.2-1.7-2.2-2.1-1.2-.5-2.5-.3-3.6.3-.7.4-1.2,1.1-1.6,1.9-.4,1-.4,2.1,0,3,.4,1,1.2,1.7,2.2,2.1,1.2.5,2.5.3,3.6-.3Z"/>
          <path class="cls-2" d="M902.9-493.3c.7-.4,1.3-1.1,1.6-1.9.4-1,.4-2,0-3-.4-1-1.2-1.7-2.2-2.1-1.2-.5-2.5-.3-3.6.3-.7.4-1.3,1.1-1.6,1.9-.8,2,.2,4.3,2.2,5.1,1.2.5,2.5.3,3.6-.3Z"/>
          <path class="cls-2" d="M763.5-435.9c.8-.5,1.3-1.2,1.7-2,.4-1,.4-2.2,0-3.2-.5-1-1.3-1.9-2.3-2.3-1.3-.5-2.7-.4-3.8.3-.8.5-1.4,1.2-1.7,2-.9,2.2.2,4.6,2.4,5.5,1.3.5,2.7.4,3.8-.3Z"/>
          <path class="cls-2" d="M655.3-441.7c.7-.5,1.3-1.1,1.6-1.9.4-1,.4-2.1,0-3-.4-1-1.2-1.7-2.2-2.1-1.2-.5-2.5-.3-3.6.3-.7.4-1.2,1.1-1.6,1.9-.8,2,.2,4.3,2.2,5.1,1.2.5,2.5.3,3.6-.3Z"/>
          <path class="cls-2" d="M556.3-619.2c.7-.5,1.3-1.1,1.6-1.9.8-2-.2-4.3-2.2-5.1-1.2-.5-2.5-.4-3.6.3-.7.4-1.3,1.1-1.6,1.9-.8,2,.2,4.3,2.2,5.1,1.2.5,2.5.4,3.6-.3Z"/>
          <path class="cls-2" d="M709.4-831.6c.7-.4,1.3-1.1,1.6-1.9.4-1,.4-2.1,0-3-.4-1-1.2-1.7-2.2-2.1-1.2-.5-2.5-.4-3.6.3-.7.4-1.3,1.1-1.6,1.9-.4,1-.4,2,0,3,.4,1,1.2,1.7,2.2,2.1,1.2.5,2.5.3,3.6-.3Z"/>
          <path class="cls-2" d="M678.5-1105.2c.5-.3.8-.8,1.1-1.3.5-1.4-.1-2.9-1.5-3.5-.8-.3-1.7-.2-2.4.2-.5.3-.9.7-1.1,1.3-.3.7-.3,1.4,0,2,.3.7.8,1.2,1.5,1.4.8.3,1.7.2,2.4-.2Z"/>
          <path class="cls-2" d="M544.6-1116.1c.7-.4,1.2-1.1,1.6-1.9.4-1,.4-2.1,0-3-.4-1-1.2-1.7-2.2-2.1-1.2-.5-2.5-.3-3.6.3-.7.4-1.3,1.1-1.6,1.9-.8,2,.2,4.3,2.2,5.1,1.2.5,2.5.3,3.6-.3Z"/>
          <path class="cls-2" d="M499-1272.5c.7-.5,1.3-1.1,1.6-1.9.4-1,.4-2,0-3-.4-1-1.2-1.7-2.2-2.1-1.2-.5-2.5-.4-3.6.3-.7.5-1.3,1.1-1.6,1.9-.4,1-.4,2.1,0,3,.4,1,1.2,1.7,2.2,2.1,1.2.5,2.5.3,3.6-.3Z"/>
          <path class="cls-2" d="M671.4-1417.7c.7-.4,1.3-1.1,1.6-1.9.8-2-.2-4.3-2.2-5.1-1.2-.5-2.5-.4-3.6.3-.7.4-1.3,1.1-1.6,1.9-.4,1-.4,2.1,0,3,.4,1,1.2,1.7,2.2,2.1,1.2.5,2.5.4,3.6-.3Z"/>
          <path class="cls-2" d="M704.3-498.8c.5-.3.9-.8,1.2-1.4.6-1.5-.1-3.2-1.7-3.8-.9-.4-1.8-.3-2.6.2-.5.3-.9.8-1.1,1.4-.3.7-.3,1.5,0,2.2.3.7.9,1.3,1.6,1.5.9.3,1.8.3,2.6-.2Z"/>
          <path class="cls-2" d="M556.8-195.5c.5-.3.8-.7,1-1.2.3-.6.2-1.3,0-1.9-.3-.6-.8-1.1-1.4-1.3-.8-.3-1.6-.2-2.3.2-.5.3-.8.7-1,1.2-.5,1.3.1,2.8,1.4,3.3.8.3,1.6.2,2.3-.2Z"/>
          <path class="cls-2" d="M578.8-428.1c.6-.4,1-.9,1.3-1.6.3-.8.3-1.7,0-2.5-.4-.8-1-1.4-1.8-1.8-1-.4-2.1-.3-3,.3-.6.4-1,.9-1.3,1.6-.7,1.7.2,3.6,1.9,4.3,1,.4,2.1.3,3-.3Z"/>
          <path class="cls-2" d="M650.7-665.2c.7-.4,1.3-1.1,1.6-1.9.8-2-.2-4.3-2.2-5.1-1.2-.5-2.5-.4-3.6.3-.7.4-1.3,1.1-1.6,1.9-.8,2,.2,4.3,2.2,5.1,1.2.5,2.5.4,3.6-.3Z"/>
          <path class="cls-2" d="M604.6-800c.6-.4,1-.9,1.3-1.5.3-.8.3-1.7,0-2.4-.3-.8-1-1.4-1.8-1.7-.9-.4-2-.3-2.9.3-.6.4-1,.9-1.3,1.5-.3.8-.3,1.7,0,2.5.3.8,1,1.4,1.8,1.7.9.4,2,.3,2.9-.3Z"/>
          <path class="cls-2" d="M776-758.6c.6-.4,1-.9,1.3-1.5.3-.8.3-1.7,0-2.4-.3-.8-1-1.4-1.8-1.7-1-.4-2-.3-2.9.3-.6.4-1,.9-1.3,1.5-.3.8-.3,1.7,0,2.4.3.8,1,1.4,1.8,1.7.9.4,2,.3,2.9-.3Z"/>
          <path class="cls-2" d="M750.1-994.7c.5-.3.8-.7,1-1.2.3-.6.2-1.3,0-2-.3-.6-.8-1.1-1.4-1.3-.8-.3-1.6-.2-2.3.2-.5.3-.8.7-1,1.2-.5,1.3.1,2.8,1.4,3.3.8.3,1.6.2,2.3-.2Z"/>
          <path class="cls-2" d="M638.9-342.6c.7-.4,1.2-1.1,1.6-1.9.8-2-.2-4.3-2.2-5.1-1.2-.5-2.5-.4-3.6.3-.7.4-1.3,1.1-1.6,1.9-.4,1-.4,2,0,3,.4,1,1.2,1.7,2.2,2.1,1.2.5,2.5.4,3.6-.3Z"/>
        </g>
        <g>
          <path class="cls-2" d="M1375.2-1827.2c-2.2-3.6-1.2-8.4,2.4-10.6,3.6-2.3,8.4-1.2,10.6,2.4,2.3,3.6,1.2,8.4-2.4,10.6-3.6,2.3-8.4,1.2-10.6-2.4ZM1375.4-1827.3c2.2,3.5,6.8,4.5,10.3,2.4,3.5-2.2,4.5-6.8,2.4-10.3-2.2-3.5-6.8-4.5-10.3-2.3-3.5,2.2-4.5,6.8-2.4,10.3Z"/>
          <path class="cls-2" d="M1219.7-1651.9c-2.2-3.6-1.2-8.4,2.4-10.6,3.6-2.3,8.4-1.2,10.6,2.4,2.3,3.6,1.2,8.4-2.4,10.6-3.6,2.3-8.4,1.2-10.6-2.4ZM1220-1652.1c2.2,3.5,6.8,4.5,10.3,2.3,3.5-2.2,4.5-6.8,2.4-10.3-2.2-3.5-6.8-4.5-10.3-2.4-3.5,2.2-4.6,6.8-2.4,10.3Z"/>
          <path class="cls-2" d="M1066.2-1754c-2.3-3.6-1.2-8.4,2.4-10.6,3.6-2.3,8.4-1.2,10.6,2.4,2.2,3.6,1.2,8.4-2.4,10.6-3.6,2.3-8.4,1.2-10.6-2.4ZM1066.4-1754.1c2.2,3.5,6.8,4.5,10.3,2.4,3.5-2.2,4.5-6.8,2.3-10.3-2.2-3.5-6.8-4.5-10.3-2.3-3.5,2.2-4.5,6.8-2.4,10.3Z"/>
          <path class="cls-2" d="M935.4-1815.8c-2.2-3.6-1.2-8.4,2.4-10.6,3.6-2.2,8.4-1.2,10.6,2.4,2.2,3.6,1.2,8.4-2.4,10.6-3.6,2.3-8.4,1.2-10.6-2.4ZM935.6-1816c2.2,3.5,6.8,4.5,10.3,2.3,3.5-2.2,4.5-6.8,2.4-10.3-2.2-3.5-6.8-4.5-10.3-2.4-3.5,2.2-4.5,6.8-2.4,10.3Z"/>
          <path class="cls-2" d="M899.4-1714.8c-2.3-3.6-1.2-8.4,2.4-10.6,3.6-2.3,8.4-1.2,10.6,2.4,2.2,3.6,1.2,8.4-2.4,10.6-3.6,2.2-8.4,1.2-10.6-2.4ZM899.6-1714.9c2.2,3.5,6.8,4.5,10.3,2.3,3.5-2.2,4.5-6.8,2.3-10.3-2.2-3.5-6.8-4.5-10.3-2.3-3.5,2.2-4.5,6.8-2.4,10.3Z"/>
          <path class="cls-2" d="M1076.7-1669.6c-2.2-3.6-1.2-8.4,2.4-10.6,3.6-2.2,8.4-1.2,10.6,2.4,2.2,3.6,1.2,8.4-2.4,10.6-3.6,2.3-8.4,1.2-10.6-2.4ZM1077-1669.7c2.2,3.5,6.8,4.5,10.3,2.3,3.5-2.2,4.5-6.8,2.3-10.3-2.2-3.5-6.8-4.5-10.3-2.4-3.5,2.2-4.5,6.8-2.4,10.3Z"/>
          <path class="cls-2" d="M586.8-1698.4c-2.3-3.6-1.2-8.4,2.4-10.6,3.6-2.3,8.4-1.2,10.6,2.4,2.3,3.6,1.2,8.4-2.4,10.6-3.6,2.2-8.4,1.2-10.6-2.4ZM587-1698.6c2.2,3.5,6.8,4.5,10.2,2.3,3.5-2.2,4.5-6.8,2.4-10.3-2.2-3.5-6.8-4.5-10.3-2.4-3.5,2.2-4.5,6.8-2.3,10.3Z"/>
          <path class="cls-2" d="M1021.4-1502.7c-2.3-3.6-1.2-8.4,2.4-10.6,3.6-2.3,8.4-1.2,10.6,2.4,2.2,3.6,1.2,8.4-2.4,10.6-3.6,2.3-8.4,1.2-10.6-2.4ZM1021.6-1502.8c2.2,3.5,6.8,4.5,10.3,2.3,3.5-2.2,4.5-6.8,2.4-10.3-2.2-3.5-6.8-4.5-10.3-2.4-3.5,2.2-4.5,6.8-2.4,10.3Z"/>
          <path class="cls-2" d="M746.4-1297.3c-2.3-3.6-1.2-8.4,2.4-10.6,3.6-2.3,8.4-1.2,10.6,2.4,2.3,3.6,1.2,8.4-2.4,10.6-3.6,2.3-8.4,1.2-10.6-2.4ZM746.6-1297.5c2.2,3.5,6.8,4.5,10.3,2.4,3.5-2.2,4.5-6.8,2.4-10.3-2.2-3.5-6.8-4.5-10.3-2.3-3.5,2.2-4.5,6.8-2.4,10.3Z"/>
          <path class="cls-2" d="M840.1-1076.4c-2.3-3.6-1.2-8.4,2.4-10.6,3.6-2.2,8.4-1.2,10.6,2.4,2.3,3.6,1.2,8.3-2.4,10.6-3.6,2.3-8.4,1.2-10.6-2.4ZM840.3-1076.5c2.2,3.5,6.8,4.5,10.3,2.4,3.5-2.2,4.5-6.8,2.4-10.3-2.2-3.5-6.8-4.5-10.3-2.4-3.5,2.2-4.5,6.8-2.4,10.3Z"/>
          <path class="cls-2" d="M535.9-1115.4c-2.3-3.6-1.2-8.4,2.5-10.6,3.6-2.3,8.4-1.2,10.6,2.4,2.3,3.6,1.2,8.4-2.4,10.6-3.6,2.3-8.4,1.2-10.6-2.4ZM536.2-1115.6c2.2,3.5,6.8,4.5,10.3,2.4,3.5-2.2,4.5-6.8,2.3-10.3-2.2-3.5-6.8-4.5-10.3-2.3-3.5,2.2-4.5,6.8-2.4,10.3Z"/>
          <path class="cls-2" d="M559.4-908.4c-2.3-3.6-1.2-8.4,2.4-10.6,3.6-2.2,8.4-1.2,10.6,2.4,2.3,3.6,1.2,8.4-2.4,10.6-3.6,2.3-8.4,1.2-10.6-2.4ZM559.6-908.5c2.2,3.5,6.8,4.5,10.3,2.3,3.5-2.2,4.5-6.8,2.4-10.3-2.2-3.5-6.8-4.5-10.3-2.4-3.5,2.2-4.5,6.8-2.4,10.3Z"/>
          <path class="cls-2" d="M700.7-830.8c-2.3-3.6-1.2-8.4,2.4-10.6,3.6-2.2,8.4-1.2,10.6,2.4,2.3,3.6,1.2,8.4-2.4,10.6-3.6,2.3-8.4,1.2-10.6-2.4ZM701-830.9c2.2,3.5,6.8,4.5,10.3,2.3,3.5-2.2,4.5-6.8,2.3-10.3-2.2-3.5-6.8-4.5-10.3-2.3-3.5,2.2-4.5,6.8-2.4,10.3Z"/>
          <path class="cls-2" d="M547.5-618.7c-2.3-3.6-1.2-8.4,2.4-10.6,3.6-2.3,8.4-1.2,10.6,2.4,2.3,3.6,1.2,8.4-2.4,10.6-3.6,2.3-8.4,1.2-10.6-2.4ZM547.7-618.9c2.2,3.5,6.8,4.5,10.3,2.3,3.5-2.2,4.5-6.8,2.3-10.3-2.2-3.5-6.8-4.5-10.3-2.4-3.5,2.2-4.5,6.8-2.4,10.3Z"/>
          <path class="cls-2" d="M646.7-441c-2.3-3.6-1.2-8.4,2.4-10.6,3.6-2.2,8.4-1.2,10.6,2.4,2.3,3.6,1.2,8.4-2.4,10.6-3.6,2.2-8.4,1.1-10.6-2.4ZM646.9-441.1c2.2,3.5,6.8,4.5,10.3,2.3,3.5-2.2,4.5-6.8,2.3-10.3-2.2-3.5-6.8-4.5-10.3-2.4-3.5,2.2-4.5,6.8-2.4,10.3Z"/>
          <path class="cls-2" d="M894.3-492.6c-2.3-3.6-1.2-8.4,2.4-10.6,3.6-2.3,8.4-1.2,10.6,2.4,2.3,3.6,1.2,8.4-2.4,10.6-3.6,2.3-8.4,1.2-10.6-2.4ZM894.5-492.7c2.2,3.5,6.8,4.5,10.3,2.4,3.5-2.2,4.5-6.8,2.3-10.3-2.2-3.5-6.8-4.5-10.3-2.4-3.5,2.2-4.5,6.8-2.4,10.3Z"/>
          <path class="cls-2" d="M476.7-296c-2.3-3.6-1.2-8.4,2.4-10.6,3.6-2.2,8.4-1.1,10.6,2.4,2.3,3.6,1.2,8.4-2.4,10.6-3.6,2.3-8.4,1.1-10.6-2.4ZM476.9-296.1c2.2,3.5,6.8,4.5,10.3,2.3,3.5-2.2,4.5-6.8,2.4-10.3-2.2-3.5-6.8-4.5-10.3-2.3-3.5,2.2-4.5,6.8-2.4,10.3Z"/>
          <path class="cls-2" d="M712-309.4c-2.2-3.6-1.1-8.4,2.5-10.6,3.6-2.2,8.4-1.2,10.6,2.4,2.3,3.6,1.2,8.4-2.4,10.6-3.6,2.3-8.4,1.2-10.6-2.4ZM712.2-309.5c2.2,3.5,6.8,4.5,10.3,2.3,3.5-2.2,4.5-6.8,2.3-10.3-2.2-3.5-6.8-4.5-10.3-2.4-3.5,2.2-4.5,6.8-2.4,10.3Z"/>
          <path class="cls-2" d="M743.2-164.1c-2.3-3.6-1.2-8.4,2.4-10.6,3.6-2.3,8.4-1.2,10.6,2.4,2.3,3.6,1.2,8.4-2.4,10.6-3.6,2.2-8.4,1.1-10.6-2.4ZM743.4-164.2c2.2,3.5,6.8,4.5,10.3,2.3,3.5-2.2,4.5-6.8,2.3-10.3-2.2-3.5-6.8-4.5-10.3-2.4-3.5,2.2-4.5,6.8-2.3,10.3Z"/>
          <path class="cls-2" d="M662.5-1416.7c-2.3-3.6-1.2-8.4,2.4-10.6,3.6-2.3,8.4-1.2,10.6,2.4,2.3,3.6,1.2,8.4-2.4,10.6-3.6,2.3-8.4,1.2-10.6-2.4ZM662.8-1416.9c2.2,3.5,6.8,4.5,10.3,2.4,3.5-2.2,4.5-6.8,2.3-10.3-2.2-3.5-6.8-4.5-10.3-2.4-3.5,2.2-4.5,6.8-2.4,10.3Z"/>
          <path class="cls-2" d="M490.3-1271.8c-2.3-3.6-1.2-8.4,2.4-10.6,3.6-2.2,8.4-1.1,10.6,2.4,2.3,3.6,1.1,8.4-2.4,10.6-3.6,2.3-8.4,1.2-10.6-2.4ZM490.6-1271.9c2.2,3.5,6.8,4.5,10.3,2.3,3.5-2.2,4.5-6.8,2.4-10.3-2.2-3.5-6.8-4.5-10.3-2.3-3.5,2.2-4.5,6.8-2.3,10.3Z"/>
          <path class="cls-2" d="M925.5-1518.1c-2.3-3.6-1.2-8.4,2.4-10.6,3.6-2.3,8.4-1.2,10.6,2.4,2.3,3.6,1.2,8.4-2.4,10.6-3.6,2.3-8.4,1.2-10.6-2.4ZM925.7-1518.3c2.2,3.5,6.8,4.5,10.3,2.3,3.5-2.2,4.5-6.8,2.4-10.3-2.2-3.5-6.8-4.5-10.3-2.4-3.5,2.2-4.5,6.8-2.4,10.3Z"/>
          <path class="cls-2" d="M651.9-1559.6c-2.3-3.6-1.2-8.4,2.4-10.6,3.6-2.3,8.4-1.2,10.6,2.4,2.3,3.6,1.2,8.4-2.4,10.6-3.6,2.3-8.4,1.2-10.6-2.4ZM652.1-1559.7c2.2,3.5,6.8,4.5,10.3,2.4,3.5-2.2,4.5-6.8,2.4-10.3-2.2-3.5-6.8-4.5-10.3-2.3-3.5,2.2-4.5,6.8-2.4,10.3Z"/>
        </g>
      </g>
      <g>
        <path class="cls-1" d="M718.3-314.2v.7c.1,0-143.6,146.7-143.6,146.7l-.4-.4.3.6-4.9,124.3-62.6-40.7v.3l.3.5,60,97.3-.2.4v.5s.5-.8.5-.8l55.2-22.6,38.6,25.1v.2c0,0,.2-.1.2-.1l103.9,2.1h0c0,.1,0,0,0,0l83.7,68.3-29.7,98.6-125.6,92.8-.2.2,102.3,24.7-35.1,48.7h0s0,0,0,0h0c0,0,0,.1,0,.1l9.5,86.1-93.1,6.2h0c0,0-55.7,153-55.7,153h-.1c0,0,0,.1,0,.1h-.2c0,.1.2.2.2.2l54.7,232.5-193.4,58.4h0c0,0-42.6,135.1-42.6,135.1l-102.7-18.7h-1.1c0,0,.5.2.5.2l86.6,68.9-38.7,116.5-72.7,15.9h-.4c0,0-69.6-33.4-69.6-33.4h-.4s0,0,0,0l-2.1,103.8h0,0c0,0-153.7,71.6-153.7,71.6h.6l200.1,3.1h0c0,0,46.2-75.6,46.2-75.6l62.6-.7,97.3,46,39.7,105.2v-.2c.1,0,69.4-95.9,69.4-95.9l47.2-4.2h.2c0,0,0-.1,0-.1l61.1-144.2h.2c0,.1,0,0,0,0l164.3,37.8h0c0,0,63.6-117.3,63.6-117.3h-.2c0,0-43.6-51.4-43.6-51.4l40-14.1h-.2c0-.1-135.5-98.9-135.5-98.9l172.3-145,.6.3-.5-.5-45.6-156.4h0s-134.5-12-134.5-12l-15.1-136.5,126.2-58.2h.4s-84.8-46.6-84.8-46.6l47.5-63.3h0c0,0-26-76.4-26-76.4l74.7-103.6h.2c0,0-.1-.2-.1-.2l-52.3-93.7,29.5-97.8.6-.4h-.7c0,.1-59.7-84.6-59.7-84.6l153.5-45.8h.5s-.4-.2-.4-.2l-100.9-50,29-52.9-.5.3-55.3,39.3-138.8-68.7-.4-.6ZM749.4-168.1l-85.1,85.5-89.3-84,174.4-1.5ZM567.6,14.5l2.2-56.4,32.8,21.3-34.9,35.1v-.4c.1,0-.1.4-.1.4ZM603.1-20.6l27.3-27.5,14.7,31.2-22.3,9.1-19.7-12.8ZM630.6-48.3l33.7-33.9,42.5,40-61.5,25.2-14.7-31.3ZM760.5-39.3l4.9,58.5-58-61.2,53.1,2.7ZM815.3-36.5l75.2-14-63.3,35.4-11.9-21.4ZM827-15l-60.8,34.1,48.9-55.5,12,21.4ZM766,18.9l24-56.6,24.8,1.3-48.8,55.4ZM765.6,19l-4.9-58.3,29,1.5-24.1,56.8ZM707.1-42.3h0c0,0,0,0,0,0l-42.5-40,85.1-85.5,10.8,128.3-53.3-2.7ZM664.1-82.4l-33.6,33.8-55.4-117.6,89,83.8ZM574.8-166.1l55.5,117.8-27.4,27.6-33-21.5,4.9-123.9ZM507.6-82.4l62,40.3-2.3,56.7-59.8-97ZM568,14.6l34.9-35.1,19.6,12.8-54.5,22.3ZM623.1-7.6l22.1-9.1,16,33.9-38.1-24.8ZM645.5-16.8l61.2-25-45.1,59.1-16-34.1ZM661.8,17.4l45.3-59.4,58.2,61.4-103.5-2ZM796.3,304.5l68.6,16.6-103.6,32,35-48.5ZM776.3,439.3l-4.9,6.6-.7-6.2,5.6-.4ZM677.5,445.9l92.9-6.2.7,6.5-51.7,68.9-97.5,83.3,55.6-152.5ZM622,598.7l97.4-83.2,2.1,99.1-99.5-15.9ZM721.5,614.8l.6,30.7-99.5-46.4,98.9,15.8ZM752.9,787.2l-37.3,32.2,7.6-130.6,29.7,98.4ZM723.3,688.4l96.4,41.2-66.6,57.5-29.8-98.7ZM753,787.5l8.7,28.9-45.9,3.2,37.2-32.1ZM761.8,816.6l9.5,31.5-78.5,51.4,22.8-79.7,46.3-3.2ZM762,816.6l64.3-4.5-54.9,35.9-9.5-31.4ZM762,816.3l-8.8-29.1,66.8-57.6,21.6,9.2-14.8,72.9-64.8,4.5ZM820.2,729.5l28.3-24.4-6.8,33.6-21.4-9.2ZM819.9,729.3l-95.9-41,124.3,16.4-28.4,24.5ZM723.4,688l30.1-27.6,94.3,44-124.5-16.4ZM753.7,660.3l37.4-34.3,57.1,78.4-94.5-44.1ZM753.3,660.3l-30,27.5-.9-41.9,30.9,14.4ZM723,687.8l-100.5-88.5,99.7,46.5.9,42ZM621.9,599.2l101,89h0c0,0,.1.1.1.1l-7.7,131.4-38.7,11.7-54.6-232.2ZM715.2,819.9l-22.7,79.4-15.9-67.8,38.6-11.6ZM676.3,831.7l16,68.1-208.6-9.9,192.6-58.2ZM692.2,900l-77.5,69.7-131.3-79.6,208.8,9.9ZM483.8,1217l-27.4-7,57-62.4-29.6,69.3ZM513.9,1147.3l48.2,89.6-78.1-19.9,29.8-69.8ZM455.9,1210.2l-19.3,21.1-51-39.1,70.4,17.9ZM456.2,1210.3l27.5,7-16.1,37.7-30.8-23.5,19.4-21.2ZM484,1217.3l78.2,19.9-17.3,48.5-77.1-30.6,16.2-37.8ZM544.8,1286l-18.5,51.9-58.3-82.4,76.8,30.5ZM545.2,1285.9l17.3-48.5,61.3,63.7-9,12.4-69.6-27.6ZM562.9,1237.6l82,34.3-20.9,29-61-63.3ZM562.8,1237.2l76.5-28,5.7,62.4-82.2-34.4ZM562.7,1236.9l68.5-115.9,8,87.9-76.5,28ZM562.4,1236.9l-48.3-89.8,116.4-27,.6.5-68.7,116.3ZM667.5,1001.9l-130.7,38.3,78-70.3,52.6,31.9ZM615,969.8l77.3-69.6-24.7,101.5-52.6-31.9ZM667.5,1002.2l-36.3,117.9-.4-.3h0s-.2,0-.2,0l-94.1-79.3,131-38.4ZM631.6,1120.1l36.2-117.6,14.8,62.5-50.9,55.1ZM682.6,1065.3l9.9,41.9-60.8,13.1,50.9-55ZM536.1,1040.6l-22.3,106.1-73.2-121.4,95.4,15.4ZM536.3,1040.8l93.9,79.2-116.2,26.9,22.3-106.1ZM692.5,1107.5l17.8,75.2-78.4-62.1,60.6-13.1ZM692.8,1107.4l116.7-25.2-98.9,100.5-17.8-75.3ZM809.9,1082.2l26.7,56.9-125.5,43.6,98.9-100.5ZM692.7,1107.2l-9.9-42.1,68.4-73.9,58.5,90.8-117,25.3ZM682.7,1064.8l-14.8-62.8,69.1-33,14.1,21.9-68.4,73.9ZM737.2,968.9l61.2-29.2-47.2,51-14-21.8ZM667.9,1001.7l24.7-101.6,44.2,68.7-68.9,32.9ZM614.6,969.9l-78.3,70.5-53-150.1,131.3,79.6ZM440.6,1024.8l42.4-134.5,53.1,150.1-95.4-15.4v-.2ZM337.5,1006.5l102.5,18.7v.3c0,0-16.4,49.6-16.4,49.6l-86.1-68.5ZM423.9,1075.2l16.6-49.8,73,121.1-89.5-71.3ZM423.8,1075.5l89.8,71.5-128.4,44.8,38.6-116.3ZM513.4,1147.3l-57.3,62.6-70.7-18,128-44.6ZM436.5,1231.5l-40.9,44.7-41.3-33.7,30.8-50.3,51.4,39.4ZM331.6,1223.9l53.1-31.5-30.5,49.9-22.5-18.4ZM331.1,1223.9l-90.3,53.7,71-69.4,19.2,15.7ZM384.2,1192.3l-52.9,31.4-19.2-15.7,72.1-15.8ZM242.1,1174.5l69.5,33.5-71.5,69.9,2.1-103.4ZM87.2,1349.5l152.1-70.8-.2.2.8-.5,46.5,74.2-199.2-3.1ZM286.6,1352.5l-46.5-74.1,92.5-1.1-46,75.2ZM240.4,1278.1l90.9-54,22.6,18.5-21.1,34.5-92.4,1.1ZM333.1,1277l21-34.3,41.1,33.6-62.1.7ZM395.8,1276.3l40.8-44.7,30.9,23.6,25.3,66.9-97-45.9ZM493.1,1322.4l-25-66.2,57.9,81.8-32.9-15.5ZM493.3,1322.7l33,15.6,6.2,88.3-39.2-103.9ZM532.8,1427.1l-6.2-88.7,75.1-6.6-68.9,95.4ZM526.6,1338.1l18.5-51.9,69.5,27.6-12.8,17.7-75.3,6.7ZM602.2,1331.4l12.7-17.5,33.8,13.4-46.5,4.1ZM615,1313.6l8.9-12.3,24.8,25.7-33.7-13.4ZM624.1,1301.1l20.9-28.9,4.1,54.8-25-25.9ZM649.4,1326.8l-4.1-55,64.7-87.9-60.6,142.8ZM645.2,1271.5l-5.7-62.3,70.6-25.8-64.9,88.2ZM639.5,1208.8l-8.1-88.2h.2s78.7,62.3,78.7,62.3l-70.8,25.9ZM711,1183l125.7-43.6,38.1,81.3-163.8-37.7ZM875,1220.6l-38.1-81.3,101.3-35.1-63.2,116.4ZM938.2,1103.9l-101.4,35.2-26.7-57h0,0s84.5-29.7,84.5-29.7l43.6,51.5ZM934.3,1038.1l-39.6,13.9-94.9-112,134.5,98.1ZM894.4,1052.2l-84.4,29.7-10.9-142.1,95.3,112.4ZM809.7,1081.5l-58.3-90.6,47.5-51.3,10.9,141.9ZM798.6,939.3l-61.6,29.4-44.2-68.6,105.8,39.2ZM692.8,899.8l78.5-51.4,27.4,90.7-105.9-39.3ZM799,939.1l-27.4-90.8,55.3-36.2,144.1-17.7-172,144.7ZM970.9,794.1l-143.9,17.7,14.8-72.8,129.1,55.1ZM841.9,738.7l6.9-33.9.2-.2h-.2s-56.6-77.8-56.6-77.8l178.7,166.9-128.9-55.1ZM925.7,637.9l45.5,155.8-179.6-167.8,134.2,12ZM790.9,625.9l-37.4,34.2-31.1-14.5-.6-30.7,69.2,11ZM721.7,614.6l-2.1-99,71.3,110-69.2-11ZM791,625.3l-71.3-110,56.2-26,15.1,136ZM719.9,514.8l51.3-68.3,4.7,42.4-56,25.8ZM776.2,488.9l-4.7-42.6,5.3-7,125-8.3-125.5,57.9ZM901.9,430.7l-125,8.3,40.9-54.5,84.1,46.2ZM817.6,384.4l-41,54.6-5.9.4-9.5-85.9,56.4,31ZM817.7,384.2l-56.4-31,103.7-32-47.3,62.9ZM865.1,320.8l-68.6-16.6,42.8-59.4,25.8,75.9ZM796.2,304.2l-101.9-24.6,125.3-92.5,19.6,57.6-43,59.6ZM839.4,244.3l-19.5-57.4,93.9-45.7-74.3,103.1ZM913.9,140.9l-94,45.8,29.6-98.3,64.3,52.6ZM913.7,140.4l-64.1-52.3,12.2-40.6,51.8,92.9ZM861.6,47.1l-12.3,40.7-83.6-68.3,61.3-34.3,34.5,61.9ZM861.7,46.8l-34.4-61.6,63.7-35.7-29.3,97.3ZM891.1-50.9l-76,14.2-24.9-1.3,41.4-97.5,59.6,84.6ZM831.3-135.7l-41.4,97.7-29.1-1.5-10.8-128.5,81.4,32.3ZM750.3-168.1l58.3-3.3,22.5,35.4-80.8-32ZM791.8-197.9l16.7,26.3-58.3,3.3,41.6-29.6ZM749.8-168.4l-31-144.4,72.9,114.7-41.9,29.7ZM852.2-173.9l-20.8,37.9-22.5-35.4,43.3-2.5ZM831.7-136l20.8-37.9,131.5-7.5-152.3,45.4ZM984.6-181.7l-131.9,7.5,31.4-57.2,100.5,49.7ZM883.9-231.5l-31.5,57.4-43.6,2.5-16.8-26.4,65.5-46.5,26.4,13ZM912.4-283.6l-28.5,51.9-26.3-13,54.7-38.9ZM857.2-244.7l-65.3,46.4-73-114.9,138.3,68.5ZM749.6-168.3l-174.6,1.5,143.4-146.4,31.1,144.9Z"/>
        <g>
          <path class="cls-2" d="M284.7,1349.6c-1.7,1.1-2.2,3.3-1.1,5,1.1,1.7,3.3,2.2,5,1.1,1.7-1.1,2.2-3.3,1.2-5-1.1-1.7-3.3-2.2-5-1.1Z"/>
          <path class="cls-2" d="M465.8,1252.2c-1.7,1-2.2,3.2-1.1,4.9,1,1.7,3.2,2.2,4.9,1.1,1.7-1,2.2-3.2,1.1-4.9-1-1.7-3.2-2.2-4.9-1.1Z"/>
          <path class="cls-2" d="M531,1424.9c-1.4.9-1.9,2.8-1,4.2.9,1.4,2.8,1.9,4.2,1,1.4-.9,1.9-2.8,1-4.2-.9-1.4-2.8-1.8-4.2-1Z"/>
          <path class="cls-2" d="M643,1268.5c-1.8,1.2-2.4,3.6-1.2,5.4,1.2,1.9,3.6,2.4,5.5,1.3,1.8-1.2,2.4-3.6,1.2-5.4-1.2-1.9-3.6-2.4-5.5-1.3Z"/>
          <path class="cls-2" d="M872.8,1217.5c-1.8,1.2-2.4,3.6-1.3,5.4,1.2,1.9,3.6,2.4,5.5,1.3,1.8-1.2,2.4-3.6,1.2-5.4-1.2-1.9-3.6-2.4-5.5-1.3Z"/>
          <path class="cls-2" d="M708.4,1179.7c-1.8,1.2-2.4,3.6-1.2,5.5,1.2,1.8,3.6,2.4,5.5,1.2,1.8-1.2,2.4-3.6,1.3-5.5-1.2-1.8-3.6-2.4-5.5-1.2Z"/>
          <path class="cls-2" d="M647.1,1323.9c-1.9,1.2-2.5,3.7-1.3,5.6,1.2,1.9,3.7,2.5,5.6,1.3,1.9-1.2,2.5-3.7,1.3-5.6-1.2-1.9-3.7-2.5-5.6-1.3Z"/>
          <path class="cls-2" d="M524.3,1334.9c-1.8,1.2-2.4,3.6-1.2,5.5,1.1,1.8,3.6,2.4,5.4,1.3,1.8-1.2,2.4-3.6,1.2-5.5-1.2-1.8-3.6-2.4-5.5-1.3Z"/>
          <path class="cls-2" d="M393.5,1273c-1.9,1.2-2.4,3.6-1.3,5.5,1.2,1.8,3.6,2.4,5.4,1.2,1.9-1.2,2.4-3.6,1.2-5.5-1.1-1.8-3.6-2.4-5.4-1.2Z"/>
          <path class="cls-2" d="M310.2,1205.4c-1.4.9-1.9,2.8-1,4.2.9,1.4,2.8,1.9,4.2,1,1.4-.9,1.9-2.8,1-4.2-.9-1.4-2.8-1.9-4.2-1Z"/>
          <path class="cls-2" d="M335.6,1004c-1.3.8-1.6,2.5-.8,3.7.8,1.3,2.5,1.7,3.7.9,1.3-.8,1.6-2.5.8-3.7-.8-1.3-2.5-1.6-3.7-.8Z"/>
          <path class="cls-2" d="M721,684.8c-1.8,1.2-2.4,3.6-1.2,5.5,1.2,1.8,3.6,2.4,5.4,1.3,1.9-1.2,2.4-3.6,1.2-5.5-1.2-1.8-3.6-2.4-5.5-1.3Z"/>
          <path class="cls-2" d="M619.6,595.4c-1.9,1.1-2.4,3.6-1.2,5.4,1.2,1.9,3.6,2.4,5.4,1.3,1.8-1.1,2.4-3.6,1.3-5.4-1.2-1.8-3.6-2.4-5.5-1.2Z"/>
          <path class="cls-2" d="M675.3,442.4c-1.8,1.2-2.4,3.6-1.2,5.4,1.2,1.9,3.6,2.4,5.5,1.3,1.8-1.1,2.4-3.6,1.2-5.4-1.2-1.8-3.6-2.4-5.5-1.3Z"/>
          <path class="cls-2" d="M900.3,427.4c-1.9,1.2-2.4,3.6-1.3,5.4,1.2,1.9,3.6,2.4,5.5,1.3,1.8-1.2,2.4-3.6,1.2-5.5-1.2-1.8-3.6-2.4-5.4-1.2Z"/>
          <path class="cls-2" d="M937.1,1101.8c-1.2.7-1.5,2.3-.8,3.4.7,1.1,2.3,1.5,3.4.8,1.2-.7,1.5-2.3.8-3.4-.7-1.2-2.3-1.5-3.4-.8Z"/>
          <path class="cls-2" d="M933.1,1035.8c-1.3.8-1.7,2.6-.9,3.9.8,1.3,2.6,1.7,3.9.9,1.3-.8,1.7-2.6.9-3.9-.8-1.3-2.6-1.7-3.9-.9Z"/>
          <path class="cls-2" d="M382.9,1188.6c-1.8,1.2-2.4,3.6-1.2,5.4,1.1,1.9,3.6,2.4,5.5,1.3,1.8-1.1,2.4-3.6,1.2-5.5-1.1-1.8-3.6-2.4-5.4-1.2Z"/>
          <path class="cls-2" d="M84.5,1346.3c-1.8,1.2-2.4,3.6-1.2,5.5,1.1,1.8,3.6,2.4,5.4,1.2,1.9-1.2,2.4-3.6,1.3-5.5-1.2-1.8-3.6-2.4-5.5-1.2Z"/>
          <path class="cls-2" d="M239.9,1171c-1.9,1.2-2.4,3.6-1.2,5.5,1.1,1.8,3.6,2.4,5.4,1.2,1.8-1.2,2.4-3.6,1.2-5.4-1.1-1.9-3.6-2.4-5.4-1.3Z"/>
          <path class="cls-2" d="M438.3,1021.7c-1.8,1.2-2.4,3.6-1.2,5.5,1.1,1.9,3.6,2.4,5.4,1.2,1.9-1.2,2.4-3.6,1.3-5.4-1.1-1.9-3.6-2.4-5.4-1.3Z"/>
          <path class="cls-2" d="M511.8,1143.7c-1.8,1.2-2.4,3.6-1.2,5.5,1.2,1.8,3.6,2.4,5.5,1.3,1.8-1.1,2.4-3.6,1.2-5.5-1.2-1.8-3.6-2.4-5.5-1.3Z"/>
          <path class="cls-2" d="M560.3,1233.8c-1.8,1.2-2.4,3.6-1.2,5.5,1.1,1.8,3.6,2.4,5.5,1.2,1.8-1.1,2.4-3.6,1.2-5.4-1.2-1.9-3.6-2.4-5.5-1.3Z"/>
          <path class="cls-2" d="M628.9,1116.8c-2.1,1.3-2.7,4.1-1.4,6.2,1.3,2.1,4.1,2.7,6.2,1.4,2.1-1.3,2.7-4.1,1.4-6.2-1.3-2.1-4.1-2.7-6.2-1.4Z"/>
          <path class="cls-2" d="M807.8,1078.7c-1.9,1.1-2.4,3.6-1.3,5.4,1.2,1.9,3.6,2.4,5.4,1.3,1.8-1.2,2.4-3.6,1.3-5.5-1.2-1.9-3.6-2.4-5.4-1.2Z"/>
          <path class="cls-2" d="M665.6,998.6c-1.8,1.2-2.4,3.6-1.3,5.5,1.2,1.8,3.6,2.4,5.5,1.2,1.8-1.1,2.4-3.6,1.2-5.4-1.2-1.9-3.6-2.4-5.5-1.3Z"/>
          <path class="cls-2" d="M534.1,1037.2c-1.8,1.2-2.4,3.6-1.2,5.5,1.2,1.8,3.6,2.4,5.4,1.2,1.9-1.2,2.4-3.6,1.3-5.5-1.2-1.9-3.6-2.4-5.5-1.2Z"/>
          <path class="cls-2" d="M690.4,896.5c-1.8,1.2-2.4,3.6-1.2,5.5,1.2,1.8,3.6,2.4,5.5,1.2,1.8-1.1,2.4-3.6,1.2-5.5-1.1-1.9-3.6-2.4-5.5-1.3Z"/>
          <path class="cls-2" d="M824.8,808.6c-1.9,1.2-2.4,3.6-1.3,5.5,1.2,1.8,3.6,2.4,5.5,1.2,1.9-1.2,2.4-3.6,1.3-5.4-1.2-1.9-3.6-2.4-5.5-1.3Z"/>
          <path class="cls-2" d="M847.1,702.2c-1.4.9-1.8,2.7-.9,4.1.9,1.4,2.7,1.8,4.1.9,1.4-.9,1.8-2.7.9-4.1-.9-1.4-2.7-1.8-4.1-.9Z"/>
          <path class="cls-2" d="M481.5,887.6c-1.3.8-1.7,2.5-.9,3.7.8,1.3,2.5,1.7,3.8.9,1.3-.8,1.7-2.5.9-3.8-.8-1.3-2.5-1.6-3.8-.9Z"/>
          <path class="cls-2" d="M713.3,816.4c-1.8,1.2-2.4,3.6-1.2,5.5,1.1,1.8,3.6,2.4,5.4,1.2,1.9-1.2,2.4-3.6,1.3-5.5-1.2-1.9-3.6-2.4-5.5-1.2Z"/>
          <path class="cls-2" d="M238.9,1276.6c-.9.6-1.2,1.8-.6,2.7.6.9,1.8,1.2,2.7.6.9-.6,1.2-1.8.6-2.7-.6-.9-1.8-1.2-2.7-.6Z"/>
          <path class="cls-2" d="M747.6-171.5c-.7.4-1.3,1.1-1.6,1.9-.4,1-.4,2.1,0,3,.4,1,1.2,1.7,2.2,2.1,1.2.5,2.5.3,3.6-.3.7-.4,1.3-1.1,1.6-1.9.8-2-.2-4.3-2.2-5.1-1.2-.5-2.5-.4-3.6.3Z"/>
          <path class="cls-2" d="M659.4,14.2c-.7.4-1.3,1.1-1.6,1.9-.8,2,.2,4.3,2.2,5.1,1.2.5,2.5.3,3.6-.3.7-.5,1.3-1.1,1.6-1.9.4-1,.4-2,0-3-.4-1-1.2-1.7-2.2-2.1-1.2-.5-2.5-.3-3.6.3Z"/>
          <path class="cls-2" d="M505.1-86.2c-.7.4-1.3,1.1-1.6,1.9-.4,1-.4,2.1,0,3,.4,1,1.2,1.7,2.2,2.1,1.2.5,2.5.3,3.6-.3.7-.4,1.3-1.1,1.6-1.9.4-1,.4-2.1,0-3-.4-1-1.2-1.7-2.2-2.1-1.2-.5-2.5-.3-3.6.3Z"/>
          <path class="cls-2" d="M573-169.3c-.5.3-1,.9-1.2,1.5-.3.8-.3,1.6,0,2.4.3.7.9,1.3,1.7,1.6.9.4,1.9.3,2.8-.3.6-.3,1-.9,1.2-1.5.3-.8.3-1.6,0-2.4-.3-.8-.9-1.3-1.7-1.6-.9-.4-1.9-.3-2.8.3Z"/>
          <path class="cls-2" d="M716.4-316.8c-.7.4-1.2,1.1-1.6,1.9-.4,1-.4,2.1,0,3,.4,1,1.2,1.7,2.2,2.1,1.2.5,2.5.4,3.6-.3.7-.4,1.3-1.1,1.6-1.9.4-1,.4-2.1,0-3-.4-1-1.2-1.7-2.2-2.1-1.2-.5-2.5-.4-3.6.3Z"/>
          <path class="cls-2" d="M983-184.9c-.7.5-1.3,1.1-1.6,1.9-.4,1-.4,2.1,0,3,.4,1,1.2,1.7,2.2,2.1,1.2.5,2.5.3,3.6-.3.7-.4,1.3-1.1,1.6-1.9.4-1,.4-2.1,0-3-.4-1-1.2-1.7-2.2-2.1-1.2-.5-2.5-.3-3.6.3Z"/>
          <path class="cls-2" d="M565.4,11.6c-.7.4-1.3,1.1-1.6,1.9-.4,1-.4,2,0,3,.4,1,1.2,1.7,2.2,2.1,1.2.5,2.5.3,3.6-.3.7-.4,1.3-1.1,1.6-1.9.8-2-.2-4.3-2.2-5.1-1.2-.5-2.5-.4-3.6.3Z"/>
          <path class="cls-2" d="M704.8-45.8c-.8.5-1.4,1.2-1.7,2-.4,1-.4,2.2,0,3.2.5,1,1.3,1.9,2.3,2.3,1.3.5,2.7.4,3.8-.4.8-.5,1.4-1.2,1.7-2,.8-2.2-.2-4.6-2.4-5.5-1.3-.5-2.7-.4-3.8.3Z"/>
          <path class="cls-2" d="M813-40c-.7.5-1.3,1.1-1.6,1.9-.4,1-.4,2.1,0,3,.4,1,1.2,1.7,2.2,2.1,1.2.5,2.5.3,3.6-.3.7-.4,1.3-1.1,1.6-1.9.8-2-.2-4.3-2.2-5.1-1.2-.5-2.5-.4-3.6.3Z"/>
          <path class="cls-2" d="M912,137.5c-.7.5-1.3,1.1-1.6,1.9-.8,2,.2,4.3,2.2,5.1,1.2.5,2.5.4,3.6-.3.7-.4,1.3-1.1,1.6-1.9.8-2-.2-4.3-2.2-5.1-1.2-.5-2.5-.4-3.6.3Z"/>
          <path class="cls-2" d="M758.9,349.9c-.7.4-1.3,1.1-1.6,1.9-.4,1-.4,2.1,0,3,.4,1,1.2,1.7,2.2,2.1,1.2.5,2.5.4,3.6-.3.7-.4,1.3-1.1,1.6-1.9.4-1,.4-2,0-3-.4-1-1.2-1.7-2.2-2.1-1.2-.5-2.5-.3-3.6.3Z"/>
          <path class="cls-2" d="M789.8,623.6c-.5.3-.8.7-1.1,1.3-.5,1.4.1,2.9,1.5,3.5.8.3,1.7.2,2.4-.2.5-.3.9-.8,1.1-1.3.3-.7.3-1.4,0-2-.3-.6-.8-1.1-1.5-1.4-.8-.3-1.7-.2-2.4.2Z"/>
          <path class="cls-2" d="M923.7,634.5c-.7.5-1.3,1.1-1.6,1.9-.4,1-.4,2.1,0,3,.4,1,1.2,1.7,2.2,2.1,1.2.5,2.5.3,3.6-.3.7-.4,1.3-1.1,1.6-1.9.8-2-.2-4.3-2.2-5.1-1.2-.5-2.5-.3-3.6.3Z"/>
          <path class="cls-2" d="M969.3,790.8c-.7.4-1.2,1.1-1.6,1.9-.4,1-.4,2,0,3,.4,1,1.2,1.7,2.2,2.1,1.2.5,2.5.4,3.6-.3.7-.5,1.3-1.1,1.6-1.9.4-1,.4-2.1,0-3-.4-1-1.2-1.7-2.2-2.1-1.2-.5-2.5-.3-3.6.3Z"/>
          <path class="cls-2" d="M796.9,936c-.7.4-1.3,1.1-1.6,1.9-.8,2,.2,4.3,2.2,5.1,1.2.5,2.5.3,3.6-.3.7-.5,1.3-1.1,1.6-1.9.4-1,.4-2.1,0-3-.4-1-1.2-1.7-2.2-2.1-1.2-.5-2.5-.3-3.6.3Z"/>
          <path class="cls-2" d="M764,17.1c-.5.3-.9.8-1.2,1.4-.6,1.5.1,3.2,1.6,3.8.9.4,1.8.3,2.6-.2.5-.3.9-.8,1.2-1.4.3-.7.3-1.5,0-2.2-.3-.7-.9-1.3-1.6-1.6-.9-.3-1.8-.2-2.6.2Z"/>
          <path class="cls-2" d="M911.5-286.2c-.5.3-.8.7-1,1.2-.3.6-.2,1.3,0,1.9.3.6.8,1.1,1.4,1.4.8.3,1.6.2,2.3-.2.5-.3.8-.7,1-1.2.5-1.3-.1-2.8-1.4-3.3-.8-.3-1.6-.2-2.3.2Z"/>
          <path class="cls-2" d="M889.5-53.6c-.6.4-1,.9-1.3,1.6-.3.8-.3,1.7,0,2.5.3.8,1,1.4,1.8,1.8,1,.4,2.1.3,3-.3.6-.4,1-.9,1.3-1.6.7-1.7-.2-3.6-1.8-4.3-1-.4-2.1-.3-3,.3Z"/>
          <path class="cls-2" d="M817.6,183.5c-.7.4-1.3,1.1-1.6,1.9-.8,2,.2,4.3,2.2,5.1,1.2.4,2.5.3,3.6-.3.7-.4,1.3-1.1,1.6-1.9.8-2-.2-4.3-2.2-5.1-1.2-.5-2.5-.3-3.6.3Z"/>
          <path class="cls-2" d="M863.6,318.3c-.6.4-1,.9-1.3,1.5-.3.8-.3,1.7,0,2.4.3.8,1,1.4,1.8,1.7,1,.4,2,.3,2.9-.3.6-.4,1-.9,1.3-1.5.3-.8.3-1.7,0-2.5-.3-.8-1-1.4-1.8-1.7-1-.4-2-.3-2.9.3Z"/>
          <path class="cls-2" d="M692.3,276.9c-.6.4-1,.9-1.3,1.5-.3.8-.3,1.6,0,2.4.3.8,1,1.4,1.8,1.7,1,.4,2,.3,2.9-.3.6-.4,1-.9,1.3-1.5.3-.8.3-1.7,0-2.5-.3-.8-1-1.4-1.8-1.7-.9-.4-2-.3-2.9.3Z"/>
          <path class="cls-2" d="M718.2,513c-.5.3-.8.7-1,1.2-.3.6-.3,1.3,0,2,.3.6.8,1.1,1.4,1.4.8.3,1.6.2,2.3-.2.5-.3.8-.7,1-1.2.5-1.3-.1-2.8-1.4-3.3-.8-.3-1.6-.2-2.3.2Z"/>
          <path class="cls-2" d="M829.4-139.1c-.7.4-1.2,1.1-1.6,1.9-.8,2,.2,4.3,2.2,5.1,1.2.5,2.5.4,3.6-.3.7-.4,1.3-1.1,1.6-1.9.4-1,.4-2.1,0-3-.4-1-1.2-1.7-2.2-2.1-1.2-.5-2.5-.4-3.6.3Z"/>
        </g>
        <g>
          <path class="cls-2" d="M93.1,1345.5c2.2,3.6,1.2,8.4-2.4,10.6-3.6,2.3-8.4,1.1-10.6-2.4-2.3-3.6-1.2-8.4,2.4-10.6,3.6-2.3,8.4-1.2,10.6,2.4ZM92.9,1345.7c-2.2-3.5-6.8-4.5-10.3-2.4-3.5,2.2-4.5,6.8-2.4,10.3,2.2,3.5,6.8,4.5,10.3,2.3,3.5-2.2,4.5-6.8,2.4-10.2Z"/>
          <path class="cls-2" d="M248.5,1170.2c2.2,3.6,1.2,8.4-2.4,10.6-3.6,2.3-8.4,1.2-10.6-2.4-2.3-3.6-1.2-8.4,2.4-10.6,3.6-2.3,8.4-1.2,10.6,2.4ZM248.3,1170.4c-2.2-3.5-6.8-4.5-10.3-2.3-3.5,2.2-4.5,6.8-2.4,10.3,2.2,3.5,6.8,4.5,10.3,2.3,3.5-2.2,4.5-6.8,2.4-10.3Z"/>
          <path class="cls-2" d="M402.1,1272.3c2.3,3.6,1.2,8.4-2.4,10.6-3.6,2.3-8.4,1.2-10.6-2.4-2.3-3.6-1.2-8.4,2.4-10.6,3.6-2.3,8.4-1.2,10.6,2.4ZM401.9,1272.4c-2.2-3.5-6.8-4.5-10.3-2.4-3.5,2.2-4.5,6.8-2.3,10.3,2.2,3.5,6.8,4.5,10.3,2.4,3.5-2.2,4.5-6.8,2.4-10.3Z"/>
          <path class="cls-2" d="M532.9,1334.1c2.2,3.6,1.2,8.4-2.4,10.6-3.6,2.3-8.4,1.2-10.6-2.4-2.3-3.6-1.2-8.4,2.4-10.6,3.6-2.3,8.4-1.2,10.6,2.4ZM532.7,1334.3c-2.2-3.5-6.8-4.5-10.3-2.4-3.5,2.2-4.5,6.8-2.4,10.3,2.2,3.5,6.8,4.6,10.3,2.4,3.5-2.2,4.5-6.8,2.4-10.3Z"/>
          <path class="cls-2" d="M568.9,1233.1c2.3,3.6,1.2,8.4-2.4,10.6-3.6,2.3-8.4,1.2-10.6-2.4-2.2-3.6-1.2-8.4,2.4-10.6,3.6-2.3,8.4-1.2,10.6,2.4ZM568.7,1233.2c-2.2-3.5-6.8-4.5-10.3-2.4-3.5,2.2-4.5,6.8-2.4,10.3,2.2,3.5,6.8,4.5,10.3,2.3,3.5-2.2,4.5-6.8,2.4-10.3Z"/>
          <path class="cls-2" d="M391.5,1187.9c2.3,3.6,1.2,8.4-2.4,10.6-3.6,2.3-8.4,1.1-10.6-2.4-2.2-3.6-1.2-8.4,2.4-10.6,3.6-2.3,8.4-1.2,10.6,2.4ZM391.3,1188c-2.2-3.5-6.8-4.6-10.3-2.4-3.5,2.2-4.5,6.8-2.3,10.3,2.2,3.5,6.8,4.5,10.3,2.4,3.5-2.2,4.5-6.8,2.4-10.3Z"/>
          <path class="cls-2" d="M881.5,1216.8c2.3,3.6,1.2,8.4-2.4,10.6-3.6,2.3-8.4,1.2-10.6-2.4-2.3-3.6-1.2-8.4,2.4-10.6,3.6-2.3,8.4-1.2,10.6,2.4ZM881.2,1216.9c-2.2-3.5-6.8-4.5-10.3-2.3-3.5,2.2-4.5,6.8-2.4,10.3,2.2,3.5,6.8,4.5,10.3,2.3,3.5-2.2,4.5-6.8,2.3-10.3Z"/>
          <path class="cls-2" d="M446.9,1021c2.3,3.6,1.2,8.4-2.4,10.6-3.6,2.2-8.4,1.2-10.6-2.4-2.2-3.6-1.2-8.4,2.4-10.6,3.6-2.3,8.4-1.2,10.6,2.4ZM446.7,1021.1c-2.2-3.5-6.8-4.5-10.3-2.4-3.5,2.2-4.5,6.8-2.4,10.3,2.2,3.5,6.8,4.5,10.3,2.4,3.5-2.2,4.5-6.8,2.4-10.3Z"/>
          <path class="cls-2" d="M721.9,815.6c2.3,3.6,1.2,8.4-2.4,10.6-3.6,2.3-8.3,1.2-10.6-2.4-2.3-3.6-1.2-8.4,2.4-10.6,3.6-2.3,8.4-1.2,10.6,2.4ZM721.7,815.8c-2.2-3.5-6.8-4.5-10.3-2.4-3.5,2.2-4.5,6.8-2.4,10.3,2.2,3.5,6.8,4.5,10.3,2.4,3.5-2.2,4.5-6.8,2.4-10.3Z"/>
          <path class="cls-2" d="M628.2,594.7c2.3,3.6,1.2,8.3-2.4,10.6-3.6,2.3-8.4,1.2-10.6-2.4-2.3-3.6-1.2-8.4,2.4-10.6,3.6-2.3,8.4-1.1,10.6,2.4ZM628,594.8c-2.2-3.5-6.8-4.5-10.3-2.4-3.5,2.2-4.5,6.8-2.4,10.3,2.2,3.5,6.8,4.5,10.3,2.4,3.5-2.2,4.5-6.8,2.4-10.3Z"/>
          <path class="cls-2" d="M932.3,633.7c2.3,3.6,1.2,8.4-2.4,10.6-3.6,2.3-8.4,1.2-10.6-2.4-2.3-3.6-1.2-8.4,2.4-10.6,3.6-2.3,8.4-1.2,10.6,2.4ZM932.1,633.9c-2.2-3.5-6.8-4.5-10.3-2.4-3.5,2.2-4.5,6.8-2.4,10.3,2.2,3.5,6.8,4.5,10.3,2.3,3.5-2.2,4.5-6.8,2.4-10.2Z"/>
          <path class="cls-2" d="M908.9,426.7c2.3,3.6,1.2,8.4-2.4,10.6-3.6,2.3-8.4,1.2-10.6-2.4-2.3-3.6-1.2-8.4,2.4-10.6,3.6-2.2,8.4-1.1,10.6,2.5ZM908.7,426.8c-2.2-3.5-6.8-4.5-10.3-2.4-3.5,2.2-4.5,6.8-2.4,10.3,2.2,3.5,6.8,4.5,10.3,2.4,3.5-2.2,4.5-6.8,2.4-10.3Z"/>
          <path class="cls-2" d="M767.5,349.1c2.3,3.6,1.2,8.4-2.4,10.6-3.6,2.3-8.4,1.2-10.6-2.4-2.3-3.6-1.2-8.4,2.4-10.6,3.6-2.3,8.4-1.2,10.6,2.4ZM767.3,349.3c-2.2-3.5-6.8-4.5-10.3-2.3-3.5,2.2-4.5,6.8-2.3,10.3,2.2,3.5,6.8,4.5,10.3,2.3,3.5-2.2,4.5-6.8,2.4-10.3Z"/>
          <path class="cls-2" d="M920.8,137.1c2.3,3.6,1.2,8.4-2.4,10.6-3.6,2.3-8.4,1.1-10.6-2.4-2.3-3.6-1.2-8.4,2.4-10.6,3.6-2.3,8.4-1.2,10.6,2.4ZM920.6,137.2c-2.2-3.5-6.8-4.5-10.3-2.4-3.5,2.2-4.5,6.8-2.3,10.3,2.2,3.5,6.8,4.5,10.3,2.4,3.5-2.2,4.5-6.8,2.4-10.3Z"/>
          <path class="cls-2" d="M821.6-40.7c2.3,3.6,1.2,8.4-2.4,10.6-3.6,2.3-8.4,1.2-10.6-2.4-2.3-3.6-1.2-8.4,2.4-10.6,3.6-2.2,8.4-1.2,10.6,2.4ZM821.4-40.6c-2.2-3.5-6.8-4.5-10.3-2.3-3.5,2.2-4.5,6.8-2.3,10.3,2.2,3.5,6.8,4.5,10.3,2.4,3.5-2.2,4.5-6.8,2.4-10.3Z"/>
          <path class="cls-2" d="M574,10.9c2.3,3.6,1.2,8.4-2.4,10.6-3.6,2.3-8.4,1.2-10.6-2.4-2.3-3.6-1.2-8.4,2.4-10.6,3.6-2.3,8.4-1.2,10.6,2.4ZM573.8,11c-2.2-3.5-6.8-4.5-10.3-2.4-3.5,2.2-4.5,6.8-2.3,10.3,2.2,3.5,6.8,4.5,10.3,2.4,3.5-2.2,4.5-6.8,2.4-10.3Z"/>
          <path class="cls-2" d="M991.6-185.7c2.3,3.6,1.2,8.4-2.4,10.6-3.6,2.3-8.4,1.2-10.6-2.4-2.3-3.6-1.2-8.4,2.4-10.6,3.6-2.3,8.4-1.2,10.6,2.4ZM991.4-185.5c-2.2-3.5-6.8-4.5-10.3-2.4-3.5,2.2-4.5,6.8-2.4,10.3,2.2,3.5,6.8,4.5,10.3,2.4,3.5-2.2,4.5-6.8,2.4-10.3Z"/>
          <path class="cls-2" d="M756.3-172.3c2.2,3.6,1.2,8.4-2.4,10.6-3.6,2.3-8.4,1.2-10.6-2.4-2.3-3.6-1.2-8.4,2.4-10.6,3.6-2.2,8.4-1.2,10.6,2.4ZM756-172.2c-2.2-3.5-6.8-4.5-10.3-2.3-3.5,2.2-4.5,6.8-2.4,10.3,2.2,3.5,6.8,4.5,10.3,2.4,3.5-2.2,4.5-6.8,2.4-10.3Z"/>
          <path class="cls-2" d="M725.1-317.6c2.3,3.6,1.2,8.4-2.4,10.6-3.6,2.3-8.4,1.2-10.6-2.4-2.3-3.6-1.2-8.4,2.4-10.6,3.6-2.3,8.4-1.2,10.6,2.4ZM724.8-317.5c-2.2-3.5-6.8-4.5-10.3-2.3-3.5,2.2-4.5,6.8-2.3,10.3,2.2,3.5,6.8,4.5,10.3,2.3,3.5-2.2,4.5-6.8,2.3-10.3Z"/>
          <path class="cls-2" d="M805.8,935.1c2.3,3.6,1.2,8.4-2.4,10.6-3.6,2.3-8.4,1.2-10.6-2.4-2.3-3.6-1.2-8.4,2.4-10.6,3.6-2.3,8.4-1.2,10.6,2.4ZM805.5,935.2c-2.2-3.5-6.8-4.5-10.3-2.4-3.5,2.2-4.5,6.8-2.4,10.3,2.2,3.5,6.8,4.5,10.3,2.4,3.5-2.2,4.5-6.8,2.4-10.3Z"/>
          <path class="cls-2" d="M978,790.1c2.3,3.6,1.2,8.4-2.4,10.6-3.6,2.2-8.4,1.2-10.6-2.4-2.2-3.6-1.1-8.4,2.4-10.6,3.6-2.3,8.4-1.1,10.6,2.4ZM977.7,790.2c-2.2-3.5-6.8-4.5-10.3-2.4-3.5,2.2-4.5,6.8-2.4,10.3,2.2,3.5,6.8,4.5,10.3,2.4,3.5-2.2,4.5-6.8,2.4-10.3Z"/>
          <path class="cls-2" d="M542.8,1036.4c2.3,3.6,1.2,8.4-2.4,10.6-3.6,2.3-8.4,1.2-10.6-2.4-2.3-3.6-1.2-8.4,2.4-10.6,3.6-2.3,8.4-1.2,10.6,2.4ZM542.6,1036.6c-2.2-3.5-6.8-4.5-10.3-2.4-3.5,2.2-4.5,6.8-2.4,10.3,2.2,3.5,6.8,4.5,10.3,2.4,3.5-2.2,4.5-6.8,2.4-10.3Z"/>
          <path class="cls-2" d="M816.4,1077.9c2.3,3.6,1.2,8.4-2.4,10.6-3.6,2.3-8.4,1.2-10.6-2.4-2.3-3.6-1.2-8.4,2.4-10.6,3.6-2.3,8.4-1.2,10.6,2.4ZM816.2,1078.1c-2.2-3.5-6.8-4.5-10.3-2.4-3.5,2.2-4.5,6.8-2.4,10.3,2.2,3.5,6.8,4.5,10.3,2.4,3.5-2.2,4.5-6.8,2.4-10.3Z"/>
        </g>
      </g>
    </g>
  </g>
</svg>