<?xml version="1.0" encoding="UTF-8"?>
<svg id="Ebene_1" data-name="Ebene 1" xmlns="http://www.w3.org/2000/svg" version="1.1" viewBox="0 0 220.1 244.9">
  <defs>
    <style>
      .cls-1 {
        fill: #dc0613;
        stroke-width: 0px;
      }
    </style>
  </defs>
  <path class="cls-1" d="M211.7,0H8.5C3.8,0,0,3.8,0,8.5v139.6c0,5.1,1.7,10,4.8,13.9l62.6,80.5c5.1,5.1,13.8,1.5,13.8-5.7V38.3c0-8.1,6.6-14.6,14.7-14.6h45.2c31.3,0,56.6,26,55.4,57.5-1.1,30-26.7,53.3-56.7,53.3h-21.8c-4,0-7.5,2.8-8.3,6.8-.6,2.9.5,5.9,2.6,7.9l93.2,93.2c1.6,1.6,3.7,2.5,6,2.5h.1c4.7,0,8.5-3.8,8.5-8.5V8.5c0-4.7-3.8-8.5-8.5-8.5"/>
</svg>