<?xml version="1.0" encoding="UTF-8"?>
<svg id="Ebene_1" data-name="Ebene 1" xmlns="http://www.w3.org/2000/svg" version="1.1" viewBox="0 0 758.6 844.2">
  <defs>
    <style>
      .cls-1 {
        fill: #232830;
        opacity: 1;
        stroke-width: 0px;
      }
    </style>
  </defs>
  <path class="cls-1" d="M729.4,0H29.2C13.1,0,0,13.1,0,29.2v481.2c0,17.4,5.8,34.3,16.5,48.1l215.6,277.5c17.6,17.6,47.7,5.1,47.7-19.7l.2-684.3c0-27.8,22.6-50.4,50.4-50.4h155.9c107.7,0,194.9,89.7,190.8,198.3-3.9,103.3-92.1,183.6-195.5,183.6h-75c-13.7,0-25.8,9.6-28.7,23.5-2,9.9,1.9,20.2,9.1,27.3l321.3,321.3c5.5,5.5,12.9,8.6,20.6,8.6h.4c16.1,0,29.2-13.1,29.2-29.2V29.2c0-16.1-13.1-29.2-29.2-29.2"/>
</svg>