<?xml version="1.0" encoding="UTF-8"?>
<svg id="Ebene_1" data-name="Ebene 1" xmlns="http://www.w3.org/2000/svg" version="1.1" viewBox="0 0 111.8 72.9">
  <defs>
    <style>
      .cls-1 {
        fill: #333;
      }

      .cls-1, .cls-2 {
        stroke-width: 0px;
      }

      .cls-2 {
        fill: #dc0613;
      }
    </style>
  </defs>
  <path class="cls-1" d="M86.6,57.2c.3-.3.7-.4,1.1-.1l1.2.8c.5.3.5.9.2,1.3-2,2.1-4.9,3.4-8.3,3.4-6.7,0-11.4-5-11.4-11.6s4.8-11.7,11.4-11.7,6.2,1.3,8.3,3.4c.4.4.3,1-.2,1.3l-1.2.8c-.4.2-.8.2-1.1-.1-1.4-1.4-3.3-2.4-5.8-2.4-5.2,0-8.2,4.3-8.2,8.6s2.9,8.6,8.2,8.6,4.4-.9,5.8-2.4"/>
  <path class="cls-1" d="M42.8,61.4l-7.8-21c-.2-.4-.6-.7-1.1-.7h-2.1c-.5,0-.9.3-1.1.7l-7.8,21c-.2.4.1.8.5.8h1.9c.5,0,.9-.3,1.1-.8l1.6-4.7h0l2.6-7.3,2.2-6.3,1.6,4.4h0c0,0,2.2,6.3,2.2,6.3h0l1,2.9h0l1.1,3.2h0s.5,1.4.5,1.4c.2.4.6.8,1.1.8h1.8c.4,0,.7-.4.5-.8"/>
  <path class="cls-1" d="M110.9,39.7h-1.5c-.5,0-.9.4-.9.9v8.8h-10.7v-8.8c0-.5-.4-.9-.9-.9h-1.5c-.5,0-.9.4-.9.9v20.8c0,.5.4.9.9.9h1.5c.5,0,.9-.4.9-.9v-9h10.7v9c0,.5.4.9.9.9h1.5c.5,0,.9-.4.9-.9v-20.8c0-.5-.4-.9-.9-.9"/>
  <path class="cls-1" d="M63.6,39.7c.5,0,.9.4.9.9v13.1c0,5.9-3.1,8.9-8.6,8.9s-8.6-3.1-8.6-8.9v-13.1c0-.5.4-.9.9-.9h1.5c.5,0,.9.4.9.9v12.5c0,4.8,2.1,6.5,5.3,6.5s5.3-1.7,5.3-6.5v-12.5c0-.5.4-.9.9-.9h1.5Z"/>
  <path class="cls-1" d="M17.9,61.1l-4.8-8.4c2.6-1.1,4.1-3.4,4.1-6.1,0-3.9-2.9-6.9-8.1-6.9H.9C.4,39.7,0,40.1,0,40.6v1.2C0,42.2.4,42.6.9,42.6h8.2c3.1,0,4.8,1.6,4.8,4s-1.7,4-4.8,4H.9v2.9h8.2c.3,0,.6,0,.9,0l4.3,7.9c.2.5.7.8,1.3.8h1.8c.5,0,.9-.6.6-1.1"/>
  <path class="cls-2" d="M49.3,68.4h.4c0,0,.1,0,.1.1l-1.3,4.1c0,0-.1.2-.2.2h-.3c-.1,0-.2,0-.2-.2l-.9-3-.9,3c0,0-.1.2-.2.2h-.3c0,0-.2,0-.2-.2l-1.3-4.1c0,0,0-.1.1-.1h.4c.1,0,.2,0,.2.2l1,3.3,1-3.3c0,0,.1-.2.2-.2h.1c.1,0,.2,0,.2.2l1,3.3,1-3.3c0,0,.1-.2.2-.2"/>
  <path class="cls-2" d="M51.5,68.4h.3c0,0,.2,0,.2.2v4.1c0,0,0,.2-.2.2h-.3c0,0-.2,0-.2-.2v-4.1c0,0,0-.2.2-.2"/>
  <path class="cls-2" d="M56.5,68.6v.2c0,0,0,.2-.2.2h-.9v3.7c0,0,0,.2-.2.2h-.3c0,0-.2,0-.2-.2v-3.7h-.9c0,0-.2,0-.2-.2v-.2c0,0,0-.2.2-.2h2.5c0,0,.2,0,.2.2"/>
  <path class="cls-2" d="M61,68.4h.3c0,0,.2,0,.2.2v4.1c0,0,0,.2-.2.2h-.3c0,0-.2,0-.2-.2v-1.8h-2.1v1.8c0,0,0,.2-.2.2h-.3c0,0-.2,0-.2-.2v-4.1c0,0,0-.2.2-.2h.3c0,0,.2,0,.2.2v1.7h2.1v-1.7c0,0,0-.2.2-.2"/>
  <path class="cls-2" d="M68.6,68.6v.2c0,0,0,.2-.2.2h-.9v3.7c0,0,0,.2-.2.2h-.3c0,0-.2,0-.2-.2v-3.7h-.9c0,0-.2,0-.2-.2v-.2c0,0,0-.2.2-.2h2.5c0,0,.2,0,.2.2"/>
  <path class="cls-2" d="M71.6,70.6c.6,0,.9-.3.9-.8s-.3-.8-.9-.8h-.7v1.6h.7ZM73.2,72.8h-.3c-.1,0-.2,0-.2-.2l-.8-1.6c0,0-.1,0-.2,0h-.7v1.5c0,0,0,.2-.2.2h-.3c0,0-.2,0-.2-.2v-4.1c0,0,0-.2.2-.2h1.2c1,0,1.6.6,1.6,1.4s-.3,1-.8,1.2l.9,1.6c0,0,0,.2-.1.2"/>
  <path class="cls-2" d="M78.1,68.4c0,0,.2,0,.2.2v2.6c0,1.1-.6,1.8-1.7,1.8s-1.7-.6-1.7-1.8v-2.6c0,0,0-.2.2-.2h.3c0,0,.2,0,.2.2v2.4c0,.9.4,1.3,1,1.3s1-.3,1-1.3v-2.4c0,0,0-.2.2-.2h.3Z"/>
  <path class="cls-2" d="M82.9,71.6c0,.6-.4,1.3-1.6,1.3s-1.2-.2-1.5-.8c0,0,0-.2.1-.2h.3c0-.1.2,0,.2,0,.1.2.4.5.9.5s.9-.2.9-.7-.5-.6-1.2-.8c-.9-.2-1.1-.7-1.1-1.3s.6-1.3,1.5-1.3,1,.3,1.3.8c0,0,0,.2-.1.2h-.3c0,0-.2,0-.2,0-.1-.2-.4-.4-.9-.4-.3,0-.6.3-.6.7,0,.6.5.6,1.1.8.9.2,1.2.5,1.2,1.2"/>
  <path class="cls-2" d="M87.1,68.6v.2c0,0,0,.2-.2.2h-.9v3.7c0,0,0,.2-.2.2h-.3c0,0-.2,0-.2-.2v-3.7h-.9c0,0-.2,0-.2-.2v-.2c0,0,0-.2.2-.2h2.5c0,0,.2,0,.2.2"/>
  <path class="cls-2" d="M88.8,72.5c0,.2-.2.4-.4.4s-.4-.2-.4-.4.2-.4.4-.4.4.2.4.4"/>
  <path class="cls-2" d="M27,68.4h.3c0,0,.2,0,.2.2v4.1c0,0,0,.2-.2.2h-.3c0,0-.2,0-.2-.2v-3.1l-1.5,2.2s0,0-.1,0h0c0,0,0,0-.1,0l-1.5-2.2v3.1c0,0,0,.2-.2.2h-.3c0,0-.2,0-.2-.2v-4.1c0,0,0-.2.2-.2h.3c0,0,.2,0,.2.1l1.5,2.3,1.5-2.3c0,0,.1-.1.2-.1"/>
  <path class="cls-2" d="M31.6,72.3c0,0,.2,0,.2.2v.2c0,0,0,.2-.2.2h-2.2c0,0-.2,0-.2-.2v-4.1c0,0,0-.2.2-.2h2.1c0,0,.2,0,.2.2v.2c0,0,0,.2-.2.2h-1.6v1.3h1.5c0,0,.2,0,.2.2v.2c0,0,0,.2-.2.2h-1.5v1.4h1.7Z"/>
  <path class="cls-2" d="M35.8,72.3c0,0,.2,0,.2.2v.2c0,0,0,.2-.2.2h-2.1c0,0-.2,0-.2-.2v-4.1c0,0,0-.2.2-.2h.3c0,0,.2,0,.2.2v3.7h1.6Z"/>
  <path class="cls-2" d="M39.9,68.6v.2c0,0,0,.2-.2.2h-.9v3.7c0,0,0,.2-.2.2h-.3c0,0-.2,0-.2-.2v-3.7h-.9c0,0-.2,0-.2-.2v-.2c0,0,0-.2.2-.2h2.5c0,0,.2,0,.2.2"/>
  <path class="cls-2" d="M68.3,0h-24.7c-.6,0-1,.5-1,1v17c0,.6.2,1.2.6,1.7l7.6,9.8c.6.6,1.7.2,1.7-.7V4.7c0-1,.8-1.8,1.8-1.8h5.5c3.8,0,6.9,3.2,6.7,7-.1,3.6-3.3,6.5-6.9,6.5h-2.6c-.5,0-.9.3-1,.8,0,.4,0,.7.3,1l11.3,11.3c.2.2.5.3.7.3h0c.6,0,1-.5,1-1V1c0-.6-.5-1-1-1"/>
</svg>