<?xml version="1.0" encoding="UTF-8"?>
<svg id="Ebene_1" data-name="Ebene 1" xmlns="http://www.w3.org/2000/svg" version="1.1" viewBox="0 0 26.2 26.2">
  <defs>
    <style>
      .cls-1, .cls-2, .cls-3 {
        stroke-width: 0px;
      }

      .cls-1, .cls-3 {
        fill: #f00000;
      }

      .cls-2 {
        fill: #fff;
      }

      .cls-2, .cls-3 {
        fill-rule: evenodd;
      }
    </style>
  </defs>
  <rect class="cls-1" x="1" y="1" width="24.1" height="24.1" rx="12" ry="12"/>
  <g>
    <path class="cls-2" d="M8.7,8c1.4-.1,3.1-.2,4.4-.2h0c1.3,0,3,0,4.4.2,1.7.1,2.6.4,2.8,2.1.1.8.2,1.8.2,2.9h0c0,1.1,0,2.2-.2,2.9-.2,1.7-1.1,2-2.8,2.1-1.5.1-3.1.2-4.4.2h0c-1.3,0-3,0-4.4-.2-1.7-.1-2.6-.4-2.8-2.1,0-.7-.1-1.8-.1-2.9h0c0-1.1,0-2.2.1-2.9.2-1.7,1.1-2,2.8-2.1h0Z"/>
    <polygon class="cls-3" points="11.6 10.8 15.5 13.1 11.6 15.3 11.6 10.8"/>
  </g>
</svg>