<?xml version="1.0" encoding="UTF-8"?>
<svg id="Ebene_1" data-name="Ebene 1" xmlns="http://www.w3.org/2000/svg" version="1.1" viewBox="0 0 26.2 26.2">
  <defs>
    <style>
      .cls-1 {
        fill: #0b66b5;
      }

      .cls-1, .cls-2 {
        stroke-width: 0px;
      }

      .cls-2 {
        fill: #fff;
        fill-rule: evenodd;
      }
    </style>
  </defs>
  <rect class="cls-1" x="1" y="1" width="24.1" height="24.1" rx="12" ry="12"/>
  <path class="cls-2" d="M6.4,10.7h2.7v9.1h-2.7v-9.1ZM7.7,6c.9,0,1.6.7,1.6,1.6s-.7,1.6-1.6,1.6-1.6-.7-1.6-1.6.7-1.6,1.6-1.6h0ZM10.7,10.7h2.7v1.3c.6-.8,1.5-1.4,2.6-1.4h.7c1.7,0,3.1,1.4,3.1,3.1v6.1h-2.7v-.8h0v-4.1h0c0-1-.7-1.8-1.8-1.8h0c-1,0-1.9.8-1.9,1.8h0v4.9h-2.7v-9.1Z"/>
</svg>