<?xml version="1.0" encoding="UTF-8"?>
<svg id="Ebene_1" data-name="Ebene 1" xmlns="http://www.w3.org/2000/svg" xmlns:xlink="http://www.w3.org/1999/xlink" version="1.1" viewBox="0 0 26.2 26.2">
  <defs>
    <style>
      .cls-1 {
        fill: url(#linear-gradient);
      }

      .cls-1, .cls-2 {
        stroke-width: 0px;
      }

      .cls-2 {
        fill: #fff;
        fill-rule: evenodd;
      }
    </style>
    <linearGradient id="linear-gradient" x1="3.9" y1="5.3" x2="22.3" y2="20.8" gradientUnits="userSpaceOnUse">
      <stop offset="0" stop-color="#0488ed"/>
      <stop offset=".1" stop-color="#3f72ff"/>
      <stop offset=".3" stop-color="#784aff"/>
      <stop offset=".4" stop-color="#a238e0"/>
      <stop offset=".6" stop-color="#bf40b0"/>
      <stop offset=".7" stop-color="#ff415a"/>
      <stop offset=".9" stop-color="#e9861e"/>
      <stop offset=".9" stop-color="#ffda00"/>
    </linearGradient>
  </defs>
  <rect class="cls-1" x="1" y="1" width="24.1" height="24.1" rx="12" ry="12"/>
  <path class="cls-2" d="M9.6,5.4h7.1c2.3,0,4.1,1.9,4.1,4.1v7c0,2.3-1.9,4.1-4.1,4.1h-7.1c-2.3,0-4.1-1.9-4.1-4.1v-7c0-2.3,1.9-4.1,4.1-4.1h0ZM17.2,8.1h0c.5,0,.9.4.9.9h0c0,.5-.4.9-.9.9h0c-.5,0-.9-.4-.9-.9h0c0-.5.4-.9.9-.9h0ZM13.1,8.9h0c2.3,0,4.2,1.9,4.2,4.2h0c0,2.3-1.9,4.2-4.2,4.2h0c-2.3,0-4.1-1.9-4.1-4.2h0c0-2.3,1.9-4.2,4.1-4.2h0ZM13.1,10.3h0c1.5,0,2.8,1.2,2.8,2.8h0c0,1.5-1.2,2.8-2.8,2.8h0c-1.5,0-2.8-1.2-2.8-2.8h0c0-1.5,1.2-2.8,2.8-2.8h0ZM9.6,6.7h7c1.6,0,2.9,1.3,2.9,2.9v7c0,1.6-1.3,2.9-2.9,2.9h-7c-1.6,0-2.9-1.3-2.9-2.9v-7c0-1.6,1.3-2.9,2.9-2.9h0Z"/>
</svg>